G04*
G04 #@! TF.GenerationSoftware,Altium Limited,Altium Designer,22.11.1 (43)*
G04*
G04 Layer_Color=8388736*
%FSLAX25Y25*%
%MOIN*%
G70*
G04*
G04 #@! TF.SameCoordinates,D2032E32-7B9E-4814-9484-8CEA1A25EAEB*
G04*
G04*
G04 #@! TF.FilePolarity,Positive*
G04*
G01*
G75*
%ADD10C,0.01181*%
%ADD11C,0.01000*%
%ADD69C,0.01968*%
G36*
X30713Y187758D02*
X28587D01*
Y188270D01*
X30713D01*
Y187758D01*
D02*
G37*
G36*
X23608Y188243D02*
X24418D01*
Y187731D01*
X23608D01*
Y186925D01*
X23096D01*
Y187731D01*
X22292D01*
Y188243D01*
X23096D01*
Y189051D01*
X23608D01*
Y188243D01*
D02*
G37*
G36*
X62299Y43575D02*
X61354D01*
Y45150D01*
X62299D01*
Y43575D01*
D02*
G37*
G36*
X52063Y41764D02*
X50173D01*
Y42236D01*
X52063D01*
Y41764D01*
D02*
G37*
G36*
X61118Y42236D02*
X61827D01*
Y41764D01*
X61118D01*
Y40425D01*
X60646D01*
Y41764D01*
X59937D01*
Y42236D01*
X60646D01*
Y43575D01*
X61118D01*
Y42236D01*
D02*
G37*
G36*
X62299Y38850D02*
X61354D01*
Y40425D01*
X62299D01*
Y38850D01*
D02*
G37*
G36*
X25236Y32437D02*
X24764D01*
Y34327D01*
X25236D01*
Y32437D01*
D02*
G37*
G36*
Y23854D02*
X26575D01*
Y23382D01*
X25236D01*
Y22673D01*
X24764D01*
Y23382D01*
X23425D01*
Y23854D01*
X24764D01*
Y24563D01*
X25236D01*
Y23854D01*
D02*
G37*
G36*
X28150Y22201D02*
X26575D01*
Y23146D01*
X28150D01*
Y22201D01*
D02*
G37*
G36*
X23425D02*
X21850D01*
Y23146D01*
X23425D01*
Y22201D01*
D02*
G37*
D10*
X105919Y153178D02*
X105327Y153769D01*
X104736Y153178D01*
X105327Y152587D01*
X105919Y153178D01*
X91918Y88957D02*
X91328Y89548D01*
X90737Y88957D01*
X91328Y88366D01*
X91918Y88957D01*
X44418Y90457D02*
X43828Y91048D01*
X43237Y90457D01*
X43828Y89866D01*
X44418Y90457D01*
D11*
X53677Y171501D02*
X52927Y171933D01*
Y171068D01*
X53677Y171501D01*
D69*
X32064Y30113D02*
X31572Y30965D01*
X30588D01*
X30096Y30113D01*
X30588Y29261D01*
X31572D01*
X32064Y30113D01*
M02*
