G04*
G04 #@! TF.GenerationSoftware,Altium Limited,Altium Designer,22.11.1 (43)*
G04*
G04 Layer_Color=16711935*
%FSLAX25Y25*%
%MOIN*%
G70*
G04*
G04 #@! TF.SameCoordinates,D2032E32-7B9E-4814-9484-8CEA1A25EAEB*
G04*
G04*
G04 #@! TF.FilePolarity,Positive*
G04*
G01*
G75*
%ADD11C,0.01000*%
%ADD18C,0.01200*%
D11*
X11811Y7874D02*
X11687Y8853D01*
X11324Y9771D01*
X10744Y10569D01*
X9984Y11198D01*
X9091Y11618D01*
X8121Y11803D01*
X7136Y11741D01*
X6198Y11436D01*
X5364Y10908D01*
X4689Y10188D01*
X4214Y9323D01*
X3968Y8367D01*
Y7381D01*
X4214Y6425D01*
X4689Y5560D01*
X5364Y4840D01*
X6198Y4312D01*
X7136Y4007D01*
X8121Y3945D01*
X9091Y4130D01*
X9984Y4550D01*
X10744Y5179D01*
X11324Y5977D01*
X11687Y6895D01*
X11811Y7874D01*
X161417Y7874D02*
X161294Y8853D01*
X160930Y9771D01*
X160350Y10569D01*
X159590Y11198D01*
X158697Y11618D01*
X157728Y11803D01*
X156743Y11741D01*
X155804Y11436D01*
X154971Y10908D01*
X154295Y10188D01*
X153820Y9323D01*
X153574Y8367D01*
Y7381D01*
X153820Y6425D01*
X154295Y5560D01*
X154971Y4840D01*
X155804Y4312D01*
X156743Y4007D01*
X157728Y3945D01*
X158697Y4130D01*
X159590Y4550D01*
X160350Y5179D01*
X160930Y5977D01*
X161294Y6895D01*
X161417Y7874D01*
X161417Y188976D02*
X161294Y189955D01*
X160930Y190873D01*
X160350Y191672D01*
X159590Y192300D01*
X158697Y192721D01*
X157728Y192906D01*
X156743Y192844D01*
X155804Y192539D01*
X154971Y192010D01*
X154295Y191290D01*
X153820Y190426D01*
X153574Y189470D01*
Y188483D01*
X153820Y187527D01*
X154295Y186662D01*
X154971Y185943D01*
X155804Y185414D01*
X156743Y185109D01*
X157728Y185047D01*
X158697Y185232D01*
X159590Y185652D01*
X160350Y186281D01*
X160930Y187080D01*
X161294Y187997D01*
X161417Y188976D01*
X11811Y188976D02*
X11687Y189955D01*
X11324Y190873D01*
X10744Y191672D01*
X9984Y192300D01*
X9091Y192721D01*
X8121Y192906D01*
X7136Y192844D01*
X6198Y192539D01*
X5364Y192010D01*
X4689Y191290D01*
X4214Y190426D01*
X3968Y189470D01*
Y188483D01*
X4214Y187527D01*
X4689Y186662D01*
X5364Y185943D01*
X6198Y185414D01*
X7136Y185109D01*
X8121Y185047D01*
X9091Y185232D01*
X9984Y185652D01*
X10744Y186281D01*
X11324Y187080D01*
X11687Y187997D01*
X11811Y188976D01*
X15748Y188976D02*
X15683Y189983D01*
X15491Y190974D01*
X15173Y191931D01*
X14735Y192840D01*
X14184Y193686D01*
X13530Y194454D01*
X12783Y195133D01*
X11956Y195710D01*
X11061Y196177D01*
X10114Y196525D01*
X9131Y196749D01*
X8126Y196846D01*
X7118Y196814D01*
X6122Y196653D01*
X5155Y196366D01*
X4232Y195958D01*
X3369Y195434D01*
X2580Y194805D01*
X1878Y194080D01*
X1275Y193272D01*
X780Y192393D01*
X401Y191457D01*
X145Y190482D01*
X16Y189481D01*
Y188472D01*
X145Y187471D01*
X401Y186495D01*
X780Y185560D01*
X1275Y184681D01*
X1878Y183872D01*
X2580Y183147D01*
X3369Y182518D01*
X4232Y181995D01*
X5155Y181587D01*
X6122Y181300D01*
X7118Y181139D01*
X8126Y181106D01*
X9131Y181203D01*
X10114Y181428D01*
X11061Y181776D01*
X11956Y182243D01*
X12783Y182820D01*
X13530Y183499D01*
X14184Y184267D01*
X14735Y185112D01*
X15173Y186021D01*
X15491Y186979D01*
X15683Y187970D01*
X15748Y188976D01*
X165354Y188976D02*
X165290Y189983D01*
X165097Y190974D01*
X164779Y191931D01*
X164341Y192840D01*
X163791Y193686D01*
X163137Y194454D01*
X162390Y195133D01*
X161562Y195710D01*
X160668Y196177D01*
X159721Y196525D01*
X158737Y196749D01*
X157733Y196846D01*
X156724Y196814D01*
X155728Y196653D01*
X154761Y196366D01*
X153838Y195958D01*
X152975Y195434D01*
X152187Y194805D01*
X151485Y194080D01*
X150881Y193272D01*
X150386Y192393D01*
X150007Y191457D01*
X149751Y190482D01*
X149622Y189481D01*
Y188472D01*
X149751Y187471D01*
X150007Y186495D01*
X150386Y185560D01*
X150881Y184681D01*
X151485Y183872D01*
X152187Y183147D01*
X152975Y182518D01*
X153838Y181995D01*
X154761Y181587D01*
X155728Y181300D01*
X156724Y181139D01*
X157733Y181106D01*
X158737Y181203D01*
X159721Y181428D01*
X160668Y181776D01*
X161562Y182243D01*
X162390Y182820D01*
X163137Y183499D01*
X163791Y184267D01*
X164341Y185112D01*
X164779Y186021D01*
X165097Y186979D01*
X165290Y187970D01*
X165354Y188976D01*
X165354Y7874D02*
X165290Y8881D01*
X165097Y9871D01*
X164779Y10829D01*
X164341Y11738D01*
X163791Y12584D01*
X163137Y13352D01*
X162390Y14030D01*
X161562Y14607D01*
X160668Y15074D01*
X159721Y15423D01*
X158737Y15647D01*
X157733Y15744D01*
X156724Y15712D01*
X155728Y15551D01*
X154761Y15263D01*
X153838Y14855D01*
X152975Y14332D01*
X152187Y13703D01*
X151485Y12978D01*
X150881Y12170D01*
X150386Y11290D01*
X150007Y10355D01*
X149751Y9379D01*
X149622Y8378D01*
Y7369D01*
X149751Y6369D01*
X150007Y5393D01*
X150386Y4458D01*
X150881Y3579D01*
X151485Y2770D01*
X152187Y2045D01*
X152975Y1416D01*
X153838Y893D01*
X154761Y484D01*
X155728Y197D01*
X156724Y36D01*
X157733Y4D01*
X158737Y101D01*
X159721Y326D01*
X160668Y674D01*
X161562Y1141D01*
X162390Y1718D01*
X163137Y2396D01*
X163791Y3164D01*
X164341Y4010D01*
X164779Y4919D01*
X165097Y5877D01*
X165290Y6867D01*
X165354Y7874D01*
X15748Y7874D02*
X15683Y8881D01*
X15491Y9871D01*
X15173Y10829D01*
X14735Y11738D01*
X14184Y12584D01*
X13530Y13352D01*
X12783Y14030D01*
X11956Y14607D01*
X11061Y15074D01*
X10114Y15423D01*
X9131Y15647D01*
X8126Y15744D01*
X7118Y15712D01*
X6122Y15551D01*
X5155Y15263D01*
X4232Y14855D01*
X3369Y14332D01*
X2580Y13703D01*
X1878Y12978D01*
X1275Y12170D01*
X780Y11290D01*
X401Y10355D01*
X145Y9379D01*
X16Y8378D01*
Y7369D01*
X145Y6369D01*
X401Y5393D01*
X780Y4458D01*
X1275Y3579D01*
X1878Y2770D01*
X2580Y2045D01*
X3369Y1416D01*
X4232Y893D01*
X5155Y484D01*
X6122Y197D01*
X7118Y36D01*
X8126Y4D01*
X9131Y101D01*
X10114Y326D01*
X11061Y674D01*
X11956Y1141D01*
X12783Y1718D01*
X13530Y2396D01*
X14184Y3164D01*
X14735Y4010D01*
X15173Y4919D01*
X15491Y5877D01*
X15683Y6867D01*
X15748Y7874D01*
D18*
X110500Y34000D02*
Y50500D01*
Y34000D02*
X111000Y33500D01*
X128000D01*
Y50500D01*
X110500D02*
X128000D01*
M02*
