G04*
G04 #@! TF.GenerationSoftware,Altium Limited,Altium Designer,22.11.1 (43)*
G04*
G04 Layer_Physical_Order=4*
G04 Layer_Color=16711680*
%FSLAX25Y25*%
%MOIN*%
G70*
G04*
G04 #@! TF.SameCoordinates,D2032E32-7B9E-4814-9484-8CEA1A25EAEB*
G04*
G04*
G04 #@! TF.FilePolarity,Positive*
G04*
G01*
G75*
%ADD11C,0.01000*%
%ADD15C,0.00600*%
%ADD57O,0.03937X0.04724*%
%ADD58R,0.03937X0.04724*%
%ADD59C,0.05906*%
%ADD60C,0.02500*%
G36*
X151410Y196380D02*
X150678Y195779D01*
X149481Y194321D01*
X148592Y192658D01*
X148045Y190853D01*
X147860Y188976D01*
X148045Y187100D01*
X148592Y185295D01*
X149481Y183632D01*
X150678Y182174D01*
X152136Y180977D01*
X153799Y180088D01*
X155604Y179541D01*
X157480Y179356D01*
X159357Y179541D01*
X161162Y180088D01*
X162825Y180977D01*
X164283Y182174D01*
X164884Y182906D01*
X165354Y182737D01*
Y14113D01*
X164884Y13945D01*
X164283Y14677D01*
X162825Y15873D01*
X161162Y16762D01*
X159357Y17310D01*
X157480Y17494D01*
X155604Y17310D01*
X153799Y16762D01*
X152136Y15873D01*
X150678Y14677D01*
X149481Y13219D01*
X148592Y11556D01*
X148045Y9751D01*
X147860Y7874D01*
X148045Y5997D01*
X148592Y4192D01*
X149481Y2529D01*
X150678Y1071D01*
X151410Y471D01*
X151241Y0D01*
X14113D01*
X13945Y471D01*
X14677Y1071D01*
X15873Y2529D01*
X16762Y4192D01*
X17310Y5997D01*
X17494Y7874D01*
X17310Y9751D01*
X16762Y11556D01*
X15873Y13219D01*
X14677Y14677D01*
X13219Y15873D01*
X11556Y16762D01*
X9751Y17310D01*
X7874Y17494D01*
X5997Y17310D01*
X4192Y16762D01*
X2529Y15873D01*
X1071Y14677D01*
X471Y13945D01*
X0Y14113D01*
Y182737D01*
X471Y182906D01*
X1071Y182174D01*
X2529Y180977D01*
X4192Y180088D01*
X5997Y179541D01*
X7874Y179356D01*
X9751Y179541D01*
X11556Y180088D01*
X13219Y180977D01*
X14677Y182174D01*
X15873Y183632D01*
X16762Y185295D01*
X17310Y187100D01*
X17494Y188976D01*
X17310Y190853D01*
X16762Y192658D01*
X15873Y194321D01*
X14677Y195779D01*
X13945Y196380D01*
X14113Y196850D01*
X151241D01*
X151410Y196380D01*
D02*
G37*
%LPC*%
G36*
X69935Y181950D02*
X68961D01*
X68060Y181577D01*
X67371Y180888D01*
X66998Y179987D01*
Y179626D01*
X66975Y179528D01*
X66974Y179486D01*
X66971Y179481D01*
X66962Y179465D01*
X66961Y179464D01*
X64730Y177233D01*
X38500D01*
X37950Y177124D01*
X37450Y177399D01*
Y177487D01*
X37077Y178388D01*
X36388Y179077D01*
X35487Y179450D01*
X34513D01*
X33612Y179077D01*
X32923Y178388D01*
X32550Y177487D01*
Y176513D01*
X32923Y175612D01*
X33612Y174923D01*
X34427Y174585D01*
X34637Y174088D01*
X16274Y155726D01*
X15899Y155163D01*
X15767Y154500D01*
Y130284D01*
X15766Y130282D01*
X15762Y130265D01*
X15760Y130259D01*
X15731Y130228D01*
X15679Y130143D01*
X15423Y129888D01*
X15050Y128987D01*
Y128013D01*
X15423Y127112D01*
X16112Y126423D01*
X17013Y126050D01*
X17987D01*
X18888Y126423D01*
X19577Y127112D01*
X19950Y128013D01*
Y128987D01*
X19577Y129888D01*
X19321Y130143D01*
X19269Y130228D01*
X19240Y130259D01*
X19238Y130265D01*
X19233Y130282D01*
X19233Y130284D01*
Y153782D01*
X39218Y173767D01*
X65448D01*
X66111Y173899D01*
X66674Y174274D01*
X69412Y177013D01*
X69414Y177014D01*
X69429Y177023D01*
X69434Y177026D01*
X69476Y177027D01*
X69574Y177050D01*
X69935D01*
X70836Y177423D01*
X71525Y178112D01*
X71898Y179013D01*
Y179987D01*
X71525Y180888D01*
X70836Y181577D01*
X69935Y181950D01*
D02*
G37*
G36*
X120000Y175733D02*
X91500D01*
X90837Y175601D01*
X90274Y175226D01*
X86282Y171233D01*
X45000D01*
X44337Y171101D01*
X43774Y170726D01*
X27774Y154726D01*
X27399Y154163D01*
X27267Y153500D01*
Y135000D01*
X27399Y134337D01*
X27774Y133774D01*
X32274Y129274D01*
X32837Y128899D01*
X33500Y128767D01*
X51682D01*
X55767Y124682D01*
Y123218D01*
X55536Y122987D01*
X55535Y122986D01*
X55519Y122977D01*
X55514Y122974D01*
X55472Y122973D01*
X55374Y122950D01*
X55013D01*
X54112Y122577D01*
X53423Y121888D01*
X53050Y120987D01*
Y120013D01*
X53423Y119112D01*
X54112Y118423D01*
X55013Y118050D01*
X55987D01*
X56888Y118423D01*
X57577Y119112D01*
X57950Y120013D01*
Y120374D01*
X57970Y120459D01*
X58015Y120503D01*
X58318Y120733D01*
X58767Y120535D01*
Y110529D01*
X58267Y110430D01*
X58077Y110888D01*
X57388Y111577D01*
X56487Y111950D01*
X55513D01*
X54612Y111577D01*
X53923Y110888D01*
X53550Y109987D01*
Y109626D01*
X53527Y109528D01*
X53526Y109486D01*
X53523Y109481D01*
X53514Y109465D01*
X53513Y109464D01*
X50332Y106283D01*
X35234D01*
X35232Y106283D01*
X35215Y106288D01*
X35209Y106290D01*
X35178Y106319D01*
X35094Y106371D01*
X34838Y106627D01*
X33937Y107000D01*
X32963D01*
X32062Y106627D01*
X31373Y105938D01*
X31000Y105037D01*
Y104063D01*
X31373Y103162D01*
X32062Y102473D01*
X32963Y102100D01*
X33937D01*
X34838Y102473D01*
X35094Y102729D01*
X35178Y102781D01*
X35209Y102810D01*
X35215Y102812D01*
X35232Y102816D01*
X35234Y102817D01*
X44091D01*
X44191Y102317D01*
X43612Y102077D01*
X42923Y101388D01*
X42550Y100487D01*
Y99513D01*
X42923Y98612D01*
X43612Y97923D01*
X44513Y97550D01*
X45487D01*
X46388Y97923D01*
X47077Y98612D01*
X47450Y99513D01*
Y100487D01*
X47077Y101388D01*
X46388Y102077D01*
X45809Y102317D01*
X45909Y102817D01*
X50946D01*
X51197Y102587D01*
X51339Y102364D01*
X51267Y102000D01*
Y86284D01*
X51266Y86282D01*
X51262Y86265D01*
X51260Y86259D01*
X51231Y86228D01*
X51179Y86143D01*
X50923Y85888D01*
X50550Y84987D01*
Y84013D01*
X50923Y83112D01*
X51612Y82423D01*
X52513Y82050D01*
X53487D01*
X54388Y82423D01*
X55077Y83112D01*
X55450Y84013D01*
Y84333D01*
X55866Y84611D01*
X56013Y84550D01*
X56987D01*
X57300Y84341D01*
Y83763D01*
X57673Y82862D01*
X58362Y82173D01*
X59263Y81800D01*
X60237D01*
X61138Y82173D01*
X61827Y82862D01*
X62200Y83763D01*
Y83841D01*
X62513Y84050D01*
X63487D01*
X64388Y84423D01*
X65077Y85112D01*
X65450Y86013D01*
Y86987D01*
X65077Y87888D01*
X64821Y88143D01*
X64769Y88228D01*
X64740Y88259D01*
X64738Y88265D01*
X64733Y88283D01*
X64733Y88284D01*
Y101282D01*
X66805Y103354D01*
X67267Y103162D01*
Y96000D01*
X67399Y95337D01*
X67774Y94774D01*
X75599Y86950D01*
X75392Y86450D01*
X75013D01*
X74112Y86077D01*
X73423Y85388D01*
X73050Y84487D01*
Y83513D01*
X73423Y82612D01*
X74112Y81923D01*
X74821Y81629D01*
X74721Y81129D01*
X40534D01*
X27654Y94009D01*
X27846Y94471D01*
X31490D01*
X31508Y94460D01*
X31535Y94442D01*
X31676Y94325D01*
X31754Y94249D01*
X31848Y94187D01*
X32112Y93923D01*
X33013Y93550D01*
X33987D01*
X34888Y93923D01*
X35577Y94612D01*
X35950Y95513D01*
Y96487D01*
X35577Y97388D01*
X34888Y98077D01*
X33987Y98450D01*
X33013D01*
X32112Y98077D01*
X31848Y97813D01*
X31754Y97751D01*
X31664Y97664D01*
X31602Y97609D01*
X31549Y97568D01*
X31508Y97540D01*
X31490Y97529D01*
X20133D01*
X13156Y104507D01*
X12660Y104838D01*
X12075Y104955D01*
X11817D01*
X11803Y104958D01*
X11715Y104994D01*
X11577Y105067D01*
X11398Y105181D01*
X11206Y105320D01*
X10368Y106052D01*
X10058Y106360D01*
X9960Y106425D01*
X9636Y106748D01*
X8689Y107295D01*
X7633Y107578D01*
X6540D01*
X5484Y107295D01*
X4537Y106748D01*
X3764Y105975D01*
X3217Y105028D01*
X2934Y103972D01*
Y102878D01*
X3217Y101822D01*
X3764Y100875D01*
X4537Y100102D01*
X5484Y99555D01*
X6540Y99273D01*
X7633D01*
X8689Y99555D01*
X9636Y100102D01*
X9960Y100425D01*
X10058Y100490D01*
X10383Y100814D01*
X10666Y101079D01*
X11196Y101524D01*
X11398Y101670D01*
X11563Y101774D01*
X17921Y95416D01*
X17729Y94955D01*
X11817D01*
X11803Y94958D01*
X11715Y94994D01*
X11577Y95067D01*
X11398Y95181D01*
X11206Y95320D01*
X10368Y96052D01*
X10058Y96360D01*
X9960Y96425D01*
X9636Y96748D01*
X8689Y97295D01*
X7633Y97578D01*
X6540D01*
X5484Y97295D01*
X4537Y96748D01*
X3764Y95975D01*
X3217Y95028D01*
X2934Y93972D01*
Y92879D01*
X3217Y91822D01*
X3764Y90875D01*
X4537Y90102D01*
X5484Y89556D01*
X6540Y89272D01*
X7633D01*
X8689Y89556D01*
X9636Y90102D01*
X9960Y90425D01*
X10058Y90491D01*
X10383Y90814D01*
X10666Y91079D01*
X11196Y91524D01*
X11398Y91670D01*
X11576Y91783D01*
X11715Y91856D01*
X11803Y91892D01*
X11817Y91896D01*
X25441D01*
X31921Y85417D01*
X31729Y84955D01*
X11817D01*
X11803Y84958D01*
X11715Y84994D01*
X11577Y85067D01*
X11398Y85181D01*
X11206Y85320D01*
X10368Y86052D01*
X10058Y86360D01*
X9960Y86425D01*
X9636Y86748D01*
X8689Y87295D01*
X7633Y87578D01*
X6540D01*
X5484Y87295D01*
X4537Y86748D01*
X3764Y85975D01*
X3217Y85028D01*
X2934Y83972D01*
Y82879D01*
X3217Y81822D01*
X3764Y80875D01*
X4537Y80102D01*
X5484Y79555D01*
X6540Y79273D01*
X7633D01*
X8689Y79555D01*
X9636Y80102D01*
X9960Y80425D01*
X10058Y80490D01*
X10383Y80814D01*
X10666Y81079D01*
X11196Y81524D01*
X11398Y81670D01*
X11576Y81783D01*
X11715Y81856D01*
X11803Y81892D01*
X11817Y81896D01*
X32441D01*
X37419Y76919D01*
X37915Y76587D01*
Y76585D01*
X39083Y75416D01*
X38892Y74955D01*
X11817D01*
X11803Y74958D01*
X11715Y74994D01*
X11577Y75067D01*
X11398Y75181D01*
X11206Y75320D01*
X10368Y76052D01*
X10058Y76360D01*
X9960Y76425D01*
X9636Y76748D01*
X8689Y77295D01*
X7633Y77578D01*
X6540D01*
X5484Y77295D01*
X4537Y76748D01*
X3764Y75975D01*
X3217Y75028D01*
X2934Y73972D01*
Y72878D01*
X3217Y71822D01*
X3764Y70875D01*
X4537Y70102D01*
X5484Y69555D01*
X6540Y69273D01*
X7633D01*
X8689Y69555D01*
X9636Y70102D01*
X9960Y70425D01*
X10058Y70490D01*
X10383Y70814D01*
X10666Y71079D01*
X11196Y71524D01*
X11398Y71670D01*
X11576Y71783D01*
X11715Y71856D01*
X11803Y71892D01*
X11817Y71896D01*
X40224D01*
X40431Y71396D01*
X39923Y70888D01*
X39550Y69987D01*
Y69013D01*
X39923Y68112D01*
X40612Y67423D01*
X41513Y67050D01*
X42487D01*
X43388Y67423D01*
X44077Y68112D01*
X44450Y69013D01*
Y69987D01*
X44077Y70888D01*
X43470Y71494D01*
X43500Y71881D01*
X43561Y72046D01*
X44007Y72344D01*
X45634Y73971D01*
X54601D01*
X54808Y73471D01*
X53814Y72477D01*
X53794Y72472D01*
X53763Y72466D01*
X53580Y72450D01*
X53471Y72448D01*
X53361Y72425D01*
X52987D01*
X52087Y72052D01*
X51398Y71363D01*
X51025Y70462D01*
Y69488D01*
X51398Y68587D01*
X52087Y67898D01*
X52987Y67525D01*
X53962D01*
X54863Y67898D01*
X55552Y68587D01*
X55925Y69488D01*
Y69862D01*
X55948Y69971D01*
X55950Y70097D01*
X55955Y70179D01*
X55963Y70245D01*
X55972Y70294D01*
X55977Y70314D01*
X56803Y71140D01*
X80169D01*
X80755Y71256D01*
X81251Y71588D01*
X91633Y81971D01*
X110000D01*
X110585Y82087D01*
X111081Y82419D01*
X117633Y88971D01*
X129490D01*
X129508Y88960D01*
X129535Y88942D01*
X129676Y88825D01*
X129754Y88749D01*
X129848Y88687D01*
X130112Y88423D01*
X131013Y88050D01*
X131987D01*
X132888Y88423D01*
X133577Y89112D01*
X133950Y90013D01*
Y90987D01*
X133577Y91888D01*
X132888Y92577D01*
X131987Y92950D01*
X131013D01*
X130112Y92577D01*
X129848Y92313D01*
X129754Y92251D01*
X129664Y92164D01*
X129602Y92109D01*
X129549Y92068D01*
X129508Y92040D01*
X129490Y92029D01*
X117000D01*
X116415Y91913D01*
X115919Y91581D01*
X113912Y89575D01*
X113353Y89723D01*
X113077Y90388D01*
X112388Y91077D01*
X111487Y91450D01*
X110513D01*
X109612Y91077D01*
X109348Y90813D01*
X109254Y90751D01*
X109164Y90664D01*
X109101Y90609D01*
X109049Y90568D01*
X109008Y90540D01*
X108990Y90529D01*
X102500D01*
X101915Y90413D01*
X101419Y90081D01*
X98366Y87029D01*
X90648D01*
X90456Y87491D01*
X90577Y87612D01*
X90950Y88513D01*
Y89487D01*
X90577Y90388D01*
X89888Y91077D01*
X88987Y91450D01*
X88013D01*
X87112Y91077D01*
X86423Y90388D01*
X86050Y89487D01*
Y89113D01*
X86027Y89003D01*
X86025Y88878D01*
X86020Y88796D01*
X86012Y88729D01*
X86003Y88681D01*
X85997Y88660D01*
X81983Y84646D01*
X81483Y84853D01*
Y85250D01*
X81351Y85913D01*
X80976Y86476D01*
X70733Y96718D01*
Y118471D01*
X71233Y118570D01*
X71423Y118112D01*
X72112Y117423D01*
X73013Y117050D01*
X73987D01*
X74888Y117423D01*
X75577Y118112D01*
X75950Y119013D01*
Y119987D01*
X75577Y120888D01*
X74888Y121577D01*
X73987Y121950D01*
X73013D01*
X72112Y121577D01*
X71423Y120888D01*
X71233Y120430D01*
X70733Y120529D01*
Y124595D01*
X71233Y124802D01*
X71612Y124423D01*
X72513Y124050D01*
X73487D01*
X74388Y124423D01*
X75077Y125112D01*
X75450Y126013D01*
Y126387D01*
X75473Y126497D01*
X75475Y126622D01*
X75480Y126705D01*
X75488Y126771D01*
X75497Y126819D01*
X75503Y126840D01*
X75634Y126971D01*
X88340D01*
X88484Y126697D01*
X88519Y126471D01*
X77036Y114987D01*
X77035Y114986D01*
X77020Y114977D01*
X77014Y114974D01*
X76972Y114973D01*
X76874Y114950D01*
X76513D01*
X75612Y114577D01*
X74923Y113888D01*
X74550Y112987D01*
Y112013D01*
X74923Y111112D01*
X75612Y110423D01*
X76513Y110050D01*
X77487D01*
X78388Y110423D01*
X79077Y111112D01*
X79450Y112013D01*
Y112374D01*
X79473Y112472D01*
X79474Y112514D01*
X79477Y112520D01*
X79486Y112535D01*
X79487Y112536D01*
X90518Y123567D01*
X92016D01*
X92018Y123566D01*
X92035Y123562D01*
X92041Y123560D01*
X92072Y123531D01*
X92156Y123479D01*
X92412Y123223D01*
X93313Y122850D01*
X94287D01*
X95188Y123223D01*
X95877Y123912D01*
X96250Y124813D01*
Y125787D01*
X95967Y126471D01*
X96248Y126971D01*
X108500D01*
X109085Y127087D01*
X109581Y127419D01*
X111160Y128998D01*
X111180Y129003D01*
X111212Y129009D01*
X111395Y129025D01*
X111504Y129027D01*
X111613Y129050D01*
X111987D01*
X112888Y129423D01*
X113577Y130112D01*
X113950Y131013D01*
Y131987D01*
X113577Y132888D01*
X112888Y133577D01*
X111987Y133950D01*
X111013D01*
X110112Y133577D01*
X109423Y132888D01*
X109050Y131987D01*
Y131613D01*
X109027Y131503D01*
X109025Y131378D01*
X109020Y131296D01*
X109012Y131229D01*
X109003Y131181D01*
X108997Y131160D01*
X107867Y130029D01*
X107148D01*
X106956Y130491D01*
X107077Y130612D01*
X107450Y131513D01*
Y132487D01*
X107077Y133388D01*
X106388Y134077D01*
X105487Y134450D01*
X104513D01*
X103612Y134077D01*
X103357Y133821D01*
X103272Y133769D01*
X103241Y133740D01*
X103235Y133738D01*
X103217Y133733D01*
X103216Y133733D01*
X79577D01*
X79299Y134149D01*
X79450Y134513D01*
Y134551D01*
X79467Y134582D01*
X79489Y134617D01*
X79508Y134644D01*
X79543Y134686D01*
X80124Y135267D01*
X96716D01*
X96718Y135266D01*
X96735Y135262D01*
X96741Y135260D01*
X96772Y135231D01*
X96856Y135179D01*
X97112Y134923D01*
X98013Y134550D01*
X98987D01*
X99888Y134923D01*
X100577Y135612D01*
X100950Y136513D01*
X101601Y139412D01*
Y144337D01*
X101733Y145000D01*
Y148716D01*
X101734Y148717D01*
X101738Y148735D01*
X101740Y148741D01*
X101769Y148772D01*
X101821Y148856D01*
X102077Y149112D01*
X102450Y150013D01*
Y150987D01*
X102077Y151888D01*
X101388Y152577D01*
X100487Y152950D01*
X99513D01*
X98612Y152577D01*
X97923Y151888D01*
X97550Y150987D01*
Y150013D01*
X97677Y149705D01*
X97295Y149323D01*
X96987Y149450D01*
X96013D01*
X95112Y149077D01*
X94857Y148821D01*
X94772Y148769D01*
X94741Y148740D01*
X94735Y148738D01*
X94718Y148733D01*
X94716Y148733D01*
X75784D01*
X75783Y148733D01*
X75765Y148738D01*
X75759Y148740D01*
X75728Y148769D01*
X75643Y148821D01*
X75388Y149077D01*
X75020Y149229D01*
Y149771D01*
X75388Y149923D01*
X76077Y150612D01*
X76450Y151513D01*
Y152487D01*
X76077Y153388D01*
X75388Y154077D01*
X74487Y154450D01*
X73513D01*
X72612Y154077D01*
X72364Y153829D01*
X71667Y153833D01*
X70733Y154767D01*
Y157216D01*
X70733Y157218D01*
X70738Y157235D01*
X70740Y157241D01*
X70769Y157272D01*
X70821Y157357D01*
X71077Y157612D01*
X71450Y158513D01*
Y159487D01*
X71203Y160084D01*
X71077Y160388D01*
X71315Y160815D01*
X73267Y162767D01*
X89349D01*
X89350Y162767D01*
X89367Y162762D01*
X89373Y162760D01*
X89404Y162731D01*
X89489Y162679D01*
X89745Y162423D01*
X90645Y162050D01*
X91620D01*
X92520Y162423D01*
X93210Y163112D01*
X93583Y164013D01*
Y164987D01*
X93210Y165888D01*
X92520Y166577D01*
X91620Y166950D01*
X91108D01*
X90901Y167450D01*
X93093Y169641D01*
X102023D01*
X102321Y169141D01*
X102050Y168487D01*
Y168126D01*
X102027Y168028D01*
X102026Y167986D01*
X102023Y167981D01*
X102014Y167965D01*
X102013Y167964D01*
X95536Y161487D01*
X95535Y161486D01*
X95520Y161477D01*
X95514Y161474D01*
X95472Y161473D01*
X95374Y161450D01*
X95013D01*
X94112Y161077D01*
X93423Y160388D01*
X93050Y159487D01*
Y158513D01*
X93423Y157612D01*
X94112Y156923D01*
X95013Y156550D01*
X95892D01*
X96074Y156281D01*
X96137Y156088D01*
X94782Y154733D01*
X93784D01*
X93783Y154734D01*
X93765Y154738D01*
X93759Y154740D01*
X93728Y154769D01*
X93643Y154821D01*
X93388Y155077D01*
X92487Y155450D01*
X91513D01*
X90612Y155077D01*
X89923Y154388D01*
X89550Y153487D01*
Y152513D01*
X89923Y151612D01*
X90612Y150923D01*
X91513Y150550D01*
X92487D01*
X93388Y150923D01*
X93643Y151179D01*
X93728Y151231D01*
X93759Y151260D01*
X93765Y151262D01*
X93783Y151267D01*
X93784Y151267D01*
X95500D01*
X96163Y151399D01*
X96726Y151774D01*
X107964Y163013D01*
X107966Y163014D01*
X107981Y163023D01*
X107986Y163026D01*
X108028Y163027D01*
X108126Y163050D01*
X108487D01*
X109388Y163423D01*
X110077Y164112D01*
X110283Y164610D01*
X110507Y164685D01*
X110858Y164691D01*
X112774Y162774D01*
X113337Y162399D01*
X114000Y162267D01*
X128782D01*
X140267Y150782D01*
Y142284D01*
X140267Y142282D01*
X140262Y142265D01*
X140260Y142259D01*
X140231Y142228D01*
X140179Y142143D01*
X139923Y141888D01*
X139550Y140987D01*
Y140013D01*
X139923Y139112D01*
X140612Y138423D01*
X141513Y138050D01*
X142487D01*
X143388Y138423D01*
X144077Y139112D01*
X144450Y140013D01*
Y140987D01*
X144077Y141888D01*
X143821Y142143D01*
X143769Y142228D01*
X143740Y142259D01*
X143738Y142265D01*
X143734Y142282D01*
X143733Y142284D01*
Y151500D01*
X143733Y151500D01*
X143601Y152163D01*
X143226Y152726D01*
X143226Y152726D01*
X130726Y165226D01*
X130163Y165601D01*
X129500Y165733D01*
X120405D01*
X120198Y166233D01*
X120577Y166612D01*
X120950Y167513D01*
Y168487D01*
X120577Y169388D01*
X119888Y170077D01*
X118987Y170450D01*
X118626D01*
X118528Y170473D01*
X118486Y170474D01*
X118481Y170477D01*
X118465Y170486D01*
X118464Y170487D01*
X117147Y171805D01*
X117338Y172267D01*
X119282D01*
X121513Y170036D01*
X121514Y170035D01*
X121523Y170019D01*
X121526Y170014D01*
X121527Y169972D01*
X121550Y169874D01*
Y169513D01*
X121923Y168612D01*
X122612Y167923D01*
X123513Y167550D01*
X124487D01*
X125388Y167923D01*
X126077Y168612D01*
X126450Y169513D01*
Y170487D01*
X126077Y171388D01*
X125388Y172077D01*
X124487Y172450D01*
X124126D01*
X124028Y172473D01*
X123986Y172474D01*
X123980Y172477D01*
X123965Y172486D01*
X123964Y172487D01*
X121226Y175226D01*
X120663Y175601D01*
X120000Y175733D01*
D02*
G37*
G36*
X24487Y156450D02*
X23513D01*
X22612Y156077D01*
X21923Y155388D01*
X21550Y154487D01*
Y153513D01*
X21923Y152612D01*
X22612Y151923D01*
X23513Y151550D01*
X24487D01*
X25388Y151923D01*
X26077Y152612D01*
X26450Y153513D01*
Y154487D01*
X26077Y155388D01*
X25388Y156077D01*
X24487Y156450D01*
D02*
G37*
G36*
X137487Y147950D02*
X136513D01*
X135612Y147577D01*
X134923Y146888D01*
X134550Y145987D01*
Y145013D01*
X134923Y144112D01*
X135612Y143423D01*
X136513Y143050D01*
X137487D01*
X138388Y143423D01*
X139077Y144112D01*
X139450Y145013D01*
Y145987D01*
X139077Y146888D01*
X138388Y147577D01*
X137487Y147950D01*
D02*
G37*
G36*
X158814Y147578D02*
X157721D01*
X156665Y147295D01*
X155718Y146748D01*
X154945Y145975D01*
X154398Y145028D01*
X154115Y143972D01*
Y142878D01*
X154398Y141822D01*
X154945Y140875D01*
X155718Y140102D01*
X156665Y139556D01*
X157721Y139272D01*
X158814D01*
X159871Y139556D01*
X160818Y140102D01*
X161591Y140875D01*
X162137Y141822D01*
X162420Y142878D01*
Y143972D01*
X162137Y145028D01*
X161591Y145975D01*
X160818Y146748D01*
X159871Y147295D01*
X158814Y147578D01*
D02*
G37*
G36*
X7633D02*
X6540D01*
X5484Y147295D01*
X4537Y146748D01*
X3764Y145975D01*
X3217Y145028D01*
X2934Y143972D01*
Y142878D01*
X3217Y141822D01*
X3764Y140875D01*
X4537Y140102D01*
X5484Y139556D01*
X6540Y139272D01*
X7633D01*
X8689Y139556D01*
X9636Y140102D01*
X10410Y140875D01*
X10956Y141822D01*
X11239Y142878D01*
Y143972D01*
X10956Y145028D01*
X10410Y145975D01*
X9636Y146748D01*
X8689Y147295D01*
X7633Y147578D01*
D02*
G37*
G36*
X114987Y155450D02*
X114013D01*
X113112Y155077D01*
X112423Y154388D01*
X112050Y153487D01*
Y152513D01*
X112423Y151612D01*
X113112Y150923D01*
X113798Y150639D01*
X113843Y150616D01*
X113881Y150605D01*
X114013Y150550D01*
X114069D01*
X114139Y150530D01*
X114225Y150501D01*
X114411Y150426D01*
X114454Y150405D01*
X114471Y150396D01*
Y144500D01*
X114587Y143915D01*
X114919Y143419D01*
X122529Y135808D01*
X122450Y135415D01*
X121761Y134726D01*
X121388Y133826D01*
Y132851D01*
X121761Y131950D01*
X121565Y131516D01*
X114782Y124733D01*
X111594D01*
X110931Y124601D01*
X110369Y124226D01*
X108186Y122043D01*
X108144Y122008D01*
X108117Y121989D01*
X108082Y121967D01*
X108051Y121950D01*
X108013D01*
X107112Y121577D01*
X106423Y120888D01*
X106050Y119987D01*
Y119013D01*
X106423Y118112D01*
X107112Y117423D01*
X108013Y117050D01*
X108987D01*
X109888Y117423D01*
X110577Y118112D01*
X110950Y119013D01*
Y119905D01*
X112312Y121267D01*
X115500D01*
X115635Y121294D01*
X115882Y120833D01*
X108536Y113487D01*
X108535Y113486D01*
X108519Y113477D01*
X108514Y113474D01*
X108472Y113473D01*
X108374Y113450D01*
X108013D01*
X107112Y113077D01*
X106423Y112388D01*
X106050Y111487D01*
Y110513D01*
X106423Y109612D01*
X107112Y108923D01*
X108013Y108550D01*
X108987D01*
X109888Y108923D01*
X110577Y109612D01*
X110950Y110513D01*
Y110874D01*
X110973Y110972D01*
X110974Y111014D01*
X110977Y111020D01*
X110986Y111035D01*
X110987Y111036D01*
X118642Y118691D01*
X119232Y118573D01*
X119423Y118112D01*
X120112Y117423D01*
X121013Y117050D01*
X121987D01*
X122888Y117423D01*
X123577Y118112D01*
X123950Y119013D01*
Y119987D01*
X123577Y120888D01*
X122888Y121577D01*
X122426Y121768D01*
X122309Y122358D01*
X126218Y126267D01*
X136716D01*
X136717Y126267D01*
X136735Y126262D01*
X136741Y126260D01*
X136772Y126231D01*
X136856Y126179D01*
X137112Y125923D01*
X138013Y125550D01*
X138987D01*
X139888Y125923D01*
X140577Y126612D01*
X140950Y127513D01*
Y128487D01*
X140577Y129388D01*
X140456Y129509D01*
X140647Y129971D01*
X144059D01*
X146580Y127450D01*
X146373Y126950D01*
X146013D01*
X145112Y126577D01*
X144423Y125888D01*
X144050Y124987D01*
Y124013D01*
X144423Y123112D01*
X144687Y122848D01*
X144749Y122754D01*
X144836Y122664D01*
X144891Y122601D01*
X144932Y122549D01*
X144960Y122508D01*
X144971Y122490D01*
Y119462D01*
X145087Y118876D01*
X145419Y118380D01*
X156173Y107626D01*
X156204Y107450D01*
X156097Y106994D01*
X156065Y106973D01*
X156004Y106914D01*
X155718Y106748D01*
X154945Y105975D01*
X154398Y105028D01*
X154115Y103972D01*
Y102878D01*
X154398Y101822D01*
X154945Y100875D01*
X155718Y100102D01*
X156665Y99555D01*
X157721Y99273D01*
X158814D01*
X159871Y99555D01*
X160818Y100102D01*
X161591Y100875D01*
X162137Y101822D01*
X162420Y102878D01*
Y103972D01*
X162137Y105028D01*
X161591Y105975D01*
X160818Y106748D01*
X160531Y106914D01*
X160470Y106973D01*
X160270Y107103D01*
X160130Y107209D01*
X160019Y107306D01*
X159936Y107392D01*
X159878Y107466D01*
X159840Y107527D01*
X159817Y107575D01*
X159803Y107615D01*
X159797Y107648D01*
Y107694D01*
X159792Y107719D01*
X159789Y107771D01*
X159761Y107876D01*
X159681Y108279D01*
X159349Y108775D01*
X159197Y108927D01*
X159327Y109410D01*
X159871Y109555D01*
X160818Y110102D01*
X161591Y110875D01*
X162137Y111822D01*
X162420Y112879D01*
Y113972D01*
X162137Y115028D01*
X161591Y115975D01*
X160818Y116748D01*
X160752Y116786D01*
X160578Y116926D01*
X160370Y117112D01*
X160196Y117285D01*
X160056Y117443D01*
X159950Y117582D01*
X159876Y117700D01*
X159830Y117793D01*
X159806Y117859D01*
X159797Y117898D01*
Y117925D01*
X159793Y117945D01*
X159788Y118016D01*
X159757Y118129D01*
X159681Y118510D01*
X159411Y118915D01*
X159506Y119458D01*
X159871Y119555D01*
X160818Y120102D01*
X161591Y120875D01*
X162137Y121822D01*
X162420Y122879D01*
Y123972D01*
X162137Y125028D01*
X161591Y125975D01*
X160818Y126748D01*
X159871Y127295D01*
X158814Y127578D01*
X157721D01*
X156665Y127295D01*
X155718Y126748D01*
X154945Y125975D01*
X154398Y125028D01*
X154301Y124667D01*
X153818Y124538D01*
X146922Y131434D01*
X147113Y131896D01*
X153537D01*
X153551Y131892D01*
X153640Y131856D01*
X153778Y131783D01*
X153957Y131670D01*
X154149Y131531D01*
X154987Y130799D01*
X155297Y130491D01*
X155395Y130425D01*
X155718Y130102D01*
X156665Y129555D01*
X157721Y129272D01*
X158814D01*
X159871Y129555D01*
X160818Y130102D01*
X161591Y130875D01*
X162137Y131822D01*
X162420Y132878D01*
Y133972D01*
X162137Y135028D01*
X161591Y135975D01*
X160818Y136748D01*
X159871Y137295D01*
X158814Y137578D01*
X157721D01*
X156665Y137295D01*
X155718Y136748D01*
X155395Y136425D01*
X155297Y136360D01*
X154971Y136037D01*
X154688Y135772D01*
X154159Y135327D01*
X153957Y135181D01*
X153778Y135067D01*
X153640Y134994D01*
X153551Y134958D01*
X153537Y134955D01*
X136208D01*
X121002Y150160D01*
X120997Y150180D01*
X120991Y150212D01*
X120975Y150395D01*
X120973Y150504D01*
X120950Y150613D01*
Y150987D01*
X120577Y151888D01*
X119888Y152577D01*
X118987Y152950D01*
X118013D01*
X117450Y152717D01*
X116950Y153051D01*
Y153487D01*
X116577Y154388D01*
X115888Y155077D01*
X114987Y155450D01*
D02*
G37*
G36*
X7633Y137578D02*
X6540D01*
X5484Y137295D01*
X4537Y136748D01*
X3764Y135975D01*
X3217Y135028D01*
X2934Y133972D01*
Y132878D01*
X3217Y131822D01*
X3764Y130875D01*
X4537Y130102D01*
X5484Y129555D01*
X6540Y129272D01*
X7633D01*
X8689Y129555D01*
X9636Y130102D01*
X10410Y130875D01*
X10956Y131822D01*
X11239Y132878D01*
Y133972D01*
X10956Y135028D01*
X10410Y135975D01*
X9636Y136748D01*
X8689Y137295D01*
X7633Y137578D01*
D02*
G37*
G36*
Y127578D02*
X6540D01*
X5484Y127295D01*
X4537Y126748D01*
X3764Y125975D01*
X3217Y125028D01*
X2934Y123972D01*
Y122879D01*
X3217Y121822D01*
X3764Y120875D01*
X4537Y120102D01*
X5484Y119555D01*
X6540Y119272D01*
X7633D01*
X8689Y119555D01*
X9636Y120102D01*
X10410Y120875D01*
X10956Y121822D01*
X11239Y122879D01*
Y123972D01*
X10956Y125028D01*
X10410Y125975D01*
X9636Y126748D01*
X8689Y127295D01*
X7633Y127578D01*
D02*
G37*
G36*
X23987Y123950D02*
X23013D01*
X22112Y123577D01*
X21423Y122888D01*
X21050Y121987D01*
Y121013D01*
X21423Y120112D01*
X22112Y119423D01*
X23013Y119050D01*
X23987D01*
X24888Y119423D01*
X25577Y120112D01*
X25950Y121013D01*
Y121987D01*
X25577Y122888D01*
X24888Y123577D01*
X23987Y123950D01*
D02*
G37*
G36*
X146487Y115450D02*
X145513D01*
X144612Y115077D01*
X143923Y114388D01*
X143550Y113487D01*
Y113126D01*
X143527Y113028D01*
X143526Y112986D01*
X143523Y112980D01*
X143514Y112965D01*
X143513Y112964D01*
X139782Y109233D01*
X138000D01*
X137337Y109101D01*
X136774Y108726D01*
X134282Y106233D01*
X123784D01*
X123783Y106234D01*
X123765Y106238D01*
X123759Y106240D01*
X123728Y106269D01*
X123644Y106321D01*
X123388Y106577D01*
X122487Y106950D01*
X121513D01*
X120612Y106577D01*
X119923Y105888D01*
X119550Y104987D01*
Y104013D01*
X119923Y103112D01*
X120612Y102423D01*
X121513Y102050D01*
X122487D01*
X123388Y102423D01*
X123644Y102679D01*
X123728Y102731D01*
X123759Y102760D01*
X123765Y102762D01*
X123783Y102767D01*
X123784Y102767D01*
X135000D01*
X135663Y102899D01*
X136133Y103213D01*
X136473Y103176D01*
X136732Y103074D01*
X136923Y102612D01*
X137612Y101923D01*
X138513Y101550D01*
X139487D01*
X140388Y101923D01*
X141077Y102612D01*
X141450Y103513D01*
Y104487D01*
X141083Y105373D01*
X141052Y105464D01*
X141229Y105943D01*
X141726Y106274D01*
X145964Y110513D01*
X145966Y110514D01*
X145981Y110523D01*
X145986Y110526D01*
X146028Y110527D01*
X146126Y110550D01*
X146487D01*
X147388Y110923D01*
X148077Y111612D01*
X148450Y112513D01*
Y113487D01*
X148077Y114388D01*
X147388Y115077D01*
X146487Y115450D01*
D02*
G37*
G36*
X7633Y117578D02*
X6540D01*
X5484Y117295D01*
X4537Y116748D01*
X3764Y115975D01*
X3217Y115028D01*
X2934Y113972D01*
Y112879D01*
X3217Y111822D01*
X3764Y110875D01*
X4537Y110102D01*
X5484Y109555D01*
X6540Y109273D01*
X7633D01*
X8689Y109555D01*
X9636Y110102D01*
X10410Y110875D01*
X10451Y110946D01*
X10598Y111130D01*
X10779Y111336D01*
X10792Y111349D01*
X11413Y111425D01*
X18497Y104340D01*
X18503Y104320D01*
X18509Y104288D01*
X18525Y104105D01*
X18527Y103997D01*
X18550Y103887D01*
Y103513D01*
X18923Y102612D01*
X19612Y101923D01*
X20513Y101550D01*
X21487D01*
X22388Y101923D01*
X23077Y102612D01*
X23450Y103513D01*
Y104487D01*
X23077Y105388D01*
X22388Y106077D01*
X21487Y106450D01*
X21113D01*
X21003Y106473D01*
X20878Y106475D01*
X20796Y106480D01*
X20729Y106488D01*
X20681Y106497D01*
X20660Y106502D01*
X12656Y114507D01*
X12160Y114838D01*
X11777Y114914D01*
X11665Y114945D01*
X11595Y114951D01*
X11575Y114955D01*
X11546D01*
X11507Y114963D01*
X11442Y114987D01*
X11351Y115032D01*
X11237Y115104D01*
X11101Y115207D01*
X10961Y115332D01*
X10587Y115733D01*
X10451Y115904D01*
X10410Y115975D01*
X9636Y116748D01*
X8689Y117295D01*
X7633Y117578D01*
D02*
G37*
G36*
X90987Y104950D02*
X90013D01*
X89112Y104577D01*
X88423Y103888D01*
X88050Y102987D01*
Y102013D01*
X88423Y101112D01*
X89112Y100423D01*
X90013Y100050D01*
X90987D01*
X91888Y100423D01*
X92577Y101112D01*
X92950Y102013D01*
Y102987D01*
X92577Y103888D01*
X91888Y104577D01*
X90987Y104950D01*
D02*
G37*
G36*
X90487Y113950D02*
X89513D01*
X88612Y113577D01*
X87923Y112888D01*
X87550Y111987D01*
Y111013D01*
X87923Y110112D01*
X88612Y109423D01*
X89513Y109050D01*
X90487D01*
X91202Y109346D01*
X105013Y95536D01*
X105014Y95535D01*
X105023Y95520D01*
X105026Y95514D01*
X105027Y95472D01*
X105050Y95374D01*
Y95013D01*
X105423Y94112D01*
X106112Y93423D01*
X107013Y93050D01*
X107987D01*
X108888Y93423D01*
X109577Y94112D01*
X109950Y95013D01*
Y95987D01*
X109577Y96888D01*
X108888Y97577D01*
X107987Y97950D01*
X107626D01*
X107528Y97973D01*
X107486Y97974D01*
X107481Y97977D01*
X107465Y97986D01*
X107464Y97987D01*
X92920Y112531D01*
X92358Y112907D01*
X91984Y112981D01*
X91388Y113577D01*
X90487Y113950D01*
D02*
G37*
G36*
X158814Y97578D02*
X157721D01*
X156665Y97295D01*
X155718Y96748D01*
X154945Y95975D01*
X154398Y95028D01*
X154115Y93972D01*
Y92879D01*
X154398Y91822D01*
X154945Y90875D01*
X155718Y90102D01*
X156665Y89556D01*
X157721Y89272D01*
X158814D01*
X159871Y89556D01*
X160818Y90102D01*
X161591Y90875D01*
X162137Y91822D01*
X162420Y92879D01*
Y93972D01*
X162137Y95028D01*
X161591Y95975D01*
X160818Y96748D01*
X159871Y97295D01*
X158814Y97578D01*
D02*
G37*
G36*
X123487Y83450D02*
X122513D01*
X121612Y83077D01*
X120923Y82388D01*
X120550Y81487D01*
Y80513D01*
X120923Y79612D01*
X121612Y78923D01*
X122513Y78550D01*
X123487D01*
X124388Y78923D01*
X125077Y79612D01*
X125450Y80513D01*
Y81487D01*
X125077Y82388D01*
X124388Y83077D01*
X123487Y83450D01*
D02*
G37*
G36*
X89487Y70950D02*
X88513D01*
X87612Y70577D01*
X86923Y69888D01*
X86550Y68987D01*
Y68013D01*
X86923Y67112D01*
X87612Y66423D01*
X88513Y66050D01*
X89487D01*
X90388Y66423D01*
X91077Y67112D01*
X91450Y68013D01*
Y68987D01*
X91077Y69888D01*
X90388Y70577D01*
X89487Y70950D01*
D02*
G37*
G36*
X33487Y64450D02*
X32513D01*
X31612Y64077D01*
X30923Y63388D01*
X30550Y62487D01*
Y61513D01*
X30923Y60612D01*
X31612Y59923D01*
X32513Y59550D01*
X33487D01*
X34388Y59923D01*
X35077Y60612D01*
X35450Y61513D01*
Y62487D01*
X35077Y63388D01*
X34388Y64077D01*
X33487Y64450D01*
D02*
G37*
G36*
X7633Y67578D02*
X6540D01*
X5484Y67295D01*
X4537Y66748D01*
X3764Y65975D01*
X3217Y65028D01*
X2934Y63972D01*
Y62879D01*
X3217Y61822D01*
X3764Y60875D01*
X4537Y60102D01*
X5484Y59556D01*
X6540Y59272D01*
X7633D01*
X8689Y59556D01*
X9636Y60102D01*
X10410Y60875D01*
X10956Y61822D01*
X11239Y62879D01*
Y63972D01*
X10956Y65028D01*
X10410Y65975D01*
X9636Y66748D01*
X8689Y67295D01*
X7633Y67578D01*
D02*
G37*
G36*
X42487Y63450D02*
X41513D01*
X40612Y63077D01*
X39923Y62388D01*
X39550Y61487D01*
Y60513D01*
X39923Y59612D01*
X40612Y58923D01*
X41513Y58550D01*
X42487D01*
X43388Y58923D01*
X44077Y59612D01*
X44450Y60513D01*
Y61487D01*
X44077Y62388D01*
X43388Y63077D01*
X42487Y63450D01*
D02*
G37*
G36*
X23487Y62450D02*
X22513D01*
X21612Y62077D01*
X20923Y61388D01*
X20550Y60487D01*
Y59513D01*
X20923Y58612D01*
X21612Y57923D01*
X22513Y57550D01*
X23487D01*
X24388Y57923D01*
X25077Y58612D01*
X25450Y59513D01*
Y60487D01*
X25077Y61388D01*
X24388Y62077D01*
X23487Y62450D01*
D02*
G37*
G36*
X7633Y57578D02*
X6540D01*
X5484Y57295D01*
X4537Y56748D01*
X3764Y55975D01*
X3217Y55028D01*
X2934Y53972D01*
Y52878D01*
X3217Y51822D01*
X3764Y50875D01*
X4537Y50102D01*
X5484Y49556D01*
X6540Y49272D01*
X7633D01*
X8689Y49556D01*
X9636Y50102D01*
X10410Y50875D01*
X10956Y51822D01*
X11239Y52878D01*
Y53972D01*
X10956Y55028D01*
X10410Y55975D01*
X9636Y56748D01*
X8689Y57295D01*
X7633Y57578D01*
D02*
G37*
G36*
X158814Y87578D02*
X157721D01*
X156665Y87295D01*
X155718Y86748D01*
X154945Y85975D01*
X154398Y85028D01*
X154115Y83972D01*
Y83515D01*
X154092Y83399D01*
X154090Y82941D01*
X154078Y82553D01*
X154018Y81864D01*
X153978Y81618D01*
X153932Y81412D01*
X153886Y81262D01*
X153849Y81174D01*
X153841Y81161D01*
X144419Y71739D01*
X144087Y71243D01*
X143971Y70657D01*
Y46010D01*
X143960Y45992D01*
X143942Y45965D01*
X143825Y45824D01*
X143749Y45746D01*
X143687Y45652D01*
X143423Y45388D01*
X143050Y44487D01*
Y43513D01*
X143423Y42612D01*
X144112Y41923D01*
X145013Y41550D01*
X145987D01*
X146888Y41923D01*
X147577Y42612D01*
X147950Y43513D01*
Y44487D01*
X147577Y45388D01*
X147313Y45652D01*
X147251Y45746D01*
X147164Y45836D01*
X147109Y45899D01*
X147068Y45951D01*
X147040Y45992D01*
X147029Y46010D01*
Y70024D01*
X156004Y78999D01*
X156017Y79006D01*
X156105Y79043D01*
X156254Y79089D01*
X156461Y79136D01*
X156695Y79173D01*
X157805Y79248D01*
X158242Y79249D01*
X158358Y79273D01*
X158814D01*
X159871Y79555D01*
X160818Y80102D01*
X161591Y80875D01*
X162137Y81822D01*
X162420Y82879D01*
Y83972D01*
X162137Y85028D01*
X161591Y85975D01*
X160818Y86748D01*
X159871Y87295D01*
X158814Y87578D01*
D02*
G37*
G36*
X128000Y52335D02*
X110500D01*
X109798Y52196D01*
X109202Y51798D01*
X108804Y51202D01*
X108665Y50500D01*
Y34000D01*
X108804Y33298D01*
X109202Y32702D01*
X109702Y32202D01*
X110298Y31804D01*
X111000Y31665D01*
X128000D01*
X128702Y31804D01*
X129298Y32202D01*
X129696Y32798D01*
X129835Y33500D01*
Y50500D01*
X129696Y51202D01*
X129298Y51798D01*
X128702Y52196D01*
X128000Y52335D01*
D02*
G37*
G36*
X29987Y16450D02*
X29013D01*
X28112Y16077D01*
X27561Y15526D01*
X27250Y15437D01*
X26939Y15526D01*
X26388Y16077D01*
X25487Y16450D01*
X24513D01*
X23612Y16077D01*
X23061Y15526D01*
X22750Y15437D01*
X22439Y15526D01*
X21888Y16077D01*
X20987Y16450D01*
X20013D01*
X19112Y16077D01*
X18423Y15388D01*
X18050Y14487D01*
Y13513D01*
X18423Y12612D01*
X19112Y11923D01*
X20013Y11550D01*
X20987D01*
X21888Y11923D01*
X22439Y12474D01*
X22750Y12563D01*
X23061Y12474D01*
X23612Y11923D01*
X24513Y11550D01*
X25487D01*
X26388Y11923D01*
X26939Y12474D01*
X27250Y12563D01*
X27561Y12474D01*
X28112Y11923D01*
X29013Y11550D01*
X29987D01*
X30888Y11923D01*
X31577Y12612D01*
X31950Y13513D01*
Y14487D01*
X31577Y15388D01*
X30888Y16077D01*
X29987Y16450D01*
D02*
G37*
G36*
X39987Y10950D02*
X39013D01*
X38112Y10577D01*
X37423Y9888D01*
X37271Y9520D01*
X36729D01*
X36577Y9888D01*
X35888Y10577D01*
X34987Y10950D01*
X34013D01*
X33112Y10577D01*
X32423Y9888D01*
X32271Y9520D01*
X31729D01*
X31577Y9888D01*
X30888Y10577D01*
X29987Y10950D01*
X29013D01*
X28112Y10577D01*
X27561Y10026D01*
X27250Y9937D01*
X26939Y10026D01*
X26388Y10577D01*
X25487Y10950D01*
X24513D01*
X23612Y10577D01*
X23061Y10026D01*
X22750Y9937D01*
X22439Y10026D01*
X21888Y10577D01*
X20987Y10950D01*
X20013D01*
X19112Y10577D01*
X18423Y9888D01*
X18050Y8987D01*
Y8013D01*
X18423Y7112D01*
X19112Y6423D01*
X20013Y6050D01*
X20987D01*
X21888Y6423D01*
X22439Y6974D01*
X22750Y7063D01*
X23061Y6974D01*
X23612Y6423D01*
X24513Y6050D01*
X25487D01*
X26388Y6423D01*
X26939Y6974D01*
X27250Y7063D01*
X27561Y6974D01*
X28112Y6423D01*
X29013Y6050D01*
X29987D01*
X30888Y6423D01*
X31577Y7112D01*
X31729Y7480D01*
X32271D01*
X32423Y7112D01*
X33112Y6423D01*
X34013Y6050D01*
X34987D01*
X35888Y6423D01*
X36577Y7112D01*
X36729Y7480D01*
X37271D01*
X37423Y7112D01*
X38112Y6423D01*
X39013Y6050D01*
X39987D01*
X40888Y6423D01*
X41577Y7112D01*
X41950Y8013D01*
Y8987D01*
X41577Y9888D01*
X40888Y10577D01*
X39987Y10950D01*
D02*
G37*
G36*
X119661Y12009D02*
X118464D01*
X117308Y11700D01*
X116271Y11101D01*
X115425Y10255D01*
X114826Y9218D01*
X114516Y8061D01*
Y6864D01*
X114826Y5708D01*
X115425Y4671D01*
X116271Y3825D01*
X117308Y3226D01*
X118464Y2916D01*
X119661D01*
X120818Y3226D01*
X121855Y3825D01*
X122701Y4671D01*
X123300Y5708D01*
X123609Y6864D01*
Y8061D01*
X123300Y9218D01*
X122701Y10255D01*
X121855Y11101D01*
X120818Y11700D01*
X119661Y12009D01*
D02*
G37*
G36*
X109661D02*
X108464D01*
X107308Y11700D01*
X106271Y11101D01*
X105425Y10255D01*
X104826Y9218D01*
X104516Y8061D01*
Y6864D01*
X104826Y5708D01*
X105425Y4671D01*
X106271Y3825D01*
X107308Y3226D01*
X108464Y2916D01*
X109661D01*
X110818Y3226D01*
X111855Y3825D01*
X112701Y4671D01*
X113300Y5708D01*
X113609Y6864D01*
Y8061D01*
X113300Y9218D01*
X112701Y10255D01*
X111855Y11101D01*
X110818Y11700D01*
X109661Y12009D01*
D02*
G37*
G36*
X99661D02*
X98464D01*
X97308Y11700D01*
X96271Y11101D01*
X95425Y10255D01*
X94826Y9218D01*
X94516Y8061D01*
Y6864D01*
X94826Y5708D01*
X95425Y4671D01*
X96271Y3825D01*
X97308Y3226D01*
X98464Y2916D01*
X99661D01*
X100818Y3226D01*
X101855Y3825D01*
X102701Y4671D01*
X103300Y5708D01*
X103609Y6864D01*
Y8061D01*
X103300Y9218D01*
X102701Y10255D01*
X101855Y11101D01*
X100818Y11700D01*
X99661Y12009D01*
D02*
G37*
G36*
X89662D02*
X88464D01*
X87308Y11700D01*
X86271Y11101D01*
X86195Y11025D01*
X85895D01*
Y10724D01*
X85425Y10255D01*
X84826Y9218D01*
X84517Y8061D01*
Y6864D01*
X84826Y5708D01*
X85425Y4671D01*
X85895Y4202D01*
Y3901D01*
X86195D01*
X86271Y3825D01*
X87308Y3226D01*
X88464Y2916D01*
X89662D01*
X90818Y3226D01*
X91855Y3825D01*
X91930Y3901D01*
X92232D01*
Y4202D01*
X92701Y4671D01*
X93300Y5708D01*
X93609Y6864D01*
Y8061D01*
X93300Y9218D01*
X92701Y10255D01*
X92232Y10724D01*
Y11025D01*
X91930D01*
X91855Y11101D01*
X90818Y11700D01*
X89662Y12009D01*
D02*
G37*
%LPD*%
G36*
X69436Y178250D02*
X69331Y178247D01*
X69229Y178234D01*
X69127Y178212D01*
X69028Y178182D01*
X68929Y178142D01*
X68833Y178093D01*
X68738Y178035D01*
X68644Y177968D01*
X68552Y177891D01*
X68461Y177806D01*
X67754Y178513D01*
X67839Y178604D01*
X67916Y178696D01*
X67983Y178789D01*
X68041Y178885D01*
X68090Y178981D01*
X68130Y179080D01*
X68160Y179179D01*
X68182Y179280D01*
X68195Y179383D01*
X68198Y179488D01*
X69436Y178250D01*
D02*
G37*
G36*
X18004Y130271D02*
X18015Y130152D01*
X18034Y130038D01*
X18060Y129930D01*
X18094Y129827D01*
X18135Y129730D01*
X18184Y129637D01*
X18240Y129550D01*
X18304Y129469D01*
X18375Y129393D01*
X16625D01*
X16696Y129469D01*
X16760Y129550D01*
X16816Y129637D01*
X16865Y129730D01*
X16906Y129827D01*
X16940Y129930D01*
X16966Y130038D01*
X16985Y130152D01*
X16996Y130271D01*
X17000Y130396D01*
X18000D01*
X18004Y130271D01*
D02*
G37*
G36*
X123104Y171609D02*
X123196Y171532D01*
X123290Y171465D01*
X123385Y171407D01*
X123481Y171358D01*
X123580Y171318D01*
X123679Y171288D01*
X123781Y171266D01*
X123883Y171253D01*
X123987Y171250D01*
X122750Y170012D01*
X122747Y170117D01*
X122734Y170220D01*
X122712Y170321D01*
X122681Y170420D01*
X122642Y170519D01*
X122593Y170615D01*
X122535Y170711D01*
X122468Y170804D01*
X122391Y170896D01*
X122306Y170987D01*
X123013Y171694D01*
X123104Y171609D01*
D02*
G37*
G36*
X117604Y169609D02*
X117696Y169532D01*
X117789Y169465D01*
X117885Y169407D01*
X117981Y169358D01*
X118080Y169318D01*
X118179Y169288D01*
X118280Y169266D01*
X118383Y169253D01*
X118488Y169250D01*
X117250Y168012D01*
X117247Y168117D01*
X117234Y168219D01*
X117212Y168321D01*
X117182Y168420D01*
X117142Y168519D01*
X117093Y168615D01*
X117035Y168710D01*
X116968Y168804D01*
X116891Y168896D01*
X116806Y168987D01*
X117513Y169694D01*
X117604Y169609D01*
D02*
G37*
G36*
X104488Y166750D02*
X104383Y166747D01*
X104280Y166734D01*
X104179Y166712D01*
X104080Y166682D01*
X103981Y166642D01*
X103885Y166593D01*
X103789Y166535D01*
X103696Y166468D01*
X103604Y166391D01*
X103513Y166306D01*
X102806Y167013D01*
X102891Y167104D01*
X102968Y167196D01*
X103035Y167289D01*
X103093Y167385D01*
X103142Y167481D01*
X103182Y167580D01*
X103212Y167679D01*
X103234Y167780D01*
X103247Y167883D01*
X103250Y167988D01*
X104488Y166750D01*
D02*
G37*
G36*
X112804Y167031D02*
X112740Y166950D01*
X112684Y166863D01*
X112635Y166770D01*
X112594Y166673D01*
X112560Y166570D01*
X112534Y166462D01*
X112515Y166348D01*
X112504Y166229D01*
X112500Y166104D01*
X111500D01*
X111496Y166229D01*
X111485Y166348D01*
X111466Y166462D01*
X111440Y166570D01*
X111406Y166673D01*
X111365Y166770D01*
X111316Y166863D01*
X111260Y166950D01*
X111196Y167031D01*
X111125Y167107D01*
X112875D01*
X112804Y167031D01*
D02*
G37*
G36*
X107987Y164250D02*
X107883Y164247D01*
X107781Y164234D01*
X107679Y164212D01*
X107580Y164181D01*
X107481Y164142D01*
X107385Y164093D01*
X107290Y164035D01*
X107196Y163968D01*
X107104Y163891D01*
X107013Y163806D01*
X106306Y164513D01*
X106391Y164604D01*
X106468Y164696D01*
X106535Y164789D01*
X106593Y164885D01*
X106642Y164981D01*
X106682Y165080D01*
X106712Y165179D01*
X106734Y165280D01*
X106747Y165383D01*
X106750Y165488D01*
X107987Y164250D01*
D02*
G37*
G36*
X90240Y163625D02*
X90164Y163696D01*
X90082Y163760D01*
X89995Y163816D01*
X89903Y163865D01*
X89806Y163906D01*
X89702Y163940D01*
X89594Y163966D01*
X89481Y163985D01*
X89361Y163996D01*
X89237Y164000D01*
Y165000D01*
X89361Y165004D01*
X89481Y165015D01*
X89594Y165034D01*
X89702Y165060D01*
X89806Y165094D01*
X89903Y165135D01*
X89995Y165184D01*
X90082Y165240D01*
X90164Y165304D01*
X90240Y165375D01*
Y163625D01*
D02*
G37*
G36*
X65804Y160531D02*
X65740Y160450D01*
X65684Y160363D01*
X65635Y160270D01*
X65594Y160173D01*
X65560Y160070D01*
X65534Y159961D01*
X65515Y159848D01*
X65504Y159729D01*
X65500Y159604D01*
X64500D01*
X64496Y159729D01*
X64485Y159848D01*
X64466Y159961D01*
X64440Y160070D01*
X64406Y160173D01*
X64365Y160270D01*
X64316Y160363D01*
X64260Y160450D01*
X64196Y160531D01*
X64125Y160607D01*
X65875D01*
X65804Y160531D01*
D02*
G37*
G36*
X57804D02*
X57740Y160450D01*
X57684Y160363D01*
X57635Y160270D01*
X57594Y160173D01*
X57560Y160070D01*
X57534Y159961D01*
X57515Y159848D01*
X57504Y159729D01*
X57500Y159604D01*
X56500D01*
X56496Y159729D01*
X56485Y159848D01*
X56466Y159961D01*
X56440Y160070D01*
X56406Y160173D01*
X56365Y160270D01*
X56316Y160363D01*
X56260Y160450D01*
X56196Y160531D01*
X56125Y160607D01*
X57875D01*
X57804Y160531D01*
D02*
G37*
G36*
X97194Y159987D02*
X97109Y159896D01*
X97032Y159804D01*
X96965Y159711D01*
X96907Y159615D01*
X96858Y159519D01*
X96819Y159420D01*
X96788Y159321D01*
X96766Y159220D01*
X96753Y159117D01*
X96750Y159012D01*
X95512Y160250D01*
X95617Y160253D01*
X95719Y160266D01*
X95821Y160288D01*
X95920Y160319D01*
X96019Y160358D01*
X96115Y160407D01*
X96210Y160465D01*
X96304Y160532D01*
X96396Y160609D01*
X96487Y160694D01*
X97194Y159987D01*
D02*
G37*
G36*
X53982Y159764D02*
X53933Y159673D01*
X53890Y159578D01*
X53853Y159479D01*
X53821Y159376D01*
X53796Y159269D01*
X53776Y159158D01*
X53761Y159043D01*
X53750Y158800D01*
X52750Y158575D01*
X52746Y158701D01*
X52733Y158820D01*
X52711Y158931D01*
X52681Y159034D01*
X52643Y159130D01*
X52596Y159219D01*
X52540Y159301D01*
X52476Y159375D01*
X52403Y159441D01*
X52321Y159500D01*
X54036Y159850D01*
X53982Y159764D01*
D02*
G37*
G36*
X61703Y157960D02*
X61702Y157939D01*
X61697Y157799D01*
X61695Y157306D01*
X60694D01*
X60694Y157397D01*
X60671Y157751D01*
X60663Y157777D01*
X60655Y157794D01*
X60646Y157801D01*
X61706Y157968D01*
X61703Y157960D01*
D02*
G37*
G36*
X69804Y158031D02*
X69740Y157950D01*
X69684Y157863D01*
X69635Y157770D01*
X69594Y157673D01*
X69560Y157570D01*
X69534Y157462D01*
X69515Y157348D01*
X69504Y157229D01*
X69500Y157104D01*
X68500D01*
X68496Y157229D01*
X68485Y157348D01*
X68466Y157462D01*
X68440Y157570D01*
X68406Y157673D01*
X68365Y157770D01*
X68316Y157863D01*
X68260Y157950D01*
X68196Y158031D01*
X68125Y158107D01*
X69875D01*
X69804Y158031D01*
D02*
G37*
G36*
X43104Y157609D02*
X43196Y157532D01*
X43290Y157465D01*
X43385Y157407D01*
X43481Y157358D01*
X43580Y157318D01*
X43679Y157288D01*
X43780Y157266D01*
X43883Y157253D01*
X43988Y157250D01*
X42750Y156012D01*
X42747Y156117D01*
X42734Y156219D01*
X42712Y156321D01*
X42682Y156420D01*
X42642Y156519D01*
X42593Y156615D01*
X42535Y156711D01*
X42468Y156804D01*
X42391Y156896D01*
X42306Y156987D01*
X43013Y157694D01*
X43104Y157609D01*
D02*
G37*
G36*
X92969Y153804D02*
X93050Y153740D01*
X93137Y153684D01*
X93230Y153635D01*
X93327Y153594D01*
X93430Y153560D01*
X93538Y153534D01*
X93652Y153515D01*
X93771Y153504D01*
X93896Y153500D01*
Y152500D01*
X93771Y152496D01*
X93652Y152485D01*
X93538Y152466D01*
X93430Y152440D01*
X93327Y152406D01*
X93230Y152365D01*
X93137Y152316D01*
X93050Y152260D01*
X92969Y152196D01*
X92893Y152125D01*
Y153875D01*
X92969Y153804D01*
D02*
G37*
G36*
X54104Y153109D02*
X54196Y153032D01*
X54290Y152965D01*
X54385Y152907D01*
X54481Y152858D01*
X54580Y152819D01*
X54679Y152788D01*
X54781Y152766D01*
X54883Y152753D01*
X54988Y152750D01*
X53750Y151513D01*
X53747Y151617D01*
X53734Y151719D01*
X53712Y151821D01*
X53681Y151920D01*
X53642Y152019D01*
X53593Y152115D01*
X53535Y152210D01*
X53468Y152304D01*
X53391Y152396D01*
X53306Y152487D01*
X54013Y153194D01*
X54104Y153109D01*
D02*
G37*
G36*
X100804Y149531D02*
X100740Y149450D01*
X100684Y149363D01*
X100635Y149270D01*
X100594Y149173D01*
X100560Y149070D01*
X100534Y148961D01*
X100515Y148848D01*
X100504Y148729D01*
X100500Y148604D01*
X99500D01*
X99496Y148729D01*
X99485Y148848D01*
X99466Y148961D01*
X99440Y149070D01*
X99406Y149173D01*
X99365Y149270D01*
X99316Y149363D01*
X99260Y149450D01*
X99196Y149531D01*
X99125Y149607D01*
X100875D01*
X100804Y149531D01*
D02*
G37*
G36*
X95607Y146125D02*
X95531Y146196D01*
X95450Y146260D01*
X95363Y146316D01*
X95270Y146365D01*
X95173Y146406D01*
X95070Y146440D01*
X94962Y146466D01*
X94848Y146485D01*
X94729Y146496D01*
X94604Y146500D01*
Y147500D01*
X94729Y147504D01*
X94848Y147515D01*
X94962Y147534D01*
X95070Y147560D01*
X95173Y147594D01*
X95270Y147635D01*
X95363Y147684D01*
X95450Y147740D01*
X95531Y147804D01*
X95607Y147875D01*
Y146125D01*
D02*
G37*
G36*
X74969Y147804D02*
X75050Y147740D01*
X75137Y147684D01*
X75230Y147635D01*
X75327Y147594D01*
X75430Y147560D01*
X75538Y147534D01*
X75652Y147515D01*
X75771Y147504D01*
X75896Y147500D01*
Y146500D01*
X75771Y146496D01*
X75652Y146485D01*
X75538Y146466D01*
X75430Y146440D01*
X75327Y146406D01*
X75230Y146365D01*
X75137Y146316D01*
X75050Y146260D01*
X74969Y146196D01*
X74893Y146125D01*
Y147875D01*
X74969Y147804D01*
D02*
G37*
G36*
X142504Y142271D02*
X142515Y142152D01*
X142534Y142039D01*
X142560Y141930D01*
X142594Y141827D01*
X142635Y141730D01*
X142684Y141637D01*
X142740Y141550D01*
X142804Y141469D01*
X142875Y141393D01*
X141125D01*
X141196Y141469D01*
X141260Y141550D01*
X141316Y141637D01*
X141365Y141730D01*
X141406Y141827D01*
X141440Y141930D01*
X141466Y142039D01*
X141485Y142152D01*
X141496Y142271D01*
X141500Y142396D01*
X142500D01*
X142504Y142271D01*
D02*
G37*
G36*
X74469Y142804D02*
X74550Y142740D01*
X74637Y142684D01*
X74730Y142635D01*
X74827Y142594D01*
X74930Y142560D01*
X75038Y142534D01*
X75152Y142515D01*
X75271Y142504D01*
X75396Y142500D01*
Y141500D01*
X75271Y141496D01*
X75152Y141485D01*
X75038Y141466D01*
X74930Y141440D01*
X74827Y141406D01*
X74730Y141365D01*
X74637Y141316D01*
X74550Y141260D01*
X74469Y141196D01*
X74393Y141125D01*
Y142875D01*
X74469Y142804D01*
D02*
G37*
G36*
X34485Y138334D02*
X34565Y138269D01*
X34651Y138212D01*
X34742Y138163D01*
X34839Y138120D01*
X34941Y138086D01*
X35049Y138059D01*
X35163Y138040D01*
X35282Y138029D01*
X35406Y138025D01*
X35384Y137025D01*
X35260Y137021D01*
X35141Y137010D01*
X35027Y136992D01*
X34918Y136966D01*
X34815Y136933D01*
X34717Y136893D01*
X34623Y136845D01*
X34535Y136790D01*
X34453Y136727D01*
X34375Y136657D01*
X34410Y138407D01*
X34485Y138334D01*
D02*
G37*
G36*
X55590Y136643D02*
X55515Y136716D01*
X55435Y136781D01*
X55349Y136838D01*
X55258Y136888D01*
X55161Y136930D01*
X55059Y136964D01*
X54951Y136991D01*
X54837Y137010D01*
X54718Y137021D01*
X54594Y137025D01*
X54616Y138025D01*
X54740Y138029D01*
X54859Y138040D01*
X54973Y138058D01*
X55082Y138084D01*
X55185Y138117D01*
X55283Y138157D01*
X55377Y138205D01*
X55465Y138260D01*
X55547Y138323D01*
X55625Y138393D01*
X55590Y136643D01*
D02*
G37*
G36*
X78773Y135661D02*
X78688Y135571D01*
X78537Y135390D01*
X78472Y135298D01*
X78413Y135205D01*
X78361Y135111D01*
X78316Y135016D01*
X78277Y134920D01*
X78245Y134823D01*
X78219Y134725D01*
X77299Y136214D01*
X77397Y136195D01*
X77495Y136188D01*
X77591Y136193D01*
X77688Y136210D01*
X77783Y136238D01*
X77878Y136277D01*
X77972Y136328D01*
X78066Y136391D01*
X78158Y136466D01*
X78251Y136552D01*
X78773Y135661D01*
D02*
G37*
G36*
X97607Y136125D02*
X97531Y136196D01*
X97450Y136260D01*
X97363Y136316D01*
X97270Y136365D01*
X97173Y136406D01*
X97070Y136440D01*
X96961Y136466D01*
X96848Y136485D01*
X96729Y136496D01*
X96604Y136500D01*
Y137500D01*
X96729Y137504D01*
X96848Y137515D01*
X96961Y137534D01*
X97070Y137560D01*
X97173Y137594D01*
X97270Y137635D01*
X97363Y137684D01*
X97450Y137740D01*
X97531Y137804D01*
X97607Y137875D01*
Y136125D01*
D02*
G37*
G36*
X104107Y131125D02*
X104031Y131196D01*
X103950Y131260D01*
X103863Y131316D01*
X103770Y131365D01*
X103673Y131406D01*
X103570Y131440D01*
X103462Y131466D01*
X103348Y131485D01*
X103229Y131496D01*
X103104Y131500D01*
Y132500D01*
X103229Y132504D01*
X103348Y132515D01*
X103462Y132534D01*
X103570Y132560D01*
X103673Y132594D01*
X103770Y132635D01*
X103863Y132684D01*
X103950Y132740D01*
X104031Y132804D01*
X104107Y132875D01*
Y131125D01*
D02*
G37*
G36*
X73969Y132804D02*
X74050Y132740D01*
X74137Y132684D01*
X74230Y132635D01*
X74327Y132594D01*
X74430Y132560D01*
X74538Y132534D01*
X74652Y132515D01*
X74771Y132504D01*
X74896Y132500D01*
Y131500D01*
X74771Y131496D01*
X74652Y131485D01*
X74538Y131466D01*
X74430Y131440D01*
X74327Y131406D01*
X74230Y131365D01*
X74137Y131316D01*
X74050Y131260D01*
X73969Y131196D01*
X73893Y131125D01*
Y132875D01*
X73969Y132804D01*
D02*
G37*
G36*
X111487Y130250D02*
X111331Y130248D01*
X111045Y130222D01*
X110915Y130198D01*
X110794Y130166D01*
X110682Y130128D01*
X110579Y130082D01*
X110485Y130028D01*
X110400Y129968D01*
X110324Y129900D01*
X109899Y130324D01*
X109968Y130400D01*
X110028Y130485D01*
X110082Y130579D01*
X110128Y130682D01*
X110166Y130794D01*
X110198Y130915D01*
X110222Y131045D01*
X110239Y131183D01*
X110248Y131331D01*
X110250Y131488D01*
X111487Y130250D01*
D02*
G37*
G36*
X74600Y127676D02*
X74532Y127600D01*
X74472Y127515D01*
X74418Y127421D01*
X74372Y127318D01*
X74334Y127206D01*
X74302Y127085D01*
X74278Y126955D01*
X74261Y126817D01*
X74252Y126669D01*
X74250Y126513D01*
X73013Y127750D01*
X73169Y127752D01*
X73455Y127778D01*
X73585Y127802D01*
X73706Y127834D01*
X73818Y127872D01*
X73921Y127918D01*
X74015Y127972D01*
X74100Y128032D01*
X74176Y128101D01*
X74600Y127676D01*
D02*
G37*
G36*
X92907Y124425D02*
X92831Y124496D01*
X92750Y124560D01*
X92663Y124616D01*
X92570Y124665D01*
X92473Y124706D01*
X92370Y124740D01*
X92261Y124766D01*
X92148Y124785D01*
X92029Y124796D01*
X91904Y124800D01*
Y125800D01*
X92029Y125804D01*
X92148Y125815D01*
X92261Y125834D01*
X92370Y125860D01*
X92473Y125894D01*
X92570Y125935D01*
X92663Y125984D01*
X92750Y126040D01*
X92831Y126104D01*
X92907Y126175D01*
Y124425D01*
D02*
G37*
G36*
X57194Y121487D02*
X57109Y121396D01*
X57032Y121304D01*
X56965Y121211D01*
X56907Y121115D01*
X56858Y121019D01*
X56818Y120920D01*
X56788Y120821D01*
X56766Y120720D01*
X56753Y120617D01*
X56750Y120512D01*
X55512Y121750D01*
X55617Y121753D01*
X55720Y121766D01*
X55821Y121788D01*
X55920Y121818D01*
X56019Y121858D01*
X56115Y121907D01*
X56211Y121965D01*
X56304Y122032D01*
X56396Y122109D01*
X56487Y122194D01*
X57194Y121487D01*
D02*
G37*
G36*
X78694Y113487D02*
X78609Y113396D01*
X78532Y113304D01*
X78465Y113210D01*
X78407Y113115D01*
X78358Y113019D01*
X78319Y112920D01*
X78288Y112821D01*
X78266Y112720D01*
X78253Y112617D01*
X78250Y112513D01*
X77012Y113750D01*
X77117Y113753D01*
X77219Y113766D01*
X77321Y113788D01*
X77420Y113819D01*
X77519Y113858D01*
X77615Y113907D01*
X77710Y113965D01*
X77804Y114032D01*
X77896Y114109D01*
X77987Y114194D01*
X78694Y113487D01*
D02*
G37*
G36*
X55988Y108250D02*
X55883Y108247D01*
X55781Y108234D01*
X55679Y108212D01*
X55580Y108182D01*
X55481Y108142D01*
X55385Y108093D01*
X55290Y108035D01*
X55196Y107968D01*
X55104Y107891D01*
X55013Y107806D01*
X54306Y108513D01*
X54391Y108604D01*
X54468Y108696D01*
X54535Y108790D01*
X54593Y108885D01*
X54642Y108981D01*
X54681Y109080D01*
X54712Y109179D01*
X54734Y109281D01*
X54747Y109383D01*
X54750Y109487D01*
X55988Y108250D01*
D02*
G37*
G36*
X34419Y105354D02*
X34500Y105290D01*
X34587Y105234D01*
X34680Y105185D01*
X34777Y105144D01*
X34880Y105110D01*
X34988Y105084D01*
X35102Y105065D01*
X35221Y105054D01*
X35346Y105050D01*
Y104050D01*
X35221Y104046D01*
X35102Y104035D01*
X34988Y104016D01*
X34880Y103990D01*
X34777Y103956D01*
X34680Y103915D01*
X34587Y103866D01*
X34500Y103810D01*
X34419Y103746D01*
X34343Y103675D01*
Y105425D01*
X34419Y105354D01*
D02*
G37*
G36*
X9533Y105156D02*
X10443Y104361D01*
X10711Y104167D01*
X10963Y104008D01*
X11197Y103884D01*
X11414Y103796D01*
X11613Y103743D01*
X11796Y103725D01*
Y103125D01*
X11613Y103108D01*
X11414Y103054D01*
X11197Y102966D01*
X10963Y102842D01*
X10711Y102683D01*
X10443Y102489D01*
X9854Y101994D01*
X9533Y101694D01*
X9195Y101358D01*
Y105492D01*
X9533Y105156D01*
D02*
G37*
G36*
X32607Y95125D02*
X32495Y95234D01*
X32274Y95418D01*
X32166Y95493D01*
X32058Y95556D01*
X31951Y95608D01*
X31846Y95648D01*
X31742Y95677D01*
X31639Y95694D01*
X31536Y95700D01*
Y96300D01*
X31639Y96306D01*
X31742Y96323D01*
X31846Y96352D01*
X31951Y96392D01*
X32058Y96444D01*
X32166Y96507D01*
X32274Y96582D01*
X32384Y96668D01*
X32495Y96766D01*
X32607Y96875D01*
Y95125D01*
D02*
G37*
G36*
X9533Y95156D02*
X10443Y94361D01*
X10711Y94167D01*
X10963Y94008D01*
X11197Y93884D01*
X11414Y93796D01*
X11613Y93743D01*
X11796Y93725D01*
Y93125D01*
X11613Y93107D01*
X11414Y93054D01*
X11197Y92966D01*
X10963Y92843D01*
X10711Y92684D01*
X10443Y92489D01*
X9854Y91994D01*
X9533Y91694D01*
X9195Y91358D01*
Y95492D01*
X9533Y95156D01*
D02*
G37*
G36*
X130607Y89625D02*
X130495Y89734D01*
X130274Y89918D01*
X130166Y89993D01*
X130058Y90056D01*
X129951Y90108D01*
X129846Y90148D01*
X129742Y90177D01*
X129639Y90194D01*
X129536Y90200D01*
Y90800D01*
X129639Y90806D01*
X129742Y90823D01*
X129846Y90852D01*
X129951Y90892D01*
X130058Y90944D01*
X130166Y91007D01*
X130274Y91082D01*
X130384Y91168D01*
X130495Y91266D01*
X130607Y91375D01*
Y89625D01*
D02*
G37*
G36*
X110107Y88125D02*
X109995Y88234D01*
X109774Y88418D01*
X109666Y88493D01*
X109558Y88556D01*
X109451Y88608D01*
X109346Y88648D01*
X109242Y88677D01*
X109139Y88694D01*
X109037Y88700D01*
Y89300D01*
X109139Y89306D01*
X109242Y89323D01*
X109346Y89352D01*
X109451Y89392D01*
X109558Y89444D01*
X109666Y89507D01*
X109774Y89582D01*
X109884Y89668D01*
X109995Y89766D01*
X110107Y89875D01*
Y88125D01*
D02*
G37*
G36*
X57004Y88771D02*
X57015Y88652D01*
X57034Y88538D01*
X57060Y88430D01*
X57094Y88327D01*
X57135Y88230D01*
X57184Y88137D01*
X57240Y88050D01*
X57304Y87969D01*
X57375Y87893D01*
X55625D01*
X55696Y87969D01*
X55760Y88050D01*
X55816Y88137D01*
X55865Y88230D01*
X55906Y88327D01*
X55940Y88430D01*
X55966Y88538D01*
X55985Y88652D01*
X55996Y88771D01*
X56000Y88896D01*
X57000D01*
X57004Y88771D01*
D02*
G37*
G36*
X88487Y87750D02*
X88331Y87748D01*
X88045Y87722D01*
X87915Y87698D01*
X87794Y87666D01*
X87682Y87628D01*
X87579Y87582D01*
X87485Y87528D01*
X87400Y87468D01*
X87324Y87400D01*
X86900Y87824D01*
X86968Y87900D01*
X87028Y87985D01*
X87082Y88079D01*
X87128Y88182D01*
X87166Y88294D01*
X87198Y88415D01*
X87222Y88545D01*
X87239Y88683D01*
X87248Y88831D01*
X87250Y88987D01*
X88487Y87750D01*
D02*
G37*
G36*
X63504Y88271D02*
X63515Y88152D01*
X63534Y88038D01*
X63560Y87930D01*
X63594Y87827D01*
X63635Y87730D01*
X63684Y87637D01*
X63740Y87550D01*
X63804Y87469D01*
X63875Y87393D01*
X62125D01*
X62196Y87469D01*
X62260Y87550D01*
X62316Y87637D01*
X62365Y87730D01*
X62406Y87827D01*
X62440Y87930D01*
X62466Y88038D01*
X62485Y88152D01*
X62496Y88271D01*
X62500Y88396D01*
X63500D01*
X63504Y88271D01*
D02*
G37*
G36*
X53504Y86271D02*
X53515Y86152D01*
X53534Y86039D01*
X53560Y85930D01*
X53594Y85827D01*
X53635Y85730D01*
X53684Y85637D01*
X53740Y85550D01*
X53804Y85469D01*
X53875Y85393D01*
X52125D01*
X52196Y85469D01*
X52260Y85550D01*
X52316Y85637D01*
X52365Y85730D01*
X52406Y85827D01*
X52440Y85930D01*
X52466Y86039D01*
X52485Y86152D01*
X52496Y86271D01*
X52500Y86396D01*
X53500D01*
X53504Y86271D01*
D02*
G37*
G36*
X60254Y86021D02*
X60265Y85902D01*
X60284Y85789D01*
X60310Y85680D01*
X60344Y85577D01*
X60385Y85480D01*
X60434Y85387D01*
X60490Y85300D01*
X60554Y85219D01*
X60625Y85143D01*
X58875D01*
X58946Y85219D01*
X59010Y85300D01*
X59066Y85387D01*
X59115Y85480D01*
X59156Y85577D01*
X59190Y85680D01*
X59216Y85789D01*
X59235Y85902D01*
X59246Y86021D01*
X59250Y86146D01*
X60250D01*
X60254Y86021D01*
D02*
G37*
G36*
X80250Y83750D02*
X80253Y83627D01*
X80276Y83392D01*
X80296Y83281D01*
X80322Y83174D01*
X80353Y83071D01*
X80390Y82972D01*
X80433Y82877D01*
X80481Y82786D01*
X80536Y82700D01*
X78821Y83050D01*
X78903Y83109D01*
X78976Y83175D01*
X79040Y83249D01*
X79096Y83331D01*
X79143Y83420D01*
X79181Y83516D01*
X79211Y83619D01*
X79233Y83730D01*
X79246Y83849D01*
X79250Y83975D01*
X80250Y83750D01*
D02*
G37*
G36*
X9533Y85156D02*
X10443Y84361D01*
X10711Y84167D01*
X10963Y84008D01*
X11197Y83884D01*
X11414Y83796D01*
X11613Y83743D01*
X11796Y83725D01*
Y83125D01*
X11613Y83108D01*
X11414Y83055D01*
X11197Y82966D01*
X10963Y82842D01*
X10711Y82683D01*
X10443Y82489D01*
X9854Y81994D01*
X9533Y81694D01*
X9195Y81358D01*
Y85492D01*
X9533Y85156D01*
D02*
G37*
G36*
X76107Y74625D02*
X75995Y74734D01*
X75774Y74918D01*
X75665Y74993D01*
X75558Y75056D01*
X75451Y75108D01*
X75346Y75148D01*
X75242Y75177D01*
X75138Y75194D01*
X75037Y75200D01*
Y75800D01*
X75138Y75806D01*
X75242Y75823D01*
X75346Y75852D01*
X75451Y75892D01*
X75558Y75944D01*
X75665Y76007D01*
X75774Y76082D01*
X75884Y76168D01*
X75995Y76266D01*
X76107Y76375D01*
Y74625D01*
D02*
G37*
G36*
X9533Y75156D02*
X10443Y74361D01*
X10711Y74167D01*
X10963Y74008D01*
X11197Y73884D01*
X11414Y73796D01*
X11613Y73743D01*
X11796Y73725D01*
Y73125D01*
X11613Y73107D01*
X11414Y73054D01*
X11197Y72966D01*
X10963Y72843D01*
X10711Y72684D01*
X10443Y72489D01*
X9854Y71994D01*
X9533Y71694D01*
X9195Y71358D01*
Y75492D01*
X9533Y75156D01*
D02*
G37*
G36*
X55075Y71151D02*
X55007Y71075D01*
X54947Y70990D01*
X54893Y70896D01*
X54847Y70793D01*
X54808Y70681D01*
X54777Y70560D01*
X54753Y70430D01*
X54736Y70292D01*
X54727Y70144D01*
X54725Y69987D01*
X53487Y71225D01*
X53644Y71227D01*
X53930Y71253D01*
X54060Y71277D01*
X54181Y71308D01*
X54293Y71347D01*
X54396Y71393D01*
X54490Y71447D01*
X54575Y71507D01*
X54651Y71575D01*
X55075Y71151D01*
D02*
G37*
G36*
X115669Y152522D02*
X115647Y152391D01*
X115636Y152266D01*
X115638Y152147D01*
X115651Y152034D01*
X115676Y151928D01*
X115713Y151828D01*
X115761Y151734D01*
X115822Y151647D01*
X115894Y151566D01*
X115350Y151261D01*
X115283Y151321D01*
X115206Y151380D01*
X115117Y151436D01*
X115017Y151492D01*
X114906Y151545D01*
X114651Y151648D01*
X114506Y151697D01*
X114183Y151791D01*
X115703Y152659D01*
X115669Y152522D01*
D02*
G37*
G36*
X119752Y150331D02*
X119778Y150045D01*
X119802Y149915D01*
X119834Y149794D01*
X119872Y149682D01*
X119918Y149579D01*
X119972Y149485D01*
X120032Y149400D01*
X120100Y149324D01*
X119676Y148899D01*
X119600Y148968D01*
X119515Y149028D01*
X119421Y149082D01*
X119318Y149128D01*
X119206Y149166D01*
X119085Y149198D01*
X118955Y149222D01*
X118817Y149239D01*
X118669Y149248D01*
X118512Y149250D01*
X119750Y150487D01*
X119752Y150331D01*
D02*
G37*
G36*
X156159Y131358D02*
X155821Y131694D01*
X154912Y132489D01*
X154643Y132684D01*
X154392Y132843D01*
X154157Y132966D01*
X153940Y133054D01*
X153741Y133107D01*
X153559Y133125D01*
Y133725D01*
X153741Y133743D01*
X153940Y133796D01*
X154157Y133884D01*
X154392Y134008D01*
X154643Y134167D01*
X154912Y134361D01*
X155501Y134856D01*
X155821Y135156D01*
X156159Y135492D01*
Y131358D01*
D02*
G37*
G36*
X124485Y132269D02*
X124403Y132212D01*
X124329Y132148D01*
X124264Y132076D01*
X124207Y131997D01*
X124160Y131910D01*
X124121Y131814D01*
X124090Y131712D01*
X124069Y131601D01*
X124056Y131483D01*
X124051Y131357D01*
X123051Y131617D01*
X123049Y131740D01*
X123027Y131975D01*
X123008Y132087D01*
X122984Y132194D01*
X122954Y132297D01*
X122919Y132396D01*
X122879Y132492D01*
X122833Y132583D01*
X122782Y132670D01*
X124485Y132269D01*
D02*
G37*
G36*
X137607Y127125D02*
X137531Y127196D01*
X137450Y127260D01*
X137363Y127316D01*
X137270Y127365D01*
X137173Y127406D01*
X137070Y127440D01*
X136961Y127466D01*
X136848Y127485D01*
X136729Y127496D01*
X136604Y127500D01*
Y128500D01*
X136729Y128504D01*
X136848Y128515D01*
X136961Y128534D01*
X137070Y128560D01*
X137173Y128594D01*
X137270Y128635D01*
X137363Y128684D01*
X137450Y128740D01*
X137531Y128804D01*
X137607Y128875D01*
Y127125D01*
D02*
G37*
G36*
X147266Y123495D02*
X147082Y123274D01*
X147007Y123166D01*
X146944Y123058D01*
X146892Y122951D01*
X146852Y122846D01*
X146823Y122742D01*
X146806Y122638D01*
X146800Y122537D01*
X146200D01*
X146194Y122638D01*
X146177Y122742D01*
X146148Y122846D01*
X146108Y122951D01*
X146056Y123058D01*
X145993Y123166D01*
X145918Y123274D01*
X145832Y123384D01*
X145734Y123495D01*
X145625Y123607D01*
X147375D01*
X147266Y123495D01*
D02*
G37*
G36*
X110052Y120751D02*
X109966Y120659D01*
X109891Y120566D01*
X109828Y120472D01*
X109777Y120378D01*
X109738Y120283D01*
X109710Y120188D01*
X109693Y120091D01*
X109688Y119995D01*
X109695Y119897D01*
X109714Y119799D01*
X108225Y120719D01*
X108323Y120745D01*
X108420Y120777D01*
X108516Y120816D01*
X108611Y120861D01*
X108705Y120913D01*
X108798Y120972D01*
X108890Y121037D01*
X109071Y121188D01*
X109160Y121274D01*
X110052Y120751D01*
D02*
G37*
G36*
X158583Y117724D02*
X158628Y117518D01*
X158703Y117310D01*
X158809Y117099D01*
X158944Y116884D01*
X159110Y116666D01*
X159305Y116445D01*
X159531Y116220D01*
X159787Y115993D01*
X160073Y115762D01*
X156463D01*
X156749Y115993D01*
X157230Y116445D01*
X157426Y116666D01*
X157591Y116884D01*
X157727Y117099D01*
X157832Y117310D01*
X157907Y117518D01*
X157953Y117724D01*
X157968Y117925D01*
X158568D01*
X158583Y117724D01*
D02*
G37*
G36*
X110194Y111987D02*
X110109Y111896D01*
X110032Y111804D01*
X109965Y111711D01*
X109907Y111615D01*
X109858Y111519D01*
X109818Y111420D01*
X109788Y111321D01*
X109766Y111220D01*
X109753Y111117D01*
X109750Y111012D01*
X108512Y112250D01*
X108617Y112253D01*
X108720Y112266D01*
X108821Y112288D01*
X108920Y112319D01*
X109019Y112358D01*
X109115Y112407D01*
X109211Y112465D01*
X109304Y112532D01*
X109396Y112609D01*
X109487Y112694D01*
X110194Y111987D01*
D02*
G37*
G36*
X158580Y107497D02*
X158617Y107306D01*
X158679Y107119D01*
X158765Y106937D01*
X158877Y106760D01*
X159012Y106588D01*
X159173Y106420D01*
X159358Y106258D01*
X159568Y106100D01*
X159803Y105947D01*
X156733D01*
X156967Y106100D01*
X157177Y106258D01*
X157362Y106420D01*
X157523Y106588D01*
X157659Y106760D01*
X157770Y106937D01*
X157857Y107119D01*
X157918Y107306D01*
X157955Y107497D01*
X157968Y107694D01*
X158568D01*
X158580Y107497D01*
D02*
G37*
G36*
X145987Y111750D02*
X145883Y111747D01*
X145781Y111734D01*
X145679Y111712D01*
X145580Y111681D01*
X145481Y111642D01*
X145385Y111593D01*
X145290Y111535D01*
X145196Y111468D01*
X145104Y111391D01*
X145013Y111306D01*
X144306Y112013D01*
X144391Y112104D01*
X144468Y112196D01*
X144535Y112290D01*
X144593Y112385D01*
X144642Y112481D01*
X144682Y112580D01*
X144712Y112679D01*
X144734Y112780D01*
X144747Y112883D01*
X144750Y112987D01*
X145987Y111750D01*
D02*
G37*
G36*
X122969Y105304D02*
X123050Y105240D01*
X123137Y105184D01*
X123230Y105135D01*
X123327Y105094D01*
X123430Y105060D01*
X123538Y105034D01*
X123652Y105015D01*
X123771Y105004D01*
X123896Y105000D01*
Y104000D01*
X123771Y103996D01*
X123652Y103985D01*
X123538Y103966D01*
X123430Y103940D01*
X123327Y103906D01*
X123230Y103865D01*
X123137Y103816D01*
X123050Y103760D01*
X122969Y103696D01*
X122893Y103625D01*
Y105375D01*
X122969Y105304D01*
D02*
G37*
G36*
X9660Y114933D02*
X10105Y114456D01*
X10323Y114262D01*
X10538Y114098D01*
X10751Y113964D01*
X10961Y113859D01*
X11168Y113785D01*
X11373Y113740D01*
X11575Y113725D01*
Y113125D01*
X11373Y113110D01*
X11168Y113066D01*
X10961Y112991D01*
X10751Y112887D01*
X10538Y112752D01*
X10323Y112588D01*
X10105Y112394D01*
X9884Y112171D01*
X9660Y111917D01*
X9434Y111634D01*
Y115217D01*
X9660Y114933D01*
D02*
G37*
G36*
X19900Y105532D02*
X19985Y105472D01*
X20079Y105418D01*
X20182Y105372D01*
X20294Y105334D01*
X20415Y105302D01*
X20545Y105278D01*
X20683Y105261D01*
X20831Y105252D01*
X20988Y105250D01*
X19750Y104013D01*
X19748Y104169D01*
X19722Y104455D01*
X19698Y104585D01*
X19666Y104706D01*
X19628Y104818D01*
X19582Y104921D01*
X19528Y105015D01*
X19467Y105100D01*
X19399Y105176D01*
X19824Y105601D01*
X19900Y105532D01*
D02*
G37*
G36*
X91206Y111845D02*
X91223Y111837D01*
X91249Y111829D01*
X91285Y111823D01*
X91330Y111818D01*
X91448Y111810D01*
X91694Y111805D01*
Y110805D01*
X91032Y110794D01*
X91199Y111854D01*
X91206Y111845D01*
D02*
G37*
G36*
X106604Y97109D02*
X106696Y97032D01*
X106790Y96965D01*
X106885Y96907D01*
X106981Y96858D01*
X107080Y96819D01*
X107179Y96788D01*
X107281Y96766D01*
X107383Y96753D01*
X107487Y96750D01*
X106250Y95512D01*
X106247Y95617D01*
X106234Y95719D01*
X106212Y95821D01*
X106182Y95920D01*
X106142Y96019D01*
X106093Y96115D01*
X106035Y96210D01*
X105968Y96304D01*
X105891Y96396D01*
X105806Y96487D01*
X106513Y97194D01*
X106604Y97109D01*
D02*
G37*
G36*
X158238Y80473D02*
X157762Y80471D01*
X156556Y80390D01*
X156229Y80338D01*
X155939Y80272D01*
X155686Y80194D01*
X155470Y80103D01*
X155291Y80000D01*
X155150Y79883D01*
X154726Y80308D01*
X154842Y80449D01*
X154946Y80628D01*
X155037Y80843D01*
X155115Y81096D01*
X155180Y81387D01*
X155233Y81714D01*
X155299Y82480D01*
X155314Y82920D01*
X155315Y83396D01*
X158238Y80473D01*
D02*
G37*
G36*
X145806Y45862D02*
X145823Y45758D01*
X145852Y45654D01*
X145892Y45549D01*
X145944Y45442D01*
X146007Y45335D01*
X146082Y45226D01*
X146168Y45116D01*
X146266Y45005D01*
X146375Y44893D01*
X144625D01*
X144734Y45005D01*
X144918Y45226D01*
X144993Y45335D01*
X145056Y45442D01*
X145108Y45549D01*
X145148Y45654D01*
X145177Y45758D01*
X145194Y45862D01*
X145200Y45963D01*
X145800D01*
X145806Y45862D01*
D02*
G37*
D11*
X129500Y164000D02*
X142000Y151500D01*
Y140500D02*
Y151500D01*
X114000Y164000D02*
X129500D01*
X92000Y153000D02*
X95500D01*
X108000Y165500D01*
X95500Y159000D02*
X104500Y168000D01*
X74000Y147000D02*
X96500D01*
X97000Y142000D02*
X100000Y145000D01*
Y150500D01*
X73500Y142000D02*
X97000D01*
X17500Y128500D02*
Y154500D01*
X38500Y175500D02*
X65448D01*
X17500Y154500D02*
X38500Y175500D01*
X65448D02*
X69448Y179500D01*
X45000Y169500D02*
X87000D01*
X57500Y125400D02*
Y125400D01*
X87000Y169500D02*
X91500Y174000D01*
X29000Y153500D02*
X45000Y169500D01*
X91500Y174000D02*
X120000D01*
X124000Y170000D01*
X92375Y171375D02*
X115125D01*
X88000Y167000D02*
X92375Y171375D01*
X115125D02*
X118500Y168000D01*
X57500Y122500D02*
Y125400D01*
X45500Y167000D02*
X88000D01*
X29000Y135000D02*
Y153500D01*
X33500Y130500D02*
X52400D01*
X29000Y135000D02*
X33500Y130500D01*
X52400D02*
X57500Y125400D01*
X56475Y137525D02*
X56500Y137500D01*
X33525Y137525D02*
X56475D01*
X55500Y120500D02*
X57500Y122500D01*
X53000Y102000D02*
X60500Y109500D01*
X53250Y157750D02*
X60500Y150500D01*
Y109500D02*
Y150500D01*
X115500Y123000D02*
X123551Y131051D01*
Y133051D01*
X123838Y133338D01*
X41500Y163000D02*
X45500Y167000D01*
X41500Y158500D02*
X44000Y156000D01*
X41500Y158500D02*
Y163000D01*
X53250Y157750D02*
Y160300D01*
X53000Y160550D02*
X53250Y160300D01*
X73000Y132000D02*
X105000D01*
X77406Y135000D02*
X79406Y137000D01*
X77000Y135000D02*
X77406D01*
X79406Y137000D02*
X98500D01*
X108500Y119906D02*
X111594Y123000D01*
X115500D01*
X108500Y119500D02*
Y119906D01*
Y111000D02*
X125500Y128000D01*
X138500D01*
X89800Y125300D02*
X93800D01*
X77000Y112500D02*
X89800Y125300D01*
X112000Y166000D02*
X114000Y164000D01*
X112000Y166000D02*
Y168000D01*
X90000Y111500D02*
X90194Y111305D01*
X91694D01*
X107500Y95500D02*
X107500D01*
X91694Y111305D02*
X107500Y95500D01*
X52000Y164500D02*
X91133D01*
X49500Y162000D02*
X52000Y164500D01*
X49500Y157000D02*
Y162000D01*
Y157000D02*
X55000Y151500D01*
X69000Y96000D02*
Y159000D01*
X65000Y106900D02*
Y153500D01*
X69000Y96000D02*
X79750Y85250D01*
X61194Y157306D02*
X65000Y153500D01*
Y157500D02*
X67000Y155500D01*
X63200Y109200D02*
Y151800D01*
X57000Y158000D02*
X63200Y151800D01*
X63000Y102000D02*
X67000Y106000D01*
Y155500D01*
X56500Y102500D02*
X63200Y109200D01*
X59750Y101650D02*
X65000Y106900D01*
Y157500D02*
Y161500D01*
X61194Y157306D02*
Y158806D01*
X61000Y159000D02*
X61194Y158806D01*
X57000Y158000D02*
Y161500D01*
X140500Y107500D02*
X146000Y113000D01*
X33500Y137550D02*
X33525Y137525D01*
X79500Y82000D02*
X79750Y82250D01*
Y85250D01*
X56500Y88000D02*
Y102500D01*
X63000Y87500D02*
Y102000D01*
X53000Y85500D02*
Y102000D01*
X59750Y85250D02*
Y101650D01*
X51050Y104550D02*
X56000Y109500D01*
X33450Y104550D02*
X51050D01*
X138000Y107500D02*
X140500D01*
X135000Y104500D02*
X138000Y107500D01*
X122000Y104500D02*
X135000D01*
D15*
X116000Y144500D02*
Y151035D01*
X114500Y152535D02*
Y153000D01*
Y152535D02*
X116000Y151035D01*
Y144500D02*
X129000Y131500D01*
X118500Y150500D02*
X135575Y133425D01*
X158268D01*
X129000Y131500D02*
X144693D01*
X146500Y119462D02*
X158268Y107694D01*
X146500Y119462D02*
Y124500D01*
X158268Y103425D02*
Y107694D01*
X154215Y121747D02*
X156589Y119372D01*
X154215Y121747D02*
Y121978D01*
X158268Y113425D02*
Y117925D01*
X144693Y131500D02*
X154215Y121978D01*
X156820Y119372D02*
X158268Y117925D01*
X156589Y119372D02*
X156820D01*
X108500Y128500D02*
X111500Y131500D01*
X75000Y128500D02*
X108500D01*
X73000Y126500D02*
X75000Y128500D01*
X102500Y89000D02*
X111000D01*
X145500Y44000D02*
Y70657D01*
X158268Y83425D01*
X117000Y90500D02*
X131500D01*
X91000Y83500D02*
X110000D01*
X117000Y90500D01*
X80169Y72669D02*
X91000Y83500D01*
X87500Y85500D02*
X99000D01*
X102500Y89000D01*
X84500Y82500D02*
X87500Y85500D01*
X53475Y69975D02*
X56169Y72669D01*
X80169D01*
X39900Y79600D02*
X81600D01*
X26075Y93425D02*
X39900Y79600D01*
X7087Y93425D02*
X26075D01*
X33075Y83425D02*
X38500Y78000D01*
X82263D01*
X7087Y83425D02*
X33075D01*
X84500Y80237D02*
Y82500D01*
X82900Y83400D02*
X88500Y89000D01*
X82900Y80900D02*
Y83400D01*
X45000Y75500D02*
X77000D01*
X42925Y73425D02*
X45000Y75500D01*
X81600Y79600D02*
X82900Y80900D01*
X82263Y78000D02*
X84500Y80237D01*
X7087Y73425D02*
X42925D01*
X7087Y113425D02*
X11575D01*
X21000Y104000D01*
X7087Y103425D02*
X12075D01*
X19500Y96000D02*
X33500D01*
X12075Y103425D02*
X19500Y96000D01*
D57*
X119063Y7463D02*
D03*
X109063D02*
D03*
X99063D02*
D03*
D58*
X89063D02*
D03*
D59*
X158268Y143425D02*
D03*
Y133425D02*
D03*
Y123425D02*
D03*
Y113425D02*
D03*
Y103425D02*
D03*
Y93425D02*
D03*
Y83425D02*
D03*
Y73425D02*
D03*
Y63425D02*
D03*
Y53425D02*
D03*
X7087Y143425D02*
D03*
Y133425D02*
D03*
Y123425D02*
D03*
Y113425D02*
D03*
Y103425D02*
D03*
Y93425D02*
D03*
Y83425D02*
D03*
Y73425D02*
D03*
Y63425D02*
D03*
Y53425D02*
D03*
D60*
X49500Y16500D02*
D03*
Y32000D02*
D03*
X20000Y165500D02*
D03*
X39500Y8500D02*
D03*
X34500D02*
D03*
X49500Y26000D02*
D03*
X76000Y158500D02*
D03*
X123000Y95000D02*
D03*
X115000D02*
D03*
X100000Y124500D02*
D03*
X118000Y157000D02*
D03*
X111000Y160500D02*
D03*
X156000Y22000D02*
D03*
Y35000D02*
D03*
X158500Y155500D02*
D03*
Y166000D02*
D03*
Y176000D02*
D03*
X111000Y189500D02*
D03*
X96500D02*
D03*
X54000D02*
D03*
X67500D02*
D03*
X82000D02*
D03*
X8000Y155500D02*
D03*
Y165500D02*
D03*
Y176000D02*
D03*
X86500Y37500D02*
D03*
X96100D02*
D03*
X96200Y47000D02*
D03*
X86600D02*
D03*
X86700Y57000D02*
D03*
X96300D02*
D03*
X124000Y73500D02*
D03*
X132500D02*
D03*
X141500D02*
D03*
X106200Y57000D02*
D03*
X106100Y47000D02*
D03*
X106000Y37500D02*
D03*
X27000Y39500D02*
D03*
X17000Y68000D02*
D03*
X24000D02*
D03*
X83000Y89500D02*
D03*
X73500Y99000D02*
D03*
X83500Y65000D02*
D03*
X117000Y131500D02*
D03*
X142000Y124500D02*
D03*
X137500Y123500D02*
D03*
X91133Y164500D02*
D03*
X90000Y111500D02*
D03*
X73500Y142000D02*
D03*
X108500Y111000D02*
D03*
X55000Y151500D02*
D03*
X69000Y159000D02*
D03*
X65000Y161500D02*
D03*
X61000Y159000D02*
D03*
X57000Y161500D02*
D03*
X146000Y113000D02*
D03*
X107500Y95500D02*
D03*
X111000Y89000D02*
D03*
X123000Y81000D02*
D03*
X145500Y44000D02*
D03*
X131500Y90500D02*
D03*
X53475Y69975D02*
D03*
X88500Y89000D02*
D03*
X33500Y137550D02*
D03*
X56500Y137500D02*
D03*
X74000Y152000D02*
D03*
X77000Y75500D02*
D03*
X79500Y82000D02*
D03*
X59750Y84250D02*
D03*
X21000Y104000D02*
D03*
X33500Y96000D02*
D03*
X42000Y69500D02*
D03*
X89000Y68500D02*
D03*
X53000Y84500D02*
D03*
X63000Y86500D02*
D03*
X75500Y84000D02*
D03*
X56500Y87000D02*
D03*
X56000Y109500D02*
D03*
X33450Y104550D02*
D03*
X139000Y104000D02*
D03*
X122000Y104500D02*
D03*
X23000Y60000D02*
D03*
X90500Y102500D02*
D03*
X45000Y100000D02*
D03*
X23500Y121500D02*
D03*
X33000Y62000D02*
D03*
X17000Y88000D02*
D03*
X24000D02*
D03*
Y78500D02*
D03*
X17000D02*
D03*
X69000Y65000D02*
D03*
X44500Y39500D02*
D03*
X35000D02*
D03*
X78500Y94000D02*
D03*
X42000Y61000D02*
D03*
X41000Y83500D02*
D03*
X114500Y153000D02*
D03*
X118500Y150500D02*
D03*
X142000Y140500D02*
D03*
X137500Y150500D02*
D03*
X105000Y157000D02*
D03*
X108000Y165500D02*
D03*
X95500Y159000D02*
D03*
X96500Y147000D02*
D03*
X100000Y150500D02*
D03*
X92000Y153000D02*
D03*
X35000Y177000D02*
D03*
X24000Y154000D02*
D03*
X69448Y179500D02*
D03*
X17500Y128500D02*
D03*
X124000Y170000D02*
D03*
X44500Y134000D02*
D03*
X55500Y120500D02*
D03*
X118500Y168000D02*
D03*
X123838Y133338D02*
D03*
X44000Y156000D02*
D03*
X53000Y160550D02*
D03*
X104500Y168000D02*
D03*
X98500Y137000D02*
D03*
X146500Y124500D02*
D03*
X121500Y119500D02*
D03*
X108500D02*
D03*
X111500Y131500D02*
D03*
X138500Y128000D02*
D03*
X105000Y132000D02*
D03*
X137000Y145500D02*
D03*
X93800Y125300D02*
D03*
X77000Y112500D02*
D03*
X73000Y132000D02*
D03*
X77000Y135000D02*
D03*
X112000Y168000D02*
D03*
X73500Y119500D02*
D03*
X73000Y126500D02*
D03*
X74000Y147000D02*
D03*
X141500Y83500D02*
D03*
X69000Y33500D02*
D03*
Y49500D02*
D03*
X132500Y83500D02*
D03*
X25000Y14000D02*
D03*
X20500D02*
D03*
X29500D02*
D03*
Y8500D02*
D03*
X56500Y65000D02*
D03*
X25000Y8500D02*
D03*
X20500D02*
D03*
M02*
