G04*
G04 #@! TF.GenerationSoftware,Altium Limited,Altium Designer,22.11.1 (43)*
G04*
G04 Layer_Physical_Order=1*
G04 Layer_Color=255*
%FSLAX25Y25*%
%MOIN*%
G70*
G04*
G04 #@! TF.SameCoordinates,D2032E32-7B9E-4814-9484-8CEA1A25EAEB*
G04*
G04*
G04 #@! TF.FilePolarity,Positive*
G04*
G01*
G75*
%ADD11C,0.01000*%
%ADD15C,0.00600*%
%ADD21R,0.09843X0.04331*%
%ADD22R,0.09213X0.14173*%
%ADD23R,0.07000X0.07000*%
%ADD24R,0.02559X0.03150*%
%ADD25R,0.01968X0.03150*%
%ADD26O,0.06817X0.01350*%
%ADD27R,0.07087X0.08661*%
%ADD28R,0.01181X0.04921*%
%ADD29O,0.07480X0.02362*%
%ADD30R,0.03150X0.03150*%
%ADD31R,0.05102X0.06919*%
%ADD32R,0.06919X0.05102*%
%ADD51R,0.03175X0.03402*%
%ADD52R,0.03402X0.03175*%
%ADD53R,0.05906X0.05256*%
%ADD54C,0.03000*%
%ADD55C,0.02000*%
%ADD56C,0.01500*%
%ADD57O,0.03937X0.04724*%
%ADD58R,0.03937X0.04724*%
%ADD59C,0.05906*%
%ADD60C,0.02500*%
G36*
X151410Y196380D02*
X150678Y195779D01*
X149481Y194321D01*
X148592Y192658D01*
X148045Y190853D01*
X147860Y188976D01*
X148045Y187100D01*
X148592Y185295D01*
X149481Y183632D01*
X150678Y182174D01*
X152136Y180977D01*
X153799Y180088D01*
X155604Y179541D01*
X157480Y179356D01*
X159357Y179541D01*
X161162Y180088D01*
X162825Y180977D01*
X164283Y182174D01*
X164884Y182906D01*
X165354Y182737D01*
Y14113D01*
X164884Y13945D01*
X164283Y14677D01*
X162825Y15873D01*
X161162Y16762D01*
X159357Y17310D01*
X157480Y17494D01*
X155604Y17310D01*
X153799Y16762D01*
X152136Y15873D01*
X150678Y14677D01*
X149481Y13219D01*
X148592Y11556D01*
X148045Y9751D01*
X147860Y7874D01*
X148045Y5997D01*
X148592Y4192D01*
X149481Y2529D01*
X150678Y1071D01*
X151410Y471D01*
X151241Y0D01*
X14113D01*
X13945Y471D01*
X14677Y1071D01*
X15873Y2529D01*
X16762Y4192D01*
X17160Y5503D01*
X17645Y5625D01*
X19635Y3635D01*
X20032Y3370D01*
X20500Y3277D01*
X44000D01*
X44468Y3370D01*
X44865Y3635D01*
X46365Y5135D01*
X46630Y5532D01*
X46723Y6000D01*
Y6757D01*
X66500D01*
X67358Y6928D01*
X69172D01*
X71838Y4262D01*
Y4262D01*
X72300Y4170D01*
Y3800D01*
X81700D01*
Y13200D01*
Y16205D01*
X81728Y16213D01*
X81923Y16245D01*
X82053Y16257D01*
X131950D01*
X132083Y16245D01*
X132279Y16213D01*
X132300Y16207D01*
Y13800D01*
Y3800D01*
X141700D01*
Y13200D01*
Y23200D01*
Y31037D01*
X152581Y41919D01*
X152913Y42415D01*
X153029Y43000D01*
Y86024D01*
X156004Y88999D01*
X156017Y89006D01*
X156105Y89043D01*
X156254Y89089D01*
X156461Y89136D01*
X156695Y89173D01*
X157805Y89248D01*
X158242Y89249D01*
X158358Y89272D01*
X158814D01*
X159871Y89556D01*
X160818Y90102D01*
X161591Y90875D01*
X162137Y91822D01*
X162420Y92879D01*
Y93972D01*
X162137Y95028D01*
X161591Y95975D01*
X160818Y96748D01*
X159871Y97295D01*
X158814Y97578D01*
X157721D01*
X156665Y97295D01*
X155718Y96748D01*
X154945Y95975D01*
X154398Y95028D01*
X154115Y93972D01*
Y93515D01*
X154092Y93399D01*
X154090Y92941D01*
X154078Y92553D01*
X154018Y91864D01*
X153978Y91618D01*
X153932Y91412D01*
X153886Y91262D01*
X153849Y91174D01*
X153841Y91161D01*
X150419Y87739D01*
X150087Y87243D01*
X149971Y86658D01*
Y43633D01*
X147529Y41192D01*
X147029Y41399D01*
Y41990D01*
X147040Y42008D01*
X147058Y42035D01*
X147175Y42176D01*
X147251Y42254D01*
X147313Y42348D01*
X147577Y42612D01*
X147950Y43513D01*
Y44487D01*
X147577Y45388D01*
X146888Y46077D01*
X145987Y46450D01*
X145013D01*
X144112Y46077D01*
X143423Y45388D01*
X143050Y44487D01*
Y43513D01*
X143423Y42612D01*
X143687Y42348D01*
X143749Y42254D01*
X143836Y42164D01*
X143891Y42101D01*
X143932Y42049D01*
X143960Y42008D01*
X143971Y41990D01*
Y41633D01*
X142367Y40029D01*
X141700D01*
Y43200D01*
X132300D01*
Y33800D01*
Y23800D01*
Y20793D01*
X132279Y20787D01*
X132083Y20755D01*
X131950Y20743D01*
X82053D01*
X81923Y20755D01*
X81728Y20787D01*
X81700Y20795D01*
Y23200D01*
Y33200D01*
Y43200D01*
X72300D01*
Y33800D01*
Y23800D01*
Y20793D01*
X72279Y20787D01*
X72083Y20755D01*
X71950Y20743D01*
X71500D01*
X70642Y20572D01*
X69914Y20086D01*
X67414Y17586D01*
X66999Y16965D01*
X66499Y17072D01*
Y29787D01*
X64934D01*
X64926Y29815D01*
X64894Y30009D01*
X64882Y30140D01*
Y37896D01*
X64894Y38026D01*
X64926Y38221D01*
X64934Y38249D01*
X67299D01*
Y45751D01*
X64849D01*
X64829Y45884D01*
X64821Y45982D01*
Y46422D01*
X64650Y47281D01*
X64164Y48009D01*
X62586Y49586D01*
X61858Y50072D01*
X61000Y50243D01*
X41857D01*
Y52347D01*
X41968Y52370D01*
X42365Y52635D01*
X45365Y55635D01*
X45630Y56032D01*
X45724Y56500D01*
Y62500D01*
X45630Y62968D01*
X45365Y63365D01*
X45222Y63509D01*
X45413Y63971D01*
X49000D01*
X49585Y64087D01*
X50081Y64419D01*
X53135Y67472D01*
X53155Y67478D01*
X53187Y67483D01*
X53369Y67500D01*
X53478Y67501D01*
X53588Y67525D01*
X53962D01*
X54863Y67898D01*
X55552Y68587D01*
X55925Y69488D01*
Y70462D01*
X55552Y71363D01*
Y73287D01*
X55633Y73369D01*
X55633D01*
X56011Y73665D01*
X56328Y73876D01*
X64226Y81774D01*
X64318Y81912D01*
X64384Y81931D01*
X64885Y81879D01*
X65125Y81464D01*
X64783Y80952D01*
X64637Y80220D01*
X64783Y79488D01*
X65149Y78940D01*
X64783Y78393D01*
X64637Y77661D01*
X64783Y76929D01*
X65149Y76381D01*
X64783Y75834D01*
X64637Y75102D01*
X64783Y74370D01*
X65149Y73822D01*
X64783Y73275D01*
X64637Y72543D01*
X64783Y71811D01*
X65197Y71191D01*
X65818Y70777D01*
X66549Y70631D01*
X72016D01*
X72747Y70777D01*
X78388Y73423D01*
X79077Y74112D01*
X79127Y74232D01*
X79255Y74257D01*
X79752Y74589D01*
X90031Y84869D01*
X90398D01*
X90753Y84632D01*
X91484Y84486D01*
X96951D01*
X97682Y84632D01*
X97826Y84727D01*
X98267Y84492D01*
Y83079D01*
X97733D01*
X97586Y83083D01*
X97474Y83091D01*
X97447Y83095D01*
X97436Y83094D01*
X96951Y83191D01*
X91484D01*
X90753Y83045D01*
X90132Y82631D01*
X89718Y82011D01*
X89572Y81279D01*
X89718Y80547D01*
X90084Y80000D01*
X89718Y79452D01*
X89572Y78720D01*
X89718Y77988D01*
X90084Y77441D01*
X89718Y76893D01*
X89572Y76161D01*
X89718Y75429D01*
X90084Y74882D01*
X89718Y74334D01*
X89572Y73602D01*
X89152Y73154D01*
X89032Y73130D01*
X88635Y72865D01*
X85635Y69865D01*
X85370Y69468D01*
X85277Y69000D01*
Y67000D01*
X85370Y66532D01*
X85635Y66135D01*
X86635Y65135D01*
X87032Y64870D01*
X87500Y64776D01*
X90000D01*
X90468Y64870D01*
X90865Y65135D01*
X91865Y66135D01*
X92130Y66532D01*
X92224Y67000D01*
Y67777D01*
X97000Y67777D01*
X97468Y67870D01*
X97865Y68135D01*
X98865Y69135D01*
X99130Y69532D01*
X99224Y70000D01*
X99224Y71499D01*
X99218Y71542D01*
X99222Y71566D01*
X99562Y72014D01*
X99832Y72068D01*
X100395Y72443D01*
X106826Y78874D01*
X107083Y79259D01*
X107662Y79386D01*
X109554Y77494D01*
X110117Y77119D01*
X110780Y76987D01*
X111792D01*
X112202Y76487D01*
X112137Y76161D01*
X112283Y75429D01*
X112649Y74882D01*
X112283Y74334D01*
X112137Y73602D01*
X112283Y72870D01*
X112649Y72322D01*
X112283Y71775D01*
X112137Y71043D01*
X112283Y70311D01*
X112697Y69691D01*
X113318Y69277D01*
X114049Y69131D01*
X119516D01*
X120247Y69277D01*
X120868Y69691D01*
X121282Y70311D01*
X121428Y71043D01*
X121282Y71775D01*
X120916Y72322D01*
X121282Y72870D01*
X121428Y73602D01*
X121282Y74334D01*
X120916Y74882D01*
X121282Y75429D01*
X121428Y76161D01*
X121282Y76893D01*
X120916Y77441D01*
X121282Y77988D01*
X121384Y78498D01*
X121839Y78786D01*
X121914Y78798D01*
X122513Y78550D01*
X123487D01*
X124388Y78923D01*
X125077Y79612D01*
X125450Y80513D01*
Y81487D01*
X125077Y82388D01*
X124388Y83077D01*
X123487Y83450D01*
X122513D01*
X122075Y83269D01*
X122020Y83267D01*
X116782D01*
X116399Y83191D01*
X114049D01*
X113318Y83045D01*
X112697Y82631D01*
X112283Y82011D01*
X112137Y81279D01*
X112190Y81016D01*
X111871Y80618D01*
X111353Y80598D01*
X109233Y82718D01*
Y86649D01*
X109733Y86873D01*
X110513Y86550D01*
X111487D01*
X111715Y86644D01*
X112159Y86287D01*
X112283Y85666D01*
X112697Y85046D01*
X113318Y84632D01*
X114049Y84486D01*
X119516D01*
X120247Y84632D01*
X120602Y84869D01*
X121898D01*
X122483Y84985D01*
X122979Y85317D01*
X128550Y90887D01*
X129050Y90680D01*
Y90013D01*
X129423Y89112D01*
X130112Y88423D01*
X131013Y88050D01*
X131987D01*
X132888Y88423D01*
X133152Y88687D01*
X133246Y88749D01*
X133336Y88836D01*
X133398Y88891D01*
X133451Y88932D01*
X133492Y88960D01*
X133510Y88971D01*
X136026D01*
X136611Y89087D01*
X137107Y89419D01*
X153281Y105593D01*
X153613Y106089D01*
X153729Y106675D01*
Y112386D01*
X154229Y112452D01*
X154398Y111822D01*
X154945Y110875D01*
X155718Y110102D01*
X156665Y109555D01*
X157721Y109273D01*
X158814D01*
X159871Y109555D01*
X160818Y110102D01*
X161591Y110875D01*
X162137Y111822D01*
X162420Y112879D01*
Y113972D01*
X162137Y115028D01*
X161591Y115975D01*
X160818Y116748D01*
X159871Y117295D01*
X158814Y117578D01*
X157721D01*
X156665Y117295D01*
X155718Y116748D01*
X154945Y115975D01*
X154398Y115028D01*
X154229Y114399D01*
X153729Y114465D01*
Y119367D01*
X155034Y120671D01*
X155131Y120669D01*
X155201Y120619D01*
X155718Y120102D01*
X156665Y119555D01*
X157721Y119272D01*
X158814D01*
X159871Y119555D01*
X160818Y120102D01*
X161591Y120875D01*
X162137Y121822D01*
X162420Y122879D01*
Y123972D01*
X162137Y125028D01*
X161591Y125975D01*
X160818Y126748D01*
X159871Y127295D01*
X158814Y127578D01*
X157721D01*
X156665Y127295D01*
X155718Y126748D01*
X154945Y125975D01*
X154398Y125028D01*
X154115Y123972D01*
Y123841D01*
X154025Y123823D01*
X153529Y123492D01*
X152591Y122554D01*
X152129Y122746D01*
Y135124D01*
X156004Y138998D01*
X156017Y139006D01*
X156105Y139043D01*
X156254Y139089D01*
X156461Y139136D01*
X156695Y139173D01*
X157805Y139248D01*
X158242Y139249D01*
X158358Y139272D01*
X158814D01*
X159871Y139556D01*
X160818Y140102D01*
X161591Y140875D01*
X162137Y141822D01*
X162420Y142878D01*
Y143972D01*
X162137Y145028D01*
X161591Y145975D01*
X160818Y146748D01*
X159871Y147295D01*
X158814Y147578D01*
X157721D01*
X156665Y147295D01*
X155718Y146748D01*
X154945Y145975D01*
X154398Y145028D01*
X154115Y143972D01*
Y143515D01*
X154092Y143399D01*
X154090Y142941D01*
X154078Y142553D01*
X154071Y142477D01*
X153551Y142264D01*
X147913Y147085D01*
X147581Y147581D01*
X140903Y154260D01*
X140407Y154591D01*
X139822Y154708D01*
X134602D01*
X134247Y154945D01*
X133516Y155090D01*
X128049D01*
X127318Y154945D01*
X126697Y154530D01*
X126283Y153910D01*
X126233Y153661D01*
X125733Y153710D01*
Y168216D01*
X125733Y168218D01*
X125738Y168235D01*
X125740Y168241D01*
X125769Y168272D01*
X125821Y168357D01*
X126077Y168612D01*
X126450Y169513D01*
Y170487D01*
X126077Y171388D01*
X125388Y172077D01*
X124487Y172450D01*
X123513D01*
X122612Y172077D01*
X121923Y171388D01*
X121550Y170487D01*
Y169513D01*
X121923Y168612D01*
X122179Y168357D01*
X122231Y168272D01*
X122260Y168241D01*
X122262Y168235D01*
X122266Y168218D01*
X122267Y168216D01*
Y167338D01*
X121805Y167147D01*
X120987Y167964D01*
X120986Y167965D01*
X120977Y167981D01*
X120974Y167986D01*
X120973Y168028D01*
X120950Y168126D01*
Y168487D01*
X120577Y169388D01*
X119888Y170077D01*
X118987Y170450D01*
X118013D01*
X117112Y170077D01*
X116423Y169388D01*
X116050Y168487D01*
Y167513D01*
X116423Y166612D01*
X117112Y165923D01*
X118013Y165550D01*
X118374D01*
X118472Y165527D01*
X118514Y165526D01*
X118519Y165523D01*
X118535Y165514D01*
X118536Y165513D01*
X120267Y163782D01*
Y152851D01*
X119767Y152627D01*
X118987Y152950D01*
X118013D01*
X117450Y152717D01*
X116950Y153051D01*
Y153487D01*
X116577Y154388D01*
X115888Y155077D01*
X114987Y155450D01*
X114013D01*
X113112Y155077D01*
X112944Y154909D01*
X112900Y154886D01*
X112692Y154717D01*
X112639Y154680D01*
X112585Y154646D01*
X112545Y154624D01*
X112531Y154619D01*
X112171D01*
X112150Y154632D01*
X112109Y154674D01*
X112066Y154691D01*
X112031Y154721D01*
X112002Y154731D01*
X111682Y154945D01*
X110951Y155090D01*
X105484D01*
X104753Y154945D01*
X104132Y154530D01*
X103718Y153910D01*
X103572Y153178D01*
X103718Y152447D01*
X104084Y151899D01*
X103718Y151351D01*
X103572Y150619D01*
X103718Y149888D01*
X104132Y149267D01*
X104753Y148853D01*
X105484Y148707D01*
X110951D01*
X111364Y148790D01*
X111413Y148788D01*
X111430Y148794D01*
X111448D01*
X111503Y148817D01*
X111682Y148853D01*
X111813Y148940D01*
X111859Y148958D01*
X111909Y148989D01*
X111926Y148998D01*
X111944Y149006D01*
X111961Y149013D01*
X111979Y149019D01*
X111999Y149024D01*
X112021Y149029D01*
X112030Y149030D01*
X116464D01*
X116494Y149009D01*
X116537Y148971D01*
X116591Y148920D01*
X116674Y148832D01*
X116777Y148758D01*
X117112Y148423D01*
X117573Y148232D01*
X117691Y147642D01*
X117282Y147233D01*
X111962D01*
X111821Y147240D01*
X111703Y147253D01*
X111682Y147267D01*
X111364Y147330D01*
X111317Y147344D01*
X111303Y147342D01*
X110951Y147412D01*
X105484D01*
X104753Y147267D01*
X104132Y146852D01*
X103718Y146232D01*
X103572Y145500D01*
X103637Y145175D01*
X103227Y144675D01*
X101277D01*
X98987Y146964D01*
X98986Y146966D01*
X98977Y146981D01*
X98974Y146986D01*
X98973Y147028D01*
X98950Y147126D01*
Y147487D01*
X98823Y147795D01*
X99205Y148177D01*
X99513Y148050D01*
X100487D01*
X101388Y148423D01*
X102077Y149112D01*
X102450Y150013D01*
Y150987D01*
X102077Y151888D01*
X101821Y152144D01*
X101769Y152228D01*
X101740Y152259D01*
X101738Y152265D01*
X101734Y152283D01*
X101733Y152284D01*
Y160500D01*
X101601Y161163D01*
X107486Y163024D01*
X107486Y163024D01*
X107955Y163050D01*
X108487D01*
X109388Y163423D01*
X110077Y164112D01*
X110450Y165013D01*
Y165449D01*
X110950Y165783D01*
X111513Y165550D01*
X112487D01*
X113388Y165923D01*
X114077Y166612D01*
X114450Y167513D01*
Y168487D01*
X114077Y169388D01*
X113995Y169470D01*
Y170448D01*
X114002Y170470D01*
X113996Y170526D01*
X114007Y170581D01*
X113995Y170639D01*
Y176690D01*
X110558D01*
X110414Y176690D01*
Y176690D01*
X110058D01*
Y176690D01*
X106621D01*
X106477Y176690D01*
Y176690D01*
X106121D01*
Y176690D01*
X102684D01*
X102540Y176690D01*
Y176690D01*
X102184D01*
Y176690D01*
X101684D01*
X101529Y176923D01*
X97726Y180726D01*
X97163Y181101D01*
X96500Y181233D01*
X71232D01*
X71231Y181234D01*
X71213Y181238D01*
X71207Y181240D01*
X71176Y181269D01*
X71092Y181321D01*
X70836Y181577D01*
X69935Y181950D01*
X68961D01*
X68060Y181577D01*
X67371Y180888D01*
X66998Y179987D01*
Y179013D01*
X67371Y178112D01*
X68060Y177423D01*
X68622Y177190D01*
X68523Y176690D01*
X67107D01*
Y176690D01*
X66751D01*
Y176690D01*
X63170D01*
X63170Y176690D01*
X62814D01*
Y176690D01*
X62670Y176690D01*
X59233D01*
X59233Y176690D01*
X58877D01*
Y176690D01*
X58733Y176690D01*
X55296D01*
Y176690D01*
X54940D01*
Y176690D01*
X51359D01*
Y173043D01*
X51341Y172955D01*
Y163780D01*
X48163Y160601D01*
X47500Y160733D01*
X39500D01*
X38837Y160601D01*
X28468Y157130D01*
X28000Y157223D01*
X23000D01*
X22532Y157130D01*
X22135Y156865D01*
X20635Y155365D01*
X20370Y154968D01*
X20277Y154500D01*
Y148866D01*
X11411Y145269D01*
X11242Y145363D01*
X11047Y145491D01*
X10842Y145645D01*
X10330Y146092D01*
X10054Y146364D01*
X9958Y146427D01*
X9636Y146748D01*
X8689Y147295D01*
X7633Y147578D01*
X6540D01*
X5484Y147295D01*
X4537Y146748D01*
X3764Y145975D01*
X3217Y145028D01*
X2934Y143972D01*
Y142878D01*
X3217Y141822D01*
X3764Y140875D01*
X4537Y140102D01*
X5484Y139556D01*
X6540Y139272D01*
X7633D01*
X8689Y139556D01*
X9636Y140102D01*
X9958Y140423D01*
X10054Y140487D01*
X10330Y140759D01*
X10842Y141205D01*
X11047Y141359D01*
X11242Y141487D01*
X11411Y141581D01*
X11550Y141644D01*
X11657Y141680D01*
X11712Y141692D01*
X13357D01*
X19594Y135455D01*
X19387Y134955D01*
X11817D01*
X11803Y134958D01*
X11715Y134994D01*
X11577Y135067D01*
X11398Y135181D01*
X11206Y135320D01*
X10368Y136052D01*
X10058Y136360D01*
X9960Y136425D01*
X9636Y136748D01*
X8689Y137295D01*
X7633Y137578D01*
X6540D01*
X5484Y137295D01*
X4537Y136748D01*
X3764Y135975D01*
X3217Y135028D01*
X2934Y133972D01*
Y132878D01*
X3217Y131822D01*
X3764Y130875D01*
X4537Y130102D01*
X5484Y129555D01*
X6540Y129272D01*
X7633D01*
X8689Y129555D01*
X9636Y130102D01*
X9960Y130425D01*
X10058Y130491D01*
X10383Y130814D01*
X10666Y131079D01*
X11196Y131524D01*
X15415Y127131D01*
X15423Y127112D01*
X15679Y126857D01*
X15731Y126772D01*
X15760Y126741D01*
X15762Y126735D01*
X15766Y126717D01*
X15767Y126716D01*
Y117561D01*
X15305Y117370D01*
X11513Y121161D01*
X11506Y121174D01*
X11469Y121262D01*
X11423Y121412D01*
X11376Y121618D01*
X11339Y121852D01*
X11264Y122962D01*
X11263Y123399D01*
X11239Y123515D01*
Y123972D01*
X10956Y125028D01*
X10410Y125975D01*
X9636Y126748D01*
X8689Y127295D01*
X7633Y127578D01*
X6540D01*
X5484Y127295D01*
X4537Y126748D01*
X3764Y125975D01*
X3217Y125028D01*
X2934Y123972D01*
Y122879D01*
X3217Y121822D01*
X3764Y120875D01*
X4537Y120102D01*
X5484Y119555D01*
X6540Y119272D01*
X6997D01*
X7112Y119249D01*
X7570Y119248D01*
X7959Y119235D01*
X8647Y119175D01*
X8894Y119136D01*
X9100Y119089D01*
X9250Y119043D01*
X9338Y119006D01*
X9350Y118999D01*
X14471Y113878D01*
Y103000D01*
X14587Y102415D01*
X14919Y101919D01*
X27462Y89376D01*
X27580Y89296D01*
X27958Y89000D01*
X27958D01*
X35971Y81527D01*
Y68000D01*
X34509Y66603D01*
X34468Y66630D01*
X34000Y66724D01*
X29500D01*
X29032Y66630D01*
X28635Y66365D01*
X26635Y64365D01*
X26370Y63968D01*
X26303Y63634D01*
X25824Y63406D01*
X24865Y64365D01*
X24468Y64630D01*
X24000Y64723D01*
X20000D01*
X19532Y64630D01*
X19135Y64365D01*
X16635Y61865D01*
X16599Y61811D01*
X16035Y61867D01*
X15906Y62177D01*
X15473Y62741D01*
X13208Y65007D01*
X12644Y65439D01*
X11987Y65711D01*
X11282Y65804D01*
X10508D01*
X10410Y65975D01*
X9636Y66748D01*
X8689Y67295D01*
X7633Y67578D01*
X6540D01*
X5484Y67295D01*
X4537Y66748D01*
X3764Y65975D01*
X3217Y65028D01*
X2934Y63972D01*
Y62879D01*
X3217Y61822D01*
X3764Y60875D01*
X4537Y60102D01*
X5484Y59556D01*
X6540Y59272D01*
X7633D01*
X8689Y59556D01*
X9636Y60102D01*
X9724Y60189D01*
X10322D01*
X10824Y59688D01*
Y57961D01*
X10800Y57494D01*
X10738Y57147D01*
X10650Y56882D01*
X10546Y56689D01*
X10465Y56590D01*
X10005Y56410D01*
X9934Y56451D01*
X9636Y56748D01*
X8689Y57295D01*
X7633Y57578D01*
X6540D01*
X5484Y57295D01*
X4537Y56748D01*
X3764Y55975D01*
X3217Y55028D01*
X2934Y53972D01*
Y52878D01*
X3217Y51822D01*
X3764Y50875D01*
X4537Y50102D01*
X5484Y49556D01*
X6540Y49272D01*
X7633D01*
X8689Y49556D01*
X9636Y50102D01*
X9934Y50400D01*
X10005Y50441D01*
X10465Y50260D01*
X10546Y50161D01*
X10650Y49968D01*
X10738Y49704D01*
X10800Y49356D01*
X10824Y48889D01*
Y42023D01*
X10074Y41273D01*
X9641Y40709D01*
X9369Y40052D01*
X9286Y39416D01*
X9277Y39376D01*
X9265Y38888D01*
X9234Y38497D01*
X9187Y38181D01*
X9130Y37945D01*
X9085Y37824D01*
X7847D01*
Y30168D01*
X16153D01*
Y37824D01*
X14915D01*
X14870Y37945D01*
X14813Y38181D01*
X14796Y38292D01*
X15473Y38969D01*
X15906Y39533D01*
X16178Y40190D01*
X16271Y40895D01*
Y52806D01*
X16771Y52999D01*
X17635Y52135D01*
X18032Y51870D01*
X18500Y51776D01*
X24500D01*
X24968Y51870D01*
X25365Y52135D01*
X25815Y52584D01*
X26276Y52393D01*
Y45500D01*
X26370Y45032D01*
X26635Y44635D01*
X29135Y42135D01*
X29532Y41870D01*
X30000Y41776D01*
X33000D01*
X33468Y41870D01*
X33865Y42135D01*
X35365Y43635D01*
X35630Y44032D01*
X35724Y44500D01*
Y45099D01*
X39518D01*
X39575Y45088D01*
X39633Y45099D01*
X40788D01*
Y45730D01*
X41101Y45757D01*
X57482D01*
X57979Y45751D01*
Y38249D01*
X60344D01*
X60352Y38221D01*
X60384Y38026D01*
X60396Y37896D01*
Y30140D01*
X60384Y30009D01*
X60352Y29815D01*
X60344Y29787D01*
X54887D01*
Y23793D01*
X54866Y23787D01*
X54669Y23755D01*
X54537Y23743D01*
X43778D01*
X43646Y23755D01*
X43449Y23787D01*
X43429Y23793D01*
Y24865D01*
X31723D01*
Y25000D01*
X31630Y25468D01*
X31365Y25865D01*
X29365Y27865D01*
X28968Y28130D01*
X28500Y28223D01*
X20000D01*
X19980Y28220D01*
X19961Y28223D01*
X19747Y28173D01*
X19532Y28130D01*
X19515Y28119D01*
X19496Y28115D01*
X19317Y27987D01*
X19135Y27865D01*
X19124Y27849D01*
X19107Y27837D01*
X16653Y25218D01*
X16461Y25240D01*
X16153Y25386D01*
Y28828D01*
X7847D01*
Y21172D01*
X9183D01*
X9208Y21046D01*
X9269Y20387D01*
X9277Y19976D01*
X9285Y19941D01*
X9369Y19295D01*
X9641Y18638D01*
X10074Y18074D01*
X10586Y17563D01*
X10328Y17134D01*
X9751Y17310D01*
X7874Y17494D01*
X5997Y17310D01*
X4192Y16762D01*
X2529Y15873D01*
X1071Y14677D01*
X471Y13945D01*
X0Y14113D01*
Y182737D01*
X471Y182906D01*
X1071Y182174D01*
X2529Y180977D01*
X4192Y180088D01*
X5997Y179541D01*
X7874Y179356D01*
X9751Y179541D01*
X11556Y180088D01*
X13219Y180977D01*
X14677Y182174D01*
X15873Y183632D01*
X16762Y185295D01*
X17310Y187100D01*
X17494Y188976D01*
X17310Y190853D01*
X16762Y192658D01*
X15873Y194321D01*
X14677Y195779D01*
X13945Y196380D01*
X14113Y196850D01*
X151241D01*
X151410Y196380D01*
D02*
G37*
G36*
X70417Y180304D02*
X70499Y180240D01*
X70585Y180184D01*
X70678Y180135D01*
X70775Y180094D01*
X70878Y180060D01*
X70987Y180034D01*
X71100Y180015D01*
X71219Y180004D01*
X71344Y180000D01*
Y179000D01*
X71219Y178996D01*
X71100Y178985D01*
X70987Y178966D01*
X70878Y178940D01*
X70775Y178906D01*
X70678Y178865D01*
X70585Y178816D01*
X70499Y178760D01*
X70417Y178696D01*
X70341Y178625D01*
Y180375D01*
X70417Y180304D01*
D02*
G37*
G36*
X112751Y170571D02*
X112722Y170541D01*
X112697Y170491D01*
X112675Y170421D01*
X112656Y170331D01*
X112641Y170221D01*
X112621Y169941D01*
X112617Y169734D01*
X112618Y169715D01*
X112628Y169596D01*
X112645Y169481D01*
X112668Y169371D01*
X112699Y169266D01*
X112736Y169165D01*
X112780Y169069D01*
X112831Y168978D01*
X112889Y168891D01*
X112953Y168809D01*
X111210Y168969D01*
X111287Y169038D01*
X111356Y169113D01*
X111416Y169194D01*
X111469Y169282D01*
X111513Y169376D01*
X111549Y169476D01*
X111578Y169582D01*
X111598Y169695D01*
X111610Y169814D01*
X111614Y169939D01*
X111618Y169939D01*
X111626Y170581D01*
X112783D01*
X112751Y170571D01*
D02*
G37*
G36*
X108814D02*
X108785Y170541D01*
X108760Y170491D01*
X108738Y170421D01*
X108719Y170331D01*
X108704Y170221D01*
X108684Y169941D01*
X108677Y169581D01*
X107677D01*
X107689Y170581D01*
X108846D01*
X108814Y170571D01*
D02*
G37*
G36*
X97038D02*
X97040Y170541D01*
X97046Y170091D01*
X97047Y169581D01*
X96047D01*
X96046Y169771D01*
X96005Y170331D01*
X95986Y170421D01*
X95964Y170491D01*
X95939Y170541D01*
X95910Y170571D01*
X95878Y170581D01*
X97035D01*
X97038Y170571D01*
D02*
G37*
G36*
X93080D02*
X93063Y170541D01*
X93048Y170491D01*
X93035Y170421D01*
X93025Y170331D01*
X93009Y170091D01*
X93000Y169581D01*
X92000D01*
X91999Y169771D01*
X91952Y170571D01*
X91941Y170581D01*
X93098D01*
X93080Y170571D01*
D02*
G37*
G36*
X89146D02*
X89133Y170541D01*
X89121Y170491D01*
X89111Y170421D01*
X89095Y170221D01*
X89083Y169581D01*
X88083D01*
X88082Y169771D01*
X88032Y170541D01*
X88019Y170571D01*
X88004Y170581D01*
X89161D01*
X89146Y170571D01*
D02*
G37*
G36*
X85209D02*
X85196Y170541D01*
X85184Y170491D01*
X85174Y170421D01*
X85158Y170221D01*
X85146Y169581D01*
X84146D01*
X84145Y169771D01*
X84095Y170541D01*
X84082Y170571D01*
X84067Y170581D01*
X85224D01*
X85209Y170571D01*
D02*
G37*
G36*
X81272D02*
X81259Y170541D01*
X81247Y170491D01*
X81237Y170421D01*
X81221Y170221D01*
X81209Y169581D01*
X80209D01*
X80208Y169771D01*
X80158Y170541D01*
X80145Y170571D01*
X80130Y170581D01*
X81287D01*
X81272Y170571D01*
D02*
G37*
G36*
X69471D02*
X69466Y170541D01*
X69462Y170491D01*
X69451Y170091D01*
X69449Y169581D01*
X68449D01*
X68448Y169771D01*
X68402Y170421D01*
X68385Y170491D01*
X68366Y170541D01*
X68344Y170571D01*
X68319Y170581D01*
X69476D01*
X69471Y170571D01*
D02*
G37*
G36*
X65528D02*
X65518Y170541D01*
X65509Y170491D01*
X65501Y170421D01*
X65486Y170091D01*
X65480Y169581D01*
X64480D01*
X64479Y169771D01*
X64432Y170491D01*
X64417Y170541D01*
X64401Y170571D01*
X64382Y170581D01*
X65539D01*
X65528Y170571D01*
D02*
G37*
G36*
X61585D02*
X61570Y170541D01*
X61556Y170491D01*
X61544Y170421D01*
X61534Y170331D01*
X61515Y169941D01*
X61512Y169581D01*
X60512D01*
X60511Y169771D01*
X60458Y170571D01*
X60445Y170581D01*
X61602D01*
X61585Y170571D01*
D02*
G37*
G36*
X57642D02*
X57621Y170541D01*
X57603Y170491D01*
X57587Y170421D01*
X57574Y170331D01*
X57554Y170091D01*
X57543Y169581D01*
X56543D01*
X56508Y170581D01*
X57665D01*
X57642Y170571D01*
D02*
G37*
G36*
X53699D02*
X53673Y170541D01*
X53650Y170491D01*
X53630Y170421D01*
X53613Y170331D01*
X53599Y170221D01*
X53581Y169941D01*
X53575Y169581D01*
X52575D01*
X52571Y170581D01*
X53728D01*
X53699Y170571D01*
D02*
G37*
G36*
X104894D02*
X104881Y170541D01*
X104869Y170491D01*
X104859Y170421D01*
X104843Y170221D01*
X104835Y169824D01*
X104847Y169711D01*
X104868Y169599D01*
X104897Y169494D01*
X104935Y169396D01*
X104980Y169304D01*
X105034Y169219D01*
X105096Y169140D01*
X105167Y169068D01*
X105246Y169003D01*
X103512Y168766D01*
X103573Y168850D01*
X103627Y168939D01*
X103675Y169032D01*
X103716Y169130D01*
X103751Y169231D01*
X103780Y169337D01*
X103802Y169448D01*
X103818Y169563D01*
X103828Y169682D01*
X103830Y169772D01*
X103780Y170541D01*
X103767Y170571D01*
X103752Y170581D01*
X104909D01*
X104894Y170571D01*
D02*
G37*
G36*
X124804Y169031D02*
X124740Y168950D01*
X124684Y168863D01*
X124635Y168770D01*
X124594Y168673D01*
X124560Y168570D01*
X124534Y168462D01*
X124515Y168348D01*
X124504Y168229D01*
X124500Y168104D01*
X123500D01*
X123496Y168229D01*
X123485Y168348D01*
X123466Y168462D01*
X123440Y168570D01*
X123406Y168673D01*
X123365Y168770D01*
X123316Y168863D01*
X123260Y168950D01*
X123196Y169031D01*
X123125Y169107D01*
X124875D01*
X124804Y169031D01*
D02*
G37*
G36*
X119753Y167883D02*
X119766Y167780D01*
X119788Y167679D01*
X119818Y167580D01*
X119858Y167481D01*
X119907Y167385D01*
X119965Y167289D01*
X120032Y167196D01*
X120109Y167104D01*
X120194Y167013D01*
X119487Y166306D01*
X119396Y166391D01*
X119304Y166468D01*
X119211Y166535D01*
X119115Y166593D01*
X119019Y166642D01*
X118920Y166682D01*
X118821Y166712D01*
X118719Y166734D01*
X118617Y166747D01*
X118512Y166750D01*
X119750Y167988D01*
X119753Y167883D01*
D02*
G37*
G36*
X108677Y167301D02*
X108680Y167177D01*
X108690Y167058D01*
X108705Y166943D01*
X108728Y166832D01*
X108756Y166726D01*
X108791Y166624D01*
X108832Y166526D01*
X108879Y166433D01*
X108933Y166344D01*
X108993Y166260D01*
X107260Y166508D01*
X107340Y166572D01*
X107410Y166644D01*
X107473Y166722D01*
X107527Y166806D01*
X107573Y166898D01*
X107610Y166997D01*
X107640Y167102D01*
X107660Y167213D01*
X107673Y167332D01*
X107677Y167458D01*
X108677Y167301D01*
D02*
G37*
G36*
X92685Y165751D02*
X92598Y165658D01*
X92524Y165566D01*
X92461Y165472D01*
X92410Y165378D01*
X92370Y165283D01*
X92342Y165188D01*
X92326Y165092D01*
X92321Y164995D01*
X92328Y164897D01*
X92346Y164799D01*
X90858Y165719D01*
X90956Y165745D01*
X91053Y165777D01*
X91149Y165816D01*
X91244Y165861D01*
X91338Y165913D01*
X91431Y165972D01*
X91523Y166037D01*
X91704Y166188D01*
X91793Y166273D01*
X92685Y165751D01*
D02*
G37*
G36*
X65484Y163279D02*
X65496Y163161D01*
X65515Y163047D01*
X65541Y162939D01*
X65575Y162837D01*
X65617Y162739D01*
X65667Y162648D01*
X65724Y162562D01*
X65789Y162481D01*
X65861Y162406D01*
X64111Y162379D01*
X64181Y162456D01*
X64244Y162539D01*
X64299Y162626D01*
X64347Y162719D01*
X64388Y162818D01*
X64421Y162921D01*
X64447Y163030D01*
X64466Y163144D01*
X64477Y163263D01*
X64480Y163387D01*
X65480Y163404D01*
X65484Y163279D01*
D02*
G37*
G36*
X57543Y163376D02*
X57547Y163252D01*
X57558Y163132D01*
X57576Y163018D01*
X57601Y162909D01*
X57634Y162805D01*
X57674Y162707D01*
X57721Y162613D01*
X57775Y162524D01*
X57837Y162440D01*
X57905Y162362D01*
X56156Y162423D01*
X56230Y162496D01*
X56296Y162575D01*
X56354Y162660D01*
X56404Y162751D01*
X56447Y162847D01*
X56481Y162949D01*
X56508Y163057D01*
X56528Y163170D01*
X56539Y163289D01*
X56543Y163414D01*
X57543Y163376D01*
D02*
G37*
G36*
X53575Y162410D02*
X53578Y162286D01*
X53589Y162167D01*
X53606Y162053D01*
X53631Y161943D01*
X53663Y161838D01*
X53702Y161739D01*
X53747Y161644D01*
X53800Y161554D01*
X53860Y161469D01*
X53927Y161389D01*
X52180Y161494D01*
X52255Y161565D01*
X52322Y161643D01*
X52381Y161726D01*
X52433Y161815D01*
X52476Y161910D01*
X52512Y162012D01*
X52539Y162119D01*
X52559Y162232D01*
X52571Y162351D01*
X52575Y162476D01*
X53575Y162410D01*
D02*
G37*
G36*
X61512Y160890D02*
X61516Y160766D01*
X61527Y160647D01*
X61545Y160533D01*
X61571Y160425D01*
X61605Y160321D01*
X61646Y160223D01*
X61694Y160131D01*
X61750Y160043D01*
X61813Y159961D01*
X61883Y159884D01*
X60133Y159901D01*
X60205Y159976D01*
X60270Y160057D01*
X60326Y160144D01*
X60376Y160236D01*
X60417Y160333D01*
X60451Y160435D01*
X60478Y160544D01*
X60497Y160657D01*
X60508Y160776D01*
X60512Y160901D01*
X61512Y160890D01*
D02*
G37*
G36*
X69453Y160792D02*
X69464Y160673D01*
X69484Y160560D01*
X69511Y160452D01*
X69546Y160351D01*
X69589Y160255D01*
X69639Y160164D01*
X69698Y160080D01*
X69764Y160001D01*
X69838Y159928D01*
X68089Y159856D01*
X68158Y159935D01*
X68219Y160019D01*
X68273Y160108D01*
X68319Y160202D01*
X68359Y160301D01*
X68391Y160406D01*
X68417Y160515D01*
X68435Y160629D01*
X68445Y160748D01*
X68449Y160872D01*
X69449Y160917D01*
X69453Y160792D01*
D02*
G37*
G36*
X96304Y158031D02*
X96240Y157950D01*
X96184Y157863D01*
X96135Y157770D01*
X96094Y157673D01*
X96060Y157570D01*
X96034Y157462D01*
X96015Y157348D01*
X96004Y157229D01*
X96000Y157104D01*
X95000D01*
X94996Y157229D01*
X94985Y157348D01*
X94966Y157462D01*
X94940Y157570D01*
X94906Y157673D01*
X94865Y157770D01*
X94816Y157863D01*
X94760Y157950D01*
X94696Y158031D01*
X94625Y158107D01*
X96375D01*
X96304Y158031D01*
D02*
G37*
G36*
X44969Y156804D02*
X45050Y156740D01*
X45137Y156684D01*
X45230Y156635D01*
X45327Y156594D01*
X45430Y156560D01*
X45538Y156534D01*
X45652Y156515D01*
X45771Y156504D01*
X45896Y156500D01*
Y155500D01*
X45771Y155496D01*
X45652Y155485D01*
X45538Y155466D01*
X45430Y155440D01*
X45327Y155406D01*
X45230Y155365D01*
X45137Y155316D01*
X45050Y155260D01*
X44969Y155196D01*
X44893Y155125D01*
Y156875D01*
X44969Y156804D01*
D02*
G37*
G36*
X48909Y153919D02*
X48921Y153761D01*
X48942Y153622D01*
X48971Y153501D01*
X49009Y153399D01*
X49055Y153316D01*
X49109Y153251D01*
X49171Y153204D01*
X49242Y153176D01*
X49321Y153167D01*
X47489D01*
X47568Y153176D01*
X47638Y153204D01*
X47701Y153251D01*
X47755Y153316D01*
X47801Y153399D01*
X47838Y153501D01*
X47867Y153622D01*
X47888Y153761D01*
X47901Y153919D01*
X47905Y154095D01*
X48905D01*
X48909Y153919D01*
D02*
G37*
G36*
X133814Y153713D02*
X133841Y153664D01*
X133887Y153620D01*
X133950Y153583D01*
X134032Y153551D01*
X134132Y153525D01*
X134250Y153504D01*
X134386Y153490D01*
X134713Y153478D01*
Y152878D01*
X134540Y152875D01*
X134250Y152852D01*
X134132Y152832D01*
X134032Y152806D01*
X133950Y152774D01*
X133887Y152736D01*
X133841Y152693D01*
X133814Y152643D01*
X133805Y152588D01*
Y153768D01*
X133814Y153713D01*
D02*
G37*
G36*
X111469Y153606D02*
X111516Y153560D01*
X111572Y153520D01*
X111636Y153485D01*
X111707Y153456D01*
X111787Y153432D01*
X111874Y153413D01*
X111970Y153400D01*
X112074Y153392D01*
X112185Y153389D01*
X112088Y152789D01*
X111985Y152787D01*
X111788Y152768D01*
X111695Y152751D01*
X111606Y152730D01*
X111519Y152704D01*
X111437Y152674D01*
X111357Y152638D01*
X111282Y152598D01*
X111209Y152553D01*
X111429Y153656D01*
X111469Y153606D01*
D02*
G37*
G36*
X113547Y152191D02*
X113445Y152304D01*
X113344Y152406D01*
X113241Y152496D01*
X113139Y152574D01*
X113036Y152640D01*
X112933Y152693D01*
X112829Y152735D01*
X112726Y152765D01*
X112622Y152783D01*
X112518Y152789D01*
X112562Y153389D01*
X112662Y153395D01*
X112764Y153411D01*
X112868Y153438D01*
X112975Y153477D01*
X113085Y153526D01*
X113197Y153586D01*
X113312Y153657D01*
X113429Y153739D01*
X113672Y153936D01*
X113547Y152191D01*
D02*
G37*
G36*
X100504Y152271D02*
X100515Y152152D01*
X100534Y152039D01*
X100560Y151930D01*
X100594Y151827D01*
X100635Y151730D01*
X100684Y151637D01*
X100740Y151550D01*
X100804Y151469D01*
X100875Y151393D01*
X99125D01*
X99196Y151469D01*
X99260Y151550D01*
X99316Y151637D01*
X99365Y151730D01*
X99406Y151827D01*
X99440Y151930D01*
X99466Y152039D01*
X99485Y152152D01*
X99496Y152271D01*
X99500Y152396D01*
X100500D01*
X100504Y152271D01*
D02*
G37*
G36*
X91988Y151750D02*
X91883Y151747D01*
X91781Y151734D01*
X91679Y151712D01*
X91580Y151681D01*
X91481Y151642D01*
X91385Y151593D01*
X91290Y151535D01*
X91196Y151468D01*
X91104Y151391D01*
X91013Y151306D01*
X90306Y152013D01*
X90391Y152104D01*
X90468Y152196D01*
X90535Y152289D01*
X90593Y152385D01*
X90642Y152481D01*
X90681Y152580D01*
X90712Y152679D01*
X90734Y152780D01*
X90747Y152883D01*
X90750Y152988D01*
X91988Y151750D01*
D02*
G37*
G36*
X73107Y151125D02*
X73077Y151149D01*
X73034Y151170D01*
X72979Y151189D01*
X72911Y151205D01*
X72832Y151219D01*
X72636Y151239D01*
X72391Y151249D01*
X72250Y151250D01*
Y152750D01*
X72391Y152751D01*
X72832Y152781D01*
X72911Y152795D01*
X72979Y152811D01*
X73034Y152830D01*
X73077Y152851D01*
X73107Y152875D01*
Y151125D01*
D02*
G37*
G36*
X45579Y151010D02*
X45565Y151103D01*
X45521Y151186D01*
X45449Y151260D01*
X45347Y151323D01*
X45217Y151377D01*
X45058Y151421D01*
X44869Y151456D01*
X44652Y151480D01*
X44406Y151495D01*
X44131Y151500D01*
Y152500D01*
X44406Y152505D01*
X44869Y152544D01*
X45058Y152578D01*
X45217Y152623D01*
X45347Y152677D01*
X45449Y152740D01*
X45521Y152814D01*
X45565Y152897D01*
X45579Y152990D01*
Y151010D01*
D02*
G37*
G36*
X70482Y152970D02*
X70586Y152924D01*
X70712Y152883D01*
X70860Y152848D01*
X71030Y152818D01*
X71435Y152774D01*
X71929Y152753D01*
X72209Y152750D01*
Y151250D01*
X71929Y151247D01*
X71030Y151182D01*
X70860Y151152D01*
X70712Y151117D01*
X70586Y151076D01*
X70482Y151030D01*
X70401Y150979D01*
Y153021D01*
X70482Y152970D01*
D02*
G37*
G36*
X32356Y151163D02*
X32370Y150996D01*
X32394Y150848D01*
X32427Y150719D01*
X32469Y150611D01*
X32521Y150522D01*
X32582Y150453D01*
X32653Y150404D01*
X32734Y150374D01*
X32823Y150364D01*
X30879D01*
X30968Y150374D01*
X31049Y150404D01*
X31120Y150453D01*
X31181Y150522D01*
X31233Y150611D01*
X31275Y150719D01*
X31308Y150848D01*
X31332Y150996D01*
X31346Y151163D01*
X31351Y151351D01*
X32351D01*
X32356Y151163D01*
D02*
G37*
G36*
X127760Y150029D02*
X127751Y150084D01*
X127724Y150134D01*
X127678Y150177D01*
X127615Y150215D01*
X127533Y150247D01*
X127433Y150273D01*
X127315Y150293D01*
X127179Y150308D01*
X126852Y150319D01*
Y150919D01*
X127025Y150922D01*
X127315Y150945D01*
X127433Y150966D01*
X127533Y150992D01*
X127615Y151024D01*
X127678Y151061D01*
X127724Y151105D01*
X127751Y151154D01*
X127760Y151209D01*
Y150029D01*
D02*
G37*
G36*
X111465Y151052D02*
X111510Y151012D01*
X111563Y150976D01*
X111625Y150945D01*
X111696Y150919D01*
X111775Y150898D01*
X111863Y150881D01*
X111960Y150869D01*
X112065Y150862D01*
X112179Y150860D01*
X112108Y150260D01*
X112009Y150257D01*
X111912Y150249D01*
X111817Y150236D01*
X111723Y150217D01*
X111633Y150193D01*
X111544Y150164D01*
X111457Y150130D01*
X111372Y150090D01*
X111290Y150045D01*
X111209Y149995D01*
X111429Y151097D01*
X111465Y151052D01*
D02*
G37*
G36*
X117567Y149669D02*
X117461Y149781D01*
X117356Y149881D01*
X117252Y149970D01*
X117147Y150047D01*
X117043Y150112D01*
X116938Y150165D01*
X116834Y150206D01*
X116730Y150236D01*
X116627Y150254D01*
X116523Y150260D01*
X116553Y150860D01*
X116653Y150865D01*
X116756Y150882D01*
X116860Y150910D01*
X116967Y150949D01*
X117075Y150999D01*
X117186Y151060D01*
X117299Y151133D01*
X117414Y151216D01*
X117650Y151417D01*
X117567Y149669D01*
D02*
G37*
G36*
X55804Y150531D02*
X55740Y150450D01*
X55684Y150363D01*
X55635Y150270D01*
X55594Y150173D01*
X55560Y150070D01*
X55534Y149961D01*
X55515Y149848D01*
X55504Y149729D01*
X55500Y149604D01*
X54500D01*
X54496Y149729D01*
X54485Y149848D01*
X54466Y149961D01*
X54440Y150070D01*
X54406Y150173D01*
X54365Y150270D01*
X54316Y150363D01*
X54260Y150450D01*
X54196Y150531D01*
X54125Y150607D01*
X55875D01*
X55804Y150531D01*
D02*
G37*
G36*
X144971Y145867D02*
Y126510D01*
X144960Y126492D01*
X144942Y126465D01*
X144825Y126324D01*
X144749Y126246D01*
X144687Y126152D01*
X144423Y125888D01*
X144050Y124987D01*
Y124013D01*
X144423Y123112D01*
X145112Y122423D01*
X145595Y122223D01*
X145500Y121733D01*
X138500D01*
X137837Y121601D01*
X137274Y121226D01*
X136158Y120110D01*
X135891Y120160D01*
X135658Y120294D01*
Y123000D01*
Y127152D01*
X136158Y127251D01*
X136423Y126612D01*
X137112Y125923D01*
X138013Y125550D01*
X138987D01*
X139888Y125923D01*
X140577Y126612D01*
X140950Y127513D01*
Y127874D01*
X140973Y127972D01*
X140974Y128014D01*
X140977Y128019D01*
X140986Y128035D01*
X140987Y128036D01*
X143226Y130274D01*
X143601Y130837D01*
X143733Y131500D01*
Y138716D01*
X143734Y138717D01*
X143738Y138735D01*
X143740Y138741D01*
X143769Y138772D01*
X143821Y138856D01*
X144077Y139112D01*
X144450Y140013D01*
Y140987D01*
X144077Y141888D01*
X143388Y142577D01*
X142487Y142950D01*
X141513D01*
X140612Y142577D01*
X139923Y141888D01*
X139450Y142361D01*
Y145987D01*
X139077Y146888D01*
X138388Y147577D01*
X137487Y147950D01*
X136513D01*
X135612Y147577D01*
X135523Y147488D01*
X133441D01*
X133058Y147412D01*
X128049D01*
X127916Y147386D01*
X127529Y147703D01*
Y148417D01*
X127916Y148734D01*
X128049Y148707D01*
X133516D01*
X134247Y148853D01*
X134868Y149267D01*
X135282Y149888D01*
X135428Y150619D01*
X135322Y151149D01*
X135639Y151649D01*
X139188D01*
X144971Y145867D01*
D02*
G37*
G36*
X36266Y149706D02*
X36296Y149621D01*
X36347Y149546D01*
X36417Y149481D01*
X36509Y149426D01*
X36620Y149381D01*
X36751Y149346D01*
X36903Y149321D01*
X37075Y149306D01*
X37268Y149301D01*
Y148301D01*
X37075Y148296D01*
X36903Y148281D01*
X36751Y148256D01*
X36620Y148221D01*
X36509Y148176D01*
X36417Y148121D01*
X36347Y148056D01*
X36296Y147981D01*
X36266Y147896D01*
X36255Y147801D01*
Y149801D01*
X36266Y149706D01*
D02*
G37*
G36*
X30000Y154000D02*
Y151576D01*
X29667D01*
Y150422D01*
X29655Y150364D01*
X29667Y150306D01*
Y150278D01*
X29663Y150230D01*
X29667Y150217D01*
Y147167D01*
X29500Y147000D01*
X22000D01*
X21500Y147500D01*
Y154500D01*
X23000Y156000D01*
X28000D01*
X30000Y154000D01*
D02*
G37*
G36*
X52304Y147600D02*
X52327Y147589D01*
X52365Y147580D01*
X52418Y147572D01*
X52569Y147559D01*
X52907Y147550D01*
X53049Y147549D01*
Y146549D01*
X52915Y146549D01*
X52408Y146518D01*
X52373Y146508D01*
X52352Y146497D01*
X52346Y146484D01*
X52296Y147612D01*
X52304Y147600D01*
D02*
G37*
G36*
X73107Y146125D02*
X73031Y146196D01*
X72950Y146260D01*
X72863Y146316D01*
X72770Y146365D01*
X72673Y146406D01*
X72570Y146440D01*
X72461Y146466D01*
X72348Y146485D01*
X72229Y146496D01*
X72104Y146500D01*
Y147500D01*
X72229Y147504D01*
X72348Y147515D01*
X72461Y147534D01*
X72570Y147560D01*
X72673Y147594D01*
X72770Y147635D01*
X72863Y147684D01*
X72950Y147740D01*
X73031Y147804D01*
X73107Y147875D01*
Y146125D01*
D02*
G37*
G36*
X70435Y147897D02*
X70479Y147814D01*
X70551Y147740D01*
X70653Y147677D01*
X70783Y147623D01*
X70942Y147579D01*
X71131Y147544D01*
X71348Y147520D01*
X71594Y147505D01*
X71869Y147500D01*
Y146500D01*
X71594Y146495D01*
X71131Y146456D01*
X70942Y146422D01*
X70783Y146377D01*
X70653Y146323D01*
X70551Y146260D01*
X70479Y146186D01*
X70435Y146103D01*
X70421Y146010D01*
Y147991D01*
X70435Y147897D01*
D02*
G37*
G36*
X64083Y146010D02*
X64069Y146103D01*
X64025Y146186D01*
X63953Y146260D01*
X63851Y146323D01*
X63721Y146377D01*
X63562Y146422D01*
X63373Y146456D01*
X63156Y146480D01*
X62910Y146495D01*
X62635Y146500D01*
Y147500D01*
X62910Y147505D01*
X63373Y147544D01*
X63562Y147579D01*
X63721Y147623D01*
X63851Y147677D01*
X63953Y147740D01*
X64025Y147814D01*
X64069Y147897D01*
X64083Y147991D01*
Y146010D01*
D02*
G37*
G36*
X45579D02*
X45565Y146103D01*
X45521Y146186D01*
X45449Y146260D01*
X45347Y146323D01*
X45217Y146377D01*
X45058Y146422D01*
X44869Y146456D01*
X44652Y146480D01*
X44406Y146495D01*
X44131Y146500D01*
Y147500D01*
X44406Y147505D01*
X44869Y147544D01*
X45058Y147579D01*
X45217Y147623D01*
X45347Y147677D01*
X45449Y147740D01*
X45521Y147814D01*
X45565Y147897D01*
X45579Y147991D01*
Y146010D01*
D02*
G37*
G36*
X97753Y146883D02*
X97766Y146781D01*
X97788Y146679D01*
X97818Y146580D01*
X97858Y146481D01*
X97907Y146385D01*
X97965Y146290D01*
X98032Y146196D01*
X98109Y146104D01*
X98194Y146013D01*
X97487Y145306D01*
X97396Y145391D01*
X97304Y145468D01*
X97211Y145535D01*
X97115Y145593D01*
X97019Y145642D01*
X96920Y145682D01*
X96821Y145712D01*
X96719Y145734D01*
X96617Y145747D01*
X96513Y145750D01*
X97750Y146987D01*
X97753Y146883D01*
D02*
G37*
G36*
X111255Y146101D02*
X111317Y146080D01*
X111395Y146061D01*
X111489Y146045D01*
X111726Y146020D01*
X112029Y146005D01*
X112396Y146000D01*
Y145000D01*
X112204Y144999D01*
X111489Y144955D01*
X111395Y144939D01*
X111317Y144920D01*
X111255Y144899D01*
X111209Y144876D01*
Y146125D01*
X111255Y146101D01*
D02*
G37*
G36*
X136107Y144625D02*
X136077Y144649D01*
X136034Y144670D01*
X135979Y144689D01*
X135911Y144705D01*
X135832Y144719D01*
X135636Y144739D01*
X135391Y144749D01*
X135250Y144750D01*
X135250Y146250D01*
X135391Y146251D01*
X135832Y146281D01*
X135911Y146295D01*
X135979Y146311D01*
X136034Y146330D01*
X136077Y146351D01*
X136107Y146375D01*
X136107Y144625D01*
D02*
G37*
G36*
X105226Y142316D02*
X105180Y142340D01*
X105118Y142361D01*
X105040Y142380D01*
X104946Y142396D01*
X104709Y142421D01*
X104406Y142436D01*
X104039Y142441D01*
Y143441D01*
X104231Y143442D01*
X104946Y143486D01*
X105040Y143502D01*
X105118Y143521D01*
X105180Y143542D01*
X105226Y143566D01*
Y142316D01*
D02*
G37*
G36*
X45200Y141388D02*
X45192Y141400D01*
X45169Y141410D01*
X45131Y141419D01*
X45079Y141427D01*
X44928Y141439D01*
X44591Y141448D01*
X44449Y141449D01*
Y142449D01*
X44582Y142449D01*
X45087Y142480D01*
X45121Y142489D01*
X45142Y142500D01*
X45149Y142512D01*
X45200Y141388D01*
D02*
G37*
G36*
X9498Y145194D02*
X10072Y144693D01*
X10344Y144489D01*
X10606Y144317D01*
X10859Y144176D01*
X11101Y144066D01*
X11333Y143988D01*
X11556Y143941D01*
X11768Y143925D01*
Y142925D01*
X11556Y142910D01*
X11333Y142862D01*
X11101Y142784D01*
X10859Y142675D01*
X10606Y142534D01*
X10344Y142361D01*
X10072Y142157D01*
X9498Y141656D01*
X9195Y141358D01*
Y145492D01*
X9498Y145194D01*
D02*
G37*
G36*
X70435Y142897D02*
X70479Y142814D01*
X70551Y142740D01*
X70653Y142677D01*
X70783Y142623D01*
X70942Y142578D01*
X71131Y142544D01*
X71348Y142520D01*
X71594Y142505D01*
X71703Y142503D01*
X71729Y142504D01*
X71848Y142515D01*
X71961Y142534D01*
X72070Y142560D01*
X72173Y142594D01*
X72270Y142635D01*
X72363Y142684D01*
X72450Y142740D01*
X72531Y142804D01*
X72607Y142875D01*
Y141125D01*
X72531Y141196D01*
X72450Y141260D01*
X72363Y141316D01*
X72270Y141365D01*
X72173Y141406D01*
X72070Y141440D01*
X71961Y141466D01*
X71848Y141485D01*
X71729Y141496D01*
X71703Y141497D01*
X71594Y141495D01*
X71131Y141456D01*
X70942Y141421D01*
X70783Y141377D01*
X70653Y141323D01*
X70551Y141260D01*
X70479Y141186D01*
X70435Y141103D01*
X70421Y141009D01*
Y142991D01*
X70435Y142897D01*
D02*
G37*
G36*
X64103Y140979D02*
X63978Y141068D01*
X63849Y141149D01*
X63715Y141219D01*
X63576Y141281D01*
X63434Y141333D01*
X63287Y141375D01*
X63135Y141408D01*
X62980Y141432D01*
X62819Y141446D01*
X62655Y141451D01*
X62614Y142451D01*
X62885Y142455D01*
X63339Y142495D01*
X63523Y142529D01*
X63678Y142573D01*
X63804Y142627D01*
X63901Y142691D01*
X63969Y142765D01*
X64008Y142848D01*
X64019Y142941D01*
X64103Y140979D01*
D02*
G37*
G36*
X36266Y142619D02*
X36296Y142534D01*
X36347Y142459D01*
X36417Y142394D01*
X36509Y142339D01*
X36620Y142294D01*
X36751Y142259D01*
X36903Y142234D01*
X37075Y142219D01*
X37268Y142214D01*
Y141214D01*
X37075Y141209D01*
X36903Y141194D01*
X36751Y141169D01*
X36620Y141134D01*
X36509Y141089D01*
X36417Y141034D01*
X36347Y140969D01*
X36296Y140894D01*
X36266Y140809D01*
X36255Y140714D01*
Y142714D01*
X36266Y142619D01*
D02*
G37*
G36*
X158238Y140473D02*
X157762Y140471D01*
X156556Y140390D01*
X156229Y140338D01*
X155939Y140272D01*
X155686Y140194D01*
X155470Y140103D01*
X155291Y140000D01*
X155150Y139883D01*
X154726Y140307D01*
X154842Y140449D01*
X154946Y140628D01*
X155037Y140843D01*
X155115Y141096D01*
X155180Y141387D01*
X155233Y141714D01*
X155299Y142480D01*
X155314Y142920D01*
X155315Y143396D01*
X158238Y140473D01*
D02*
G37*
G36*
X127790Y139758D02*
X127745Y139781D01*
X127683Y139802D01*
X127605Y139821D01*
X127511Y139837D01*
X127274Y139862D01*
X126971Y139877D01*
X126604Y139882D01*
Y140882D01*
X126796Y140884D01*
X127511Y140927D01*
X127605Y140943D01*
X127683Y140962D01*
X127745Y140983D01*
X127790Y141007D01*
Y139758D01*
D02*
G37*
G36*
X111255Y140983D02*
X111317Y140962D01*
X111395Y140943D01*
X111489Y140927D01*
X111726Y140902D01*
X112029Y140887D01*
X112396Y140882D01*
Y139882D01*
X112204Y139881D01*
X111489Y139837D01*
X111395Y139821D01*
X111317Y139802D01*
X111255Y139781D01*
X111209Y139758D01*
Y141007D01*
X111255Y140983D01*
D02*
G37*
G36*
X32734Y140142D02*
X32653Y140112D01*
X32582Y140062D01*
X32521Y139992D01*
X32469Y139902D01*
X32427Y139792D01*
X32394Y139662D01*
X32370Y139512D01*
X32356Y139342D01*
X32351Y139152D01*
X31351D01*
X31346Y139342D01*
X31332Y139512D01*
X31308Y139662D01*
X31275Y139792D01*
X31233Y139902D01*
X31181Y139992D01*
X31120Y140062D01*
X31049Y140112D01*
X30968Y140142D01*
X30879Y140152D01*
X32823D01*
X32734Y140142D01*
D02*
G37*
G36*
X29583D02*
X29503Y140112D01*
X29432Y140062D01*
X29371Y139992D01*
X29319Y139902D01*
X29277Y139792D01*
X29243Y139662D01*
X29220Y139512D01*
X29206Y139342D01*
X29201Y139152D01*
X28201D01*
X28196Y139342D01*
X28182Y139512D01*
X28159Y139662D01*
X28125Y139792D01*
X28083Y139902D01*
X28031Y139992D01*
X27970Y140062D01*
X27899Y140112D01*
X27819Y140142D01*
X27729Y140152D01*
X29673D01*
X29583Y140142D01*
D02*
G37*
G36*
X26457D02*
X26372Y140112D01*
X26297Y140062D01*
X26232Y139992D01*
X26177Y139902D01*
X26132Y139792D01*
X26097Y139662D01*
X26072Y139512D01*
X26057Y139342D01*
X26052Y139152D01*
X25052D01*
X25047Y139342D01*
X25032Y139512D01*
X25007Y139662D01*
X24972Y139792D01*
X24927Y139902D01*
X24872Y139992D01*
X24807Y140062D01*
X24732Y140112D01*
X24647Y140142D01*
X24552Y140152D01*
X26552D01*
X26457Y140142D01*
D02*
G37*
G36*
X142804Y139531D02*
X142740Y139450D01*
X142684Y139363D01*
X142635Y139270D01*
X142594Y139173D01*
X142560Y139070D01*
X142534Y138962D01*
X142515Y138848D01*
X142504Y138729D01*
X142500Y138604D01*
X141500D01*
X141496Y138729D01*
X141485Y138848D01*
X141466Y138962D01*
X141440Y139070D01*
X141406Y139173D01*
X141365Y139270D01*
X141316Y139363D01*
X141260Y139450D01*
X141196Y139531D01*
X141125Y139607D01*
X142875D01*
X142804Y139531D01*
D02*
G37*
G36*
X58194Y138487D02*
X58109Y138396D01*
X58032Y138304D01*
X57965Y138210D01*
X57907Y138115D01*
X57858Y138019D01*
X57819Y137920D01*
X57788Y137821D01*
X57766Y137720D01*
X57753Y137617D01*
X57750Y137513D01*
X56512Y138750D01*
X56617Y138753D01*
X56719Y138766D01*
X56821Y138788D01*
X56920Y138819D01*
X57019Y138858D01*
X57115Y138907D01*
X57210Y138965D01*
X57304Y139032D01*
X57396Y139109D01*
X57487Y139194D01*
X58194Y138487D01*
D02*
G37*
G36*
X32362Y139030D02*
X32455Y138956D01*
X32549Y138893D01*
X32643Y138841D01*
X32739Y138801D01*
X32835Y138771D01*
X32931Y138754D01*
X33029Y138748D01*
X33127Y138753D01*
X33226Y138770D01*
X32275Y137300D01*
X32251Y137400D01*
X32221Y137498D01*
X32183Y137595D01*
X32139Y137690D01*
X32088Y137785D01*
X32030Y137879D01*
X31966Y137971D01*
X31894Y138063D01*
X31730Y138242D01*
X32270Y139116D01*
X32362Y139030D01*
D02*
G37*
G36*
X105226Y137198D02*
X105180Y137222D01*
X105118Y137243D01*
X105040Y137262D01*
X104946Y137278D01*
X104709Y137303D01*
X104406Y137318D01*
X104039Y137323D01*
Y138323D01*
X104231Y138324D01*
X104946Y138368D01*
X105040Y138384D01*
X105118Y138403D01*
X105180Y138424D01*
X105226Y138448D01*
Y137198D01*
D02*
G37*
G36*
X71700Y169349D02*
X78767Y162282D01*
Y137351D01*
X78267Y137127D01*
X77487Y137450D01*
X76513D01*
X75612Y137077D01*
X73601Y139088D01*
X73792Y139550D01*
X73987D01*
X74888Y139923D01*
X75577Y140612D01*
X75950Y141513D01*
Y142487D01*
X75577Y143388D01*
X74888Y144077D01*
X74770Y144126D01*
Y144667D01*
X75388Y144923D01*
X76077Y145612D01*
X76450Y146513D01*
Y147487D01*
X76077Y148388D01*
X75388Y149077D01*
X75020Y149229D01*
Y149771D01*
X75388Y149923D01*
X76077Y150612D01*
X76450Y151513D01*
Y152487D01*
X76077Y153388D01*
X75388Y154077D01*
X74487Y154450D01*
X73513D01*
X72612Y154077D01*
X72523Y153988D01*
X71683D01*
X71527Y153995D01*
X71201Y154030D01*
X71108Y154046D01*
X71043Y154062D01*
X71024Y154068D01*
X70979Y154088D01*
X70969Y154090D01*
X70847Y154172D01*
X70483Y154500D01*
X70483D01*
X69487Y155496D01*
Y156550D01*
X70388Y156923D01*
X71077Y157612D01*
X71450Y158513D01*
Y159487D01*
X71077Y160388D01*
X70763Y160702D01*
X70698Y160798D01*
X70682Y160813D01*
Y169036D01*
X71044Y169369D01*
X71686D01*
X71700Y169349D01*
D02*
G37*
G36*
X68157Y135823D02*
X68072Y135792D01*
X67997Y135742D01*
X67932Y135671D01*
X67877Y135580D01*
X67832Y135468D01*
X67797Y135337D01*
X67772Y135185D01*
X67757Y135013D01*
X67752Y134821D01*
X66752D01*
X66747Y135013D01*
X66732Y135185D01*
X66707Y135337D01*
X66672Y135468D01*
X66627Y135580D01*
X66572Y135671D01*
X66507Y135742D01*
X66432Y135792D01*
X66347Y135823D01*
X66252Y135833D01*
X68252D01*
X68157Y135823D01*
D02*
G37*
G36*
X124500Y135149D02*
X124503Y135025D01*
X124513Y134906D01*
X124529Y134791D01*
X124551Y134681D01*
X124580Y134575D01*
X124616Y134473D01*
X124657Y134376D01*
X124706Y134283D01*
X124760Y134194D01*
X124821Y134110D01*
X123086Y134337D01*
X123165Y134402D01*
X123235Y134475D01*
X123297Y134554D01*
X123351Y134639D01*
X123397Y134731D01*
X123434Y134830D01*
X123463Y134936D01*
X123483Y135048D01*
X123496Y135166D01*
X123500Y135292D01*
X124500Y135149D01*
D02*
G37*
G36*
X109123Y134590D02*
X109037Y134560D01*
X108963Y134509D01*
X108897Y134438D01*
X108843Y134347D01*
X108798Y134236D01*
X108763Y134104D01*
X108738Y133952D01*
X108722Y133780D01*
X108718Y133588D01*
X107718D01*
X107712Y133780D01*
X107697Y133952D01*
X107673Y134104D01*
X107638Y134236D01*
X107592Y134347D01*
X107537Y134438D01*
X107473Y134509D01*
X107397Y134560D01*
X107313Y134590D01*
X107218Y134600D01*
X109218D01*
X109123Y134590D01*
D02*
G37*
G36*
X77804Y134031D02*
X77740Y133950D01*
X77684Y133863D01*
X77635Y133770D01*
X77594Y133673D01*
X77560Y133570D01*
X77534Y133461D01*
X77515Y133348D01*
X77504Y133229D01*
X77500Y133104D01*
X76500D01*
X76496Y133229D01*
X76485Y133348D01*
X76466Y133461D01*
X76440Y133570D01*
X76406Y133673D01*
X76365Y133770D01*
X76316Y133863D01*
X76260Y133950D01*
X76196Y134031D01*
X76125Y134107D01*
X77875D01*
X77804Y134031D01*
D02*
G37*
G36*
X112991Y132830D02*
X112921Y132750D01*
X112860Y132664D01*
X112809Y132569D01*
X112769Y132467D01*
X112738Y132358D01*
X112717Y132241D01*
X112706Y132116D01*
X112706Y131984D01*
X112715Y131845D01*
X112734Y131698D01*
X111327Y132738D01*
X111490Y132764D01*
X111786Y132828D01*
X111919Y132867D01*
X112041Y132910D01*
X112154Y132957D01*
X112256Y133008D01*
X112348Y133064D01*
X112430Y133124D01*
X112501Y133188D01*
X112991Y132830D01*
D02*
G37*
G36*
X53500Y137500D02*
Y136000D01*
X52500Y135000D01*
X48000D01*
X47000Y134000D01*
X47000Y133000D01*
X45533Y131533D01*
X43467D01*
X42500Y132500D01*
Y136500D01*
X45000Y139000D01*
X52000D01*
X53500Y137500D01*
D02*
G37*
G36*
X9533Y135156D02*
X10443Y134361D01*
X10711Y134167D01*
X10963Y134008D01*
X11197Y133884D01*
X11414Y133796D01*
X11613Y133743D01*
X11796Y133725D01*
Y133125D01*
X11613Y133107D01*
X11414Y133054D01*
X11197Y132966D01*
X10963Y132843D01*
X10711Y132684D01*
X10443Y132489D01*
X9854Y131994D01*
X9533Y131694D01*
X9195Y131358D01*
Y135492D01*
X9533Y135156D01*
D02*
G37*
G36*
X105969Y132804D02*
X106050Y132740D01*
X106137Y132684D01*
X106230Y132635D01*
X106327Y132594D01*
X106430Y132560D01*
X106538Y132534D01*
X106652Y132515D01*
X106771Y132504D01*
X106896Y132500D01*
Y131500D01*
X106771Y131496D01*
X106652Y131485D01*
X106538Y131466D01*
X106430Y131440D01*
X106327Y131406D01*
X106230Y131365D01*
X106137Y131316D01*
X106050Y131260D01*
X105969Y131196D01*
X105893Y131125D01*
Y132875D01*
X105969Y132804D01*
D02*
G37*
G36*
X72988Y130750D02*
X72883Y130747D01*
X72781Y130734D01*
X72679Y130712D01*
X72580Y130682D01*
X72481Y130642D01*
X72385Y130593D01*
X72290Y130535D01*
X72196Y130468D01*
X72104Y130391D01*
X72013Y130306D01*
X71306Y131013D01*
X71391Y131104D01*
X71468Y131196D01*
X71535Y131290D01*
X71593Y131385D01*
X71642Y131481D01*
X71681Y131580D01*
X71712Y131679D01*
X71734Y131781D01*
X71747Y131883D01*
X71750Y131988D01*
X72988Y130750D01*
D02*
G37*
G36*
X121388Y135612D02*
Y132851D01*
X121761Y131950D01*
X122450Y131261D01*
X123351Y130888D01*
X124326D01*
X125226Y131261D01*
X125915Y131950D01*
X126288Y132851D01*
Y133630D01*
X126472Y133757D01*
X126774Y133861D01*
X127318Y133498D01*
X128049Y133352D01*
X133516D01*
X133738Y133396D01*
X133984Y132936D01*
X132699Y131651D01*
X132324Y131088D01*
X132192Y130425D01*
Y124733D01*
X105000D01*
X104337Y124601D01*
X103774Y124226D01*
X100782Y121233D01*
X100545D01*
X100494Y121236D01*
X100150Y121467D01*
X100139Y121478D01*
X100117Y121488D01*
X99736Y121743D01*
X98807Y121928D01*
X98572D01*
X97500Y123000D01*
Y126685D01*
X97601Y126837D01*
X97733Y127500D01*
Y131000D01*
X97659Y131374D01*
X97601Y131850D01*
X97601Y131850D01*
Y133164D01*
X98987Y134550D01*
X99888Y134923D01*
X100577Y135612D01*
X100775Y136090D01*
X103227D01*
X103637Y135590D01*
X103572Y135264D01*
X103718Y134533D01*
X103740Y134499D01*
X103612Y134077D01*
X102923Y133388D01*
X102550Y132487D01*
Y131513D01*
X102923Y130612D01*
X103612Y129923D01*
X104513Y129550D01*
X105487D01*
X106388Y129923D01*
X106643Y130179D01*
X106728Y130231D01*
X106759Y130260D01*
X106765Y130262D01*
X106782Y130266D01*
X106784Y130267D01*
X107129D01*
X107792Y130399D01*
X108354Y130774D01*
X108588Y131008D01*
X109123Y130836D01*
X109423Y130112D01*
X110112Y129423D01*
X111013Y129050D01*
X111987D01*
X112888Y129423D01*
X113577Y130112D01*
X113950Y131013D01*
Y131987D01*
X113932Y132032D01*
X118617Y136717D01*
X119000Y137000D01*
X121388Y135612D01*
D02*
G37*
G36*
X140194Y128987D02*
X140109Y128896D01*
X140032Y128804D01*
X139965Y128710D01*
X139907Y128615D01*
X139858Y128519D01*
X139819Y128420D01*
X139788Y128321D01*
X139766Y128219D01*
X139753Y128117D01*
X139750Y128013D01*
X138513Y129250D01*
X138617Y129253D01*
X138719Y129266D01*
X138821Y129288D01*
X138920Y129318D01*
X139019Y129358D01*
X139115Y129407D01*
X139210Y129465D01*
X139304Y129532D01*
X139396Y129609D01*
X139487Y129694D01*
X140194Y128987D01*
D02*
G37*
G36*
X18304Y127531D02*
X18240Y127450D01*
X18184Y127363D01*
X18135Y127270D01*
X18094Y127173D01*
X18060Y127070D01*
X18034Y126962D01*
X18015Y126848D01*
X18004Y126729D01*
X18000Y126604D01*
X17000D01*
X16996Y126729D01*
X16985Y126848D01*
X16966Y126962D01*
X16940Y127070D01*
X16906Y127173D01*
X16865Y127270D01*
X16816Y127363D01*
X16760Y127450D01*
X16696Y127531D01*
X16625Y127607D01*
X18375D01*
X18304Y127531D01*
D02*
G37*
G36*
X72180Y125556D02*
X72056Y125660D01*
X71817Y125834D01*
X71702Y125904D01*
X71589Y125964D01*
X71479Y126013D01*
X71371Y126051D01*
X71267Y126078D01*
X71165Y126095D01*
X71066Y126100D01*
X71016Y126700D01*
X71121Y126706D01*
X71224Y126724D01*
X71328Y126754D01*
X71431Y126796D01*
X71534Y126850D01*
X71636Y126916D01*
X71737Y126994D01*
X71839Y127085D01*
X71940Y127187D01*
X72040Y127301D01*
X72180Y125556D01*
D02*
G37*
G36*
X146806Y126362D02*
X146823Y126258D01*
X146852Y126154D01*
X146892Y126049D01*
X146944Y125942D01*
X147007Y125835D01*
X147082Y125726D01*
X147168Y125616D01*
X147266Y125505D01*
X147375Y125393D01*
X145625D01*
X145734Y125505D01*
X145918Y125726D01*
X145993Y125835D01*
X146056Y125942D01*
X146108Y126049D01*
X146148Y126154D01*
X146177Y126258D01*
X146194Y126362D01*
X146200Y126463D01*
X146800D01*
X146806Y126362D01*
D02*
G37*
G36*
X95494Y126287D02*
X95409Y126196D01*
X95332Y126104D01*
X95265Y126011D01*
X95207Y125915D01*
X95158Y125819D01*
X95118Y125720D01*
X95088Y125621D01*
X95066Y125520D01*
X95053Y125417D01*
X95050Y125312D01*
X93813Y126550D01*
X93917Y126553D01*
X94020Y126566D01*
X94121Y126588D01*
X94220Y126619D01*
X94319Y126658D01*
X94415Y126707D01*
X94511Y126765D01*
X94604Y126832D01*
X94696Y126909D01*
X94787Y126994D01*
X95494Y126287D01*
D02*
G37*
G36*
X156025Y121505D02*
X155918Y121620D01*
X155802Y121723D01*
X155680Y121813D01*
X155550Y121892D01*
X155412Y121959D01*
X155267Y122013D01*
X155114Y122055D01*
X154954Y122086D01*
X154786Y122104D01*
X154610Y122110D01*
Y122710D01*
X154743Y122717D01*
X154862Y122739D01*
X154968Y122776D01*
X155059Y122827D01*
X155137Y122893D01*
X155200Y122974D01*
X155250Y123070D01*
X155285Y123179D01*
X155307Y123304D01*
X155315Y123444D01*
X156025Y121505D01*
D02*
G37*
G36*
X134425Y123000D02*
X133425Y121500D01*
X133415Y121690D01*
X133385Y121860D01*
X133335Y122010D01*
X133265Y122140D01*
X133175Y122250D01*
X133065Y122340D01*
X132935Y122410D01*
X132785Y122460D01*
X132615Y122490D01*
X132425Y122500D01*
Y123500D01*
X132615Y123510D01*
X132785Y123540D01*
X132935Y123590D01*
X133065Y123660D01*
X133175Y123750D01*
X133265Y123860D01*
X133335Y123990D01*
X133385Y124140D01*
X133415Y124310D01*
X133425Y124500D01*
X134425Y123000D01*
D02*
G37*
G36*
X10041Y122919D02*
X10122Y121714D01*
X10174Y121387D01*
X10239Y121096D01*
X10318Y120843D01*
X10408Y120627D01*
X10512Y120449D01*
X10629Y120308D01*
X10204Y119883D01*
X10063Y120000D01*
X9884Y120103D01*
X9668Y120194D01*
X9415Y120272D01*
X9125Y120338D01*
X8798Y120390D01*
X8031Y120457D01*
X7592Y120471D01*
X7116Y120473D01*
X10039Y123396D01*
X10041Y122919D01*
D02*
G37*
G36*
X120607Y118625D02*
X120577Y118649D01*
X120534Y118670D01*
X120479Y118689D01*
X120411Y118705D01*
X120332Y118719D01*
X120136Y118739D01*
X119891Y118749D01*
X119750Y118750D01*
Y120250D01*
X119891Y120251D01*
X120332Y120281D01*
X120411Y120295D01*
X120479Y120311D01*
X120534Y120330D01*
X120577Y120351D01*
X120607Y120375D01*
Y118625D01*
D02*
G37*
G36*
X70482Y120470D02*
X70586Y120424D01*
X70712Y120383D01*
X70860Y120348D01*
X71030Y120318D01*
X71435Y120274D01*
X71919Y120253D01*
X72332Y120281D01*
X72411Y120295D01*
X72479Y120311D01*
X72534Y120330D01*
X72577Y120351D01*
X72607Y120375D01*
Y118625D01*
X72577Y118649D01*
X72534Y118670D01*
X72479Y118689D01*
X72411Y118705D01*
X72332Y118719D01*
X72136Y118739D01*
X71928Y118747D01*
X71030Y118682D01*
X70860Y118652D01*
X70712Y118617D01*
X70586Y118576D01*
X70482Y118530D01*
X70401Y118479D01*
Y120521D01*
X70482Y120470D01*
D02*
G37*
G36*
X99432Y120397D02*
X99475Y120314D01*
X99547Y120240D01*
X99649Y120177D01*
X99779Y120123D01*
X99938Y120079D01*
X100127Y120044D01*
X100344Y120020D01*
X100590Y120005D01*
X100865Y120000D01*
Y119000D01*
X100590Y118995D01*
X100127Y118956D01*
X99938Y118921D01*
X99779Y118877D01*
X99649Y118823D01*
X99547Y118760D01*
X99475Y118686D01*
X99432Y118603D01*
X99417Y118509D01*
Y120491D01*
X99432Y120397D01*
D02*
G37*
G36*
X51932D02*
X51975Y120314D01*
X52047Y120240D01*
X52149Y120177D01*
X52279Y120123D01*
X52438Y120079D01*
X52627Y120044D01*
X52844Y120020D01*
X53090Y120005D01*
X53365Y120000D01*
Y119000D01*
X53090Y118995D01*
X52627Y118956D01*
X52438Y118921D01*
X52279Y118877D01*
X52149Y118823D01*
X52047Y118760D01*
X51975Y118686D01*
X51932Y118603D01*
X51917Y118509D01*
Y120491D01*
X51932Y120397D01*
D02*
G37*
G36*
X45579Y118509D02*
X45565Y118603D01*
X45521Y118686D01*
X45449Y118760D01*
X45347Y118823D01*
X45217Y118877D01*
X45058Y118921D01*
X44869Y118956D01*
X44652Y118980D01*
X44406Y118995D01*
X44131Y119000D01*
Y120000D01*
X44406Y120005D01*
X44869Y120044D01*
X45058Y120079D01*
X45217Y120123D01*
X45347Y120177D01*
X45449Y120240D01*
X45521Y120314D01*
X45565Y120397D01*
X45579Y120491D01*
Y118509D01*
D02*
G37*
G36*
X117982Y120470D02*
X118086Y120424D01*
X118212Y120383D01*
X118360Y120348D01*
X118529Y120318D01*
X118935Y120274D01*
X119429Y120253D01*
X119709Y120250D01*
Y118750D01*
X119429Y118747D01*
X118529Y118682D01*
X118360Y118652D01*
X118212Y118617D01*
X118086Y118576D01*
X117982Y118530D01*
X117901Y118479D01*
Y120521D01*
X117982Y120470D01*
D02*
G37*
G36*
X137820Y118651D02*
X137854Y118258D01*
X137875Y118162D01*
X137900Y118083D01*
X137930Y118022D01*
X137965Y117978D01*
X138004Y117952D01*
X138047Y117943D01*
X136443D01*
X136514Y117952D01*
X136578Y117978D01*
X136634Y118022D01*
X136683Y118083D01*
X136724Y118162D01*
X136758Y118258D01*
X136784Y118372D01*
X136803Y118503D01*
X136814Y118651D01*
X136818Y118818D01*
X137818D01*
X137820Y118651D01*
D02*
G37*
G36*
X134430Y118753D02*
X134444Y118583D01*
X134467Y118433D01*
X134501Y118303D01*
X134543Y118193D01*
X134595Y118103D01*
X134656Y118033D01*
X134727Y117983D01*
X134808Y117953D01*
X134897Y117943D01*
X132953D01*
X133043Y117953D01*
X133123Y117983D01*
X133194Y118033D01*
X133255Y118103D01*
X133307Y118193D01*
X133349Y118303D01*
X133382Y118433D01*
X133406Y118583D01*
X133420Y118753D01*
X133425Y118943D01*
X134425D01*
X134430Y118753D01*
D02*
G37*
G36*
X32356Y118674D02*
X32370Y118504D01*
X32394Y118354D01*
X32427Y118224D01*
X32469Y118114D01*
X32521Y118024D01*
X32582Y117954D01*
X32653Y117904D01*
X32734Y117874D01*
X32823Y117864D01*
X30879D01*
X30968Y117874D01*
X31049Y117904D01*
X31120Y117954D01*
X31181Y118024D01*
X31233Y118114D01*
X31275Y118224D01*
X31308Y118354D01*
X31332Y118504D01*
X31346Y118674D01*
X31351Y118864D01*
X32351D01*
X32356Y118674D01*
D02*
G37*
G36*
X109179Y118450D02*
X109097Y118391D01*
X109025Y118325D01*
X108960Y118251D01*
X108904Y118169D01*
X108857Y118080D01*
X108819Y117984D01*
X108789Y117881D01*
X108767Y117770D01*
X108754Y117651D01*
X108750Y117525D01*
X107750Y117750D01*
X107747Y117873D01*
X107724Y118108D01*
X107704Y118219D01*
X107679Y118326D01*
X107647Y118429D01*
X107610Y118528D01*
X107567Y118623D01*
X107518Y118714D01*
X107464Y118800D01*
X109179Y118450D01*
D02*
G37*
G36*
X141490Y117285D02*
X141520Y117200D01*
X141571Y117125D01*
X141641Y117060D01*
X141733Y117005D01*
X141844Y116960D01*
X141975Y116925D01*
X142127Y116900D01*
X142299Y116885D01*
X142492Y116880D01*
Y115880D01*
X142299Y115875D01*
X142127Y115860D01*
X141975Y115835D01*
X141844Y115800D01*
X141733Y115755D01*
X141641Y115700D01*
X141571Y115635D01*
X141520Y115560D01*
X141490Y115475D01*
X141480Y115380D01*
Y117380D01*
X141490Y117285D01*
D02*
G37*
G36*
X36266Y117206D02*
X36296Y117121D01*
X36347Y117046D01*
X36417Y116981D01*
X36509Y116926D01*
X36620Y116881D01*
X36751Y116846D01*
X36903Y116821D01*
X37075Y116806D01*
X37268Y116801D01*
Y115801D01*
X37075Y115796D01*
X36903Y115781D01*
X36751Y115756D01*
X36620Y115721D01*
X36509Y115676D01*
X36417Y115621D01*
X36347Y115556D01*
X36296Y115481D01*
X36266Y115396D01*
X36255Y115301D01*
Y117301D01*
X36266Y117206D01*
D02*
G37*
G36*
X30000Y122000D02*
Y119076D01*
X29667D01*
Y117922D01*
X29655Y117864D01*
X29667Y117806D01*
Y117775D01*
X29663Y117729D01*
X29667Y117716D01*
Y114931D01*
X29236Y114500D01*
X22000Y114500D01*
X21000Y115500D01*
Y123000D01*
X22500Y124500D01*
X27500D01*
X30000Y122000D01*
D02*
G37*
G36*
X92780Y116123D02*
X93127Y115832D01*
X93280Y115727D01*
X93420Y115649D01*
X93547Y115599D01*
X93661Y115575D01*
X93762Y115579D01*
X93850Y115610D01*
X93924Y115667D01*
X92557Y114231D01*
X92611Y114309D01*
X92638Y114400D01*
X92638Y114504D01*
X92611Y114621D01*
X92557Y114751D01*
X92476Y114895D01*
X92368Y115052D01*
X92232Y115222D01*
X92070Y115405D01*
X91880Y115602D01*
X92587Y116309D01*
X92780Y116123D01*
D02*
G37*
G36*
X131257Y114821D02*
X131203Y114796D01*
X131156Y114755D01*
X131114Y114697D01*
X131079Y114622D01*
X131051Y114531D01*
X131029Y114423D01*
X131013Y114299D01*
X131003Y114158D01*
X131000Y114000D01*
X130000D01*
X129997Y114158D01*
X129971Y114423D01*
X129949Y114531D01*
X129921Y114622D01*
X129886Y114697D01*
X129844Y114755D01*
X129797Y114796D01*
X129743Y114821D01*
X129683Y114829D01*
X131317D01*
X131257Y114821D01*
D02*
G37*
G36*
X63654Y113984D02*
X63648Y113997D01*
X63627Y114008D01*
X63592Y114017D01*
X63543Y114026D01*
X63480Y114033D01*
X63205Y114047D01*
X62951Y114049D01*
Y115049D01*
X63093Y115050D01*
X63673Y115089D01*
X63696Y115100D01*
X63704Y115112D01*
X63654Y113984D01*
D02*
G37*
G36*
X146504Y114771D02*
X146515Y114652D01*
X146534Y114539D01*
X146560Y114430D01*
X146594Y114327D01*
X146635Y114230D01*
X146684Y114137D01*
X146740Y114050D01*
X146804Y113969D01*
X146875Y113893D01*
X145125D01*
X145196Y113969D01*
X145260Y114050D01*
X145316Y114137D01*
X145365Y114230D01*
X145406Y114327D01*
X145440Y114430D01*
X145466Y114539D01*
X145485Y114652D01*
X145496Y114771D01*
X145500Y114896D01*
X146500D01*
X146504Y114771D01*
D02*
G37*
G36*
X117935Y115397D02*
X117979Y115314D01*
X118051Y115240D01*
X118153Y115177D01*
X118283Y115123D01*
X118442Y115078D01*
X118631Y115044D01*
X118848Y115020D01*
X119094Y115005D01*
X119369Y115000D01*
Y114000D01*
X119094Y113995D01*
X118631Y113956D01*
X118442Y113921D01*
X118283Y113877D01*
X118153Y113823D01*
X118051Y113760D01*
X117979Y113686D01*
X117935Y113603D01*
X117921Y113510D01*
Y115490D01*
X117935Y115397D01*
D02*
G37*
G36*
X111583Y113510D02*
X111568Y113603D01*
X111525Y113686D01*
X111453Y113760D01*
X111351Y113823D01*
X111221Y113877D01*
X111062Y113921D01*
X110873Y113956D01*
X110656Y113980D01*
X110410Y113995D01*
X110135Y114000D01*
Y115000D01*
X110410Y115005D01*
X110873Y115044D01*
X111062Y115078D01*
X111221Y115123D01*
X111351Y115177D01*
X111453Y115240D01*
X111525Y115314D01*
X111568Y115397D01*
X111583Y115490D01*
Y113510D01*
D02*
G37*
G36*
X70435Y115397D02*
X70479Y115314D01*
X70551Y115240D01*
X70653Y115177D01*
X70783Y115123D01*
X70942Y115078D01*
X71131Y115044D01*
X71348Y115020D01*
X71594Y115005D01*
X71869Y115000D01*
Y114000D01*
X71594Y113995D01*
X71131Y113956D01*
X70942Y113921D01*
X70783Y113877D01*
X70653Y113823D01*
X70551Y113760D01*
X70479Y113686D01*
X70435Y113603D01*
X70421Y113510D01*
Y115490D01*
X70435Y115397D01*
D02*
G37*
G36*
X45579Y113510D02*
X45565Y113603D01*
X45521Y113686D01*
X45449Y113760D01*
X45347Y113823D01*
X45217Y113877D01*
X45058Y113921D01*
X44869Y113956D01*
X44652Y113980D01*
X44406Y113995D01*
X44131Y114000D01*
Y115000D01*
X44406Y115005D01*
X44869Y115044D01*
X45058Y115078D01*
X45217Y115123D01*
X45347Y115177D01*
X45449Y115240D01*
X45521Y115314D01*
X45565Y115397D01*
X45579Y115490D01*
Y113510D01*
D02*
G37*
G36*
X89051Y113079D02*
X89145Y112999D01*
X89237Y112930D01*
X89329Y112871D01*
X89419Y112823D01*
X89507Y112785D01*
X89594Y112758D01*
X89680Y112742D01*
X89765Y112736D01*
X89848Y112741D01*
X88750Y111537D01*
X88748Y111620D01*
X88736Y111704D01*
X88714Y111790D01*
X88682Y111877D01*
X88640Y111965D01*
X88589Y112055D01*
X88527Y112146D01*
X88456Y112238D01*
X88375Y112332D01*
X88284Y112427D01*
X88956Y113170D01*
X89051Y113079D01*
D02*
G37*
G36*
X76987Y111250D02*
X76883Y111247D01*
X76780Y111234D01*
X76679Y111212D01*
X76580Y111181D01*
X76481Y111142D01*
X76385Y111093D01*
X76289Y111035D01*
X76196Y110968D01*
X76104Y110891D01*
X76013Y110806D01*
X75306Y111513D01*
X75391Y111604D01*
X75468Y111696D01*
X75535Y111790D01*
X75593Y111885D01*
X75642Y111981D01*
X75682Y112080D01*
X75712Y112179D01*
X75734Y112280D01*
X75747Y112383D01*
X75750Y112487D01*
X76987Y111250D01*
D02*
G37*
G36*
X35502Y111360D02*
X35520Y111125D01*
X35536Y111030D01*
X35556Y110949D01*
X35580Y110883D01*
X35609Y110831D01*
X35643Y110795D01*
X35680Y110773D01*
X35723Y110765D01*
X34277D01*
X34319Y110773D01*
X34357Y110795D01*
X34391Y110831D01*
X34420Y110883D01*
X34444Y110949D01*
X34464Y111030D01*
X34480Y111125D01*
X34491Y111235D01*
X34500Y111500D01*
X35500D01*
X35502Y111360D01*
D02*
G37*
G36*
X56969Y110304D02*
X57050Y110240D01*
X57137Y110184D01*
X57230Y110135D01*
X57327Y110094D01*
X57430Y110060D01*
X57538Y110034D01*
X57652Y110015D01*
X57771Y110004D01*
X57896Y110000D01*
Y109000D01*
X57771Y108996D01*
X57652Y108985D01*
X57538Y108966D01*
X57430Y108940D01*
X57327Y108906D01*
X57230Y108865D01*
X57137Y108816D01*
X57050Y108760D01*
X56969Y108696D01*
X56893Y108625D01*
Y110375D01*
X56969Y110304D01*
D02*
G37*
G36*
X117935Y110397D02*
X117979Y110314D01*
X118051Y110240D01*
X118153Y110177D01*
X118283Y110123D01*
X118442Y110079D01*
X118631Y110044D01*
X118848Y110020D01*
X119094Y110005D01*
X119369Y110000D01*
Y109000D01*
X119094Y108995D01*
X118631Y108956D01*
X118442Y108922D01*
X118283Y108877D01*
X118153Y108823D01*
X118051Y108760D01*
X117979Y108686D01*
X117935Y108603D01*
X117921Y108510D01*
Y110491D01*
X117935Y110397D01*
D02*
G37*
G36*
X109753Y110883D02*
X109766Y110781D01*
X109788Y110679D01*
X109818Y110580D01*
X109858Y110481D01*
X109907Y110385D01*
X109965Y110290D01*
X110032Y110196D01*
X110109Y110104D01*
X110194Y110013D01*
X110182Y110001D01*
X110410Y110005D01*
X110873Y110044D01*
X111062Y110079D01*
X111221Y110123D01*
X111351Y110177D01*
X111453Y110240D01*
X111525Y110314D01*
X111568Y110397D01*
X111583Y110491D01*
Y108510D01*
X111568Y108603D01*
X111525Y108686D01*
X111453Y108760D01*
X111351Y108823D01*
X111221Y108877D01*
X111062Y108922D01*
X110873Y108956D01*
X110656Y108980D01*
X110410Y108995D01*
X110135Y109000D01*
Y109954D01*
X109487Y109306D01*
X109396Y109391D01*
X109304Y109468D01*
X109211Y109535D01*
X109115Y109593D01*
X109019Y109642D01*
X108920Y109681D01*
X108821Y109712D01*
X108720Y109734D01*
X108617Y109747D01*
X108512Y109750D01*
X109750Y110987D01*
X109753Y110883D01*
D02*
G37*
G36*
X99432Y110397D02*
X99475Y110314D01*
X99547Y110240D01*
X99649Y110177D01*
X99779Y110123D01*
X99938Y110079D01*
X100127Y110044D01*
X100344Y110020D01*
X100590Y110005D01*
X100865Y110000D01*
Y109000D01*
X100590Y108995D01*
X100127Y108956D01*
X99938Y108922D01*
X99779Y108877D01*
X99649Y108823D01*
X99547Y108760D01*
X99475Y108686D01*
X99432Y108603D01*
X99417Y108510D01*
Y110491D01*
X99432Y110397D01*
D02*
G37*
G36*
X70435D02*
X70479Y110314D01*
X70551Y110240D01*
X70653Y110177D01*
X70783Y110123D01*
X70942Y110079D01*
X71131Y110044D01*
X71348Y110020D01*
X71594Y110005D01*
X71869Y110000D01*
Y109000D01*
X71594Y108995D01*
X71131Y108956D01*
X70942Y108922D01*
X70783Y108877D01*
X70653Y108823D01*
X70551Y108760D01*
X70479Y108686D01*
X70435Y108603D01*
X70421Y108510D01*
Y110491D01*
X70435Y110397D01*
D02*
G37*
G36*
X64083Y108510D02*
X64069Y108603D01*
X64025Y108686D01*
X63953Y108760D01*
X63851Y108823D01*
X63721Y108877D01*
X63562Y108922D01*
X63373Y108956D01*
X63156Y108980D01*
X62910Y108995D01*
X62635Y109000D01*
Y110000D01*
X62910Y110005D01*
X63373Y110044D01*
X63562Y110079D01*
X63721Y110123D01*
X63851Y110177D01*
X63953Y110240D01*
X64025Y110314D01*
X64069Y110397D01*
X64083Y110491D01*
Y108510D01*
D02*
G37*
G36*
X129520Y108500D02*
X129510Y108595D01*
X129480Y108680D01*
X129429Y108755D01*
X129358Y108820D01*
X129268Y108875D01*
X129156Y108920D01*
X129025Y108955D01*
X128873Y108980D01*
X128701Y108995D01*
X128508Y109000D01*
Y110000D01*
X128701Y110005D01*
X128873Y110020D01*
X129025Y110045D01*
X129156Y110080D01*
X129268Y110125D01*
X129358Y110180D01*
X129429Y110245D01*
X129480Y110320D01*
X129510Y110405D01*
X129520Y110500D01*
Y108500D01*
D02*
G37*
G36*
X45599Y108479D02*
X45475Y108568D01*
X45346Y108648D01*
X45212Y108718D01*
X45074Y108780D01*
X44931Y108831D01*
X44784Y108873D01*
X44633Y108906D01*
X44477Y108930D01*
X44317Y108944D01*
X44152Y108949D01*
X44109Y109949D01*
X44380Y109954D01*
X44834Y109993D01*
X45018Y110027D01*
X45172Y110071D01*
X45298Y110125D01*
X45395Y110189D01*
X45463Y110263D01*
X45502Y110346D01*
X45512Y110439D01*
X45599Y108479D01*
D02*
G37*
G36*
X36266Y110119D02*
X36296Y110034D01*
X36347Y109959D01*
X36417Y109894D01*
X36509Y109839D01*
X36620Y109794D01*
X36751Y109759D01*
X36903Y109734D01*
X37075Y109719D01*
X37268Y109714D01*
Y108714D01*
X37075Y108709D01*
X36903Y108694D01*
X36751Y108669D01*
X36620Y108634D01*
X36509Y108589D01*
X36417Y108534D01*
X36347Y108469D01*
X36296Y108394D01*
X36266Y108309D01*
X36255Y108214D01*
Y110214D01*
X36266Y110119D01*
D02*
G37*
G36*
X134897Y107730D02*
X134822Y107720D01*
X134754Y107690D01*
X134695Y107640D01*
X134643Y107570D01*
X134599Y107480D01*
X134564Y107370D01*
X134536Y107240D01*
X134516Y107090D01*
X134504Y106920D01*
X134500Y106730D01*
X133500D01*
X133495Y106922D01*
X133480Y107094D01*
X133455Y107245D01*
X133420Y107377D01*
X133375Y107488D01*
X133320Y107579D01*
X133255Y107650D01*
X133180Y107701D01*
X133095Y107732D01*
X133000Y107742D01*
X134897Y107730D01*
D02*
G37*
G36*
X32734Y107642D02*
X32653Y107612D01*
X32582Y107562D01*
X32521Y107492D01*
X32469Y107402D01*
X32427Y107292D01*
X32394Y107162D01*
X32370Y107012D01*
X32356Y106842D01*
X32351Y106652D01*
X31351D01*
X31346Y106842D01*
X31332Y107012D01*
X31308Y107162D01*
X31275Y107292D01*
X31233Y107402D01*
X31181Y107492D01*
X31120Y107562D01*
X31049Y107612D01*
X30968Y107642D01*
X30879Y107652D01*
X32823D01*
X32734Y107642D01*
D02*
G37*
G36*
X29583D02*
X29503Y107612D01*
X29432Y107562D01*
X29371Y107492D01*
X29319Y107402D01*
X29277Y107292D01*
X29243Y107162D01*
X29220Y107012D01*
X29206Y106842D01*
X29201Y106652D01*
X28201D01*
X28196Y106842D01*
X28182Y107012D01*
X28159Y107162D01*
X28125Y107292D01*
X28083Y107402D01*
X28031Y107492D01*
X27970Y107562D01*
X27899Y107612D01*
X27819Y107642D01*
X27729Y107652D01*
X29673D01*
X29583Y107642D01*
D02*
G37*
G36*
X26457D02*
X26372Y107612D01*
X26297Y107562D01*
X26232Y107492D01*
X26177Y107402D01*
X26132Y107292D01*
X26097Y107162D01*
X26072Y107012D01*
X26057Y106842D01*
X26052Y106652D01*
X25052D01*
X25047Y106842D01*
X25032Y107012D01*
X25007Y107162D01*
X24972Y107292D01*
X24927Y107402D01*
X24872Y107492D01*
X24807Y107562D01*
X24732Y107612D01*
X24647Y107642D01*
X24552Y107652D01*
X26552D01*
X26457Y107642D01*
D02*
G37*
G36*
X32554Y106159D02*
X32646Y106082D01*
X32739Y106015D01*
X32835Y105957D01*
X32931Y105908D01*
X33030Y105868D01*
X33129Y105838D01*
X33231Y105816D01*
X33333Y105803D01*
X33437Y105800D01*
X32200Y104562D01*
X32197Y104667D01*
X32184Y104770D01*
X32162Y104871D01*
X32131Y104970D01*
X32092Y105069D01*
X32043Y105165D01*
X31985Y105261D01*
X31918Y105354D01*
X31841Y105446D01*
X31756Y105537D01*
X32463Y106244D01*
X32554Y106159D01*
D02*
G37*
G36*
X121107Y103625D02*
X121031Y103696D01*
X120950Y103760D01*
X120863Y103816D01*
X120770Y103865D01*
X120673Y103906D01*
X120570Y103940D01*
X120461Y103966D01*
X120348Y103985D01*
X120229Y103996D01*
X120104Y104000D01*
Y105000D01*
X120229Y105004D01*
X120348Y105015D01*
X120461Y105034D01*
X120570Y105060D01*
X120673Y105094D01*
X120770Y105135D01*
X120863Y105184D01*
X120950Y105240D01*
X121031Y105304D01*
X121107Y105375D01*
Y103625D01*
D02*
G37*
G36*
X117935Y105397D02*
X117979Y105314D01*
X118051Y105240D01*
X118153Y105177D01*
X118283Y105123D01*
X118442Y105078D01*
X118631Y105044D01*
X118848Y105020D01*
X119094Y105005D01*
X119369Y105000D01*
Y104000D01*
X119094Y103995D01*
X118631Y103956D01*
X118442Y103921D01*
X118283Y103877D01*
X118153Y103823D01*
X118051Y103760D01*
X117979Y103686D01*
X117935Y103603D01*
X117921Y103509D01*
Y105491D01*
X117935Y105397D01*
D02*
G37*
G36*
X64083Y103509D02*
X64069Y103603D01*
X64025Y103686D01*
X63953Y103760D01*
X63851Y103823D01*
X63721Y103877D01*
X63562Y103921D01*
X63373Y103956D01*
X63156Y103980D01*
X62910Y103995D01*
X62635Y104000D01*
Y105000D01*
X62910Y105005D01*
X63373Y105044D01*
X63562Y105078D01*
X63721Y105123D01*
X63851Y105177D01*
X63953Y105240D01*
X64025Y105314D01*
X64069Y105397D01*
X64083Y105491D01*
Y103509D01*
D02*
G37*
G36*
X22252Y103831D02*
X22278Y103545D01*
X22302Y103415D01*
X22334Y103294D01*
X22372Y103182D01*
X22418Y103079D01*
X22472Y102985D01*
X22533Y102900D01*
X22601Y102824D01*
X22176Y102400D01*
X22100Y102468D01*
X22015Y102528D01*
X21921Y102582D01*
X21818Y102628D01*
X21706Y102666D01*
X21585Y102698D01*
X21455Y102722D01*
X21317Y102739D01*
X21169Y102748D01*
X21012Y102750D01*
X22250Y103988D01*
X22252Y103831D01*
D02*
G37*
G36*
X78767Y110149D02*
Y98363D01*
X78899Y97700D01*
X79274Y97138D01*
X85138Y91274D01*
X85700Y90899D01*
X86139Y90811D01*
X86243Y90656D01*
X86371Y90338D01*
X86373Y90267D01*
X86050Y89487D01*
Y88513D01*
X86423Y87612D01*
X87083Y86953D01*
X87172Y86818D01*
X87252Y86415D01*
X82450Y81613D01*
X81950Y81820D01*
Y82487D01*
X81577Y83388D01*
X80888Y84077D01*
X79987Y84450D01*
X79013D01*
X78450Y84217D01*
X77950Y84487D01*
X77577Y85388D01*
X76888Y86077D01*
X75987Y86450D01*
X75013D01*
X74112Y86077D01*
X73423Y85388D01*
X73166Y84767D01*
X69283D01*
X68899Y84691D01*
X66549D01*
X65818Y84545D01*
X65307Y84204D01*
X64834Y84389D01*
X64808Y84537D01*
X64785Y84797D01*
X64821Y84856D01*
X65077Y85112D01*
X65373Y85827D01*
X65716Y86062D01*
X65950Y86105D01*
X66549Y85986D01*
X72016D01*
X72747Y86132D01*
X73313Y86509D01*
X73556Y86558D01*
X74052Y86889D01*
X75081Y87919D01*
X75413Y88415D01*
X75529Y89000D01*
Y92500D01*
X75413Y93085D01*
X75081Y93581D01*
X73581Y95081D01*
X73085Y95413D01*
X72500Y95529D01*
X52134D01*
X51943Y95991D01*
X58718Y102767D01*
X62955D01*
X63006Y102764D01*
X63350Y102533D01*
X63361Y102522D01*
X63383Y102512D01*
X63764Y102257D01*
X64693Y102072D01*
X69811D01*
X70740Y102257D01*
X71528Y102783D01*
X72054Y103571D01*
X72239Y104500D01*
X72054Y105429D01*
X71528Y106217D01*
X70740Y106743D01*
X70729Y106745D01*
Y107255D01*
X70740Y107257D01*
X71121Y107511D01*
X71143Y107522D01*
X71154Y107533D01*
X71490Y107758D01*
X71588Y107767D01*
X74000D01*
X74663Y107899D01*
X75226Y108274D01*
X76964Y110013D01*
X76965Y110014D01*
X76981Y110023D01*
X76986Y110026D01*
X77028Y110027D01*
X77126Y110050D01*
X77487D01*
X78267Y110373D01*
X78767Y110149D01*
D02*
G37*
G36*
X141000Y112000D02*
X142000Y111000D01*
Y103500D01*
X140500Y102000D01*
X138000D01*
X136000Y104000D01*
Y106518D01*
X136109D01*
Y107667D01*
X136121Y107723D01*
X136109Y107782D01*
Y107877D01*
X136110Y107891D01*
X136109Y107894D01*
Y111109D01*
X137000Y112000D01*
X141000Y112000D01*
D02*
G37*
G36*
X101000Y105500D02*
Y103500D01*
X98033Y100533D01*
X89467D01*
X88500Y101500D01*
X88500Y103500D01*
X91000Y106000D01*
X100500Y106000D01*
X101000Y105500D01*
D02*
G37*
G36*
X53500Y105000D02*
Y102500D01*
X52500Y101500D01*
X48000D01*
X47000Y100500D01*
X47000Y99000D01*
X46000Y98000D01*
X44000D01*
X43000Y99000D01*
Y103500D01*
X45500Y106000D01*
X52500Y106000D01*
X53500Y105000D01*
D02*
G37*
G36*
X34752Y95831D02*
X34778Y95545D01*
X34802Y95415D01*
X34834Y95294D01*
X34872Y95182D01*
X34918Y95079D01*
X34972Y94985D01*
X35032Y94900D01*
X35100Y94824D01*
X34676Y94399D01*
X34600Y94468D01*
X34515Y94528D01*
X34421Y94582D01*
X34318Y94628D01*
X34206Y94666D01*
X34085Y94698D01*
X33955Y94722D01*
X33817Y94739D01*
X33669Y94748D01*
X33512Y94750D01*
X34750Y95987D01*
X34752Y95831D01*
D02*
G37*
G36*
X108304Y94531D02*
X108240Y94450D01*
X108184Y94363D01*
X108135Y94270D01*
X108094Y94173D01*
X108060Y94070D01*
X108034Y93962D01*
X108015Y93848D01*
X108004Y93729D01*
X108000Y93604D01*
X107000D01*
X106996Y93729D01*
X106985Y93848D01*
X106966Y93962D01*
X106940Y94070D01*
X106906Y94173D01*
X106865Y94270D01*
X106816Y94363D01*
X106760Y94450D01*
X106696Y94531D01*
X106625Y94607D01*
X108375D01*
X108304Y94531D01*
D02*
G37*
G36*
X158238Y90473D02*
X157762Y90471D01*
X156556Y90390D01*
X156229Y90338D01*
X155939Y90272D01*
X155686Y90194D01*
X155470Y90103D01*
X155291Y90000D01*
X155150Y89883D01*
X154726Y90307D01*
X154842Y90449D01*
X154946Y90627D01*
X155037Y90843D01*
X155115Y91096D01*
X155180Y91387D01*
X155233Y91714D01*
X155299Y92480D01*
X155314Y92919D01*
X155315Y93396D01*
X158238Y90473D01*
D02*
G37*
G36*
X66260Y89867D02*
X66251Y89922D01*
X66224Y89971D01*
X66178Y90015D01*
X66115Y90053D01*
X66033Y90084D01*
X65933Y90111D01*
X65815Y90131D01*
X65679Y90145D01*
X65352Y90157D01*
Y90757D01*
X65525Y90760D01*
X65815Y90783D01*
X65933Y90803D01*
X66033Y90829D01*
X66115Y90861D01*
X66178Y90899D01*
X66224Y90943D01*
X66251Y90992D01*
X66260Y91047D01*
Y89867D01*
D02*
G37*
G36*
X43695D02*
X43686Y89922D01*
X43659Y89971D01*
X43613Y90015D01*
X43550Y90053D01*
X43468Y90084D01*
X43368Y90111D01*
X43250Y90131D01*
X43114Y90145D01*
X42787Y90157D01*
Y90757D01*
X42960Y90760D01*
X43250Y90783D01*
X43368Y90803D01*
X43468Y90829D01*
X43550Y90861D01*
X43613Y90899D01*
X43659Y90943D01*
X43686Y90992D01*
X43695Y91047D01*
Y89867D01*
D02*
G37*
G36*
X132505Y91266D02*
X132726Y91082D01*
X132834Y91007D01*
X132942Y90944D01*
X133049Y90892D01*
X133154Y90852D01*
X133258Y90823D01*
X133361Y90806D01*
X133464Y90800D01*
Y90200D01*
X133361Y90194D01*
X133258Y90177D01*
X133154Y90148D01*
X133049Y90108D01*
X132942Y90056D01*
X132834Y89993D01*
X132726Y89918D01*
X132616Y89832D01*
X132505Y89734D01*
X132393Y89625D01*
Y91375D01*
X132505Y91266D01*
D02*
G37*
G36*
X129908Y96812D02*
X128419Y95081D01*
X121849Y88512D01*
X121388Y88758D01*
X121428Y88957D01*
X121282Y89689D01*
X120868Y90309D01*
X120247Y90723D01*
X119516Y90869D01*
X114049D01*
X113634Y90786D01*
X113584Y90788D01*
X113523Y90764D01*
X113456Y90751D01*
X113415Y90746D01*
X113405Y90741D01*
X113318Y90723D01*
X113185Y90635D01*
X113138Y90617D01*
X113082Y90582D01*
X113056Y90567D01*
X113033Y90556D01*
X113011Y90547D01*
X112991Y90540D01*
X112965Y90558D01*
X112824Y90675D01*
X112746Y90751D01*
X112652Y90813D01*
X112388Y91077D01*
X111487Y91450D01*
X110513D01*
X109733Y91127D01*
X109233Y91351D01*
Y93716D01*
X109233Y93717D01*
X109238Y93735D01*
X109240Y93741D01*
X109269Y93772D01*
X109321Y93857D01*
X109577Y94112D01*
X109950Y95013D01*
Y95987D01*
X109627Y96767D01*
X109851Y97267D01*
X129700D01*
X129908Y96812D01*
D02*
G37*
G36*
X112005Y89766D02*
X112226Y89582D01*
X112335Y89507D01*
X112442Y89444D01*
X112549Y89392D01*
X112654Y89352D01*
X112758Y89323D01*
X112862Y89306D01*
X112935Y89302D01*
X112978Y89303D01*
X113073Y89311D01*
X113168Y89325D01*
X113261Y89345D01*
X113352Y89370D01*
X113443Y89401D01*
X113531Y89438D01*
X113619Y89480D01*
X113706Y89528D01*
X113791Y89582D01*
X113696Y88410D01*
X113691Y88465D01*
X113668Y88514D01*
X113627Y88558D01*
X113568Y88596D01*
X113490Y88627D01*
X113393Y88654D01*
X113278Y88674D01*
X113145Y88688D01*
X112909Y88697D01*
X112862Y88694D01*
X112758Y88677D01*
X112654Y88648D01*
X112549Y88608D01*
X112442Y88556D01*
X112335Y88493D01*
X112226Y88418D01*
X112116Y88332D01*
X112005Y88234D01*
X111893Y88125D01*
Y89875D01*
X112005Y89766D01*
D02*
G37*
G36*
X89517Y89749D02*
X89734Y89563D01*
X89842Y89488D01*
X89948Y89424D01*
X90054Y89372D01*
X90159Y89331D01*
X90263Y89302D01*
X90366Y89284D01*
X90430Y89281D01*
X90474Y89281D01*
X90767Y89305D01*
X90886Y89325D01*
X90988Y89351D01*
X91072Y89383D01*
X91137Y89421D01*
X91185Y89464D01*
X91215Y89513D01*
X91227Y89569D01*
X91163Y88389D01*
X91157Y88444D01*
X91132Y88493D01*
X91089Y88536D01*
X91028Y88574D01*
X90948Y88606D01*
X90850Y88632D01*
X90733Y88652D01*
X90598Y88667D01*
X90386Y88674D01*
X90356Y88673D01*
X90254Y88656D01*
X90149Y88627D01*
X90043Y88587D01*
X89936Y88536D01*
X89827Y88474D01*
X89717Y88400D01*
X89605Y88314D01*
X89492Y88218D01*
X89377Y88110D01*
X89408Y89859D01*
X89517Y89749D01*
D02*
G37*
G36*
X43695Y87308D02*
X43686Y87363D01*
X43659Y87412D01*
X43613Y87456D01*
X43550Y87494D01*
X43468Y87525D01*
X43368Y87552D01*
X43250Y87572D01*
X43114Y87586D01*
X42787Y87598D01*
Y88198D01*
X42960Y88201D01*
X43250Y88224D01*
X43368Y88244D01*
X43468Y88270D01*
X43550Y88302D01*
X43613Y88340D01*
X43659Y88384D01*
X43686Y88433D01*
X43695Y88488D01*
Y87308D01*
D02*
G37*
G36*
X119814Y86933D02*
X119841Y86884D01*
X119887Y86840D01*
X119950Y86802D01*
X120032Y86770D01*
X120132Y86744D01*
X120250Y86724D01*
X120386Y86710D01*
X120713Y86698D01*
Y86098D01*
X120540Y86095D01*
X120250Y86072D01*
X120132Y86052D01*
X120032Y86026D01*
X119950Y85994D01*
X119887Y85956D01*
X119841Y85912D01*
X119814Y85863D01*
X119805Y85808D01*
Y86988D01*
X119814Y86933D01*
D02*
G37*
G36*
X91195Y85808D02*
X91186Y85863D01*
X91159Y85912D01*
X91113Y85956D01*
X91050Y85994D01*
X90968Y86026D01*
X90868Y86052D01*
X90750Y86072D01*
X90614Y86086D01*
X90287Y86098D01*
Y86698D01*
X90460Y86701D01*
X90750Y86724D01*
X90868Y86744D01*
X90968Y86770D01*
X91050Y86802D01*
X91113Y86840D01*
X91159Y86884D01*
X91186Y86933D01*
X91195Y86988D01*
Y85808D01*
D02*
G37*
G36*
X57304Y86031D02*
X57240Y85950D01*
X57184Y85863D01*
X57135Y85770D01*
X57094Y85673D01*
X57060Y85570D01*
X57034Y85461D01*
X57015Y85348D01*
X57004Y85229D01*
X57000Y85104D01*
X56000D01*
X55996Y85229D01*
X55985Y85348D01*
X55966Y85461D01*
X55940Y85570D01*
X55906Y85673D01*
X55865Y85770D01*
X55816Y85863D01*
X55760Y85950D01*
X55696Y86031D01*
X55625Y86107D01*
X57375D01*
X57304Y86031D01*
D02*
G37*
G36*
X63804Y85531D02*
X63740Y85450D01*
X63684Y85363D01*
X63635Y85270D01*
X63594Y85173D01*
X63560Y85070D01*
X63534Y84961D01*
X63515Y84848D01*
X63504Y84729D01*
X63500Y84604D01*
X62500D01*
X62496Y84729D01*
X62485Y84848D01*
X62466Y84961D01*
X62440Y85070D01*
X62406Y85173D01*
X62365Y85270D01*
X62316Y85363D01*
X62260Y85450D01*
X62196Y85531D01*
X62125Y85607D01*
X63875D01*
X63804Y85531D01*
D02*
G37*
G36*
X43253Y86132D02*
X43984Y85986D01*
X49451D01*
X50182Y86132D01*
X50426Y85888D01*
X50473D01*
X50751Y85472D01*
X50550Y84987D01*
Y84982D01*
X50482Y84844D01*
X50432Y84789D01*
X50050Y84572D01*
X49864Y84609D01*
X49817Y84623D01*
X49803Y84621D01*
X49451Y84691D01*
X43984D01*
X43253Y84545D01*
X42632Y84131D01*
X42218Y83511D01*
X42072Y82779D01*
X42218Y82047D01*
X42584Y81499D01*
X42218Y80952D01*
X42072Y80220D01*
X42218Y79488D01*
X42584Y78940D01*
X42218Y78393D01*
X42072Y77661D01*
X42218Y76929D01*
X42584Y76381D01*
X42218Y75834D01*
X42072Y75102D01*
X41762Y74724D01*
X40500D01*
X40032Y74630D01*
X39635Y74365D01*
X39491Y74222D01*
X39029Y74413D01*
Y83867D01*
X41532Y86369D01*
X42898D01*
X43253Y86132D01*
D02*
G37*
G36*
X53233Y83272D02*
X53133Y83249D01*
X53034Y83220D01*
X52937Y83183D01*
X52841Y83140D01*
X52745Y83090D01*
X52651Y83032D01*
X52558Y82968D01*
X52467Y82897D01*
X52287Y82733D01*
X51424Y83284D01*
X51510Y83376D01*
X51585Y83469D01*
X51648Y83563D01*
X51701Y83657D01*
X51741Y83753D01*
X51771Y83849D01*
X51789Y83946D01*
X51796Y84044D01*
X51792Y84143D01*
X51777Y84242D01*
X53233Y83272D01*
D02*
G37*
G36*
X75506Y83010D02*
X75483Y83000D01*
X75446Y82976D01*
X75396Y82937D01*
X75257Y82814D01*
X74674Y82249D01*
X73613Y83309D01*
X74375Y84141D01*
X75506Y83010D01*
D02*
G37*
G36*
X49755Y83380D02*
X49817Y83359D01*
X49895Y83340D01*
X49989Y83324D01*
X50226Y83299D01*
X50529Y83284D01*
X50896Y83279D01*
Y82279D01*
X50704Y82278D01*
X49989Y82234D01*
X49895Y82218D01*
X49817Y82199D01*
X49755Y82178D01*
X49709Y82154D01*
Y83404D01*
X49755Y83380D01*
D02*
G37*
G36*
X97236Y81893D02*
X97281Y81883D01*
X97343Y81874D01*
X97524Y81861D01*
X98105Y81847D01*
X98296Y81846D01*
X98459Y80846D01*
X98273Y80844D01*
X97665Y80798D01*
X97547Y80777D01*
X97443Y80752D01*
X97351Y80723D01*
X97274Y80691D01*
X97210Y80654D01*
Y81904D01*
X97236Y81893D01*
D02*
G37*
G36*
X121934Y80346D02*
X121906Y80381D01*
X121865Y80412D01*
X121812Y80440D01*
X121746Y80463D01*
X121668Y80483D01*
X121578Y80500D01*
X121475Y80513D01*
X121232Y80527D01*
X121092Y80529D01*
X121540Y82029D01*
X122325Y82052D01*
X121934Y80346D01*
D02*
G37*
G36*
X79841Y80797D02*
X79747Y80768D01*
X79654Y80732D01*
X79561Y80689D01*
X79469Y80641D01*
X79377Y80586D01*
X79195Y80459D01*
X79105Y80385D01*
X78927Y80220D01*
X77988Y80696D01*
X78074Y80788D01*
X78149Y80881D01*
X78211Y80974D01*
X78260Y81068D01*
X78298Y81162D01*
X78324Y81256D01*
X78337Y81350D01*
X78338Y81445D01*
X78328Y81540D01*
X78304Y81635D01*
X79841Y80797D01*
D02*
G37*
G36*
X72320Y80821D02*
X72382Y80800D01*
X72460Y80781D01*
X72554Y80765D01*
X72791Y80740D01*
X73094Y80725D01*
X73461Y80720D01*
Y79720D01*
X73269Y79719D01*
X72554Y79675D01*
X72460Y79659D01*
X72382Y79640D01*
X72320Y79619D01*
X72275Y79595D01*
Y80845D01*
X72320Y80821D01*
D02*
G37*
G36*
X49755D02*
X49817Y80800D01*
X49895Y80781D01*
X49989Y80765D01*
X50226Y80740D01*
X50529Y80725D01*
X50896Y80720D01*
Y79720D01*
X50704Y79719D01*
X49989Y79675D01*
X49895Y79659D01*
X49817Y79640D01*
X49755Y79619D01*
X49709Y79595D01*
Y80845D01*
X49755Y80821D01*
D02*
G37*
G36*
X113791Y78095D02*
X113745Y78119D01*
X113683Y78140D01*
X113605Y78159D01*
X113511Y78175D01*
X113274Y78200D01*
X112971Y78215D01*
X112604Y78220D01*
Y79220D01*
X112796Y79221D01*
X113511Y79265D01*
X113605Y79281D01*
X113683Y79300D01*
X113745Y79321D01*
X113791Y79345D01*
Y78095D01*
D02*
G37*
G36*
X97255Y79321D02*
X97317Y79300D01*
X97395Y79281D01*
X97489Y79265D01*
X97726Y79240D01*
X98029Y79225D01*
X98396Y79220D01*
Y78220D01*
X98204Y78219D01*
X97489Y78175D01*
X97395Y78159D01*
X97317Y78140D01*
X97255Y78119D01*
X97210Y78095D01*
Y79345D01*
X97255Y79321D01*
D02*
G37*
G36*
X49755Y78262D02*
X49817Y78241D01*
X49895Y78222D01*
X49989Y78206D01*
X50226Y78181D01*
X50529Y78166D01*
X50896Y78161D01*
Y77161D01*
X50704Y77160D01*
X49989Y77116D01*
X49895Y77100D01*
X49817Y77081D01*
X49755Y77060D01*
X49709Y77036D01*
Y78286D01*
X49755Y78262D01*
D02*
G37*
G36*
X97236Y76775D02*
X97281Y76765D01*
X97343Y76756D01*
X97524Y76743D01*
X98105Y76729D01*
X98296Y76728D01*
X98459Y75728D01*
X98273Y75726D01*
X97665Y75680D01*
X97547Y75659D01*
X97443Y75634D01*
X97351Y75605D01*
X97274Y75573D01*
X97210Y75536D01*
Y76786D01*
X97236Y76775D01*
D02*
G37*
G36*
X78091Y76120D02*
X78125Y76089D01*
X78167Y76061D01*
X78216Y76037D01*
X78273Y76016D01*
X78337Y76000D01*
X78409Y75987D01*
X78489Y75978D01*
X78670Y75970D01*
Y75370D01*
X78592Y75368D01*
X78521Y75362D01*
X78457Y75351D01*
X78400Y75336D01*
X78350Y75317D01*
X78306Y75293D01*
X78270Y75266D01*
X78240Y75234D01*
X78218Y75197D01*
X78202Y75157D01*
X78065Y76155D01*
X78091Y76120D01*
D02*
G37*
G36*
X49755Y75703D02*
X49817Y75682D01*
X49895Y75663D01*
X49989Y75647D01*
X50226Y75622D01*
X50529Y75607D01*
X50896Y75602D01*
Y74602D01*
X50704Y74601D01*
X49989Y74557D01*
X49895Y74541D01*
X49817Y74522D01*
X49755Y74501D01*
X49709Y74477D01*
Y75727D01*
X49755Y75703D01*
D02*
G37*
G36*
X97236Y74216D02*
X97281Y74206D01*
X97343Y74197D01*
X97524Y74183D01*
X98105Y74170D01*
X98296Y74169D01*
X98459Y73169D01*
X98273Y73167D01*
X97665Y73121D01*
X97547Y73100D01*
X97443Y73075D01*
X97351Y73046D01*
X97274Y73014D01*
X97210Y72977D01*
Y74227D01*
X97236Y74216D01*
D02*
G37*
G36*
X90753Y71836D02*
X91484Y71690D01*
X96951D01*
X97329Y71765D01*
X97361Y71763D01*
X97424Y71784D01*
X97635Y71826D01*
X98000Y71499D01*
X98000Y70000D01*
X97000Y69000D01*
X91500Y69000D01*
X91000Y68500D01*
Y67000D01*
X90000Y66000D01*
X87500D01*
X86500Y67000D01*
Y69000D01*
X89500Y72000D01*
X90507D01*
X90753Y71836D01*
D02*
G37*
G36*
X53462Y68725D02*
X53306Y68723D01*
X53019Y68697D01*
X52890Y68673D01*
X52769Y68641D01*
X52657Y68603D01*
X52554Y68556D01*
X52460Y68503D01*
X52375Y68442D01*
X52299Y68374D01*
X51874Y68799D01*
X51942Y68875D01*
X52003Y68960D01*
X52056Y69054D01*
X52103Y69157D01*
X52141Y69269D01*
X52173Y69390D01*
X52197Y69519D01*
X52213Y69658D01*
X52223Y69806D01*
X52225Y69962D01*
X53462Y68725D01*
D02*
G37*
G36*
X43253Y73336D02*
X43984Y73190D01*
X49451D01*
X49803Y73260D01*
X49817Y73259D01*
X49864Y73272D01*
X50167Y73333D01*
X51000Y72500D01*
Y71500D01*
X46529Y67029D01*
X40971D01*
X39029Y68971D01*
Y72029D01*
X40500Y73500D01*
X43007D01*
X43253Y73336D01*
D02*
G37*
G36*
X15048Y53425D02*
X12048Y48925D01*
X12018Y49495D01*
X11928Y50005D01*
X11778Y50455D01*
X11568Y50845D01*
X11298Y51175D01*
X10968Y51445D01*
X10578Y51655D01*
X10128Y51805D01*
X10125Y51806D01*
X10025Y51784D01*
X9815Y51721D01*
X9627Y51647D01*
X9461Y51562D01*
X9317Y51466D01*
X9195Y51358D01*
Y51917D01*
X9048Y51925D01*
Y54925D01*
X9195Y54933D01*
Y55492D01*
X9317Y55384D01*
X9461Y55288D01*
X9627Y55203D01*
X9815Y55129D01*
X10025Y55067D01*
X10125Y55045D01*
X10128Y55045D01*
X10578Y55195D01*
X10968Y55405D01*
X11298Y55675D01*
X11568Y56005D01*
X11778Y56395D01*
X11928Y56845D01*
X12018Y57355D01*
X12048Y57925D01*
X15048Y53425D01*
D02*
G37*
G36*
X44500Y62500D02*
Y56500D01*
X41500Y53500D01*
X37500D01*
X36500Y54500D01*
Y59936D01*
X36865Y60302D01*
X36993Y60493D01*
X40000Y63500D01*
X43500D01*
X44500Y62500D01*
D02*
G37*
G36*
X25500Y62000D02*
Y54000D01*
X24500Y53000D01*
X18500D01*
X17500Y54000D01*
Y61000D01*
X20000Y63500D01*
X24000D01*
X25500Y62000D01*
D02*
G37*
G36*
X39595Y49558D02*
X39656Y49441D01*
X39755Y49338D01*
X39895Y49248D01*
X40075Y49172D01*
X40295Y49110D01*
X40556Y49062D01*
X40856Y49028D01*
X41195Y49007D01*
X41576Y49000D01*
Y47000D01*
X41195Y46993D01*
X40556Y46938D01*
X40295Y46890D01*
X40075Y46828D01*
X39895Y46752D01*
X39755Y46663D01*
X39656Y46559D01*
X39595Y46442D01*
X39575Y46311D01*
Y49689D01*
X39595Y49558D01*
D02*
G37*
G36*
X63586Y46062D02*
X63613Y45740D01*
X63657Y45456D01*
X63719Y45210D01*
X63798Y45001D01*
X63895Y44831D01*
X64010Y44698D01*
X64143Y44603D01*
X64293Y44546D01*
X64461Y44527D01*
X60694D01*
X60862Y44546D01*
X61012Y44603D01*
X61145Y44698D01*
X61260Y44831D01*
X61357Y45001D01*
X61436Y45210D01*
X61498Y45456D01*
X61542Y45740D01*
X61569Y46062D01*
X61577Y46422D01*
X63578D01*
X63586Y46062D01*
D02*
G37*
G36*
X36000Y63500D02*
Y61167D01*
X34500Y59667D01*
X34500Y44500D01*
X33000Y43000D01*
X30000D01*
X27500Y45500D01*
Y63500D01*
X29500Y65500D01*
X34000D01*
X36000Y63500D01*
D02*
G37*
G36*
X146266Y42995D02*
X146082Y42774D01*
X146007Y42665D01*
X145944Y42558D01*
X145892Y42451D01*
X145852Y42346D01*
X145823Y42242D01*
X145806Y42138D01*
X145800Y42037D01*
X145200D01*
X145194Y42138D01*
X145177Y42242D01*
X145148Y42346D01*
X145108Y42451D01*
X145056Y42558D01*
X144993Y42665D01*
X144918Y42774D01*
X144832Y42884D01*
X144734Y42995D01*
X144625Y43107D01*
X146375D01*
X146266Y42995D01*
D02*
G37*
G36*
X140494Y39043D02*
X140512Y38992D01*
X140542Y38947D01*
X140584Y38908D01*
X140638Y38875D01*
X140704Y38848D01*
X140782Y38827D01*
X140872Y38812D01*
X140974Y38803D01*
X141088Y38800D01*
Y38200D01*
X140974Y38197D01*
X140872Y38188D01*
X140782Y38173D01*
X140704Y38152D01*
X140638Y38125D01*
X140584Y38092D01*
X140542Y38053D01*
X140512Y38008D01*
X140494Y37957D01*
X140488Y37900D01*
Y39100D01*
X140494Y39043D01*
D02*
G37*
G36*
X64449Y39441D02*
X64279Y39381D01*
X64129Y39281D01*
X63999Y39141D01*
X63889Y38961D01*
X63799Y38741D01*
X63729Y38481D01*
X63679Y38181D01*
X63649Y37841D01*
X63639Y37461D01*
X61639D01*
X61629Y37841D01*
X61599Y38181D01*
X61549Y38481D01*
X61479Y38741D01*
X61389Y38961D01*
X61279Y39141D01*
X61149Y39281D01*
X60999Y39381D01*
X60829Y39441D01*
X60639Y39461D01*
X64639D01*
X64449Y39441D01*
D02*
G37*
G36*
X13512Y38825D02*
X13549Y38358D01*
X13611Y37946D01*
X13698Y37589D01*
X13809Y37287D01*
X13945Y37040D01*
X14105Y36847D01*
X14291Y36710D01*
X14501Y36627D01*
X14735Y36600D01*
X9265D01*
X9499Y36627D01*
X9709Y36710D01*
X9895Y36847D01*
X10055Y37040D01*
X10191Y37287D01*
X10302Y37589D01*
X10389Y37946D01*
X10451Y38358D01*
X10488Y38825D01*
X10500Y39347D01*
X13500D01*
X13512Y38825D01*
D02*
G37*
G36*
X140912Y31988D02*
X140794Y31865D01*
X140607Y31644D01*
X140539Y31547D01*
X140488Y31458D01*
X140454Y31377D01*
X140437Y31305D01*
Y31241D01*
X140454Y31186D01*
X140488Y31139D01*
X139639Y31988D01*
X139686Y31954D01*
X139741Y31937D01*
X139805D01*
X139877Y31954D01*
X139958Y31988D01*
X140047Y32039D01*
X140144Y32107D01*
X140250Y32192D01*
X140488Y32412D01*
X140912Y31988D01*
D02*
G37*
G36*
X63649Y30195D02*
X63679Y29855D01*
X63729Y29555D01*
X63799Y29295D01*
X63889Y29075D01*
X63999Y28895D01*
X64129Y28755D01*
X64279Y28655D01*
X64449Y28595D01*
X64639Y28575D01*
X60639D01*
X60829Y28595D01*
X60999Y28655D01*
X61149Y28755D01*
X61279Y28895D01*
X61389Y29075D01*
X61479Y29295D01*
X61549Y29555D01*
X61599Y29855D01*
X61629Y30195D01*
X61639Y30575D01*
X63639D01*
X63649Y30195D01*
D02*
G37*
G36*
X13502Y25131D02*
X13529Y25058D01*
X13569Y24977D01*
X13622Y24889D01*
X13688Y24794D01*
X13857Y24581D01*
X14078Y24339D01*
X14207Y24207D01*
X12793Y22793D01*
X12661Y22922D01*
X12206Y23312D01*
X12111Y23378D01*
X12023Y23431D01*
X11942Y23471D01*
X11869Y23498D01*
X11803Y23513D01*
X13487Y25197D01*
X13502Y25131D01*
D02*
G37*
G36*
X14216Y22372D02*
X14066Y22300D01*
X13933Y22180D01*
X13818Y22013D01*
X13721Y21797D01*
X13642Y21533D01*
X13580Y21222D01*
X13535Y20863D01*
X13509Y20455D01*
X13500Y20000D01*
X10500D01*
X10491Y20455D01*
X10420Y21222D01*
X10358Y21533D01*
X10279Y21797D01*
X10182Y22013D01*
X10067Y22180D01*
X9934Y22300D01*
X9784Y22372D01*
X9616Y22396D01*
X14384D01*
X14216Y22372D01*
D02*
G37*
G36*
X56111Y19500D02*
X56090Y19690D01*
X56030Y19860D01*
X55929Y20010D01*
X55789Y20140D01*
X55607Y20250D01*
X55386Y20340D01*
X55125Y20410D01*
X54823Y20460D01*
X54481Y20490D01*
X54098Y20500D01*
Y22500D01*
X54481Y22510D01*
X54823Y22540D01*
X55125Y22590D01*
X55386Y22660D01*
X55607Y22750D01*
X55789Y22860D01*
X55929Y22990D01*
X56030Y23140D01*
X56090Y23310D01*
X56111Y23500D01*
Y19500D01*
D02*
G37*
G36*
X42225Y23310D02*
X42285Y23140D01*
X42386Y22990D01*
X42527Y22860D01*
X42707Y22750D01*
X42929Y22660D01*
X43190Y22590D01*
X43492Y22540D01*
X43834Y22510D01*
X44217Y22500D01*
Y20500D01*
X43834Y20490D01*
X43492Y20460D01*
X43190Y20410D01*
X42929Y20340D01*
X42707Y20250D01*
X42527Y20140D01*
X42386Y20010D01*
X42285Y19860D01*
X42225Y19690D01*
X42205Y19500D01*
Y23500D01*
X42225Y23310D01*
D02*
G37*
G36*
X133524Y16500D02*
X133504Y16690D01*
X133443Y16860D01*
X133343Y17010D01*
X133202Y17140D01*
X133021Y17250D01*
X132800Y17340D01*
X132538Y17410D01*
X132236Y17460D01*
X131894Y17490D01*
X131512Y17500D01*
Y19500D01*
X131894Y19510D01*
X132236Y19540D01*
X132538Y19590D01*
X132800Y19660D01*
X133021Y19750D01*
X133202Y19860D01*
X133343Y19990D01*
X133443Y20140D01*
X133504Y20310D01*
X133524Y20500D01*
Y16500D01*
D02*
G37*
G36*
X80508Y20310D02*
X80568Y20140D01*
X80668Y19990D01*
X80808Y19860D01*
X80988Y19750D01*
X81208Y19660D01*
X81468Y19590D01*
X81768Y19540D01*
X82108Y19510D01*
X82488Y19500D01*
Y17500D01*
X82108Y17490D01*
X81768Y17460D01*
X81468Y17410D01*
X81208Y17340D01*
X80988Y17250D01*
X80808Y17140D01*
X80668Y17010D01*
X80568Y16860D01*
X80508Y16690D01*
X80488Y16500D01*
Y20500D01*
X80508Y20310D01*
D02*
G37*
G36*
X73524Y16500D02*
X73504Y16690D01*
X73444Y16860D01*
X73343Y17010D01*
X73202Y17140D01*
X73021Y17250D01*
X72800Y17340D01*
X72538Y17410D01*
X72236Y17460D01*
X71894Y17490D01*
X71512Y17500D01*
Y19500D01*
X71894Y19510D01*
X72236Y19540D01*
X72538Y19590D01*
X72800Y19660D01*
X73021Y19750D01*
X73202Y19860D01*
X73343Y19990D01*
X73444Y20140D01*
X73504Y20310D01*
X73524Y20500D01*
Y16500D01*
D02*
G37*
G36*
X54669Y19245D02*
X54866Y19213D01*
X54887Y19207D01*
Y13213D01*
X55000Y13100D01*
Y11500D01*
X54606Y11243D01*
X46723D01*
Y13500D01*
X46630Y13968D01*
X46365Y14365D01*
X43865Y16865D01*
X43468Y17130D01*
Y18095D01*
X43429Y18135D01*
Y19207D01*
X43449Y19213D01*
X43646Y19245D01*
X43778Y19257D01*
X54537D01*
X54669Y19245D01*
D02*
G37*
G36*
X30500Y25000D02*
Y18000D01*
X32500Y16000D01*
X43000D01*
X45500Y13500D01*
Y6000D01*
X44000Y4500D01*
X20500D01*
X17500Y7500D01*
Y24333D01*
X20000Y27000D01*
X28500D01*
X30500Y25000D01*
D02*
G37*
%LPC*%
G36*
X126397Y188501D02*
X116910D01*
Y177440D01*
X126397D01*
Y188501D01*
D02*
G37*
G36*
X48444D02*
X38957D01*
Y177440D01*
X48444D01*
Y188501D01*
D02*
G37*
G36*
X26127Y190761D02*
X20578D01*
Y185212D01*
X21619D01*
Y177901D01*
X20780D01*
Y172099D01*
X26212D01*
X26355Y172099D01*
X26713D01*
X26856Y172099D01*
X31018D01*
X31076Y172088D01*
X31133Y172099D01*
X32287D01*
Y172734D01*
X32547Y172757D01*
X33000D01*
X33858Y172928D01*
X34586Y173414D01*
X35888Y174716D01*
X36388Y174923D01*
X37077Y175612D01*
X37450Y176513D01*
Y177487D01*
X37077Y178388D01*
X36388Y179077D01*
X35487Y179450D01*
X34513D01*
X33612Y179077D01*
X32923Y178388D01*
X32754Y177981D01*
X32287Y177901D01*
X32287Y177901D01*
X32287Y177901D01*
X31133D01*
X31076Y177912D01*
X31018Y177901D01*
X26856D01*
X26713Y177901D01*
X26355D01*
X26212Y177901D01*
X25086D01*
Y185212D01*
X26127D01*
Y190761D01*
D02*
G37*
G36*
X158814Y137578D02*
X157721D01*
X156665Y137295D01*
X155718Y136748D01*
X154945Y135975D01*
X154398Y135028D01*
X154115Y133972D01*
Y132878D01*
X154398Y131822D01*
X154945Y130875D01*
X155718Y130102D01*
X156665Y129555D01*
X157721Y129272D01*
X158814D01*
X159871Y129555D01*
X160818Y130102D01*
X161591Y130875D01*
X162137Y131822D01*
X162420Y132878D01*
Y133972D01*
X162137Y135028D01*
X161591Y135975D01*
X160818Y136748D01*
X159871Y137295D01*
X158814Y137578D01*
D02*
G37*
G36*
X7633Y117578D02*
X6540D01*
X5484Y117295D01*
X4537Y116748D01*
X3764Y115975D01*
X3217Y115028D01*
X2934Y113972D01*
Y112879D01*
X3217Y111822D01*
X3764Y110875D01*
X4537Y110102D01*
X5484Y109555D01*
X6540Y109273D01*
X7633D01*
X8689Y109555D01*
X9636Y110102D01*
X10410Y110875D01*
X10956Y111822D01*
X11239Y112879D01*
Y113972D01*
X10956Y115028D01*
X10410Y115975D01*
X9636Y116748D01*
X8689Y117295D01*
X7633Y117578D01*
D02*
G37*
G36*
X158814Y107578D02*
X157721D01*
X156665Y107295D01*
X155718Y106748D01*
X154945Y105975D01*
X154398Y105028D01*
X154115Y103972D01*
Y102878D01*
X154398Y101822D01*
X154945Y100875D01*
X155718Y100102D01*
X156665Y99555D01*
X157721Y99273D01*
X158814D01*
X159871Y99555D01*
X160818Y100102D01*
X161591Y100875D01*
X162137Y101822D01*
X162420Y102878D01*
Y103972D01*
X162137Y105028D01*
X161591Y105975D01*
X160818Y106748D01*
X159871Y107295D01*
X158814Y107578D01*
D02*
G37*
G36*
X7633D02*
X6540D01*
X5484Y107295D01*
X4537Y106748D01*
X3764Y105975D01*
X3217Y105028D01*
X2934Y103972D01*
Y102878D01*
X3217Y101822D01*
X3764Y100875D01*
X4537Y100102D01*
X5484Y99555D01*
X6540Y99273D01*
X7633D01*
X8689Y99555D01*
X9636Y100102D01*
X10410Y100875D01*
X10956Y101822D01*
X11239Y102878D01*
Y103972D01*
X10956Y105028D01*
X10410Y105975D01*
X9636Y106748D01*
X8689Y107295D01*
X7633Y107578D01*
D02*
G37*
G36*
Y97578D02*
X6540D01*
X5484Y97295D01*
X4537Y96748D01*
X3764Y95975D01*
X3217Y95028D01*
X2934Y93972D01*
Y92879D01*
X3217Y91822D01*
X3764Y90875D01*
X4537Y90102D01*
X5484Y89556D01*
X6540Y89272D01*
X7633D01*
X8689Y89556D01*
X9636Y90102D01*
X10410Y90875D01*
X10956Y91822D01*
X11239Y92879D01*
Y93972D01*
X10956Y95028D01*
X10410Y95975D01*
X9636Y96748D01*
X8689Y97295D01*
X7633Y97578D01*
D02*
G37*
G36*
X158814Y87578D02*
X157721D01*
X156665Y87295D01*
X155718Y86748D01*
X154945Y85975D01*
X154398Y85028D01*
X154115Y83972D01*
Y82879D01*
X154398Y81822D01*
X154945Y80875D01*
X155718Y80102D01*
X156665Y79555D01*
X157721Y79273D01*
X158814D01*
X159871Y79555D01*
X160818Y80102D01*
X161591Y80875D01*
X162137Y81822D01*
X162420Y82879D01*
Y83972D01*
X162137Y85028D01*
X161591Y85975D01*
X160818Y86748D01*
X159871Y87295D01*
X158814Y87578D01*
D02*
G37*
G36*
X7633D02*
X6540D01*
X5484Y87295D01*
X4537Y86748D01*
X3764Y85975D01*
X3217Y85028D01*
X2934Y83972D01*
Y82879D01*
X3217Y81822D01*
X3764Y80875D01*
X4537Y80102D01*
X5484Y79555D01*
X6540Y79273D01*
X7633D01*
X8689Y79555D01*
X9636Y80102D01*
X10410Y80875D01*
X10956Y81822D01*
X11239Y82879D01*
Y83972D01*
X10956Y85028D01*
X10410Y85975D01*
X9636Y86748D01*
X8689Y87295D01*
X7633Y87578D01*
D02*
G37*
G36*
Y77578D02*
X6540D01*
X5484Y77295D01*
X4537Y76748D01*
X3764Y75975D01*
X3217Y75028D01*
X2934Y73972D01*
Y72878D01*
X3217Y71822D01*
X3764Y70875D01*
X4537Y70102D01*
X5484Y69555D01*
X6540Y69273D01*
X7633D01*
X8689Y69555D01*
X9636Y70102D01*
X10410Y70875D01*
X10956Y71822D01*
X11239Y72878D01*
Y73972D01*
X10956Y75028D01*
X10410Y75975D01*
X9636Y76748D01*
X8689Y77295D01*
X7633Y77578D01*
D02*
G37*
G36*
X141700Y63200D02*
X132300D01*
Y53800D01*
X141700D01*
Y63200D01*
D02*
G37*
G36*
X81700D02*
X72300D01*
Y53800D01*
X81700D01*
Y63200D01*
D02*
G37*
G36*
X128000Y52335D02*
X110500D01*
X109798Y52196D01*
X109202Y51798D01*
X108804Y51202D01*
X108665Y50500D01*
Y34000D01*
X108804Y33298D01*
X109202Y32702D01*
X109702Y32202D01*
X110298Y31804D01*
X111000Y31665D01*
X128000D01*
X128702Y31804D01*
X129298Y32202D01*
X129696Y32798D01*
X129835Y33500D01*
Y50500D01*
X129696Y51202D01*
X129298Y51798D01*
X128702Y52196D01*
X128000Y52335D01*
D02*
G37*
G36*
X119661Y12009D02*
X118464D01*
X117308Y11700D01*
X116271Y11101D01*
X115425Y10255D01*
X114826Y9218D01*
X114516Y8061D01*
Y6864D01*
X114826Y5708D01*
X115425Y4671D01*
X116271Y3825D01*
X117308Y3226D01*
X118464Y2916D01*
X119661D01*
X120818Y3226D01*
X121855Y3825D01*
X122701Y4671D01*
X123300Y5708D01*
X123609Y6864D01*
Y8061D01*
X123300Y9218D01*
X122701Y10255D01*
X121855Y11101D01*
X120818Y11700D01*
X119661Y12009D01*
D02*
G37*
G36*
X109661D02*
X108464D01*
X107308Y11700D01*
X106271Y11101D01*
X105425Y10255D01*
X104826Y9218D01*
X104516Y8061D01*
Y6864D01*
X104826Y5708D01*
X105425Y4671D01*
X106271Y3825D01*
X107308Y3226D01*
X108464Y2916D01*
X109661D01*
X110818Y3226D01*
X111855Y3825D01*
X112701Y4671D01*
X113300Y5708D01*
X113609Y6864D01*
Y8061D01*
X113300Y9218D01*
X112701Y10255D01*
X111855Y11101D01*
X110818Y11700D01*
X109661Y12009D01*
D02*
G37*
G36*
X99661D02*
X98464D01*
X97308Y11700D01*
X96271Y11101D01*
X95425Y10255D01*
X94826Y9218D01*
X94516Y8061D01*
Y6864D01*
X94826Y5708D01*
X95425Y4671D01*
X96271Y3825D01*
X97308Y3226D01*
X98464Y2916D01*
X99661D01*
X100818Y3226D01*
X101855Y3825D01*
X102701Y4671D01*
X103300Y5708D01*
X103609Y6864D01*
Y8061D01*
X103300Y9218D01*
X102701Y10255D01*
X101855Y11101D01*
X100818Y11700D01*
X99661Y12009D01*
D02*
G37*
G36*
X89662D02*
X88464D01*
X87308Y11700D01*
X86271Y11101D01*
X86195Y11025D01*
X85895D01*
Y10724D01*
X85425Y10255D01*
X84826Y9218D01*
X84517Y8061D01*
Y6864D01*
X84826Y5708D01*
X85425Y4671D01*
X85895Y4202D01*
Y3901D01*
X86195D01*
X86271Y3825D01*
X87308Y3226D01*
X88464Y2916D01*
X89662D01*
X90818Y3226D01*
X91855Y3825D01*
X91930Y3901D01*
X92232D01*
Y4202D01*
X92701Y4671D01*
X93300Y5708D01*
X93609Y6864D01*
Y8061D01*
X93300Y9218D01*
X92701Y10255D01*
X92232Y10724D01*
Y11025D01*
X91930D01*
X91855Y11101D01*
X90818Y11700D01*
X89662Y12009D01*
D02*
G37*
%LPD*%
G36*
X24258Y186426D02*
X24172Y186395D01*
X24098Y186345D01*
X24033Y186274D01*
X23978Y186183D01*
X23933Y186071D01*
X23898Y185940D01*
X23873Y185788D01*
X23857Y185616D01*
X23853Y185424D01*
X22852D01*
X22848Y185616D01*
X22832Y185788D01*
X22807Y185940D01*
X22772Y186071D01*
X22727Y186183D01*
X22672Y186274D01*
X22607Y186345D01*
X22533Y186395D01*
X22447Y186426D01*
X22353Y186436D01*
X24352D01*
X24258Y186426D01*
D02*
G37*
G36*
X23857Y177497D02*
X23873Y177324D01*
X23898Y177173D01*
X23933Y177041D01*
X23978Y176930D01*
X24033Y176839D01*
X24098Y176768D01*
X24172Y176717D01*
X24258Y176687D01*
X24352Y176677D01*
X22353D01*
X22447Y176687D01*
X22533Y176717D01*
X22607Y176768D01*
X22672Y176839D01*
X22727Y176930D01*
X22772Y177041D01*
X22807Y177173D01*
X22832Y177324D01*
X22848Y177497D01*
X22852Y177689D01*
X23853D01*
X23857Y177497D01*
D02*
G37*
G36*
X31095Y176558D02*
X31152Y176441D01*
X31249Y176338D01*
X31383Y176248D01*
X31557Y176172D01*
X31768Y176110D01*
X32019Y176062D01*
X32307Y176028D01*
X32634Y176007D01*
X33000Y176000D01*
Y174000D01*
X32634Y173993D01*
X32019Y173938D01*
X31768Y173890D01*
X31557Y173828D01*
X31383Y173752D01*
X31249Y173662D01*
X31152Y173559D01*
X31095Y173442D01*
X31076Y173311D01*
Y176689D01*
X31095Y176558D01*
D02*
G37*
D11*
X86363Y92500D02*
X96863D01*
X100000Y82137D02*
Y89363D01*
X88700Y98800D02*
X98200D01*
X86954Y97000D02*
X97454D01*
X103800Y80846D02*
Y90654D01*
X96909Y95000D02*
X102000Y89909D01*
Y81591D02*
Y89909D01*
X97454Y97000D02*
X103800Y90654D01*
X98200Y98800D02*
X105600Y91400D01*
Y80100D02*
Y91400D01*
X96863Y92500D02*
X100000Y89363D01*
X86409Y95000D02*
X96909D01*
X142000Y131500D02*
Y140500D01*
X138500Y128000D02*
X142000Y131500D01*
X37714Y141714D02*
X43000Y147000D01*
X35000Y141714D02*
X37714D01*
X43000Y147000D02*
X48748D01*
X38205Y148801D02*
X41403Y152000D01*
X35000Y148801D02*
X38205D01*
X41403Y152000D02*
X48748D01*
X122000Y149500D02*
Y164500D01*
X108218Y145500D02*
X118000D01*
X122000Y149500D01*
X118500Y168000D02*
X122000Y164500D01*
X124000Y148000D02*
Y170000D01*
X116382Y140382D02*
X124000Y148000D01*
X108177Y165677D02*
Y172939D01*
X108000Y165500D02*
X108177Y165677D01*
Y172939D02*
X108268Y173029D01*
X95500Y151500D02*
Y159000D01*
X100000Y150500D02*
Y160500D01*
X96547Y163953D02*
X100000Y160500D01*
X96500Y147000D02*
X100559Y142941D01*
X93000Y134000D02*
Y149000D01*
X95500Y151500D01*
X90500D02*
X92000Y153000D01*
X90500Y117689D02*
Y151500D01*
X100559Y142941D02*
X107941D01*
X100303Y173120D02*
X100394Y173029D01*
X96500Y179500D02*
X100303Y175697D01*
X69448Y179500D02*
X96500D01*
X100303Y173120D02*
Y175697D01*
X17500Y116000D02*
Y128500D01*
Y116000D02*
X21000Y112500D01*
X34000D01*
X35000Y111500D01*
Y109214D02*
Y111500D01*
X108218Y140382D02*
X116382D01*
X48748Y119500D02*
X54500D01*
X55500Y120500D01*
X123838Y133338D02*
X124000Y133500D01*
Y138500D01*
X44000Y156000D02*
X46500D01*
X48405Y152343D02*
X48748Y152000D01*
X46500Y156000D02*
X48405Y154095D01*
Y152343D02*
Y154095D01*
X39500Y159000D02*
X47500D01*
X48950Y157550D01*
X31851Y151351D02*
X39500Y159000D01*
X48950Y157550D02*
X55450D01*
X60000Y153000D01*
X53075Y160625D02*
Y172955D01*
X53000Y160550D02*
X53075Y160625D01*
X104331Y168169D02*
X104500Y168000D01*
X104331Y168169D02*
Y173029D01*
X96547Y163953D02*
Y172939D01*
X107129Y132000D02*
X108218Y133089D01*
X105000Y132000D02*
X107129D01*
X98906Y137000D02*
X99729Y137823D01*
X108218D01*
X98500Y137000D02*
X98906D01*
X108250Y116250D02*
X110000Y114500D01*
X108250Y119250D02*
X108500Y119500D01*
X108250Y116250D02*
Y119250D01*
X133925Y116380D02*
Y123000D01*
X105000D02*
X133925D01*
Y130425D01*
X136500Y133000D01*
X108218Y133089D02*
Y135264D01*
X124000Y138500D02*
X125882Y140382D01*
X130850Y142874D02*
X134626D01*
X130782Y142941D02*
X130850Y142874D01*
X125882Y140382D02*
X130782D01*
X134626Y142874D02*
X136500Y141000D01*
Y133000D02*
Y141000D01*
X93000Y134000D02*
X96000Y131000D01*
Y127500D02*
Y131000D01*
X93800Y125300D02*
X96000Y127500D01*
X96248Y114239D02*
X100261D01*
X96457Y173029D02*
X96547Y172939D01*
X90500Y117689D02*
X93689Y114500D01*
X96248D01*
X101500Y119500D02*
X105000Y123000D01*
X106000Y104500D02*
Y108500D01*
X100261Y114239D02*
X106000Y108500D01*
X88583Y112836D02*
Y173029D01*
Y112836D02*
X89919Y111500D01*
X90000D01*
X96060Y119688D02*
X96248Y119500D01*
X101500D01*
X74000Y109500D02*
X77000Y112500D01*
X67252Y109500D02*
X74000D01*
X69000Y128000D02*
X73000Y132000D01*
X29500Y128000D02*
X69000D01*
X77000Y117500D02*
Y135000D01*
X112114Y168114D02*
Y172939D01*
X112000Y168000D02*
X112114Y168114D01*
Y172939D02*
X112205Y173029D01*
X74000Y114500D02*
X77000Y117500D01*
X67252Y114500D02*
X74000D01*
X62000Y147000D02*
X67252D01*
X60500Y117000D02*
X62951Y114549D01*
X67203D01*
X60500Y117000D02*
Y121000D01*
X57500Y124000D02*
X60500Y121000D01*
X36500Y124000D02*
X57500D01*
X72925Y170575D02*
Y172939D01*
X80500Y98363D02*
Y163000D01*
X72925Y170575D02*
X80500Y163000D01*
X72835Y173029D02*
X72925Y172939D01*
X76772Y173029D02*
X76862Y172939D01*
Y170138D02*
X82500Y164500D01*
X76862Y170138D02*
Y172939D01*
X82500Y98909D02*
Y164500D01*
X80709Y169291D02*
Y173029D01*
Y169291D02*
X84500Y165500D01*
Y99454D02*
Y165500D01*
X80500Y98363D02*
X86363Y92500D01*
X82500Y98909D02*
X86409Y95000D01*
X84500Y99454D02*
X86954Y97000D01*
X84646Y168269D02*
X86500Y166414D01*
Y101000D02*
Y166414D01*
Y101000D02*
X88700Y98800D01*
X84646Y168269D02*
Y173029D01*
X91133Y164906D02*
X92500Y166273D01*
Y173010D01*
X91133Y164500D02*
Y164906D01*
X114752Y114500D02*
X122500D01*
X110000D02*
X114752D01*
X92500Y173010D02*
X92520Y173029D01*
X67252Y142000D02*
X73500D01*
X67252Y147000D02*
X74000D01*
X108500Y111000D02*
X110000Y109500D01*
X114752D01*
X106000Y104500D02*
X109500Y101000D01*
X67203Y141951D02*
X67252Y142000D01*
X42500Y119500D02*
X48748D01*
X41700Y129800D02*
X62300D01*
X67252Y134752D01*
X31851Y119351D02*
X36500Y124000D01*
X67203Y114549D02*
X67252Y114500D01*
X55000Y149000D02*
Y151500D01*
X53049Y147049D02*
X55000Y149000D01*
X48797Y147049D02*
X53049D01*
X48748Y147000D02*
X48797Y147049D01*
X68949Y159051D02*
Y172978D01*
Y159051D02*
X69000Y159000D01*
X68898Y173029D02*
X68949Y172978D01*
X64980Y161520D02*
Y173010D01*
Y161520D02*
X65000Y161500D01*
X64961Y173029D02*
X64980Y173010D01*
X61000Y159000D02*
X61012Y159012D01*
Y173018D01*
X57000Y161500D02*
X57043Y161543D01*
Y172986D01*
X53075Y172955D02*
X53150Y173029D01*
X145500Y120000D02*
X149000Y116500D01*
Y108000D02*
Y116500D01*
X138500Y120000D02*
X145500D01*
X146000Y113000D02*
Y115500D01*
X107500Y82000D02*
Y95500D01*
Y82000D02*
X110780Y78720D01*
X116782D01*
X108000Y99000D02*
X140000D01*
X149000Y108000D01*
X39000Y132500D02*
X41700Y129800D01*
X14075Y143425D02*
X29500Y128000D01*
X67252Y134752D02*
Y137000D01*
X7087Y143425D02*
X14075D01*
X25552Y135948D02*
Y141714D01*
Y135948D02*
X29000Y132500D01*
X39000D01*
X99129Y78720D02*
X102000Y81591D01*
X99209Y81346D02*
X100000Y82137D01*
X94217Y78720D02*
X99129D01*
X99169Y73669D02*
X105600Y80100D01*
X94284Y73669D02*
X99169D01*
X94284Y76228D02*
X99182D01*
X94284Y81346D02*
X99209D01*
X99182Y76228D02*
X103800Y80846D01*
X94217Y73602D02*
X94284Y73669D01*
X94217Y76161D02*
X94284Y76228D01*
X94217Y81279D02*
X94284Y81346D01*
X23352Y175215D02*
Y187987D01*
Y175215D02*
X23568Y175000D01*
X56500Y137500D02*
X60951Y141951D01*
X48697Y141949D02*
X48748Y142000D01*
X60000Y149000D02*
X62000Y147000D01*
X60951Y141951D02*
X67203D01*
X31851Y148801D02*
Y151351D01*
X28701Y136799D02*
Y141714D01*
X31851Y138829D02*
Y141714D01*
X28701Y136799D02*
X31000Y134500D01*
X33130Y137550D02*
X33500D01*
X31851Y138829D02*
X33130Y137550D01*
X31000Y134500D02*
X37000D01*
X44449Y141949D01*
X60000Y149000D02*
Y153000D01*
X44449Y141949D02*
X48697D01*
X79213Y81713D02*
X79500Y82000D01*
X79213Y81214D02*
Y81713D01*
X78219Y80220D02*
X79213Y81214D01*
X69283Y80220D02*
X78219D01*
X59463Y83963D02*
X59750Y84250D01*
X54161Y77661D02*
X59463Y82963D01*
Y83963D01*
X46718Y77661D02*
X54161D01*
X55102Y75102D02*
X63000Y83000D01*
Y86500D01*
X46718Y75102D02*
X55102D01*
X25552Y102948D02*
X29000Y99500D01*
X39000D01*
X25552Y102948D02*
Y109214D01*
X39000Y99500D02*
X42500Y96000D01*
X49500D01*
X58000Y104500D01*
X52720Y80220D02*
X56500Y84000D01*
X51626Y82779D02*
X53000Y84153D01*
X56500Y84000D02*
Y87000D01*
X53000Y84153D02*
Y84500D01*
X46718Y80220D02*
X52720D01*
X46718Y82779D02*
X51626D01*
X61012Y173018D02*
X61024Y173029D01*
X57043Y172986D02*
X57087Y173029D01*
X56000Y109500D02*
X67252D01*
X58000Y104500D02*
X67252D01*
X28701Y104299D02*
Y109214D01*
Y104299D02*
X31500Y101500D01*
X36000D02*
X43949Y109449D01*
X31500Y101500D02*
X36000D01*
X31851Y106149D02*
X33450Y104550D01*
X31851Y106149D02*
Y109214D01*
X43949Y109449D02*
X48697D01*
X48748Y109500D01*
X37714Y109214D02*
X43000Y114500D01*
X48748D01*
X35000Y109214D02*
X37714D01*
X31851Y116301D02*
Y119351D01*
X39301Y116301D02*
X42500Y119500D01*
X35000Y116301D02*
X39301D01*
X137318Y116623D02*
Y118818D01*
X137075Y116380D02*
X137318Y116623D01*
Y118818D02*
X138500Y120000D01*
X145120Y116380D02*
X146000Y115500D01*
X140224Y116380D02*
X145120D01*
X114752Y104500D02*
X122000D01*
X130000Y101000D02*
X134000Y105000D01*
X109500Y101000D02*
X130000D01*
X103500Y103500D02*
X108000Y99000D01*
X133925Y109293D02*
X134000Y109218D01*
Y105000D02*
Y109218D01*
X101500Y109500D02*
X103500Y107500D01*
Y103500D02*
Y107500D01*
X96248Y109500D02*
X101500D01*
X114752D02*
X130569D01*
X130776Y109293D01*
X129500Y113000D02*
X130500Y114000D01*
X124000Y113000D02*
X129500D01*
X122500Y114500D02*
X124000Y113000D01*
X130500Y116104D02*
X130776Y116380D01*
X130500Y114000D02*
Y116104D01*
D15*
X108307Y153089D02*
X114411D01*
X114500Y153000D01*
X108218Y153178D02*
X108307Y153089D01*
X108218Y150619D02*
X108277Y150560D01*
X118440D01*
X118500Y150500D01*
X126000Y146263D02*
Y150000D01*
X126619Y150619D02*
X130782D01*
X111500Y131763D02*
X126000Y146263D01*
Y150000D02*
X126619Y150619D01*
X139822Y153178D02*
X146500Y146500D01*
X130782Y153178D02*
X139822D01*
X146500Y124500D02*
Y146500D01*
X16000Y103000D02*
X28543Y90457D01*
X16000Y103000D02*
Y114512D01*
X7087Y123425D02*
X16000Y114512D01*
X111500Y131500D02*
Y131763D01*
X72900Y126400D02*
X73000Y126500D01*
X26774Y126400D02*
X72900D01*
X72500Y94000D02*
X74000Y92500D01*
X35500Y94000D02*
X72500D01*
X74000Y89000D02*
Y92500D01*
X111000Y89000D02*
X116569D01*
X143000Y38500D02*
X145500Y41000D01*
Y44000D01*
X137000Y38500D02*
X143000D01*
X151500Y86658D02*
X158268Y93425D01*
X137000Y28500D02*
X151500Y43000D01*
Y86658D01*
X49000Y65500D02*
X53475Y69975D01*
X40000Y65500D02*
X49000D01*
X37500Y68000D02*
X40000Y65500D01*
X37500Y68000D02*
Y84500D01*
X40898Y87898D01*
X46718D01*
X131500Y90500D02*
X136026D01*
X152200Y106675D02*
Y120000D01*
X136026Y90500D02*
X152200Y106675D01*
X137263Y94000D02*
X150600Y107337D01*
X129500Y94000D02*
X137263D01*
X121898Y86398D02*
X129500Y94000D01*
X150600Y107337D02*
Y135758D01*
X154610Y122410D02*
X157253D01*
X158268Y123425D01*
X152200Y120000D02*
X154610Y122410D01*
X116782Y86398D02*
X121898D01*
X150600Y135758D02*
X158268Y143425D01*
X19748Y133425D02*
X26774Y126400D01*
X7087Y133425D02*
X19748D01*
X69355Y87971D02*
X72971D01*
X74000Y89000D01*
X78670Y75670D02*
X89398Y86398D01*
X94217D01*
X77170Y75670D02*
X78670D01*
X77000Y75500D02*
X77170Y75670D01*
X88500Y89000D02*
X88521Y88978D01*
X94196D02*
X94217Y88957D01*
X88521Y88978D02*
X94196D01*
X69283Y87898D02*
X69355Y87971D01*
X28543Y90457D02*
X46718D01*
X32600Y92400D02*
X60100D01*
X21000Y104000D02*
X32600Y92400D01*
X60100D02*
X62043Y90457D01*
X33500Y96000D02*
X35500Y94000D01*
X62043Y90457D02*
X69283D01*
D21*
X37307Y30555D02*
D03*
Y21500D02*
D03*
Y12445D02*
D03*
D22*
X60693Y21500D02*
D03*
D23*
X77000Y18500D02*
D03*
Y28500D02*
D03*
Y38500D02*
D03*
Y48500D02*
D03*
X137000D02*
D03*
Y38500D02*
D03*
Y28500D02*
D03*
Y18500D02*
D03*
Y8500D02*
D03*
Y58500D02*
D03*
X77000Y8500D02*
D03*
Y58500D02*
D03*
D24*
X35000Y116301D02*
D03*
Y109214D02*
D03*
X25552Y116301D02*
D03*
Y109214D02*
D03*
X35000Y148801D02*
D03*
Y141714D02*
D03*
X25552Y148801D02*
D03*
Y141714D02*
D03*
X130776Y109293D02*
D03*
Y116380D02*
D03*
X140224Y109293D02*
D03*
Y116380D02*
D03*
D25*
X31851Y116301D02*
D03*
Y109214D02*
D03*
X28701Y116301D02*
D03*
Y109214D02*
D03*
X31851Y148801D02*
D03*
Y141714D02*
D03*
X28701Y148801D02*
D03*
Y141714D02*
D03*
X133925Y109293D02*
D03*
Y116380D02*
D03*
X137075Y109293D02*
D03*
Y116380D02*
D03*
D26*
X130782Y135264D02*
D03*
Y137823D02*
D03*
Y140382D02*
D03*
Y142941D02*
D03*
Y145500D02*
D03*
Y148060D02*
D03*
Y150619D02*
D03*
Y153178D02*
D03*
X108218Y135264D02*
D03*
Y137823D02*
D03*
Y140382D02*
D03*
Y142941D02*
D03*
Y145500D02*
D03*
Y148060D02*
D03*
Y150619D02*
D03*
Y153178D02*
D03*
X116782Y71043D02*
D03*
Y73602D02*
D03*
Y76161D02*
D03*
Y78720D02*
D03*
Y81279D02*
D03*
Y83839D02*
D03*
Y86398D02*
D03*
Y88957D02*
D03*
X94217Y71043D02*
D03*
Y73602D02*
D03*
Y76161D02*
D03*
Y78720D02*
D03*
Y81279D02*
D03*
Y83839D02*
D03*
Y86398D02*
D03*
Y88957D02*
D03*
X69283Y72543D02*
D03*
Y75102D02*
D03*
Y77661D02*
D03*
Y80220D02*
D03*
Y82779D02*
D03*
Y85339D02*
D03*
Y87898D02*
D03*
Y90457D02*
D03*
X46718Y72543D02*
D03*
Y75102D02*
D03*
Y77661D02*
D03*
Y80220D02*
D03*
Y82779D02*
D03*
Y85339D02*
D03*
Y87898D02*
D03*
Y90457D02*
D03*
D27*
X121654Y182970D02*
D03*
X43701D02*
D03*
D28*
X112205Y173029D02*
D03*
X108268D02*
D03*
X104331D02*
D03*
X100394D02*
D03*
X96457D02*
D03*
X92520D02*
D03*
X88583D02*
D03*
X84646D02*
D03*
X80709D02*
D03*
X76772D02*
D03*
X72835D02*
D03*
X68898D02*
D03*
X64961D02*
D03*
X61024D02*
D03*
X57087D02*
D03*
X53150D02*
D03*
D29*
X96248Y119500D02*
D03*
Y114500D02*
D03*
Y109500D02*
D03*
Y104500D02*
D03*
X114752Y119500D02*
D03*
Y114500D02*
D03*
Y109500D02*
D03*
Y104500D02*
D03*
X48748Y152000D02*
D03*
Y147000D02*
D03*
Y142000D02*
D03*
Y137000D02*
D03*
X67252Y152000D02*
D03*
Y147000D02*
D03*
Y142000D02*
D03*
Y137000D02*
D03*
Y104500D02*
D03*
Y109500D02*
D03*
Y114500D02*
D03*
Y119500D02*
D03*
X48748Y104500D02*
D03*
Y109500D02*
D03*
Y114500D02*
D03*
Y119500D02*
D03*
D30*
X23352Y187987D02*
D03*
X29647Y188014D02*
D03*
D31*
X25000Y21861D02*
D03*
Y35139D02*
D03*
D32*
X62639Y42000D02*
D03*
X49361D02*
D03*
D51*
X32068Y48000D02*
D03*
X38000D02*
D03*
X23568Y175000D02*
D03*
X29500D02*
D03*
X38000Y56000D02*
D03*
X32068D02*
D03*
D52*
X21500Y55000D02*
D03*
Y49068D02*
D03*
D53*
X12000Y33996D02*
D03*
Y25000D02*
D03*
D54*
X7431Y63081D02*
X11282D01*
X13548Y53425D02*
Y60816D01*
X7087Y63425D02*
X7431Y63081D01*
X11282D02*
X13548Y60816D01*
Y40895D02*
Y53425D01*
X7087D02*
X13548D01*
X12000Y33996D02*
Y39347D01*
X13548Y40895D01*
X12000Y20000D02*
X14000Y18000D01*
X18000D01*
X12000Y20000D02*
Y25000D01*
D55*
X44320Y9000D02*
X66500D01*
X69000Y11500D01*
Y16000D01*
X71500Y18500D01*
X77000D01*
X137000D01*
X37307Y12445D02*
X37500Y12252D01*
X37307Y21500D02*
X60693D01*
X29500Y175000D02*
X33000D01*
X35000Y177000D01*
X75365Y84000D02*
X75500D01*
X61000Y48000D02*
X62577Y46422D01*
X38000Y48000D02*
X61000D01*
X62577Y42061D02*
Y46422D01*
X62639Y23446D02*
Y42000D01*
X12000Y25000D02*
X13500Y23500D01*
D56*
X114752Y119500D02*
X121500D01*
X133441Y145500D02*
X137000D01*
X137000Y145500D01*
X67252Y119500D02*
X73500D01*
X116782Y81279D02*
X122450D01*
X122729Y81000D02*
X123000D01*
X122450Y81279D02*
X122729Y81000D01*
X67252Y152000D02*
X74000D01*
X74144Y82779D02*
X75365Y84000D01*
X69283Y82779D02*
X74144D01*
X60693Y21500D02*
X62639Y23446D01*
X62577Y42061D02*
X62639Y42000D01*
D57*
X119063Y7463D02*
D03*
X109063D02*
D03*
X99063D02*
D03*
D58*
X89063D02*
D03*
D59*
X158268Y143425D02*
D03*
Y133425D02*
D03*
Y123425D02*
D03*
Y113425D02*
D03*
Y103425D02*
D03*
Y93425D02*
D03*
Y83425D02*
D03*
Y73425D02*
D03*
Y63425D02*
D03*
Y53425D02*
D03*
X7087Y143425D02*
D03*
Y133425D02*
D03*
Y123425D02*
D03*
Y113425D02*
D03*
Y103425D02*
D03*
Y93425D02*
D03*
Y83425D02*
D03*
Y73425D02*
D03*
Y63425D02*
D03*
Y53425D02*
D03*
D60*
X49500Y16500D02*
D03*
Y32000D02*
D03*
X20000Y165500D02*
D03*
X39500Y8500D02*
D03*
X34500D02*
D03*
X49500Y26000D02*
D03*
X76000Y158500D02*
D03*
X123000Y95000D02*
D03*
X115000D02*
D03*
X100000Y124500D02*
D03*
X118000Y157000D02*
D03*
X111000Y160500D02*
D03*
X156000Y22000D02*
D03*
Y35000D02*
D03*
X158500Y155500D02*
D03*
Y166000D02*
D03*
Y176000D02*
D03*
X111000Y189500D02*
D03*
X96500D02*
D03*
X54000D02*
D03*
X67500D02*
D03*
X82000D02*
D03*
X8000Y155500D02*
D03*
Y165500D02*
D03*
Y176000D02*
D03*
X86500Y37500D02*
D03*
X96100D02*
D03*
X96200Y47000D02*
D03*
X86600D02*
D03*
X86700Y57000D02*
D03*
X96300D02*
D03*
X124000Y73500D02*
D03*
X132500D02*
D03*
X141500D02*
D03*
X106200Y57000D02*
D03*
X106100Y47000D02*
D03*
X106000Y37500D02*
D03*
X27000Y39500D02*
D03*
X17000Y68000D02*
D03*
X24000D02*
D03*
X83000Y89500D02*
D03*
X73500Y99000D02*
D03*
X83500Y65000D02*
D03*
X117000Y131500D02*
D03*
X142000Y124500D02*
D03*
X137500Y123500D02*
D03*
X91133Y164500D02*
D03*
X90000Y111500D02*
D03*
X73500Y142000D02*
D03*
X108500Y111000D02*
D03*
X55000Y151500D02*
D03*
X69000Y159000D02*
D03*
X65000Y161500D02*
D03*
X61000Y159000D02*
D03*
X57000Y161500D02*
D03*
X146000Y113000D02*
D03*
X107500Y95500D02*
D03*
X111000Y89000D02*
D03*
X123000Y81000D02*
D03*
X145500Y44000D02*
D03*
X131500Y90500D02*
D03*
X53475Y69975D02*
D03*
X88500Y89000D02*
D03*
X33500Y137550D02*
D03*
X56500Y137500D02*
D03*
X74000Y152000D02*
D03*
X77000Y75500D02*
D03*
X79500Y82000D02*
D03*
X59750Y84250D02*
D03*
X21000Y104000D02*
D03*
X33500Y96000D02*
D03*
X42000Y69500D02*
D03*
X89000Y68500D02*
D03*
X53000Y84500D02*
D03*
X63000Y86500D02*
D03*
X75500Y84000D02*
D03*
X56500Y87000D02*
D03*
X56000Y109500D02*
D03*
X33450Y104550D02*
D03*
X139000Y104000D02*
D03*
X122000Y104500D02*
D03*
X23000Y60000D02*
D03*
X90500Y102500D02*
D03*
X45000Y100000D02*
D03*
X23500Y121500D02*
D03*
X33000Y62000D02*
D03*
X17000Y88000D02*
D03*
X24000D02*
D03*
Y78500D02*
D03*
X17000D02*
D03*
X69000Y65000D02*
D03*
X44500Y39500D02*
D03*
X35000D02*
D03*
X78500Y94000D02*
D03*
X42000Y61000D02*
D03*
X41000Y83500D02*
D03*
X114500Y153000D02*
D03*
X118500Y150500D02*
D03*
X142000Y140500D02*
D03*
X137500Y150500D02*
D03*
X105000Y157000D02*
D03*
X108000Y165500D02*
D03*
X95500Y159000D02*
D03*
X96500Y147000D02*
D03*
X100000Y150500D02*
D03*
X92000Y153000D02*
D03*
X35000Y177000D02*
D03*
X24000Y154000D02*
D03*
X69448Y179500D02*
D03*
X17500Y128500D02*
D03*
X124000Y170000D02*
D03*
X44500Y134000D02*
D03*
X55500Y120500D02*
D03*
X118500Y168000D02*
D03*
X123838Y133338D02*
D03*
X44000Y156000D02*
D03*
X53000Y160550D02*
D03*
X104500Y168000D02*
D03*
X98500Y137000D02*
D03*
X146500Y124500D02*
D03*
X121500Y119500D02*
D03*
X108500D02*
D03*
X111500Y131500D02*
D03*
X138500Y128000D02*
D03*
X105000Y132000D02*
D03*
X137000Y145500D02*
D03*
X93800Y125300D02*
D03*
X77000Y112500D02*
D03*
X73000Y132000D02*
D03*
X77000Y135000D02*
D03*
X112000Y168000D02*
D03*
X73500Y119500D02*
D03*
X73000Y126500D02*
D03*
X74000Y147000D02*
D03*
X141500Y83500D02*
D03*
X69000Y33500D02*
D03*
Y49500D02*
D03*
X132500Y83500D02*
D03*
X25000Y14000D02*
D03*
X20500D02*
D03*
X29500D02*
D03*
Y8500D02*
D03*
X56500Y65000D02*
D03*
X25000Y8500D02*
D03*
X20500D02*
D03*
M02*
