M48
;Layer_Color=9474304
;FILE_FORMAT=2:5
INCH,LZ
;TYPE=PLATED
T1F00S00C0.01200
T2F00S00C0.03150
T3F00S00C0.06693
%
T01
X0156Y0022
Y0035
X01455Y0044
X01415Y00735
Y00835
X01325
Y00735
X0124
X0123Y0081
X01062Y0057
X00963
X00867
X00866Y0047
X00865Y00375
X00961
X00962Y0047
X01061
X0106Y00375
X0069Y00335
Y00495
Y0065
X00565
X0053475Y0069975
X0042Y00695
Y0061
X0033Y0062
X0023Y006
X0024Y0068
X0017
Y00785
X0024
X0041Y00835
X0053Y00845
X005975Y008425
X00755Y0084
X00795Y0082
X0077Y00755
X00835Y0065
X0089Y00685
X00445Y00395
X0035
X0027
X0025Y0014
X00205
Y00085
X0025
X00295
X00345
X00395
X00295Y0014
X00495Y00165
Y0026
Y0032
X00565Y0087
X0063Y00865
X0083Y00895
X00885Y0089
X00785Y0094
X00735Y0099
X0077Y01125
X00735Y01195
X0073Y01265
Y0132
X0077Y0135
X00735Y0142
X0074Y0147
Y0152
X0076Y01585
X0069Y0159
X0065Y01615
X0061Y0159
X0057Y01615
X0053Y016055
X0055Y01515
X00565Y01375
X00445Y0134
X00335Y013755
X00175Y01285
X00235Y01215
X0021Y0104
X003345Y010455
X00335Y0096
X0045Y01
X0056Y01095
X00555Y01205
X00938Y01253
X01Y01245
X0105Y0132
X01115Y01315
X0117
X0123838Y0133338
X01215Y01195
X01085
Y0111
X01075Y00955
X0115Y0095
X0123
X0122Y01045
X01315Y00905
X0111Y0089
X00905Y01025
X009Y01115
X00985Y0137
X00965Y0147
X01Y01505
X0092Y0153
X00955Y0159
X0091133Y01645
X01045Y0168
X0108Y01655
X0112Y0168
X01185
X0124Y017
X0118Y0157
X01185Y01505
X01145Y0153
X0111Y01605
X0105Y0157
X0111Y01895
X00965
X0082
X00675
X0069448Y01795
X0054Y01895
X0035Y0177
X002Y01655
X0008
Y01555
X0024Y0154
X0044Y0156
X0008Y0176
X0017Y0088
X0024
X0137Y01455
X01375Y01505
X0142Y01405
Y01245
X01465
X01375Y01235
X01385Y0128
X0146Y0113
X0139Y0104
X01585Y01555
Y0166
Y0176
T02
X0158268Y0053425
Y0063425
Y0073425
Y0083425
X0007087
Y0073425
Y0063425
Y0053425
Y0093425
Y0103425
Y0113425
Y0123425
Y0133425
Y0143425
X0158268
Y0133425
Y0123425
Y0113425
Y0103425
Y0093425
T03
X0089063Y0007463
X0099063
X0109063
X0119063
M30
