G04*
G04 #@! TF.GenerationSoftware,Altium Limited,Altium Designer,22.11.1 (43)*
G04*
G04 Layer_Color=8421504*
%FSLAX25Y25*%
%MOIN*%
G70*
G04*
G04 #@! TF.SameCoordinates,D2032E32-7B9E-4814-9484-8CEA1A25EAEB*
G04*
G04*
G04 #@! TF.FilePolarity,Positive*
G04*
G01*
G75*
%ADD21R,0.09843X0.04331*%
%ADD22R,0.09213X0.14173*%
%ADD23R,0.07000X0.07000*%
%ADD24R,0.02559X0.03150*%
%ADD25R,0.01968X0.03150*%
%ADD26O,0.06817X0.01350*%
%ADD27R,0.07087X0.08661*%
%ADD28R,0.01181X0.04921*%
%ADD29O,0.07480X0.02362*%
%ADD30R,0.03150X0.03150*%
%ADD31R,0.05102X0.06919*%
%ADD32R,0.06919X0.05102*%
G36*
X14441Y22903D02*
X9402D01*
X9205Y23100D01*
Y27628D01*
X9402Y27825D01*
X11016Y27845D01*
Y26073D01*
X12787D01*
Y27805D01*
X14441Y27825D01*
X14638Y27628D01*
Y23100D01*
X14441Y22903D01*
D01*
D02*
G37*
G36*
Y31368D02*
X12787Y31368D01*
Y33120D01*
X11016D01*
Y31388D01*
X9402Y31368D01*
X9205Y31565D01*
Y36092D01*
X9402Y36289D01*
X14441D01*
X14638Y36092D01*
Y31565D01*
X14441Y31368D01*
D01*
D02*
G37*
G36*
X23272Y47329D02*
Y50479D01*
X23075Y50676D01*
X22177D01*
Y49219D01*
X20878D01*
Y50676D01*
X19925D01*
X19728Y50479D01*
Y47329D01*
X19925Y47132D01*
X23075D01*
X23272Y47329D01*
D01*
D02*
G37*
G36*
X33636Y49575D02*
Y48677D01*
X32140D01*
Y47378D01*
X33636D01*
Y46425D01*
X33440Y46228D01*
X30329D01*
X30132Y46425D01*
Y49575D01*
X30329Y49772D01*
X33440D01*
X33636Y49575D01*
D01*
D02*
G37*
G36*
X39739Y49772D02*
X36589D01*
X36392Y49575D01*
Y48677D01*
X37849D01*
Y47378D01*
X36392D01*
Y46425D01*
X36589Y46228D01*
X39739D01*
X39936Y46425D01*
Y49575D01*
X39739Y49772D01*
D01*
D02*
G37*
G36*
X23075Y53432D02*
X22177D01*
Y54928D01*
X20878D01*
Y53432D01*
X19925D01*
X19728Y53628D01*
Y56739D01*
X19925Y56936D01*
X23075D01*
X23272Y56739D01*
Y53628D01*
X23075Y53432D01*
D01*
D02*
G37*
G36*
X30329Y54228D02*
X33479D01*
X33676Y54425D01*
Y55323D01*
X32219D01*
Y56622D01*
X33676D01*
Y57575D01*
X33479Y57772D01*
X30329D01*
X30132Y57575D01*
Y54425D01*
X30329Y54228D01*
D01*
D02*
G37*
G36*
X36432Y54425D02*
Y55323D01*
X37928D01*
Y56622D01*
X36432D01*
Y57575D01*
X36628Y57772D01*
X39739D01*
X39935Y57575D01*
Y54425D01*
X39739Y54228D01*
X36628D01*
X36432Y54425D01*
D01*
D02*
G37*
G36*
X25136Y176575D02*
Y175677D01*
X23640D01*
Y174378D01*
X25136D01*
Y173425D01*
X24940Y173228D01*
X21829D01*
X21632Y173425D01*
Y176575D01*
X21829Y176772D01*
X24940D01*
X25136Y176575D01*
D01*
D02*
G37*
G36*
X31239Y176772D02*
X28089D01*
X27892Y176575D01*
Y175677D01*
X29349D01*
Y174378D01*
X27892D01*
Y173425D01*
X28089Y173228D01*
X31239D01*
X31436Y173425D01*
Y176575D01*
X31239Y176772D01*
D01*
D02*
G37*
D21*
X37307Y30555D02*
D03*
Y21500D02*
D03*
Y12445D02*
D03*
D22*
X60693Y21500D02*
D03*
D23*
X77000Y18500D02*
D03*
Y28500D02*
D03*
Y38500D02*
D03*
Y48500D02*
D03*
X137000D02*
D03*
Y38500D02*
D03*
Y28500D02*
D03*
Y18500D02*
D03*
Y8500D02*
D03*
Y58500D02*
D03*
X77000Y8500D02*
D03*
Y58500D02*
D03*
D24*
X35000Y116301D02*
D03*
Y109214D02*
D03*
X25552Y116301D02*
D03*
Y109214D02*
D03*
X35000Y148801D02*
D03*
Y141714D02*
D03*
X25552Y148801D02*
D03*
Y141714D02*
D03*
X130776Y109293D02*
D03*
Y116380D02*
D03*
X140224Y109293D02*
D03*
Y116380D02*
D03*
D25*
X31851Y116301D02*
D03*
Y109214D02*
D03*
X28701Y116301D02*
D03*
Y109214D02*
D03*
X31851Y148801D02*
D03*
Y141714D02*
D03*
X28701Y148801D02*
D03*
Y141714D02*
D03*
X133925Y109293D02*
D03*
Y116380D02*
D03*
X137075Y109293D02*
D03*
Y116380D02*
D03*
D26*
X130782Y135264D02*
D03*
Y137823D02*
D03*
Y140382D02*
D03*
Y142941D02*
D03*
Y145500D02*
D03*
Y148060D02*
D03*
Y150619D02*
D03*
Y153178D02*
D03*
X108218Y135264D02*
D03*
Y137823D02*
D03*
Y140382D02*
D03*
Y142941D02*
D03*
Y145500D02*
D03*
Y148060D02*
D03*
Y150619D02*
D03*
Y153178D02*
D03*
X116782Y71043D02*
D03*
Y73602D02*
D03*
Y76161D02*
D03*
Y78720D02*
D03*
Y81279D02*
D03*
Y83839D02*
D03*
Y86398D02*
D03*
Y88957D02*
D03*
X94217Y71043D02*
D03*
Y73602D02*
D03*
Y76161D02*
D03*
Y78720D02*
D03*
Y81279D02*
D03*
Y83839D02*
D03*
Y86398D02*
D03*
Y88957D02*
D03*
X69283Y72543D02*
D03*
Y75102D02*
D03*
Y77661D02*
D03*
Y80220D02*
D03*
Y82779D02*
D03*
Y85339D02*
D03*
Y87898D02*
D03*
Y90457D02*
D03*
X46718Y72543D02*
D03*
Y75102D02*
D03*
Y77661D02*
D03*
Y80220D02*
D03*
Y82779D02*
D03*
Y85339D02*
D03*
Y87898D02*
D03*
Y90457D02*
D03*
D27*
X121654Y182970D02*
D03*
X43701D02*
D03*
D28*
X112205Y173029D02*
D03*
X108268D02*
D03*
X104331D02*
D03*
X100394D02*
D03*
X96457D02*
D03*
X92520D02*
D03*
X88583D02*
D03*
X84646D02*
D03*
X80709D02*
D03*
X76772D02*
D03*
X72835D02*
D03*
X68898D02*
D03*
X64961D02*
D03*
X61024D02*
D03*
X57087D02*
D03*
X53150D02*
D03*
D29*
X96248Y119500D02*
D03*
Y114500D02*
D03*
Y109500D02*
D03*
Y104500D02*
D03*
X114752Y119500D02*
D03*
Y114500D02*
D03*
Y109500D02*
D03*
Y104500D02*
D03*
X48748Y152000D02*
D03*
Y147000D02*
D03*
Y142000D02*
D03*
Y137000D02*
D03*
X67252Y152000D02*
D03*
Y147000D02*
D03*
Y142000D02*
D03*
Y137000D02*
D03*
Y104500D02*
D03*
Y109500D02*
D03*
Y114500D02*
D03*
Y119500D02*
D03*
X48748Y104500D02*
D03*
Y109500D02*
D03*
Y114500D02*
D03*
Y119500D02*
D03*
D30*
X23352Y187987D02*
D03*
X29647Y188014D02*
D03*
D31*
X25000Y21861D02*
D03*
Y35139D02*
D03*
D32*
X62639Y42000D02*
D03*
X49361D02*
D03*
M02*
