G04*
G04 #@! TF.GenerationSoftware,Altium Limited,Altium Designer,22.11.1 (43)*
G04*
G04 Layer_Color=255*
%FSLAX25Y25*%
%MOIN*%
G70*
G04*
G04 #@! TF.SameCoordinates,76B60832-644B-4AE7-BD70-8BB73C9281A9*
G04*
G04*
G04 #@! TF.FilePolarity,Positive*
G04*
G01*
G75*
%ADD66C,0.06299*%
%ADD71R,0.05847X0.06803*%
%ADD74O,0.03937X0.07874*%
%ADD75O,0.03937X0.06299*%
%ADD76O,0.06299X0.06299*%
%ADD77O,0.07874X0.10236*%
%ADD78C,0.05906*%
D66*
X154020Y24095D02*
D03*
Y35906D02*
D03*
X161500Y30000D02*
D03*
D71*
X133460Y79000D02*
D03*
X146000D02*
D03*
X133960Y97000D02*
D03*
X146500D02*
D03*
D74*
X31332Y9208D02*
D03*
X59672Y9214D02*
D03*
D75*
X59669Y22793D02*
D03*
X31329Y22787D02*
D03*
D76*
X77126Y9000D02*
D03*
X92874D02*
D03*
X85000D02*
D03*
D77*
X101339D02*
D03*
X68661D02*
D03*
D78*
X158268Y143425D02*
D03*
Y133425D02*
D03*
Y123425D02*
D03*
Y113425D02*
D03*
Y103425D02*
D03*
Y93425D02*
D03*
Y83425D02*
D03*
Y73425D02*
D03*
Y63425D02*
D03*
Y53425D02*
D03*
X7087Y143425D02*
D03*
Y133425D02*
D03*
Y123425D02*
D03*
Y113425D02*
D03*
Y103425D02*
D03*
Y93425D02*
D03*
Y83425D02*
D03*
Y73425D02*
D03*
Y63425D02*
D03*
Y53425D02*
D03*
M02*
