G04*
G04 #@! TF.GenerationSoftware,Altium Limited,Altium Designer,22.11.1 (43)*
G04*
G04 Layer_Color=32896*
%FSLAX25Y25*%
%MOIN*%
G70*
G04*
G04 #@! TF.SameCoordinates,76B60832-644B-4AE7-BD70-8BB73C9281A9*
G04*
G04*
G04 #@! TF.FilePolarity,Positive*
G04*
G01*
G75*
%ADD11C,0.01000*%
%ADD13C,0.00600*%
%ADD18C,0.00500*%
D11*
X153268Y148425D02*
X163268D01*
Y48425D02*
Y148425D01*
X153268Y48425D02*
X163268D01*
X153268D02*
Y148425D01*
X2087D02*
X12087D01*
Y48425D02*
Y148425D01*
X2087Y48425D02*
X12087D01*
X2087D02*
Y148425D01*
D13*
X129637Y75298D02*
X130237Y74698D01*
Y83302D02*
X129637Y82702D01*
X149223Y74698D02*
X149823Y75298D01*
Y82702D02*
X149223Y83302D01*
X130137Y93298D02*
X130737Y92698D01*
Y101302D02*
X130137Y100702D01*
X149723Y92698D02*
X150323Y93298D01*
Y100702D02*
X149723Y101302D01*
X130237Y83302D02*
X136083D01*
X130237Y74698D02*
X136083D01*
X129637Y75298D02*
Y82702D01*
X143377Y83302D02*
X149223D01*
X143377Y74698D02*
X149223D01*
X149823Y75298D02*
Y82702D01*
X130737Y101302D02*
X136583D01*
X130737Y92698D02*
X136583D01*
X130137Y93298D02*
Y100702D01*
X143877Y101302D02*
X149723D01*
X143877Y92698D02*
X149723D01*
X150323Y93298D02*
Y100702D01*
D18*
X158500Y152999D02*
X159500D01*
X159000D01*
Y150500D01*
X159500Y150001D01*
X159999D01*
X160499Y150500D01*
X155501Y150001D02*
X157500D01*
X155501Y152000D01*
Y152500D01*
X156001Y152999D01*
X157000D01*
X157500Y152500D01*
X7500Y152999D02*
X8500D01*
X8000D01*
Y150500D01*
X8500Y150001D01*
X8999D01*
X9499Y150500D01*
X6500Y150001D02*
X5501D01*
X6001D01*
Y152999D01*
X6500Y152500D01*
X141250Y86500D02*
X141749Y86999D01*
X142749D01*
X143249Y86500D01*
Y84500D01*
X142749Y84000D01*
X141749D01*
X141250Y84500D01*
X140250Y84000D02*
X139250D01*
X139750D01*
Y86999D01*
X140250Y86500D01*
X137751Y84000D02*
X136751D01*
X137251D01*
Y86999D01*
X137751Y86500D01*
X140500Y104500D02*
X141000Y104999D01*
X141999D01*
X142499Y104500D01*
Y102500D01*
X141999Y102000D01*
X141000D01*
X140500Y102500D01*
X137501Y104999D02*
X138500Y104500D01*
X139500Y103500D01*
Y102500D01*
X139000Y102000D01*
X138001D01*
X137501Y102500D01*
Y103000D01*
X138001Y103500D01*
X139500D01*
M02*
