G04*
G04 #@! TF.GenerationSoftware,Altium Limited,Altium Designer,22.11.1 (43)*
G04*
G04 Layer_Color=8388736*
%FSLAX25Y25*%
%MOIN*%
G70*
G04*
G04 #@! TF.SameCoordinates,76B60832-644B-4AE7-BD70-8BB73C9281A9*
G04*
G04*
G04 #@! TF.FilePolarity,Negative*
G04*
G01*
G75*
%ADD38R,0.01975X0.06699*%
%ADD39O,0.02605X0.07270*%
%ADD40R,0.09613X0.14573*%
%ADD41R,0.10243X0.04731*%
%ADD42R,0.09849X0.13392*%
%ADD43R,0.05124X0.02762*%
%ADD44R,0.03943X0.03943*%
%ADD45R,0.08668X0.04140*%
%ADD46R,0.04140X0.08668*%
%ADD47R,0.05243X0.05754*%
%ADD48R,0.03575X0.03802*%
%ADD49R,0.03802X0.03575*%
%ADD50R,0.03156X0.05321*%
%ADD51R,0.03550X0.03550*%
%ADD52R,0.13904X0.09928*%
%ADD53R,0.05656X0.06306*%
%ADD54R,0.02762X0.02762*%
%ADD55R,0.03400X0.03400*%
%ADD56R,0.03400X0.03400*%
%ADD57R,0.07319X0.05502*%
%ADD58R,0.07203X0.06247*%
%ADD59R,0.06247X0.07203*%
%ADD60R,0.03550X0.16148*%
%ADD61O,0.04337X0.08274*%
%ADD62O,0.04337X0.06699*%
%ADD63O,0.06699X0.06699*%
%ADD64O,0.08274X0.10636*%
%ADD65C,0.06699*%
%ADD66C,0.06299*%
D38*
X50618Y21648D02*
D03*
X48059D02*
D03*
X45500D02*
D03*
X42940D02*
D03*
X40381D02*
D03*
X140102Y17368D02*
D03*
X136166D02*
D03*
D39*
X94000Y83309D02*
D03*
X89000D02*
D03*
X84000D02*
D03*
X79000D02*
D03*
X74000D02*
D03*
X69000D02*
D03*
X64000D02*
D03*
X59000D02*
D03*
X94000Y60691D02*
D03*
X89000D02*
D03*
X84000D02*
D03*
X79000D02*
D03*
X74000D02*
D03*
X69000D02*
D03*
X64000D02*
D03*
X59000D02*
D03*
D40*
X46693Y64500D02*
D03*
D41*
X23307Y55445D02*
D03*
Y64500D02*
D03*
Y73555D02*
D03*
D42*
X106725Y45500D02*
D03*
D43*
X118175Y53000D02*
D03*
Y48000D02*
D03*
Y43000D02*
D03*
Y38000D02*
D03*
X95275D02*
D03*
Y43000D02*
D03*
Y48000D02*
D03*
Y53000D02*
D03*
D44*
X82284Y129612D02*
D03*
X76772D02*
D03*
X71260D02*
D03*
Y140636D02*
D03*
X76772D02*
D03*
X82284D02*
D03*
Y135124D02*
D03*
X71260D02*
D03*
X76771D02*
D03*
D45*
X118111Y165364D02*
D03*
Y160364D02*
D03*
Y155364D02*
D03*
Y150364D02*
D03*
Y145364D02*
D03*
Y140364D02*
D03*
Y135364D02*
D03*
Y130364D02*
D03*
Y125364D02*
D03*
Y120364D02*
D03*
Y115364D02*
D03*
Y110364D02*
D03*
Y105364D02*
D03*
Y100364D02*
D03*
X47244D02*
D03*
Y105364D02*
D03*
Y110364D02*
D03*
Y115364D02*
D03*
Y120364D02*
D03*
Y125364D02*
D03*
Y130364D02*
D03*
Y135364D02*
D03*
Y140364D02*
D03*
Y145364D02*
D03*
Y150364D02*
D03*
Y155364D02*
D03*
Y160364D02*
D03*
Y165364D02*
D03*
D46*
X105178Y94478D02*
D03*
X100178D02*
D03*
X95178D02*
D03*
X90178D02*
D03*
X85178D02*
D03*
X80178D02*
D03*
X75178D02*
D03*
X70178D02*
D03*
X65178D02*
D03*
X60178D02*
D03*
D47*
X125398Y186500D02*
D03*
X142602D02*
D03*
X42102Y186000D02*
D03*
X24898D02*
D03*
D48*
X18432Y20500D02*
D03*
X12500D02*
D03*
X136000Y143500D02*
D03*
X130068D02*
D03*
X136000Y151000D02*
D03*
X130068D02*
D03*
X117568Y62500D02*
D03*
X123500D02*
D03*
Y70000D02*
D03*
X117568D02*
D03*
X76034Y44000D02*
D03*
X81966D02*
D03*
X7068Y163000D02*
D03*
X13000D02*
D03*
D49*
X120000Y26432D02*
D03*
Y20500D02*
D03*
Y4068D02*
D03*
Y10000D02*
D03*
D50*
X102760Y77563D02*
D03*
X110240D02*
D03*
X106500Y85437D02*
D03*
X117760Y77563D02*
D03*
X125240D02*
D03*
X121500Y85437D02*
D03*
D51*
X20500Y12500D02*
D03*
X20527Y6205D02*
D03*
X97027Y22315D02*
D03*
X97000Y28610D02*
D03*
X87862Y29000D02*
D03*
X87888Y22705D02*
D03*
X78666Y22315D02*
D03*
X78638Y28610D02*
D03*
X69500Y29000D02*
D03*
X69527Y22705D02*
D03*
D52*
X136000Y54528D02*
D03*
Y31500D02*
D03*
D53*
X11004Y30500D02*
D03*
X20000D02*
D03*
D54*
X50500Y33547D02*
D03*
Y39452D02*
D03*
X43000Y33547D02*
D03*
Y39452D02*
D03*
X34500Y33547D02*
D03*
Y39452D02*
D03*
D55*
X134000Y174500D02*
D03*
X128400D02*
D03*
X32700Y175000D02*
D03*
X38300D02*
D03*
X63500Y44000D02*
D03*
X57900D02*
D03*
X63500Y52000D02*
D03*
X57900D02*
D03*
X12500Y173000D02*
D03*
X6900D02*
D03*
D56*
X103000Y67600D02*
D03*
Y62000D02*
D03*
X29000Y163000D02*
D03*
Y157400D02*
D03*
X22000Y162900D02*
D03*
Y157300D02*
D03*
D57*
X41139Y86000D02*
D03*
X27861D02*
D03*
X8361Y41000D02*
D03*
X21639D02*
D03*
D58*
X111500Y28000D02*
D03*
Y15460D02*
D03*
X134500Y80000D02*
D03*
Y92540D02*
D03*
X145500Y80000D02*
D03*
Y92540D02*
D03*
D59*
X133460Y67000D02*
D03*
X146000D02*
D03*
D60*
Y9500D02*
D03*
X130252D02*
D03*
D61*
X31332Y9208D02*
D03*
X59672Y9214D02*
D03*
D62*
X59669Y22793D02*
D03*
X31329Y22787D02*
D03*
D63*
X77126Y9000D02*
D03*
X92874D02*
D03*
X85000D02*
D03*
D64*
X101339D02*
D03*
X68661D02*
D03*
D65*
X154020Y24095D02*
D03*
Y35906D02*
D03*
X161500Y30000D02*
D03*
D66*
X158268Y143425D02*
D03*
Y133425D02*
D03*
Y123425D02*
D03*
Y113425D02*
D03*
Y103425D02*
D03*
Y93425D02*
D03*
Y83425D02*
D03*
Y73425D02*
D03*
Y63425D02*
D03*
Y53425D02*
D03*
X7087Y143425D02*
D03*
Y133425D02*
D03*
Y123425D02*
D03*
Y113425D02*
D03*
Y103425D02*
D03*
Y93425D02*
D03*
Y83425D02*
D03*
Y73425D02*
D03*
Y63425D02*
D03*
Y53425D02*
D03*
M02*
