M48
;Layer_Color=9474304
;FILE_FORMAT=2:5
INCH,LZ
;TYPE=PLATED
T1F00S00C0.01200
T4F00S00C0.03150
T5F00S00C0.03937
%
T01
X0007Y00205
X00245Y00245
X0039Y0008
X0046
X00525
X0083Y00175
X01045Y0019
X0119Y0015
X01245Y00055
X0138Y0005
X01325Y0022
X01475Y0024
X0112Y0007
X011155Y0035013
X01115Y0051
X0108Y0048
X01045Y00445
X0111Y0058
X012
X0125Y00545
X01305Y0044
X0138Y0043
X01485
Y00525
X0159Y0043
X01395Y00755
X0131Y00735
X0112Y007
X0093
X009Y00765
X00855Y00755
X008Y00765
X0074Y0076
X0069
X0062Y007
X00795
X00815Y00545
X0079Y005
X0073Y00375
X00605
Y0031
X00535Y00475
X00465
X00395Y0049
Y00405
X00275
X00285Y00335
X0038Y0029
X00285Y0049
X00235
X00425Y0055
X005
X00375Y00615
Y007
Y00785
X00445
X00515
Y00865
X00395Y00975
X00345Y0093
X0029Y008
X0022
X0058443Y0105
X0055Y0115
Y01315
Y01465
Y01605
X00655Y01635
X00775Y01555
X0092Y01635
Y01455
X0107Y0155
Y01345
X01035Y0122
Y0111
X0088
Y0122
X00735
Y0111
X00995Y00865
X0098Y00605
X01265Y00935
X0126Y01065
X01385Y01025
X01325Y01195
X0151Y01185
X01425Y0136
X01355
X01465Y01405
X01475Y0168
X01385
X01285Y01695
X01565Y0168
Y01605
Y0176
X0025Y01695
X0023Y0148
X00355Y0152
Y01375
X00185Y01385
Y01285
Y0118
Y01085
X0016Y01555
X00065
X0017Y01675
X00185Y01755
Y0049
X00065Y00355
Y00255
X002Y0185
Y01905
T04
X0158268Y0053425
Y0063425
Y0073425
Y0083425
Y0093425
Y0103425
Y0113425
Y0123425
Y0133425
Y0143425
X0007087
Y0133425
Y0123425
Y0113425
Y0103425
Y0093425
Y0083425
Y0073425
Y0063425
Y0053425
T05
X0077126Y0009
X0085Y0009
X0092874
X015402Y0024095
Y0035906
X01615Y003
M30
