G04*
G04 #@! TF.GenerationSoftware,Altium Limited,Altium Designer,22.11.1 (43)*
G04*
G04 Layer_Color=16711935*
%FSLAX25Y25*%
%MOIN*%
G70*
G04*
G04 #@! TF.SameCoordinates,76B60832-644B-4AE7-BD70-8BB73C9281A9*
G04*
G04*
G04 #@! TF.FilePolarity,Negative*
G04*
G01*
G75*
%ADD59R,0.06247X0.07203*%
%ADD61O,0.04337X0.08274*%
%ADD62O,0.04337X0.06699*%
%ADD63O,0.06699X0.06699*%
%ADD64O,0.08274X0.10636*%
%ADD65C,0.06699*%
%ADD66C,0.06299*%
D59*
X133460Y79000D02*
D03*
X146000D02*
D03*
X133960Y97000D02*
D03*
X146500D02*
D03*
D61*
X31332Y9208D02*
D03*
X59672Y9214D02*
D03*
D62*
X59669Y22793D02*
D03*
X31329Y22787D02*
D03*
D63*
X77126Y9000D02*
D03*
X92874D02*
D03*
X85000D02*
D03*
D64*
X101339D02*
D03*
X68661D02*
D03*
D65*
X154020Y24095D02*
D03*
Y35906D02*
D03*
X161500Y30000D02*
D03*
D66*
X158268Y143425D02*
D03*
Y133425D02*
D03*
Y123425D02*
D03*
Y113425D02*
D03*
Y103425D02*
D03*
Y93425D02*
D03*
Y83425D02*
D03*
Y73425D02*
D03*
Y63425D02*
D03*
Y53425D02*
D03*
X7087Y143425D02*
D03*
Y133425D02*
D03*
Y123425D02*
D03*
Y113425D02*
D03*
Y103425D02*
D03*
Y93425D02*
D03*
Y83425D02*
D03*
Y73425D02*
D03*
Y63425D02*
D03*
Y53425D02*
D03*
M02*
