G04*
G04 #@! TF.GenerationSoftware,Altium Limited,Altium Designer,22.11.1 (43)*
G04*
G04 Layer_Color=255*
%FSLAX25Y25*%
%MOIN*%
G70*
G04*
G04 #@! TF.SameCoordinates,76B60832-644B-4AE7-BD70-8BB73C9281A9*
G04*
G04*
G04 #@! TF.FilePolarity,Positive*
G04*
G01*
G75*
%ADD20O,0.02205X0.06870*%
%ADD21R,0.09213X0.14173*%
%ADD22R,0.09843X0.04331*%
%ADD23R,0.09449X0.12992*%
%ADD24R,0.04724X0.02362*%
%ADD25R,0.03543X0.03543*%
%ADD26R,0.08268X0.03740*%
%ADD27R,0.03740X0.08268*%
%ADD28R,0.04842X0.05354*%
%ADD29R,0.02756X0.04921*%
%ADD30R,0.03150X0.03150*%
%ADD31R,0.13504X0.09528*%
%ADD32R,0.02362X0.02362*%
%ADD33R,0.03000X0.03000*%
%ADD34R,0.03000X0.03000*%
%ADD35R,0.06919X0.05102*%
%ADD36R,0.03150X0.15748*%
%ADD37R,0.01575X0.06299*%
%ADD66C,0.06299*%
%ADD67R,0.03175X0.03402*%
%ADD68R,0.03402X0.03175*%
%ADD69R,0.05256X0.05906*%
%ADD70R,0.06803X0.05847*%
%ADD71R,0.05847X0.06803*%
%ADD74O,0.03937X0.07874*%
%ADD75O,0.03937X0.06299*%
%ADD76O,0.06299X0.06299*%
%ADD77O,0.07874X0.10236*%
%ADD78C,0.05906*%
D20*
X94000Y83309D02*
D03*
X89000D02*
D03*
X84000D02*
D03*
X79000D02*
D03*
X74000D02*
D03*
X69000D02*
D03*
X64000D02*
D03*
X59000D02*
D03*
X94000Y60691D02*
D03*
X89000D02*
D03*
X84000D02*
D03*
X79000D02*
D03*
X74000D02*
D03*
X69000D02*
D03*
X64000D02*
D03*
X59000D02*
D03*
D21*
X46693Y64500D02*
D03*
D22*
X23307Y55445D02*
D03*
Y64500D02*
D03*
Y73555D02*
D03*
D23*
X106725Y45500D02*
D03*
D24*
X118175Y53000D02*
D03*
Y48000D02*
D03*
Y43000D02*
D03*
Y38000D02*
D03*
X95275D02*
D03*
Y43000D02*
D03*
Y48000D02*
D03*
Y53000D02*
D03*
D25*
X82284Y129612D02*
D03*
X76772D02*
D03*
X71260D02*
D03*
Y140636D02*
D03*
X76772D02*
D03*
X82284D02*
D03*
Y135124D02*
D03*
X71260D02*
D03*
X76771D02*
D03*
D26*
X118111Y165364D02*
D03*
Y160364D02*
D03*
Y155364D02*
D03*
Y150364D02*
D03*
Y145364D02*
D03*
Y140364D02*
D03*
Y135364D02*
D03*
Y130364D02*
D03*
Y125364D02*
D03*
Y120364D02*
D03*
Y115364D02*
D03*
Y110364D02*
D03*
Y105364D02*
D03*
Y100364D02*
D03*
X47244D02*
D03*
Y105364D02*
D03*
Y110364D02*
D03*
Y115364D02*
D03*
Y120364D02*
D03*
Y125364D02*
D03*
Y130364D02*
D03*
Y135364D02*
D03*
Y140364D02*
D03*
Y145364D02*
D03*
Y150364D02*
D03*
Y155364D02*
D03*
Y160364D02*
D03*
Y165364D02*
D03*
D27*
X105178Y94478D02*
D03*
X100178D02*
D03*
X95178D02*
D03*
X90178D02*
D03*
X85178D02*
D03*
X80178D02*
D03*
X75178D02*
D03*
X70178D02*
D03*
X65178D02*
D03*
X60178D02*
D03*
D28*
X125398Y186500D02*
D03*
X142602D02*
D03*
X42102Y186000D02*
D03*
X24898D02*
D03*
D29*
X102760Y77563D02*
D03*
X110240D02*
D03*
X106500Y85437D02*
D03*
X117760Y77563D02*
D03*
X125240D02*
D03*
X121500Y85437D02*
D03*
D30*
X20500Y12500D02*
D03*
X20527Y6205D02*
D03*
X97027Y22315D02*
D03*
X97000Y28610D02*
D03*
X87862Y29000D02*
D03*
X87888Y22705D02*
D03*
X78666Y22315D02*
D03*
X78638Y28610D02*
D03*
X69500Y29000D02*
D03*
X69527Y22705D02*
D03*
D31*
X136000Y54528D02*
D03*
Y31500D02*
D03*
D32*
X50500Y33547D02*
D03*
Y39452D02*
D03*
X43000Y33547D02*
D03*
Y39452D02*
D03*
X34500Y33547D02*
D03*
Y39452D02*
D03*
D33*
X134000Y174500D02*
D03*
X128400D02*
D03*
X32700Y175000D02*
D03*
X38300D02*
D03*
X63500Y44000D02*
D03*
X57900D02*
D03*
X63500Y52000D02*
D03*
X57900D02*
D03*
X12500Y173000D02*
D03*
X6900D02*
D03*
D34*
X103000Y67600D02*
D03*
Y62000D02*
D03*
X29000Y163000D02*
D03*
Y157400D02*
D03*
X22000Y162900D02*
D03*
Y157300D02*
D03*
D35*
X41139Y86000D02*
D03*
X27861D02*
D03*
X8361Y41000D02*
D03*
X21639D02*
D03*
D36*
X146000Y9500D02*
D03*
X130252D02*
D03*
D37*
X50618Y21648D02*
D03*
X48059D02*
D03*
X45500D02*
D03*
X42940D02*
D03*
X40381D02*
D03*
X140102Y17368D02*
D03*
X136166D02*
D03*
D66*
X154020Y24095D02*
D03*
Y35906D02*
D03*
X161500Y30000D02*
D03*
D67*
X18432Y20500D02*
D03*
X12500D02*
D03*
X136000Y143500D02*
D03*
X130068D02*
D03*
X136000Y151000D02*
D03*
X130068D02*
D03*
X117568Y62500D02*
D03*
X123500D02*
D03*
Y70000D02*
D03*
X117568D02*
D03*
X76034Y44000D02*
D03*
X81966D02*
D03*
X7068Y163000D02*
D03*
X13000D02*
D03*
D68*
X120000Y26432D02*
D03*
Y20500D02*
D03*
Y4068D02*
D03*
Y10000D02*
D03*
D69*
X11004Y30500D02*
D03*
X20000D02*
D03*
D70*
X111500Y28000D02*
D03*
Y15460D02*
D03*
X134500Y80000D02*
D03*
Y92540D02*
D03*
X145500Y80000D02*
D03*
Y92540D02*
D03*
D71*
X133460Y67000D02*
D03*
X146000D02*
D03*
D74*
X31332Y9208D02*
D03*
X59672Y9214D02*
D03*
D75*
X59669Y22793D02*
D03*
X31329Y22787D02*
D03*
D76*
X77126Y9000D02*
D03*
X92874D02*
D03*
X85000D02*
D03*
D77*
X101339D02*
D03*
X68661D02*
D03*
D78*
X158268Y143425D02*
D03*
Y133425D02*
D03*
Y123425D02*
D03*
Y113425D02*
D03*
Y103425D02*
D03*
Y93425D02*
D03*
Y83425D02*
D03*
Y73425D02*
D03*
Y63425D02*
D03*
Y53425D02*
D03*
X7087Y143425D02*
D03*
Y133425D02*
D03*
Y123425D02*
D03*
Y113425D02*
D03*
Y103425D02*
D03*
Y93425D02*
D03*
Y83425D02*
D03*
Y73425D02*
D03*
Y63425D02*
D03*
Y53425D02*
D03*
M02*
