G04*
G04 #@! TF.GenerationSoftware,Altium Limited,Altium Designer,22.11.1 (43)*
G04*
G04 Layer_Physical_Order=3*
G04 Layer_Color=128*
%FSLAX25Y25*%
%MOIN*%
G70*
G04*
G04 #@! TF.SameCoordinates,76B60832-644B-4AE7-BD70-8BB73C9281A9*
G04*
G04*
G04 #@! TF.FilePolarity,Negative*
G04*
G01*
G75*
%ADD81O,0.04762X0.08306*%
%ADD82O,0.04565X0.06731*%
%ADD83C,0.06337*%
%ADD84O,0.06337X0.07912*%
%ADD85C,0.05550*%
%ADD86C,0.03600*%
%ADD87C,0.08000*%
%ADD88C,0.01200*%
G36*
X158629Y192762D02*
X159345Y192465D01*
X159990Y192034D01*
X160538Y191486D01*
X160969Y190841D01*
X161266Y190125D01*
X161417Y189364D01*
Y188976D01*
Y188589D01*
X161266Y187828D01*
X160969Y187111D01*
X160538Y186467D01*
X159990Y185918D01*
X159345Y185487D01*
X158629Y185191D01*
X157868Y185039D01*
X157093D01*
X156332Y185191D01*
X155615Y185487D01*
X154971Y185918D01*
X154422Y186467D01*
X153991Y187111D01*
X153695Y187828D01*
X153543Y188589D01*
Y188976D01*
Y189364D01*
X153695Y190125D01*
X153991Y190841D01*
X154422Y191486D01*
X154971Y192034D01*
X155615Y192465D01*
X156332Y192762D01*
X157093Y192913D01*
X157868D01*
X158629Y192762D01*
D02*
G37*
G36*
X9022D02*
X9739Y192465D01*
X10384Y192034D01*
X10932Y191486D01*
X11363Y190841D01*
X11660Y190125D01*
X11811Y189364D01*
Y188976D01*
Y188589D01*
X11660Y187828D01*
X11363Y187111D01*
X10932Y186467D01*
X10384Y185918D01*
X9739Y185487D01*
X9022Y185191D01*
X8262Y185039D01*
X7486D01*
X6726Y185191D01*
X6009Y185487D01*
X5364Y185918D01*
X4816Y186467D01*
X4385Y187111D01*
X4088Y187828D01*
X3937Y188589D01*
Y188976D01*
Y189364D01*
X4088Y190125D01*
X4385Y190841D01*
X4816Y191486D01*
X5364Y192034D01*
X6009Y192465D01*
X6726Y192762D01*
X7486Y192913D01*
X8262D01*
X9022Y192762D01*
D02*
G37*
G36*
X54043Y18675D02*
X54375Y18342D01*
X54555Y17908D01*
Y17438D01*
X54375Y17004D01*
X54043Y16672D01*
X53609Y16492D01*
X53139D01*
X52705Y16672D01*
X52373Y17004D01*
X52193Y17438D01*
Y17908D01*
X52373Y18342D01*
X52705Y18675D01*
X53139Y18854D01*
X53609D01*
X54043Y18675D01*
D02*
G37*
G36*
X38295D02*
X38627Y18342D01*
X38807Y17908D01*
Y17438D01*
X38627Y17004D01*
X38295Y16672D01*
X37861Y16492D01*
X37391D01*
X36957Y16672D01*
X36625Y17004D01*
X36445Y17438D01*
Y17908D01*
X36625Y18342D01*
X36957Y18675D01*
X37391Y18854D01*
X37861D01*
X38295Y18675D01*
D02*
G37*
G36*
X158629Y11660D02*
X159345Y11363D01*
X159990Y10932D01*
X160538Y10384D01*
X160969Y9739D01*
X161266Y9022D01*
X161417Y8262D01*
Y7874D01*
Y7486D01*
X161266Y6726D01*
X160969Y6009D01*
X160538Y5364D01*
X159990Y4816D01*
X159345Y4385D01*
X158629Y4088D01*
X157868Y3937D01*
X157093D01*
X156332Y4088D01*
X155615Y4385D01*
X154971Y4816D01*
X154422Y5364D01*
X153991Y6009D01*
X153695Y6726D01*
X153543Y7486D01*
Y7874D01*
Y8262D01*
X153695Y9022D01*
X153991Y9739D01*
X154422Y10384D01*
X154971Y10932D01*
X155615Y11363D01*
X156332Y11660D01*
X157093Y11811D01*
X157868D01*
X158629Y11660D01*
D02*
G37*
G36*
X9022D02*
X9739Y11363D01*
X10384Y10932D01*
X10932Y10384D01*
X11363Y9739D01*
X11660Y9022D01*
X11811Y8262D01*
Y7874D01*
Y7486D01*
X11660Y6726D01*
X11363Y6009D01*
X10932Y5364D01*
X10384Y4816D01*
X9739Y4385D01*
X9022Y4088D01*
X8262Y3937D01*
X7486D01*
X6726Y4088D01*
X6009Y4385D01*
X5364Y4816D01*
X4816Y5364D01*
X4385Y6009D01*
X4088Y6726D01*
X3937Y7486D01*
Y7874D01*
Y8262D01*
X4088Y9022D01*
X4385Y9739D01*
X4816Y10384D01*
X5364Y10932D01*
X6009Y11363D01*
X6726Y11660D01*
X7486Y11811D01*
X8262D01*
X9022Y11660D01*
D02*
G37*
D81*
X31330Y9211D02*
D03*
X59670D02*
D03*
D82*
Y22790D02*
D03*
X31330D02*
D03*
D83*
X77126Y9000D02*
D03*
X92874Y9000D02*
D03*
X85000D02*
D03*
X154020Y24095D02*
D03*
Y35906D02*
D03*
X161500Y30000D02*
D03*
D84*
X101339Y9000D02*
D03*
X68661D02*
D03*
D85*
X158268Y143425D02*
D03*
Y133425D02*
D03*
Y123425D02*
D03*
Y113425D02*
D03*
Y103425D02*
D03*
Y93425D02*
D03*
Y83425D02*
D03*
Y73425D02*
D03*
Y63425D02*
D03*
Y53425D02*
D03*
X7087Y143425D02*
D03*
Y133425D02*
D03*
Y123425D02*
D03*
Y113425D02*
D03*
Y103425D02*
D03*
Y93425D02*
D03*
Y83425D02*
D03*
Y73425D02*
D03*
D86*
X124500Y5500D02*
D03*
X119000Y15000D02*
D03*
X111550Y35013D02*
D03*
X104500Y44500D02*
D03*
X27500Y40500D02*
D03*
X20000Y185000D02*
D03*
X55000Y115000D02*
D03*
Y131500D02*
D03*
Y146500D02*
D03*
X107000Y134500D02*
D03*
X92000Y145500D02*
D03*
X107000Y155000D02*
D03*
X92000Y163500D02*
D03*
X77500Y155500D02*
D03*
X65500Y163500D02*
D03*
X23000Y148000D02*
D03*
X18500Y175500D02*
D03*
X73500Y111000D02*
D03*
X88000D02*
D03*
X103500D02*
D03*
Y122000D02*
D03*
X88000D02*
D03*
X73500D02*
D03*
X99500Y86500D02*
D03*
X60500Y31000D02*
D03*
X104500Y19000D02*
D03*
X108000Y48000D02*
D03*
X111500Y51000D02*
D03*
X111000Y58000D02*
D03*
X148500Y52500D02*
D03*
X147500Y24000D02*
D03*
X138000Y5000D02*
D03*
X112000Y7000D02*
D03*
X132500Y22000D02*
D03*
X159000Y43000D02*
D03*
X138500Y168000D02*
D03*
X147500D02*
D03*
X20000Y190500D02*
D03*
X6500Y155500D02*
D03*
X16000D02*
D03*
X156500Y160500D02*
D03*
Y168000D02*
D03*
Y176000D02*
D03*
X126500Y93500D02*
D03*
X151000Y118500D02*
D03*
X135500Y136000D02*
D03*
X18500Y138500D02*
D03*
Y108500D02*
D03*
Y118000D02*
D03*
Y128500D02*
D03*
X62000Y70000D02*
D03*
X79500D02*
D03*
X52500Y8000D02*
D03*
X46000D02*
D03*
X39000D02*
D03*
X22000Y80000D02*
D03*
X46500Y47500D02*
D03*
X73000Y37500D02*
D03*
X60500D02*
D03*
X39500Y97500D02*
D03*
X34500Y93000D02*
D03*
X29000Y80000D02*
D03*
X39500Y49000D02*
D03*
Y40500D02*
D03*
X148500Y43000D02*
D03*
X138000D02*
D03*
X35500Y152000D02*
D03*
Y137500D02*
D03*
X132500Y119500D02*
D03*
X120000Y58000D02*
D03*
X79000Y50000D02*
D03*
X130500Y44000D02*
D03*
X126000Y106500D02*
D03*
X128500Y169500D02*
D03*
X146500Y140500D02*
D03*
X142500Y136000D02*
D03*
X90000Y76500D02*
D03*
X85500Y75500D02*
D03*
X58443Y105000D02*
D03*
X112000Y70000D02*
D03*
X81500Y54500D02*
D03*
X93000Y70000D02*
D03*
X74000Y76000D02*
D03*
X69000D02*
D03*
X53500Y47500D02*
D03*
D87*
X8262Y192913D02*
X9022Y192762D01*
X9739Y192465D01*
X10384Y192034D01*
X10932Y191486D01*
X11363Y190841D01*
X11660Y190125D01*
X11811Y189364D01*
Y188976D02*
Y189364D01*
Y188589D02*
Y188976D01*
X11660Y187828D02*
X11811Y188589D01*
X11363Y187111D02*
X11660Y187828D01*
X10932Y186467D02*
X11363Y187111D01*
X10384Y185918D02*
X10932Y186467D01*
X9739Y185487D02*
X10384Y185918D01*
X9022Y185191D02*
X9739Y185487D01*
X8262Y185039D02*
X9022Y185191D01*
X7486Y185039D02*
X8262D01*
X6726Y185191D02*
X7486Y185039D01*
X6009Y185487D02*
X6726Y185191D01*
X5364Y185918D02*
X6009Y185487D01*
X4816Y186467D02*
X5364Y185918D01*
X4385Y187111D02*
X4816Y186467D01*
X4088Y187828D02*
X4385Y187111D01*
X3937Y188589D02*
X4088Y187828D01*
X3937Y188589D02*
Y188976D01*
Y189364D01*
X4088Y190125D01*
X4385Y190841D01*
X4816Y191486D01*
X5364Y192034D01*
X6009Y192465D01*
X6726Y192762D01*
X7486Y192913D01*
X8262D01*
X157868D02*
X158629Y192762D01*
X159345Y192465D01*
X159990Y192034D01*
X160538Y191486D01*
X160969Y190841D01*
X161266Y190125D01*
X161417Y189364D01*
Y188976D02*
Y189364D01*
Y188589D02*
Y188976D01*
X161266Y187828D02*
X161417Y188589D01*
X160969Y187111D02*
X161266Y187828D01*
X160538Y186467D02*
X160969Y187111D01*
X159990Y185918D02*
X160538Y186467D01*
X159345Y185487D02*
X159990Y185918D01*
X158629Y185191D02*
X159345Y185487D01*
X157868Y185039D02*
X158629Y185191D01*
X157093Y185039D02*
X157868D01*
X156332Y185191D02*
X157093Y185039D01*
X155615Y185487D02*
X156332Y185191D01*
X154971Y185918D02*
X155615Y185487D01*
X154422Y186467D02*
X154971Y185918D01*
X153991Y187111D02*
X154422Y186467D01*
X153695Y187828D02*
X153991Y187111D01*
X153543Y188589D02*
X153695Y187828D01*
X153543Y188589D02*
Y188976D01*
Y189364D01*
X153695Y190125D01*
X153991Y190841D01*
X154422Y191486D01*
X154971Y192034D01*
X155615Y192465D01*
X156332Y192762D01*
X157093Y192913D01*
X157868D01*
Y11811D02*
X158629Y11660D01*
X159345Y11363D01*
X159990Y10932D01*
X160538Y10384D01*
X160969Y9739D01*
X161266Y9022D01*
X161417Y8262D01*
Y7874D02*
Y8262D01*
Y7486D02*
Y7874D01*
X161266Y6726D02*
X161417Y7486D01*
X160969Y6009D02*
X161266Y6726D01*
X160538Y5364D02*
X160969Y6009D01*
X159990Y4816D02*
X160538Y5364D01*
X159345Y4385D02*
X159990Y4816D01*
X158629Y4088D02*
X159345Y4385D01*
X157868Y3937D02*
X158629Y4088D01*
X157093Y3937D02*
X157868D01*
X156332Y4088D02*
X157093Y3937D01*
X155615Y4385D02*
X156332Y4088D01*
X154971Y4816D02*
X155615Y4385D01*
X154422Y5364D02*
X154971Y4816D01*
X153991Y6009D02*
X154422Y5364D01*
X153695Y6726D02*
X153991Y6009D01*
X153543Y7486D02*
X153695Y6726D01*
X153543Y7486D02*
Y7874D01*
Y8262D01*
X153695Y9022D01*
X153991Y9739D01*
X154422Y10384D01*
X154971Y10932D01*
X155615Y11363D01*
X156332Y11660D01*
X157093Y11811D01*
X157868D01*
X8262D02*
X9022Y11660D01*
X9739Y11363D01*
X10384Y10932D01*
X10932Y10384D01*
X11363Y9739D01*
X11660Y9022D01*
X11811Y8262D01*
Y7874D02*
Y8262D01*
Y7486D02*
Y7874D01*
X11660Y6726D02*
X11811Y7486D01*
X11363Y6009D02*
X11660Y6726D01*
X10932Y5364D02*
X11363Y6009D01*
X10384Y4816D02*
X10932Y5364D01*
X9739Y4385D02*
X10384Y4816D01*
X9022Y4088D02*
X9739Y4385D01*
X8262Y3937D02*
X9022Y4088D01*
X7486Y3937D02*
X8262D01*
X6726Y4088D02*
X7486Y3937D01*
X6009Y4385D02*
X6726Y4088D01*
X5364Y4816D02*
X6009Y4385D01*
X4816Y5364D02*
X5364Y4816D01*
X4385Y6009D02*
X4816Y5364D01*
X4088Y6726D02*
X4385Y6009D01*
X3937Y7486D02*
X4088Y6726D01*
X3937Y7486D02*
Y7874D01*
Y8262D01*
X4088Y9022D01*
X4385Y9739D01*
X4816Y10384D01*
X5364Y10932D01*
X6009Y11363D01*
X6726Y11660D01*
X7486Y11811D01*
X8262D01*
X37861Y18854D02*
X38295Y18675D01*
X38627Y18342D01*
X38807Y17908D01*
Y17438D02*
Y17908D01*
X38627Y17004D02*
X38807Y17438D01*
X38295Y16672D02*
X38627Y17004D01*
X37861Y16492D02*
X38295Y16672D01*
X37391Y16492D02*
X37861D01*
X36957Y16672D02*
X37391Y16492D01*
X36625Y17004D02*
X36957Y16672D01*
X36445Y17438D02*
X36625Y17004D01*
X36445Y17438D02*
Y17908D01*
X36625Y18342D01*
X36957Y18675D01*
X37391Y18854D01*
X37861D01*
X53609D02*
X54043Y18675D01*
X54375Y18342D01*
X54555Y17908D01*
Y17438D02*
Y17908D01*
X54375Y17004D02*
X54555Y17438D01*
X54043Y16672D02*
X54375Y17004D01*
X53609Y16492D02*
X54043Y16672D01*
X53139Y16492D02*
X53609D01*
X52705Y16672D02*
X53139Y16492D01*
X52373Y17004D02*
X52705Y16672D01*
X52193Y17438D02*
X52373Y17004D01*
X52193Y17438D02*
Y17908D01*
X52373Y18342D01*
X52705Y18675D01*
X53139Y18854D01*
X53609D01*
X158256Y196850D02*
X159777Y196548D01*
X7098Y196850D02*
X158256D01*
X5577Y196548D02*
X7098Y196850D01*
X4144Y195954D02*
X5577Y196548D01*
X2855Y195092D02*
X4144Y195954D01*
X1758Y193996D02*
X2855Y195092D01*
X896Y192706D02*
X1758Y193996D01*
X303Y191273D02*
X896Y192706D01*
X0Y189752D02*
X303Y191273D01*
X0Y188976D02*
Y189752D01*
Y7874D02*
Y188976D01*
Y7098D02*
Y7874D01*
Y7098D02*
X303Y5577D01*
X896Y4144D01*
X1758Y2855D01*
X2855Y1758D01*
X4144Y896D01*
X5577Y303D01*
X7098Y0D01*
X158256D01*
X159777Y303D01*
X161210Y896D01*
X162500Y1758D01*
X163596Y2855D01*
X164458Y4144D01*
X165052Y5577D01*
X165354Y7098D01*
Y7874D01*
Y188976D01*
Y189752D01*
X165052Y191273D02*
X165354Y189752D01*
X164458Y192706D02*
X165052Y191273D01*
X163596Y193996D02*
X164458Y192706D01*
X162500Y195092D02*
X163596Y193996D01*
X161210Y195954D02*
X162500Y195092D01*
X159777Y196548D02*
X161210Y195954D01*
D88*
X18500Y35000D02*
X21000Y37500D01*
X48000Y41500D02*
X85500D01*
X44000Y37500D02*
X48000Y41500D01*
X21000Y37500D02*
X44000D01*
X4000Y35500D02*
Y38500D01*
X9000Y43500D01*
X14500Y49000D01*
Y57000D01*
X16500Y59000D01*
X31000D01*
X34000Y56000D01*
Y47500D02*
Y56000D01*
X31000Y44500D02*
X34000Y47500D01*
X18500Y44500D02*
X31000D01*
X15000Y41000D02*
X18500Y44500D01*
X15000Y25000D02*
Y41000D01*
X12500Y22500D02*
X15000Y25000D01*
X5500Y22500D02*
X12500D01*
X4000Y24000D02*
X5500Y22500D01*
X4000Y24000D02*
Y35500D01*
X139000Y47500D02*
Y61000D01*
X18500Y19500D02*
X22500Y15500D01*
X18500Y19500D02*
Y35000D01*
X22500Y15500D02*
X47000D01*
X85500Y41500D02*
X90500Y36500D01*
Y18500D02*
Y36500D01*
X87500Y15500D02*
X90500Y18500D01*
X47000Y15500D02*
X87500D01*
X129500Y102500D02*
X133000Y106000D01*
X129500Y79000D02*
Y102500D01*
X115500Y65000D02*
X129500Y79000D01*
X115500Y48500D02*
Y65000D01*
Y48500D02*
X117500Y46500D01*
X138000D01*
X139000Y47500D01*
Y61000D02*
X151000Y73000D01*
Y102500D01*
X147500Y106000D02*
X151000Y102500D01*
X133000Y106000D02*
X147500D01*
M02*
