G04*
G04 #@! TF.GenerationSoftware,Altium Limited,Altium Designer,22.11.1 (43)*
G04*
G04 Layer_Color=8388736*
%FSLAX25Y25*%
%MOIN*%
G70*
G04*
G04 #@! TF.SameCoordinates,76B60832-644B-4AE7-BD70-8BB73C9281A9*
G04*
G04*
G04 #@! TF.FilePolarity,Positive*
G04*
G01*
G75*
%ADD10C,0.01181*%
%ADD17C,0.00787*%
%ADD90C,0.01968*%
%ADD91C,0.03150*%
G36*
X40799Y87575D02*
X39854D01*
Y89150D01*
X40799D01*
Y87575D01*
D02*
G37*
G36*
X30563Y85764D02*
X28673D01*
Y86236D01*
X30563D01*
Y85764D01*
D02*
G37*
G36*
X39618Y86236D02*
X40327D01*
Y85764D01*
X39618D01*
Y84425D01*
X39146D01*
Y85764D01*
X38437D01*
Y86236D01*
X39146D01*
Y87575D01*
X39618D01*
Y86236D01*
D02*
G37*
G36*
X40799Y82850D02*
X39854D01*
Y84425D01*
X40799D01*
Y82850D01*
D02*
G37*
G36*
X9646Y42575D02*
X8701D01*
Y44150D01*
X9646D01*
Y42575D01*
D02*
G37*
G36*
X20827Y40764D02*
X18937D01*
Y41236D01*
X20827D01*
Y40764D01*
D02*
G37*
G36*
X10354Y41236D02*
X11063D01*
Y40764D01*
X10354D01*
Y39425D01*
X9882D01*
Y40764D01*
X9173D01*
Y41236D01*
X9882D01*
Y42575D01*
X10354D01*
Y41236D01*
D02*
G37*
G36*
X9646Y37850D02*
X8701D01*
Y39425D01*
X9646D01*
Y37850D01*
D02*
G37*
G36*
X50500Y36500D02*
X51600Y35600D01*
X49400D01*
X50500Y36500D01*
X49400Y37400D01*
X51600D01*
X50500Y36500D01*
D02*
G37*
G36*
X43000D02*
X44100Y35600D01*
X41900D01*
X43000Y36500D01*
X41900Y37400D01*
X44100D01*
X43000Y36500D01*
D02*
G37*
G36*
X34500D02*
X35600Y35600D01*
X33400D01*
X34500Y36500D01*
X33400Y37400D01*
X35600D01*
X34500Y36500D01*
D02*
G37*
G36*
X88118Y29256D02*
X88927D01*
Y28745D01*
X88118D01*
Y27935D01*
X87606D01*
Y28745D01*
X86800D01*
Y29256D01*
X87606D01*
Y30061D01*
X88118D01*
Y29256D01*
D02*
G37*
G36*
X69756D02*
X70565D01*
Y28745D01*
X69756D01*
Y27935D01*
X69244D01*
Y28745D01*
X68439D01*
Y29256D01*
X69244D01*
Y30061D01*
X69756D01*
Y29256D01*
D02*
G37*
G36*
X97256Y27549D02*
X96744D01*
Y29675D01*
X97256D01*
Y27549D01*
D02*
G37*
G36*
X78894D02*
X78382D01*
Y29675D01*
X78894D01*
Y27549D01*
D02*
G37*
G36*
X170142Y25079D02*
X162268D01*
Y34922D01*
X170142D01*
Y25079D01*
D02*
G37*
G36*
X88145Y21640D02*
X87633D01*
Y23766D01*
X88145D01*
Y21640D01*
D02*
G37*
G36*
X69783D02*
X69271D01*
Y23766D01*
X69783D01*
Y21640D01*
D02*
G37*
G36*
X97283Y22570D02*
X98088D01*
Y22059D01*
X97283D01*
Y21254D01*
X96771D01*
Y22059D01*
X95962D01*
Y22570D01*
X96771D01*
Y23380D01*
X97283D01*
Y22570D01*
D02*
G37*
G36*
X78921D02*
X79726D01*
Y22059D01*
X78921D01*
Y21254D01*
X78409D01*
Y22059D01*
X77601D01*
Y22570D01*
X78409D01*
Y23380D01*
X78921D01*
Y22570D01*
D02*
G37*
G36*
X20756Y12756D02*
X21565D01*
Y12245D01*
X20756D01*
Y11435D01*
X20244D01*
Y12245D01*
X19439D01*
Y12756D01*
X20244D01*
Y13561D01*
X20756D01*
Y12756D01*
D02*
G37*
G36*
X20783Y5140D02*
X20271D01*
Y7266D01*
X20783D01*
Y5140D01*
D02*
G37*
G36*
X86500Y546D02*
Y339D01*
Y-12000D01*
Y-12100D01*
X86424Y-12283D01*
X86283Y-12424D01*
X86099Y-12500D01*
X77878D01*
X77694Y-12424D01*
X77554Y-12283D01*
X77478Y-12100D01*
Y-12000D01*
Y339D01*
Y546D01*
X77770Y839D01*
X78185D01*
X78478Y546D01*
Y339D01*
Y-11500D01*
X85500D01*
Y339D01*
Y546D01*
X85793Y839D01*
X86207D01*
X86500Y546D01*
D02*
G37*
D10*
X94591Y85976D02*
X94000Y86567D01*
X93409Y85976D01*
X94000Y85385D01*
X94591Y85976D01*
X94403Y53216D02*
X93812Y53807D01*
X93221Y53216D01*
X93812Y52625D01*
X94403Y53216D01*
D17*
X102563Y75752D02*
X101775D01*
X102563D01*
X117563D02*
X116775D01*
X117563D01*
D90*
X18064Y73113D02*
X17572Y73965D01*
X16588D01*
X16096Y73113D01*
X16588Y72261D01*
X17572D01*
X18064Y73113D01*
D91*
X45752Y166395D02*
X45451Y167321D01*
X44663Y167893D01*
X43690D01*
X42902Y167321D01*
X42602Y166395D01*
X42902Y165470D01*
X43690Y164897D01*
X44663D01*
X45451Y165470D01*
X45752Y166395D01*
M02*
