G04*
G04 #@! TF.GenerationSoftware,Altium Limited,Altium Designer,22.11.1 (43)*
G04*
G04 Layer_Color=32768*
%FSLAX25Y25*%
%MOIN*%
G70*
G04*
G04 #@! TF.SameCoordinates,CE4FA216-54C7-4044-9C64-AD491F851F59*
G04*
G04*
G04 #@! TF.FilePolarity,Positive*
G04*
G01*
G75*
%ADD112C,0.00100*%
%ADD113C,0.00200*%
G36*
X99079Y192866D02*
Y192768D01*
Y192670D01*
X98941Y192532D01*
X98745D01*
X98607Y192670D01*
Y192768D01*
Y192866D01*
X98745Y193004D01*
X98941D01*
X99079Y192866D01*
D02*
G37*
G36*
X142760Y190409D02*
X140240D01*
Y191591D01*
X142760D01*
Y190409D01*
D02*
G37*
G36*
X132760D02*
X130240D01*
Y191591D01*
X132760D01*
Y190409D01*
D02*
G37*
G36*
X122760D02*
X120240D01*
Y191591D01*
X122760D01*
Y190409D01*
D02*
G37*
G36*
X112760D02*
X110240D01*
Y191591D01*
X112760D01*
Y190409D01*
D02*
G37*
G36*
X106067Y186177D02*
Y186079D01*
Y185981D01*
X105929Y185843D01*
X105733D01*
X105595Y185981D01*
Y186079D01*
Y186177D01*
X105733Y186315D01*
X105929D01*
X106067Y186177D01*
D02*
G37*
G36*
X98843Y184441D02*
X95299D01*
Y189559D01*
X98843D01*
Y184441D01*
D02*
G37*
G36*
X82701D02*
X79158D01*
Y189559D01*
X82701D01*
Y184441D01*
D02*
G37*
G36*
X135736Y175673D02*
Y175575D01*
Y175477D01*
X135598Y175339D01*
X135500D01*
Y172425D01*
X134319D01*
Y175575D01*
X135264D01*
Y175673D01*
X135402Y175811D01*
X135598D01*
X135736Y175673D01*
D02*
G37*
G36*
X121150Y172425D02*
X119968D01*
Y175575D01*
X121150D01*
Y172425D01*
D02*
G37*
G36*
X130382Y172398D02*
X129201D01*
Y175547D01*
X130382D01*
Y172398D01*
D02*
G37*
G36*
X116032Y172425D02*
X115086D01*
Y172425D01*
Y172327D01*
X114948Y172189D01*
X114752D01*
X114614Y172327D01*
Y172425D01*
Y172523D01*
X114752Y172661D01*
X114850D01*
Y175575D01*
X116032D01*
Y172425D01*
D02*
G37*
G36*
X89852Y171173D02*
Y171075D01*
Y170977D01*
X89714Y170839D01*
X89616D01*
Y167925D01*
X88434D01*
Y171075D01*
X89380D01*
Y171075D01*
Y171173D01*
X89518Y171311D01*
X89714D01*
X89852Y171173D01*
D02*
G37*
G36*
X84497Y167925D02*
X83316D01*
Y171075D01*
X84497D01*
Y167925D01*
D02*
G37*
G36*
X107204Y157074D02*
Y156976D01*
Y156878D01*
X107066Y156740D01*
X106870D01*
X106732Y156878D01*
Y156976D01*
Y157074D01*
X106870Y157212D01*
X107066D01*
X107204Y157074D01*
D02*
G37*
G36*
X106575Y153823D02*
X103031D01*
Y156972D01*
X106575D01*
Y153823D01*
D02*
G37*
G36*
X98307D02*
X94763D01*
Y156972D01*
X98307D01*
Y153823D01*
D02*
G37*
G36*
X140126Y156641D02*
Y156543D01*
Y156446D01*
X139988Y156307D01*
X139890D01*
Y149457D01*
X135953D01*
Y156543D01*
X139654D01*
Y156641D01*
X139792Y156780D01*
X139988D01*
X140126Y156641D01*
D02*
G37*
G36*
X130047Y149457D02*
X126110D01*
Y156543D01*
X130047D01*
Y149457D01*
D02*
G37*
G36*
X163504Y148523D02*
Y148327D01*
X163365Y148189D01*
X163170D01*
X163032Y148327D01*
Y148523D01*
X163170Y148661D01*
X163365D01*
X163504Y148523D01*
D02*
G37*
G36*
X12323D02*
Y148327D01*
X12184Y148189D01*
X11989D01*
X11851Y148327D01*
Y148523D01*
X11989Y148661D01*
X12184D01*
X12323Y148523D01*
D02*
G37*
G36*
X106575Y147137D02*
X103031D01*
Y150287D01*
X106575D01*
Y147137D01*
D02*
G37*
G36*
X98307D02*
X94763D01*
Y150287D01*
X98307D01*
Y147137D01*
D02*
G37*
G36*
X158825Y144260D02*
X159102Y143983D01*
X159252Y143621D01*
Y143229D01*
X159102Y142868D01*
X158825Y142591D01*
X158464Y142441D01*
X158072D01*
X157710Y142591D01*
X157433Y142868D01*
X157283Y143229D01*
Y143621D01*
X157433Y143983D01*
X157710Y144260D01*
X158072Y144409D01*
X158464D01*
X158825Y144260D01*
D02*
G37*
G36*
X7644D02*
X7921Y143983D01*
X8071Y143621D01*
Y143229D01*
X7921Y142868D01*
X7644Y142591D01*
X7282Y142441D01*
X6891D01*
X6529Y142591D01*
X6252Y142868D01*
X6103Y143229D01*
Y143621D01*
X6252Y143983D01*
X6529Y144260D01*
X6891Y144409D01*
X7282D01*
X7644Y144260D01*
D02*
G37*
G36*
X158825Y134259D02*
X159102Y133983D01*
X159252Y133621D01*
Y133229D01*
X159102Y132868D01*
X158825Y132591D01*
X158464Y132441D01*
X158072D01*
X157710Y132591D01*
X157433Y132868D01*
X157283Y133229D01*
Y133621D01*
X157433Y133983D01*
X157710Y134259D01*
X158072Y134409D01*
X158464D01*
X158825Y134259D01*
D02*
G37*
G36*
X7644D02*
X7921Y133983D01*
X8071Y133621D01*
Y133229D01*
X7921Y132868D01*
X7644Y132591D01*
X7282Y132441D01*
X6891D01*
X6529Y132591D01*
X6252Y132868D01*
X6103Y133229D01*
Y133621D01*
X6252Y133983D01*
X6529Y134259D01*
X6891Y134409D01*
X7282D01*
X7644Y134259D01*
D02*
G37*
G36*
X137661Y133714D02*
Y133616D01*
X140575D01*
Y132434D01*
X137425D01*
Y133380D01*
X137327D01*
X137189Y133518D01*
Y133714D01*
X137327Y133852D01*
X137523D01*
X137661Y133714D01*
D02*
G37*
G36*
X100684Y132425D02*
X99502D01*
Y135575D01*
X100684D01*
Y132425D01*
D02*
G37*
G36*
X95565D02*
X94620D01*
Y132425D01*
Y132327D01*
X94482Y132189D01*
X94286D01*
X94148Y132327D01*
Y132425D01*
Y132523D01*
X94286Y132661D01*
X94384D01*
Y135575D01*
X95565D01*
Y132425D01*
D02*
G37*
G36*
X140575Y127316D02*
X137425D01*
Y128498D01*
X140575D01*
Y127316D01*
D02*
G37*
G36*
X120279Y125266D02*
X120394Y125150D01*
Y124824D01*
X120163Y124593D01*
X119837D01*
X119722Y124709D01*
X119606Y124824D01*
X119606Y125150D01*
X119837Y125381D01*
X120163D01*
X120279Y125266D01*
D02*
G37*
G36*
X158825Y124259D02*
X159102Y123983D01*
X159252Y123621D01*
Y123229D01*
X159102Y122868D01*
X158825Y122591D01*
X158464Y122441D01*
X158072D01*
X157710Y122591D01*
X157433Y122868D01*
X157283Y123229D01*
Y123621D01*
X157433Y123983D01*
X157710Y124259D01*
X158072Y124409D01*
X158464D01*
X158825Y124259D01*
D02*
G37*
G36*
X7644D02*
X7921Y123983D01*
X8071Y123621D01*
Y123229D01*
X7921Y122868D01*
X7644Y122591D01*
X7282Y122441D01*
X6891D01*
X6529Y122591D01*
X6252Y122868D01*
X6103Y123229D01*
Y123621D01*
X6252Y123983D01*
X6529Y124259D01*
X6891Y124409D01*
X7282D01*
X7644Y124259D01*
D02*
G37*
G36*
X122433Y122553D02*
X121319Y121440D01*
X120624Y122136D01*
X121737Y123249D01*
X122433Y122553D01*
D02*
G37*
G36*
X119376Y122136D02*
X118680Y121440D01*
X117566Y122553D01*
X118262Y123249D01*
X119376Y122136D01*
D02*
G37*
G36*
X123826Y121160D02*
X122712Y120047D01*
X122017Y120743D01*
X123130Y121856D01*
X123826Y121160D01*
D02*
G37*
G36*
X117983Y120743D02*
X117287Y120047D01*
X116173Y121160D01*
X116869Y121856D01*
X117983Y120743D01*
D02*
G37*
G36*
X125219Y119767D02*
X124105Y118654D01*
X123409Y119350D01*
X124523Y120463D01*
X125219Y119767D01*
D02*
G37*
G36*
X116590Y119350D02*
X115894Y118654D01*
X114780Y119767D01*
X115476Y120463D01*
X116590Y119350D01*
D02*
G37*
G36*
X126612Y118374D02*
X125498Y117261D01*
X124802Y117957D01*
X125916Y119070D01*
X126612Y118374D01*
D02*
G37*
G36*
X115197Y117957D02*
X114501Y117261D01*
X113387Y118374D01*
X114083Y119070D01*
X115197Y117957D01*
D02*
G37*
G36*
X128005Y116981D02*
X126891Y115868D01*
X126196Y116564D01*
X127309Y117677D01*
X128005Y116981D01*
D02*
G37*
G36*
X113804Y116564D02*
X113108Y115868D01*
X111994Y116981D01*
X112690Y117677D01*
X113804Y116564D01*
D02*
G37*
G36*
X129398Y115588D02*
X128284Y114475D01*
X127588Y115171D01*
X128702Y116284D01*
X129398Y115588D01*
D02*
G37*
G36*
X112411Y115171D02*
X111715Y114475D01*
X110601Y115588D01*
X111297Y116284D01*
X112411Y115171D01*
D02*
G37*
G36*
X130784Y114202D02*
X129670Y113089D01*
X128974Y113785D01*
X130088Y114898D01*
X130784Y114202D01*
D02*
G37*
G36*
X111025Y113785D02*
X110329Y113089D01*
X109215Y114202D01*
X109911Y114898D01*
X111025Y113785D01*
D02*
G37*
G36*
X158825Y114260D02*
X159102Y113983D01*
X159252Y113621D01*
Y113229D01*
X159102Y112868D01*
X158825Y112591D01*
X158464Y112441D01*
X158072D01*
X157710Y112591D01*
X157433Y112868D01*
X157283Y113229D01*
Y113621D01*
X157433Y113983D01*
X157710Y114260D01*
X158072Y114409D01*
X158464D01*
X158825Y114260D01*
D02*
G37*
G36*
X7644D02*
X7921Y113983D01*
X8071Y113621D01*
Y113229D01*
X7921Y112868D01*
X7644Y112591D01*
X7282Y112441D01*
X6891D01*
X6529Y112591D01*
X6252Y112868D01*
X6103Y113229D01*
Y113621D01*
X6252Y113983D01*
X6529Y114260D01*
X6891Y114409D01*
X7282D01*
X7644Y114260D01*
D02*
G37*
G36*
X132177Y112809D02*
X131063Y111696D01*
X130367Y112392D01*
X131481Y113505D01*
X132177Y112809D01*
D02*
G37*
G36*
X109632Y112392D02*
X108936Y111696D01*
X107822Y112809D01*
X108518Y113505D01*
X109632Y112392D01*
D02*
G37*
G36*
X133570Y111416D02*
X132456Y110303D01*
X131760Y110999D01*
X132874Y112112D01*
X133570Y111416D01*
D02*
G37*
G36*
X108239Y110999D02*
X107543Y110303D01*
X106429Y111416D01*
X107125Y112112D01*
X108239Y110999D01*
D02*
G37*
G36*
X134963Y110023D02*
X133849Y108910D01*
X133153Y109606D01*
X134267Y110719D01*
X134963Y110023D01*
D02*
G37*
G36*
X106846Y109606D02*
X106150Y108910D01*
X105036Y110023D01*
X105732Y110719D01*
X106846Y109606D01*
D02*
G37*
G36*
X136356Y108630D02*
X135242Y107517D01*
X134546Y108213D01*
X135660Y109326D01*
X136356Y108630D01*
D02*
G37*
G36*
X105453Y108213D02*
X104757Y107517D01*
X103643Y108630D01*
X104339Y109326D01*
X105453Y108213D01*
D02*
G37*
G36*
X137749Y107237D02*
X136635Y106124D01*
X135939Y106820D01*
X137053Y107933D01*
X137749Y107237D01*
D02*
G37*
G36*
X104060Y106820D02*
X103364Y106124D01*
X102250Y107237D01*
X102946Y107933D01*
X104060Y106820D01*
D02*
G37*
G36*
X137749Y103763D02*
X137053Y103067D01*
X135939Y104180D01*
X136635Y104876D01*
X137749Y103763D01*
D02*
G37*
G36*
X104060Y104180D02*
X102946Y103067D01*
X102250Y103763D01*
X103364Y104876D01*
X104060Y104180D01*
D02*
G37*
G36*
X158825Y104260D02*
X159102Y103983D01*
X159252Y103621D01*
Y103229D01*
X159102Y102868D01*
X158825Y102591D01*
X158464Y102441D01*
X158072D01*
X157710Y102591D01*
X157433Y102868D01*
X157283Y103229D01*
Y103621D01*
X157433Y103983D01*
X157710Y104260D01*
X158072Y104409D01*
X158464D01*
X158825Y104260D01*
D02*
G37*
G36*
X7644D02*
X7921Y103983D01*
X8071Y103621D01*
Y103229D01*
X7921Y102868D01*
X7644Y102591D01*
X7282Y102441D01*
X6891D01*
X6529Y102591D01*
X6252Y102868D01*
X6103Y103229D01*
Y103621D01*
X6252Y103983D01*
X6529Y104260D01*
X6891Y104409D01*
X7282D01*
X7644Y104260D01*
D02*
G37*
G36*
X136356Y102370D02*
X135660Y101674D01*
X134546Y102787D01*
X135242Y103483D01*
X136356Y102370D01*
D02*
G37*
G36*
X105453Y102787D02*
X104339Y101674D01*
X103643Y102370D01*
X104757Y103483D01*
X105453Y102787D01*
D02*
G37*
G36*
X134963Y100977D02*
X134267Y100281D01*
X133153Y101394D01*
X133849Y102090D01*
X134963Y100977D01*
D02*
G37*
G36*
X106846Y101394D02*
X105732Y100281D01*
X105036Y100977D01*
X106150Y102090D01*
X106846Y101394D01*
D02*
G37*
G36*
X133570Y99584D02*
X132874Y98888D01*
X131760Y100001D01*
X132456Y100697D01*
X133570Y99584D01*
D02*
G37*
G36*
X108239Y100001D02*
X107125Y98888D01*
X106429Y99584D01*
X107543Y100697D01*
X108239Y100001D01*
D02*
G37*
G36*
X132177Y98191D02*
X131481Y97495D01*
X130367Y98608D01*
X131063Y99304D01*
X132177Y98191D01*
D02*
G37*
G36*
X109632Y98608D02*
X108518Y97495D01*
X107822Y98191D01*
X108936Y99304D01*
X109632Y98608D01*
D02*
G37*
G36*
X130784Y96798D02*
X130088Y96102D01*
X128974Y97215D01*
X129670Y97911D01*
X130784Y96798D01*
D02*
G37*
G36*
X111025Y97215D02*
X109911Y96102D01*
X109215Y96798D01*
X110329Y97911D01*
X111025Y97215D01*
D02*
G37*
G36*
X129398Y95412D02*
X128702Y94716D01*
X127588Y95829D01*
X128284Y96525D01*
X129398Y95412D01*
D02*
G37*
G36*
X112411Y95829D02*
X111297Y94716D01*
X110601Y95412D01*
X111715Y96525D01*
X112411Y95829D01*
D02*
G37*
G36*
X128005Y94019D02*
X127309Y93323D01*
X126196Y94436D01*
X126891Y95132D01*
X128005Y94019D01*
D02*
G37*
G36*
X113804Y94436D02*
X112690Y93323D01*
X111994Y94019D01*
X113108Y95132D01*
X113804Y94436D01*
D02*
G37*
G36*
X158825Y94260D02*
X159102Y93983D01*
X159252Y93621D01*
Y93229D01*
X159102Y92868D01*
X158825Y92591D01*
X158464Y92441D01*
X158072D01*
X157710Y92591D01*
X157433Y92868D01*
X157283Y93229D01*
Y93621D01*
X157433Y93983D01*
X157710Y94260D01*
X158072Y94409D01*
X158464D01*
X158825Y94260D01*
D02*
G37*
G36*
X7644D02*
X7921Y93983D01*
X8071Y93621D01*
Y93229D01*
X7921Y92868D01*
X7644Y92591D01*
X7282Y92441D01*
X6891D01*
X6529Y92591D01*
X6252Y92868D01*
X6103Y93229D01*
Y93621D01*
X6252Y93983D01*
X6529Y94260D01*
X6891Y94409D01*
X7282D01*
X7644Y94260D01*
D02*
G37*
G36*
X126612Y92626D02*
X125916Y91930D01*
X124802Y93043D01*
X125498Y93739D01*
X126612Y92626D01*
D02*
G37*
G36*
X115197Y93043D02*
X114083Y91930D01*
X113387Y92626D01*
X114501Y93739D01*
X115197Y93043D01*
D02*
G37*
G36*
X125219Y91233D02*
X124523Y90537D01*
X123409Y91650D01*
X124105Y92346D01*
X125219Y91233D01*
D02*
G37*
G36*
X116590Y91650D02*
X115476Y90537D01*
X114780Y91233D01*
X115894Y92346D01*
X116590Y91650D01*
D02*
G37*
G36*
X135312Y105500D02*
X120000Y90188D01*
X104688Y105500D01*
X120000Y120812D01*
X135312Y105500D01*
D02*
G37*
G36*
X123826Y89840D02*
X123130Y89144D01*
X122017Y90257D01*
X122712Y90953D01*
X123826Y89840D01*
D02*
G37*
G36*
X117983Y90257D02*
X116869Y89144D01*
X116173Y89840D01*
X117287Y90953D01*
X117983Y90257D01*
D02*
G37*
G36*
X122433Y88447D02*
X121737Y87751D01*
X120624Y88864D01*
X121319Y89560D01*
X122433Y88447D01*
D02*
G37*
G36*
X119376Y88864D02*
X118262Y87751D01*
X117566Y88447D01*
X118680Y89560D01*
X119376Y88864D01*
D02*
G37*
G36*
X41705Y83638D02*
X38358D01*
Y88362D01*
X41705D01*
Y83638D01*
D02*
G37*
G36*
X30642D02*
X27295D01*
Y88362D01*
X30642D01*
Y83638D01*
D02*
G37*
G36*
X158825Y84259D02*
X159102Y83983D01*
X159252Y83621D01*
Y83229D01*
X159102Y82868D01*
X158825Y82591D01*
X158464Y82441D01*
X158072D01*
X157710Y82591D01*
X157433Y82868D01*
X157283Y83229D01*
Y83621D01*
X157433Y83983D01*
X157710Y84259D01*
X158072Y84409D01*
X158464D01*
X158825Y84259D01*
D02*
G37*
G36*
X7644D02*
X7921Y83983D01*
X8071Y83621D01*
Y83229D01*
X7921Y82868D01*
X7644Y82591D01*
X7282Y82441D01*
X6891D01*
X6529Y82591D01*
X6252Y82868D01*
X6103Y83229D01*
Y83621D01*
X6252Y83983D01*
X6529Y84259D01*
X6891Y84409D01*
X7282D01*
X7644Y84259D01*
D02*
G37*
G36*
X41736Y82598D02*
Y82500D01*
Y82402D01*
X41598Y82264D01*
X41402D01*
X41264Y82402D01*
Y82500D01*
Y82598D01*
X41402Y82736D01*
X41598D01*
X41736Y82598D01*
D02*
G37*
G36*
X97075Y81502D02*
X93925D01*
Y82684D01*
X97075D01*
Y81502D01*
D02*
G37*
G36*
X77184Y81425D02*
X76003D01*
Y84575D01*
X77184D01*
Y81425D01*
D02*
G37*
G36*
X72066D02*
X71120D01*
Y81425D01*
Y81327D01*
X70982Y81189D01*
X70786D01*
X70648Y81327D01*
Y81425D01*
Y81523D01*
X70786Y81661D01*
X70884D01*
Y84575D01*
X72066D01*
Y81425D01*
D02*
G37*
G36*
X21850Y77393D02*
Y77295D01*
Y77197D01*
X21712Y77059D01*
X21516D01*
X21378Y77197D01*
Y77295D01*
Y77393D01*
X21516Y77531D01*
X21712D01*
X21850Y77393D01*
D02*
G37*
G36*
X97075Y76620D02*
X97173D01*
X97311Y76482D01*
Y76286D01*
X97173Y76148D01*
X96977D01*
X96839Y76286D01*
Y76384D01*
X93925D01*
Y77565D01*
X97075D01*
Y76620D01*
D02*
G37*
G36*
X139075Y74002D02*
X135925D01*
Y75184D01*
X139075D01*
Y74002D01*
D02*
G37*
G36*
X131075D02*
X127925D01*
Y75184D01*
X131075D01*
Y74002D01*
D02*
G37*
G36*
X158825Y74260D02*
X159102Y73983D01*
X159252Y73621D01*
Y73229D01*
X159102Y72868D01*
X158825Y72591D01*
X158464Y72441D01*
X158072D01*
X157710Y72591D01*
X157433Y72868D01*
X157283Y73229D01*
Y73621D01*
X157433Y73983D01*
X157710Y74260D01*
X158072Y74409D01*
X158464D01*
X158825Y74260D01*
D02*
G37*
G36*
X7644D02*
X7921Y73983D01*
X8071Y73621D01*
Y73229D01*
X7921Y72868D01*
X7644Y72591D01*
X7282Y72441D01*
X6891D01*
X6529Y72591D01*
X6252Y72868D01*
X6103Y73229D01*
Y73621D01*
X6252Y73983D01*
X6529Y74260D01*
X6891Y74409D01*
X7282D01*
X7644Y74260D01*
D02*
G37*
G36*
X28543Y72079D02*
X21614D01*
Y75031D01*
X28543D01*
Y72079D01*
D02*
G37*
G36*
X139075Y69120D02*
X139173D01*
X139311Y68982D01*
Y68786D01*
X139173Y68648D01*
X138977D01*
X138839Y68786D01*
Y68884D01*
X135925D01*
Y70065D01*
X139075D01*
Y69120D01*
D02*
G37*
G36*
X131075D02*
X131173D01*
X131311Y68982D01*
Y68786D01*
X131173Y68648D01*
X130977D01*
X130839Y68786D01*
Y68884D01*
X127925D01*
Y70065D01*
X131075D01*
Y69120D01*
D02*
G37*
G36*
X58925Y65244D02*
Y65048D01*
X58787Y64910D01*
X58591D01*
X58453Y65048D01*
Y65244D01*
X58591Y65382D01*
X58787D01*
X58925Y65244D01*
D02*
G37*
G36*
X28543Y63024D02*
X21614D01*
Y65976D01*
X28543D01*
Y63024D01*
D02*
G37*
G36*
X158825Y64259D02*
X159102Y63983D01*
X159252Y63621D01*
Y63229D01*
X159102Y62868D01*
X158825Y62591D01*
X158464Y62441D01*
X158072D01*
X157710Y62591D01*
X157433Y62868D01*
X157283Y63229D01*
Y63621D01*
X157433Y63983D01*
X157710Y64259D01*
X158072Y64409D01*
X158464D01*
X158825Y64259D01*
D02*
G37*
G36*
X7644D02*
X7921Y63983D01*
X8071Y63621D01*
Y63229D01*
X7921Y62868D01*
X7644Y62591D01*
X7282Y62441D01*
X6891D01*
X6529Y62591D01*
X6252Y62868D01*
X6103Y63229D01*
Y63621D01*
X6252Y63983D01*
X6529Y64259D01*
X6891Y64409D01*
X7282D01*
X7644Y64259D01*
D02*
G37*
G36*
X82311Y62173D02*
X78138D01*
Y63827D01*
X82311D01*
Y62173D01*
D02*
G37*
G36*
X62862D02*
X58689D01*
Y63827D01*
X62862D01*
Y62173D01*
D02*
G37*
G36*
X93122Y59260D02*
Y59064D01*
X92984Y58926D01*
X92788D01*
X92650Y59064D01*
Y59260D01*
X92788Y59398D01*
X92984D01*
X93122Y59260D01*
D02*
G37*
G36*
X49173Y58595D02*
X42244D01*
Y70406D01*
X49173D01*
Y58595D01*
D02*
G37*
G36*
X82311Y57173D02*
X78138D01*
Y58827D01*
X82311D01*
Y57173D01*
D02*
G37*
G36*
X62862D02*
X58689D01*
Y58827D01*
X62862D01*
Y57173D01*
D02*
G37*
G36*
X96862Y56213D02*
X92886D01*
Y57787D01*
X96862D01*
Y56213D01*
D02*
G37*
G36*
X115150Y57787D02*
X116114D01*
Y56213D01*
X115150D01*
Y55831D01*
X109224D01*
Y47169D01*
X112138D01*
Y47787D01*
X116114D01*
Y46213D01*
X115150D01*
Y45201D01*
X109224D01*
Y43004D01*
X99776D01*
Y45201D01*
X97586D01*
Y45103D01*
X97448Y44965D01*
X97252D01*
X97114Y45103D01*
Y45299D01*
X97252Y45437D01*
X97350D01*
Y47169D01*
X99776D01*
Y55831D01*
X97350D01*
Y57799D01*
X103650D01*
Y55996D01*
X108850D01*
Y57799D01*
X115150D01*
Y57787D01*
D02*
G37*
G36*
X149650Y55561D02*
X143350D01*
Y57529D01*
X149650D01*
Y55561D01*
D02*
G37*
G36*
X135650D02*
X129350D01*
Y57529D01*
X135650D01*
Y55561D01*
D02*
G37*
G36*
X28543Y53969D02*
X21614D01*
Y56921D01*
X28543D01*
Y53969D01*
D02*
G37*
G36*
X122000Y54084D02*
Y53888D01*
X121862Y53750D01*
X121666D01*
X121528Y53888D01*
Y54084D01*
X121666Y54222D01*
X121862D01*
X122000Y54084D01*
D02*
G37*
G36*
X158825Y54260D02*
X159102Y53983D01*
X159252Y53621D01*
Y53229D01*
X159102Y52868D01*
X158825Y52591D01*
X158464Y52441D01*
X158072D01*
X157710Y52591D01*
X157433Y52868D01*
X157283Y53229D01*
Y53621D01*
X157433Y53983D01*
X157710Y54260D01*
X158072Y54409D01*
X158464D01*
X158825Y54260D01*
D02*
G37*
G36*
X7644D02*
X7921Y53983D01*
X8071Y53621D01*
Y53229D01*
X7921Y52868D01*
X7644Y52591D01*
X7282Y52441D01*
X6891D01*
X6529Y52591D01*
X6252Y52868D01*
X6103Y53229D01*
Y53621D01*
X6252Y53983D01*
X6529Y54260D01*
X6891Y54409D01*
X7282D01*
X7644Y54260D01*
D02*
G37*
G36*
X82311Y52173D02*
X78138D01*
Y53827D01*
X82311D01*
Y52173D01*
D02*
G37*
G36*
X62862D02*
X58689D01*
Y53827D01*
X62862D01*
Y52173D01*
D02*
G37*
G36*
X116114Y51213D02*
X112138D01*
Y52787D01*
X116114D01*
Y51213D01*
D02*
G37*
G36*
X96862D02*
X92886D01*
Y52787D01*
X96862D01*
Y51213D01*
D02*
G37*
G36*
X140760Y48986D02*
X128240D01*
Y53986D01*
X140760D01*
Y48986D01*
D02*
G37*
G36*
X82311Y47173D02*
X78138D01*
Y48827D01*
X82311D01*
Y47173D01*
D02*
G37*
G36*
X62862D02*
X58689D01*
Y48827D01*
X62862D01*
Y47173D01*
D02*
G37*
G36*
X96862Y46213D02*
X92886D01*
Y47787D01*
X96862D01*
Y46213D01*
D02*
G37*
G36*
X149650Y44931D02*
X143586D01*
Y44833D01*
X143448Y44695D01*
X143252D01*
X143114Y44833D01*
Y45029D01*
X143252Y45167D01*
X143350D01*
Y46899D01*
X149650D01*
Y44931D01*
D02*
G37*
G36*
X135650D02*
X129586D01*
Y44833D01*
X129448Y44695D01*
X129252D01*
X129114Y44833D01*
Y45029D01*
X129252Y45167D01*
X129350D01*
Y46899D01*
X135650D01*
Y44931D01*
D02*
G37*
G36*
X8236Y44598D02*
Y44500D01*
Y44402D01*
X8098Y44264D01*
X7902D01*
X7764Y44402D01*
Y44500D01*
Y44598D01*
X7902Y44736D01*
X8098D01*
X8236Y44598D01*
D02*
G37*
G36*
X116114Y41213D02*
X112138D01*
Y42787D01*
X116114D01*
Y41213D01*
D02*
G37*
G36*
X96862D02*
X92886D01*
Y42787D01*
X96862D01*
Y41213D01*
D02*
G37*
G36*
X49161Y39747D02*
Y39552D01*
X49023Y39413D01*
X48827D01*
X48689Y39552D01*
Y39747D01*
X48827Y39886D01*
X49023D01*
X49161Y39747D01*
D02*
G37*
G36*
X41161D02*
Y39552D01*
X41023Y39413D01*
X40827D01*
X40689Y39552D01*
Y39747D01*
X40827Y39886D01*
X41023D01*
X41161Y39747D01*
D02*
G37*
G36*
X33161D02*
Y39552D01*
X33023Y39413D01*
X32827D01*
X32689Y39552D01*
Y39747D01*
X32827Y39886D01*
X33023D01*
X33161Y39747D01*
D02*
G37*
G36*
X22205Y38638D02*
X18858D01*
Y43362D01*
X22205D01*
Y38638D01*
D02*
G37*
G36*
X11142D02*
X7795D01*
Y43362D01*
X11142D01*
Y38638D01*
D02*
G37*
G36*
X51091Y38322D02*
X49909D01*
Y39650D01*
X51091D01*
Y38322D01*
D02*
G37*
G36*
X43091D02*
X41909D01*
Y39650D01*
X43091D01*
Y38322D01*
D02*
G37*
G36*
X35091D02*
X33909D01*
Y39650D01*
X35091D01*
Y38322D01*
D02*
G37*
G36*
X154808Y34528D02*
X153233D01*
Y37284D01*
X154808D01*
Y34528D01*
D02*
G37*
G36*
X51081Y33350D02*
X49900D01*
Y34678D01*
X51081D01*
Y33350D01*
D02*
G37*
G36*
X43081D02*
X41900D01*
Y34678D01*
X43081D01*
Y33350D01*
D02*
G37*
G36*
X35081D02*
X33900D01*
Y34678D01*
X35081D01*
Y33350D01*
D02*
G37*
G36*
X114661Y30782D02*
Y30684D01*
X117575D01*
Y29502D01*
X114425D01*
Y30448D01*
X114327D01*
X114189Y30586D01*
Y30782D01*
X114327Y30920D01*
X114523D01*
X114661Y30782D01*
D02*
G37*
G36*
X109075Y29502D02*
X105925D01*
Y30684D01*
X109075D01*
Y29502D01*
D02*
G37*
G36*
X162288Y28622D02*
X160713D01*
Y31378D01*
X162288D01*
Y28622D01*
D02*
G37*
G36*
X89436Y27823D02*
X86286D01*
Y29004D01*
X89436D01*
Y27823D01*
D02*
G37*
G36*
X71074D02*
X67925D01*
Y29004D01*
X71074D01*
Y27823D01*
D02*
G37*
G36*
X20069Y33551D02*
Y33453D01*
Y33355D01*
X19931Y33217D01*
X19833D01*
Y27547D01*
X19046D01*
Y33453D01*
X19597D01*
Y33551D01*
X19735Y33689D01*
X19931D01*
X20069Y33551D01*
D02*
G37*
G36*
X11958Y27547D02*
X11171D01*
Y33453D01*
X11958D01*
Y27547D01*
D02*
G37*
G36*
X95661Y28708D02*
Y28610D01*
X98575D01*
Y27429D01*
X95425D01*
Y28374D01*
X95327D01*
X95189Y28512D01*
Y28708D01*
X95327Y28846D01*
X95523D01*
X95661Y28708D01*
D02*
G37*
G36*
X77300D02*
Y28610D01*
X80213D01*
Y27429D01*
X77064D01*
Y28374D01*
X76966D01*
X76827Y28512D01*
Y28708D01*
X76966Y28846D01*
X77161D01*
X77300Y28708D01*
D02*
G37*
G36*
X144029Y27586D02*
X144127D01*
X144265Y27448D01*
Y27350D01*
Y27252D01*
X144127Y27114D01*
X143931D01*
X143793Y27252D01*
Y27350D01*
Y27350D01*
X142061D01*
Y33650D01*
X144029D01*
Y27586D01*
D02*
G37*
G36*
X133399Y32013D02*
X140760D01*
Y27013D01*
X128240D01*
Y32013D01*
X131431D01*
Y33650D01*
X133399D01*
Y32013D01*
D02*
G37*
G36*
X117575Y24384D02*
X114425D01*
Y25565D01*
X117575D01*
Y24384D01*
D02*
G37*
G36*
X109075Y24620D02*
X109173D01*
X109311Y24482D01*
Y24286D01*
X109173Y24148D01*
X108977D01*
X108839Y24286D01*
Y24384D01*
X105925D01*
Y25565D01*
X109075D01*
Y24620D01*
D02*
G37*
G36*
X154808Y22717D02*
X153233D01*
Y25473D01*
X154808D01*
Y22717D01*
D02*
G37*
G36*
X89464Y22941D02*
X89561D01*
X89700Y22803D01*
Y22607D01*
X89561Y22469D01*
X89366D01*
X89227Y22607D01*
Y22705D01*
X86314D01*
Y23886D01*
X89464D01*
Y22941D01*
D02*
G37*
G36*
X71102D02*
X71200D01*
X71338Y22803D01*
Y22607D01*
X71200Y22469D01*
X71004D01*
X70866Y22607D01*
Y22705D01*
X67952D01*
Y23886D01*
X71102D01*
Y22941D01*
D02*
G37*
G36*
X98602Y22311D02*
X95453D01*
Y23492D01*
X98602D01*
Y22311D01*
D02*
G37*
G36*
X80241D02*
X77091D01*
Y23492D01*
X80241D01*
Y22311D01*
D02*
G37*
G36*
X60067Y21217D02*
X59083D01*
Y24366D01*
X60067D01*
Y21217D01*
D02*
G37*
G36*
X31071Y24464D02*
Y24366D01*
X31819D01*
Y21217D01*
X30835D01*
Y24130D01*
X30737D01*
X30599Y24268D01*
Y24464D01*
X30737Y24602D01*
X30933D01*
X31071Y24464D01*
D02*
G37*
G36*
X151500Y21240D02*
Y21044D01*
X151362Y20906D01*
X151166D01*
X151028Y21044D01*
Y21240D01*
X151166Y21378D01*
X151362D01*
X151500Y21240D01*
D02*
G37*
G36*
X51110Y20211D02*
X50126D01*
Y23951D01*
X51110D01*
Y20211D01*
D02*
G37*
G36*
X48551D02*
X47567D01*
Y23951D01*
X48551D01*
Y20211D01*
D02*
G37*
G36*
X45992D02*
X45008D01*
Y23951D01*
X45992D01*
Y20211D01*
D02*
G37*
G36*
X43432D02*
X42448D01*
Y23951D01*
X43432D01*
Y20211D01*
D02*
G37*
G36*
X40873D02*
X39889D01*
Y23951D01*
X40873D01*
Y20211D01*
D02*
G37*
G36*
X131650Y20283D02*
Y20186D01*
Y20088D01*
X131512Y19949D01*
X131316D01*
X131178Y20088D01*
Y20186D01*
Y20283D01*
X131316Y20422D01*
X131512D01*
X131650Y20283D01*
D02*
G37*
G36*
X20650Y17425D02*
X19468D01*
Y20575D01*
X20650D01*
Y17425D01*
D02*
G37*
G36*
X15531D02*
X14586D01*
Y17425D01*
Y17327D01*
X14448Y17189D01*
X14252D01*
X14114Y17327D01*
Y17425D01*
Y17523D01*
X14252Y17661D01*
X14350D01*
Y20575D01*
X15531D01*
Y17425D01*
D02*
G37*
G36*
X140496Y14218D02*
X139708D01*
Y20518D01*
X140496D01*
Y14218D01*
D02*
G37*
G36*
X136560D02*
X135772D01*
Y20518D01*
X136560D01*
Y14218D01*
D02*
G37*
G36*
X22074Y11323D02*
X18925D01*
Y12504D01*
X22074D01*
Y11323D01*
D02*
G37*
G36*
X123029Y9350D02*
X121061D01*
Y15650D01*
X123029D01*
Y9350D01*
D02*
G37*
G36*
X112399D02*
X110667D01*
Y9350D01*
Y9252D01*
X110529Y9114D01*
X110333D01*
X110195Y9252D01*
Y9350D01*
Y9448D01*
X110333Y9586D01*
X110431D01*
Y15650D01*
X112399D01*
Y9350D01*
D02*
G37*
G36*
X93858Y8410D02*
X91890D01*
Y9591D01*
X93858D01*
Y8410D01*
D02*
G37*
G36*
X85984D02*
X84016D01*
Y9591D01*
X85984D01*
Y8410D01*
D02*
G37*
G36*
X78110Y8409D02*
X76142D01*
Y9590D01*
X78110D01*
Y8409D01*
D02*
G37*
G36*
X60067Y7437D02*
X59083D01*
Y10980D01*
X60067D01*
Y7437D01*
D02*
G37*
G36*
X31819D02*
X30835D01*
Y10980D01*
X31819D01*
Y7437D01*
D02*
G37*
G36*
X102126Y6638D02*
X100552D01*
Y11362D01*
X102126D01*
Y6638D01*
D02*
G37*
G36*
X69448D02*
X67874D01*
Y11362D01*
X69448D01*
Y6638D01*
D02*
G37*
G36*
X22102Y6441D02*
X22200D01*
X22338Y6303D01*
Y6107D01*
X22200Y5969D01*
X22004D01*
X21866Y6107D01*
Y6205D01*
X18952D01*
Y7386D01*
X22102D01*
Y6441D01*
D02*
G37*
G36*
X147575Y1626D02*
X144425D01*
Y17374D01*
X147575D01*
Y1626D01*
D02*
G37*
G36*
X131827D02*
X128677D01*
Y17374D01*
X131827D01*
Y1626D01*
D02*
G37*
G36*
X68110Y-11375D02*
Y-11473D01*
Y-11571D01*
X67972Y-11709D01*
X67776D01*
X67638Y-11571D01*
Y-11473D01*
Y-11375D01*
X67776Y-11237D01*
X67972D01*
X68110Y-11375D01*
D02*
G37*
D112*
X73700Y40000D02*
X72950Y40433D01*
Y39567D01*
X73700Y40000D01*
X146480Y99480D02*
X145730Y99913D01*
Y99047D01*
X146480Y99480D01*
X126500Y144500D02*
X125750Y144933D01*
Y144067D01*
X126500Y144500D01*
X140500D02*
X139750Y144933D01*
Y144067D01*
X140500Y144500D01*
X86700Y176000D02*
X85950Y176433D01*
Y175567D01*
X86700Y176000D01*
X114020Y80480D02*
X113270Y80913D01*
Y80047D01*
X114020Y80480D01*
X126980Y128520D02*
X126230Y128953D01*
Y128087D01*
X126980Y128520D01*
X90020Y115520D02*
X89270Y115953D01*
Y115087D01*
X90020Y115520D01*
X63500Y80200D02*
X62750Y80633D01*
Y79767D01*
X63500Y80200D01*
X74700Y75000D02*
X73950Y75433D01*
Y74567D01*
X74700Y75000D01*
X92200Y141000D02*
X91450Y141433D01*
Y140567D01*
X92200Y141000D01*
X104200D02*
X103450Y141433D01*
Y140567D01*
X104200Y141000D01*
X103500Y79200D02*
X102750Y79633D01*
Y78767D01*
X103500Y79200D01*
X72413Y40000D02*
X73987D01*
X73200Y39213D02*
Y40787D01*
X145423Y98923D02*
X146537Y100037D01*
X145423D02*
X146537Y98923D01*
X125213Y144500D02*
X126787D01*
X126000Y143713D02*
Y145287D01*
X139213Y144500D02*
X140787D01*
X140000Y143713D02*
Y145287D01*
X85413Y176000D02*
X86987D01*
X86200Y175213D02*
Y176787D01*
X112963Y79923D02*
X114077Y81037D01*
X112963D02*
X114077Y79923D01*
X125923Y127963D02*
X127037Y129077D01*
X125923D02*
X127037Y127963D01*
X88963Y116077D02*
X90077Y114963D01*
X88963D02*
X90077Y116077D01*
X62213Y80200D02*
X63787D01*
X63000Y79413D02*
Y80987D01*
X74200Y74213D02*
Y75787D01*
X73413Y75000D02*
X74987D01*
X91700Y140213D02*
Y141787D01*
X90913Y141000D02*
X92487D01*
X103700Y140213D02*
Y141787D01*
X102913Y141000D02*
X104487D01*
X102213Y79200D02*
X103787D01*
X103000Y78413D02*
Y79987D01*
D113*
X120000Y124987D02*
X139487Y105500D01*
X100513D02*
X120000Y124987D01*
X100513Y105500D02*
X120000Y86013D01*
X139487Y105500D01*
X108850Y45201D02*
Y57799D01*
X115150D01*
Y45201D02*
Y57799D01*
X108850Y45201D02*
X115150D01*
X97350D02*
Y57799D01*
X103650D01*
Y45201D02*
Y57799D01*
X97350Y45201D02*
X103650D01*
X121764Y27764D02*
Y53236D01*
Y27764D02*
X147236D01*
Y53236D01*
X121764D02*
X147236D01*
X129350Y44931D02*
Y57529D01*
X135650D01*
Y44931D02*
Y57529D01*
X129350Y44931D02*
X135650D01*
X135925Y68884D02*
X139075D01*
X135925D02*
Y75184D01*
X139075D01*
Y68884D02*
Y75184D01*
X127925Y68884D02*
X131075D01*
X127925D02*
Y75184D01*
X131075D01*
Y68884D02*
Y75184D01*
X102126Y339D02*
Y17661D01*
X67874D02*
X102126D01*
X67874Y339D02*
Y17661D01*
Y339D02*
X77853D01*
Y-11473D02*
Y339D01*
Y-11473D02*
X85727D01*
Y339D01*
X102126D01*
X135500Y172412D02*
Y175561D01*
X129201Y172412D02*
X135500D01*
X129201D02*
Y175561D01*
X135500D01*
X112177Y39854D02*
Y59146D01*
X96823Y39854D02*
X112177D01*
X96823D02*
Y59146D01*
X112177D01*
X40925Y34138D02*
Y38862D01*
Y34138D02*
X44075D01*
Y38862D01*
X40925D02*
X44075D01*
X48925Y34138D02*
Y38862D01*
Y34138D02*
X52075D01*
Y38862D01*
X48925D02*
X52075D01*
X62823Y65146D02*
X78177D01*
Y45854D02*
Y65146D01*
X62823Y45854D02*
X78177D01*
X62823D02*
Y65146D01*
X139890Y149457D02*
Y156543D01*
X126110D02*
X139890D01*
X126110Y149457D02*
Y156543D01*
Y149457D02*
X139890D01*
X106968Y147133D02*
Y156976D01*
X94370Y147133D02*
X106968D01*
X94370D02*
Y156976D01*
X106968D01*
X83316Y171075D02*
X89616D01*
X83316Y167925D02*
Y171075D01*
Y167925D02*
X89616D01*
Y171075D01*
X96677Y181232D02*
Y192768D01*
X81323Y181232D02*
X96677D01*
X81323D02*
Y192768D01*
X96677D01*
X22088Y6205D02*
Y12504D01*
X18939D02*
X22088D01*
X18939Y6205D02*
Y12504D01*
Y6205D02*
X22088D01*
X131367Y17180D02*
X144037D01*
X144037Y17180D01*
Y14859D02*
Y17180D01*
Y14859D02*
X144039Y14857D01*
X144589Y14856D01*
X144589Y14855D01*
Y485D02*
Y14855D01*
Y485D02*
X144589Y484D01*
X130815D02*
X144589D01*
X130809Y490D02*
X130815Y484D01*
X130809Y490D02*
Y14859D01*
X130809Y14860D02*
X130809Y14859D01*
X130809Y14860D02*
X131358D01*
X131360Y14857D01*
X131367Y17180D01*
X105831Y195921D02*
X147169D01*
Y186079D02*
Y195921D01*
X105831Y186079D02*
X147169D01*
X105831D02*
Y195921D01*
X95439Y22311D02*
Y28610D01*
Y22311D02*
X98588D01*
Y28610D01*
X95439D02*
X98588D01*
X89450Y22705D02*
Y29004D01*
X86300D02*
X89450D01*
X86300Y22705D02*
Y29004D01*
Y22705D02*
X89450D01*
X77077Y22311D02*
Y28610D01*
Y22311D02*
X80227D01*
Y28610D01*
X77077D02*
X80227D01*
X71088Y22705D02*
Y29004D01*
X67939D02*
X71088D01*
X67939Y22705D02*
Y29004D01*
Y22705D02*
X71088D01*
X28504Y77295D02*
X42284D01*
X28504Y51705D02*
Y77295D01*
Y51705D02*
X42284D01*
Y77295D01*
X30933Y743D02*
Y24365D01*
Y743D02*
X60067D01*
Y24365D01*
X30933D02*
X60067D01*
X162288Y34922D02*
Y38859D01*
Y34922D02*
X170142D01*
Y25079D02*
Y34922D01*
X162288Y25079D02*
X170142D01*
X162288Y21142D02*
Y25079D01*
X151264Y21142D02*
X162288D01*
X151264D02*
Y38859D01*
X162288D01*
X97075Y76384D02*
Y82684D01*
X93925D02*
X97075D01*
X93925Y76384D02*
Y82684D01*
Y76384D02*
X97075D01*
X137425Y127316D02*
Y133616D01*
Y127316D02*
X140575D01*
Y133616D01*
X137425D02*
X140575D01*
X114850Y172425D02*
X121150D01*
Y175575D01*
X114850D02*
X121150D01*
X114850Y172425D02*
Y175575D01*
X14350Y17425D02*
X20650D01*
Y20575D01*
X14350D02*
X20650D01*
X14350Y17425D02*
Y20575D01*
X114425Y24384D02*
Y30684D01*
Y24384D02*
X117575D01*
Y30684D01*
X114425D02*
X117575D01*
X109075Y24384D02*
Y30684D01*
X105925D02*
X109075D01*
X105925Y24384D02*
Y30684D01*
Y24384D02*
X109075D01*
X70884Y81425D02*
X77184D01*
Y84575D01*
X70884D02*
X77184D01*
X70884Y81425D02*
Y84575D01*
X94384Y132425D02*
X100684D01*
Y135575D01*
X94384D02*
X100684D01*
X94384Y132425D02*
Y135575D01*
X153268Y148425D02*
X163268D01*
X153268Y48425D02*
Y148425D01*
Y48425D02*
X163268D01*
Y148425D01*
X2087D02*
X12087D01*
X2087Y48425D02*
Y148425D01*
Y48425D02*
X12087D01*
Y148425D01*
X19833Y27547D02*
Y33453D01*
X11171Y27547D02*
X19833D01*
X11171D02*
Y33453D01*
X19833D01*
X32925Y38862D02*
X36075D01*
Y34138D02*
Y38862D01*
X32925Y34138D02*
X36075D01*
X32925D02*
Y38862D01*
X28201Y82850D02*
Y89150D01*
X40799D01*
Y82850D02*
Y89150D01*
X28201Y82850D02*
X40799D01*
X21299Y37850D02*
Y44150D01*
X8701Y37850D02*
X21299D01*
X8701D02*
Y44150D01*
X21299D01*
X144029Y27350D02*
Y33650D01*
X131431D02*
X144029D01*
X131431Y27350D02*
Y33650D01*
Y27350D02*
X144029D01*
X110431Y9350D02*
Y15650D01*
X123029D01*
Y9350D02*
Y15650D01*
X110431Y9350D02*
X123029D01*
X143350Y44931D02*
X149650D01*
Y57529D01*
X143350D02*
X149650D01*
X143350Y44931D02*
Y57529D01*
M02*
