G04*
G04 #@! TF.GenerationSoftware,Altium Limited,Altium Designer,22.11.1 (43)*
G04*
G04 Layer_Color=255*
%FSLAX25Y25*%
%MOIN*%
G70*
G04*
G04 #@! TF.SameCoordinates,CE4FA216-54C7-4044-9C64-AD491F851F59*
G04*
G04*
G04 #@! TF.FilePolarity,Positive*
G04*
G01*
G75*
%ADD82C,0.06299*%
%ADD86R,0.05847X0.06803*%
%ADD90O,0.06299X0.06299*%
%ADD91O,0.07874X0.10236*%
%ADD92R,0.06693X0.06693*%
%ADD93C,0.06693*%
%ADD94O,0.03937X0.07874*%
%ADD95O,0.03937X0.06299*%
%ADD96C,0.05906*%
%ADD108R,0.06803X0.05847*%
D82*
X154020Y24095D02*
D03*
Y35906D02*
D03*
X161500Y30000D02*
D03*
D86*
X131460Y30500D02*
D03*
X144000D02*
D03*
D90*
X77126Y9000D02*
D03*
X92874D02*
D03*
X85000D02*
D03*
D91*
X101339D02*
D03*
X68661D02*
D03*
D92*
X111500Y191000D02*
D03*
D93*
X121500D02*
D03*
X131500D02*
D03*
X141500D02*
D03*
D94*
X31332Y9208D02*
D03*
X59672Y9214D02*
D03*
D95*
X59669Y22793D02*
D03*
X31329Y22787D02*
D03*
D96*
X158268Y143425D02*
D03*
Y133425D02*
D03*
Y123425D02*
D03*
Y113425D02*
D03*
Y103425D02*
D03*
Y93425D02*
D03*
Y83425D02*
D03*
Y73425D02*
D03*
Y63425D02*
D03*
Y53425D02*
D03*
X7087Y143425D02*
D03*
Y133425D02*
D03*
Y123425D02*
D03*
Y113425D02*
D03*
Y103425D02*
D03*
Y93425D02*
D03*
Y83425D02*
D03*
Y73425D02*
D03*
Y63425D02*
D03*
Y53425D02*
D03*
D108*
X112000Y45230D02*
D03*
Y57770D02*
D03*
X100500Y45230D02*
D03*
Y57770D02*
D03*
X132500Y44960D02*
D03*
Y57500D02*
D03*
X146500D02*
D03*
Y44960D02*
D03*
M02*
