G04*
G04 #@! TF.GenerationSoftware,Altium Limited,Altium Designer,22.11.1 (43)*
G04*
G04 Layer_Color=255*
%FSLAX25Y25*%
%MOIN*%
G70*
G04*
G04 #@! TF.SameCoordinates,CE4FA216-54C7-4044-9C64-AD491F851F59*
G04*
G04*
G04 #@! TF.FilePolarity,Positive*
G04*
G01*
G75*
%ADD25P,0.30623X4X270.0*%
G04:AMPARAMS|DCode=26|XSize=35.43mil|YSize=11.02mil|CornerRadius=0mil|HoleSize=0mil|Usage=FLASHONLY|Rotation=225.000|XOffset=0mil|YOffset=0mil|HoleType=Round|Shape=Round|*
%AMOVALD26*
21,1,0.02441,0.01102,0.00000,0.00000,225.0*
1,1,0.01102,0.00863,0.00863*
1,1,0.01102,-0.00863,-0.00863*
%
%ADD26OVALD26*%

G04:AMPARAMS|DCode=27|XSize=11.02mil|YSize=35.43mil|CornerRadius=0mil|HoleSize=0mil|Usage=FLASHONLY|Rotation=225.000|XOffset=0mil|YOffset=0mil|HoleType=Round|Shape=Round|*
%AMOVALD27*
21,1,0.02441,0.01102,0.00000,0.00000,315.0*
1,1,0.01102,-0.00863,0.00863*
1,1,0.01102,0.00863,-0.00863*
%
%ADD27OVALD27*%

%ADD28R,0.13504X0.09528*%
%ADD29R,0.03150X0.03150*%
%ADD30R,0.03000X0.03000*%
%ADD31R,0.04724X0.02362*%
%ADD32R,0.09449X0.12992*%
%ADD33R,0.02362X0.02362*%
%ADD34O,0.07343X0.02480*%
%ADD35P,0.04243X4X90.0*%
%ADD36R,0.03937X0.07087*%
%ADD37R,0.05512X0.04724*%
%ADD38R,0.04842X0.05354*%
%ADD39R,0.03150X0.03150*%
%ADD40R,0.01575X0.06299*%
%ADD41R,0.03150X0.15748*%
%ADD42R,0.06299X0.03150*%
%ADD43R,0.09213X0.14173*%
%ADD44R,0.09843X0.04331*%
%ADD45P,0.04243X4X360.0*%
%ADD46R,0.06919X0.05102*%
%ADD47R,0.03000X0.03000*%
%ADD82C,0.06299*%
%ADD83R,0.03402X0.03175*%
%ADD84R,0.03175X0.03402*%
%ADD85R,0.05256X0.05906*%
%ADD86R,0.05847X0.06803*%
%ADD90O,0.06299X0.06299*%
%ADD91O,0.07874X0.10236*%
%ADD92R,0.06693X0.06693*%
%ADD93C,0.06693*%
%ADD94O,0.03937X0.07874*%
%ADD95O,0.03937X0.06299*%
%ADD96C,0.05906*%
D25*
X120000Y105500D02*
D03*
D26*
X121944Y122760D02*
D03*
X123337Y121368D02*
D03*
X124730Y119975D02*
D03*
X126123Y118581D02*
D03*
X127516Y117189D02*
D03*
X128909Y115796D02*
D03*
X130295Y114409D02*
D03*
X131688Y113017D02*
D03*
X133081Y111624D02*
D03*
X134474Y110231D02*
D03*
X135867Y108837D02*
D03*
X137260Y107445D02*
D03*
X118055Y88240D02*
D03*
X116662Y89632D02*
D03*
X115269Y91026D02*
D03*
X113876Y92418D02*
D03*
X112483Y93812D02*
D03*
X111090Y95205D02*
D03*
X109704Y96590D02*
D03*
X108311Y97983D02*
D03*
X106918Y99376D02*
D03*
X105525Y100769D02*
D03*
X104132Y102163D02*
D03*
X102739Y103556D02*
D03*
D27*
X137260D02*
D03*
X135867Y102163D02*
D03*
X134474Y100769D02*
D03*
X133081Y99376D02*
D03*
X131688Y97983D02*
D03*
X130295Y96590D02*
D03*
X128909Y95205D02*
D03*
X127516Y93812D02*
D03*
X126123Y92418D02*
D03*
X124730Y91026D02*
D03*
X123337Y89632D02*
D03*
X121944Y88240D02*
D03*
X102739Y107445D02*
D03*
X104132Y108837D02*
D03*
X105525Y110231D02*
D03*
X106918Y111624D02*
D03*
X108311Y113017D02*
D03*
X109704Y114409D02*
D03*
X111090Y115796D02*
D03*
X112483Y117189D02*
D03*
X113876Y118581D02*
D03*
X115269Y119975D02*
D03*
X116662Y121368D02*
D03*
X118055Y122760D02*
D03*
D28*
X134500Y28986D02*
D03*
Y52014D02*
D03*
D29*
X129205Y173973D02*
D03*
X135500Y174000D02*
D03*
D30*
X70400Y40000D02*
D03*
X76000D02*
D03*
X123200Y144500D02*
D03*
X128800D02*
D03*
X142800D02*
D03*
X137200D02*
D03*
X89000Y176000D02*
D03*
X83400D02*
D03*
X77000Y75000D02*
D03*
X71400D02*
D03*
X94500Y141000D02*
D03*
X88900D02*
D03*
X100900D02*
D03*
X106500D02*
D03*
D31*
X93050Y57000D02*
D03*
Y52000D02*
D03*
Y47000D02*
D03*
Y42000D02*
D03*
X115950D02*
D03*
Y47000D02*
D03*
Y52000D02*
D03*
Y57000D02*
D03*
D32*
X104500Y49500D02*
D03*
D33*
X34500Y33547D02*
D03*
Y39452D02*
D03*
X42500D02*
D03*
Y33547D02*
D03*
X50500Y39452D02*
D03*
Y33547D02*
D03*
D34*
X59939Y63000D02*
D03*
Y58000D02*
D03*
Y53000D02*
D03*
Y48000D02*
D03*
X81061Y63000D02*
D03*
Y58000D02*
D03*
Y53000D02*
D03*
Y48000D02*
D03*
D35*
X144000Y97500D02*
D03*
X147960Y101460D02*
D03*
X87540Y113540D02*
D03*
X91500Y117500D02*
D03*
D36*
X128078Y153000D02*
D03*
X137922D02*
D03*
D37*
X105000Y155500D02*
D03*
X96338D02*
D03*
Y148610D02*
D03*
X105000D02*
D03*
D38*
X80398Y187000D02*
D03*
X97602D02*
D03*
D39*
X20527Y6205D02*
D03*
X20500Y12500D02*
D03*
X97000Y28610D02*
D03*
X97027Y22315D02*
D03*
X87888Y22705D02*
D03*
X87862Y29000D02*
D03*
X78638Y28610D02*
D03*
X78666Y22315D02*
D03*
X69527Y22705D02*
D03*
X69500Y29000D02*
D03*
D40*
X136166Y17368D02*
D03*
X140102D02*
D03*
X50618Y21648D02*
D03*
X48059D02*
D03*
X45500D02*
D03*
X42940D02*
D03*
X40381D02*
D03*
D41*
X130252Y9500D02*
D03*
X146000D02*
D03*
D42*
X20803Y157358D02*
D03*
Y133736D02*
D03*
X71197D02*
D03*
Y145547D02*
D03*
Y157358D02*
D03*
Y163264D02*
D03*
X20803Y151453D02*
D03*
Y163264D02*
D03*
Y169169D02*
D03*
Y127831D02*
D03*
X71197Y139642D02*
D03*
Y169169D02*
D03*
X20803Y139642D02*
D03*
X71197Y127831D02*
D03*
X20803Y145547D02*
D03*
X71197Y151453D02*
D03*
D43*
X46693Y64500D02*
D03*
D44*
X23307Y55445D02*
D03*
Y64500D02*
D03*
Y73555D02*
D03*
D45*
X115500Y78500D02*
D03*
X111540Y82460D02*
D03*
X124500Y130500D02*
D03*
X128460Y126540D02*
D03*
D46*
X41139Y86000D02*
D03*
X27861D02*
D03*
X8361Y41000D02*
D03*
X21639D02*
D03*
D47*
X63000Y83000D02*
D03*
Y77400D02*
D03*
X103000Y82000D02*
D03*
Y76400D02*
D03*
D82*
X154020Y24095D02*
D03*
Y35906D02*
D03*
X161500Y30000D02*
D03*
D83*
X137500Y75000D02*
D03*
Y69068D02*
D03*
X129500Y75000D02*
D03*
Y69068D02*
D03*
X95500Y76568D02*
D03*
Y82500D02*
D03*
X139000Y133432D02*
D03*
Y127500D02*
D03*
X116000Y30500D02*
D03*
Y24568D02*
D03*
X107500D02*
D03*
Y30500D02*
D03*
D84*
X89432Y169500D02*
D03*
X83500D02*
D03*
X115034Y174000D02*
D03*
X120966D02*
D03*
X14534Y19000D02*
D03*
X20466D02*
D03*
X71068Y83000D02*
D03*
X77000D02*
D03*
X94568Y134000D02*
D03*
X100500D02*
D03*
D85*
X11004Y30500D02*
D03*
X20000D02*
D03*
D86*
X123000Y12500D02*
D03*
X110460D02*
D03*
D90*
X77126Y9000D02*
D03*
X92874D02*
D03*
X85000D02*
D03*
D91*
X101339D02*
D03*
X68661D02*
D03*
D92*
X111500Y191000D02*
D03*
D93*
X121500D02*
D03*
X131500D02*
D03*
X141500D02*
D03*
D94*
X31332Y9208D02*
D03*
X59672Y9214D02*
D03*
D95*
X59669Y22793D02*
D03*
X31329Y22787D02*
D03*
D96*
X158268Y143425D02*
D03*
Y133425D02*
D03*
Y123425D02*
D03*
Y113425D02*
D03*
Y103425D02*
D03*
Y93425D02*
D03*
Y83425D02*
D03*
Y73425D02*
D03*
Y63425D02*
D03*
Y53425D02*
D03*
X7087Y143425D02*
D03*
Y133425D02*
D03*
Y123425D02*
D03*
Y113425D02*
D03*
Y103425D02*
D03*
Y93425D02*
D03*
Y83425D02*
D03*
Y73425D02*
D03*
Y63425D02*
D03*
Y53425D02*
D03*
M02*
