G04*
G04 #@! TF.GenerationSoftware,Altium Limited,Altium Designer,22.11.1 (43)*
G04*
G04 Layer_Color=8421504*
%FSLAX25Y25*%
%MOIN*%
G70*
G04*
G04 #@! TF.SameCoordinates,CE4FA216-54C7-4044-9C64-AD491F851F59*
G04*
G04*
G04 #@! TF.FilePolarity,Positive*
G04*
G01*
G75*
%ADD25P,0.30623X4X270.0*%
G04:AMPARAMS|DCode=26|XSize=35.43mil|YSize=11.02mil|CornerRadius=0mil|HoleSize=0mil|Usage=FLASHONLY|Rotation=225.000|XOffset=0mil|YOffset=0mil|HoleType=Round|Shape=Round|*
%AMOVALD26*
21,1,0.02441,0.01102,0.00000,0.00000,225.0*
1,1,0.01102,0.00863,0.00863*
1,1,0.01102,-0.00863,-0.00863*
%
%ADD26OVALD26*%

G04:AMPARAMS|DCode=27|XSize=11.02mil|YSize=35.43mil|CornerRadius=0mil|HoleSize=0mil|Usage=FLASHONLY|Rotation=225.000|XOffset=0mil|YOffset=0mil|HoleType=Round|Shape=Round|*
%AMOVALD27*
21,1,0.02441,0.01102,0.00000,0.00000,315.0*
1,1,0.01102,-0.00863,0.00863*
1,1,0.01102,0.00863,-0.00863*
%
%ADD27OVALD27*%

%ADD28R,0.13504X0.09528*%
%ADD29R,0.03150X0.03150*%
%ADD30R,0.03000X0.03000*%
%ADD31R,0.04724X0.02362*%
%ADD32R,0.09449X0.12992*%
%ADD33R,0.02362X0.02362*%
%ADD34O,0.07343X0.02480*%
%ADD35P,0.04243X4X90.0*%
%ADD36R,0.03937X0.07087*%
%ADD37R,0.05512X0.04724*%
%ADD38R,0.04842X0.05354*%
%ADD39R,0.03150X0.03150*%
%ADD40R,0.01575X0.06299*%
%ADD41R,0.03150X0.15748*%
%ADD42R,0.06299X0.03150*%
%ADD43R,0.09213X0.14173*%
%ADD44R,0.09843X0.04331*%
%ADD45P,0.04243X4X360.0*%
%ADD46R,0.06919X0.05102*%
%ADD47R,0.03000X0.03000*%
G36*
X122902Y175575D02*
Y172425D01*
X122705Y172228D01*
X119555D01*
X119358Y172425D01*
Y173378D01*
X120815D01*
Y174677D01*
X119358D01*
Y175575D01*
X119555Y175772D01*
X122705D01*
X122902Y175575D01*
D02*
G37*
G36*
X116602D02*
Y174677D01*
X115106D01*
Y173378D01*
X116602D01*
Y172425D01*
X116406Y172228D01*
X113295D01*
X113099Y172425D01*
Y175575D01*
X113295Y175772D01*
X116406D01*
X116602Y175575D01*
D02*
G37*
G36*
X91368Y171075D02*
Y167925D01*
X91171Y167728D01*
X88060D01*
X87864Y167925D01*
Y168823D01*
X89360D01*
Y170122D01*
X87864D01*
Y171075D01*
X88060Y171272D01*
X91171D01*
X91368Y171075D01*
D02*
G37*
G36*
X85108D02*
Y170122D01*
X83651D01*
Y168823D01*
X85108D01*
Y167925D01*
X84911Y167728D01*
X81761D01*
X81564Y167925D01*
Y171075D01*
X81761Y171272D01*
X84911D01*
X85108Y171075D01*
D02*
G37*
G36*
X102436Y135575D02*
Y132425D01*
X102239Y132228D01*
X99089D01*
X98892Y132425D01*
Y133378D01*
X100349D01*
Y134677D01*
X98892D01*
Y135575D01*
X99089Y135772D01*
X102239D01*
X102436Y135575D01*
D02*
G37*
G36*
X96136D02*
Y134677D01*
X94640D01*
Y133378D01*
X96136D01*
Y132425D01*
X95940Y132228D01*
X92829D01*
X92633Y132425D01*
Y135575D01*
X92829Y135772D01*
X95940D01*
X96136Y135575D01*
D02*
G37*
G36*
X140772Y135171D02*
Y132060D01*
X140575Y131864D01*
X139677D01*
Y133360D01*
X138378D01*
Y131864D01*
X137425D01*
X137228Y132060D01*
Y135171D01*
X137425Y135368D01*
X140575D01*
X140772Y135171D01*
D02*
G37*
G36*
Y128911D02*
Y125761D01*
X140575Y125564D01*
X137425D01*
X137228Y125761D01*
Y128911D01*
X137425Y129108D01*
X138378D01*
Y127651D01*
X139677D01*
Y129108D01*
X140575D01*
X140772Y128911D01*
D02*
G37*
G36*
X78936Y84575D02*
Y81425D01*
X78739Y81228D01*
X75589D01*
X75392Y81425D01*
Y82378D01*
X76849D01*
Y83677D01*
X75392D01*
Y84575D01*
X75589Y84772D01*
X78739D01*
X78936Y84575D01*
D02*
G37*
G36*
X72636D02*
Y83677D01*
X71140D01*
Y82378D01*
X72636D01*
Y81425D01*
X72440Y81228D01*
X69329D01*
X69133Y81425D01*
Y84575D01*
X69329Y84772D01*
X72440D01*
X72636Y84575D01*
D02*
G37*
G36*
X97272Y84239D02*
Y81089D01*
X97075Y80892D01*
X96122D01*
Y82349D01*
X94823D01*
Y80892D01*
X93925D01*
X93728Y81089D01*
Y84239D01*
X93925Y84436D01*
X97075D01*
X97272Y84239D01*
D02*
G37*
G36*
Y77940D02*
Y74829D01*
X97075Y74633D01*
X93925D01*
X93728Y74829D01*
Y77940D01*
X93925Y78136D01*
X94823D01*
Y76640D01*
X96122D01*
Y78136D01*
X97075D01*
X97272Y77940D01*
D02*
G37*
G36*
X139272Y76739D02*
Y73589D01*
X139075Y73392D01*
X138122D01*
Y74849D01*
X136823D01*
Y73392D01*
X135925D01*
X135728Y73589D01*
Y76739D01*
X135925Y76936D01*
X139075D01*
X139272Y76739D01*
D02*
G37*
G36*
X131272D02*
Y73589D01*
X131075Y73392D01*
X130122D01*
Y74849D01*
X128823D01*
Y73392D01*
X127925D01*
X127728Y73589D01*
Y76739D01*
X127925Y76936D01*
X131075D01*
X131272Y76739D01*
D02*
G37*
G36*
X139272Y70440D02*
Y67329D01*
X139075Y67133D01*
X135925D01*
X135728Y67329D01*
Y70440D01*
X135925Y70636D01*
X136823D01*
Y69140D01*
X138122D01*
Y70636D01*
X139075D01*
X139272Y70440D01*
D02*
G37*
G36*
X131272D02*
Y67329D01*
X131075Y67133D01*
X127925D01*
X127728Y67329D01*
Y70440D01*
X127925Y70636D01*
X128823D01*
Y69140D01*
X130122D01*
Y70636D01*
X131075D01*
X131272Y70440D01*
D02*
G37*
G36*
X117772Y32239D02*
Y29128D01*
X117575Y28932D01*
X116677D01*
Y30428D01*
X115378D01*
Y28932D01*
X114425D01*
X114228Y29128D01*
Y32239D01*
X114425Y32436D01*
X117575D01*
X117772Y32239D01*
D02*
G37*
G36*
X109272Y32239D02*
Y29089D01*
X109075Y28892D01*
X108122D01*
Y30349D01*
X106823D01*
Y28892D01*
X105925D01*
X105728Y29089D01*
Y32239D01*
X105925Y32436D01*
X109075D01*
X109272Y32239D01*
D02*
G37*
G36*
X22097Y32941D02*
Y27902D01*
X21900Y27705D01*
X17372D01*
X17175Y27902D01*
X17155Y29516D01*
X18927D01*
Y31287D01*
X17195D01*
X17175Y32941D01*
X17372Y33138D01*
X21900D01*
X22097Y32941D01*
D02*
G37*
G36*
X13632D02*
X13632Y31287D01*
X11880D01*
Y29516D01*
X13612D01*
X13632Y27902D01*
X13435Y27705D01*
X8908D01*
X8711Y27902D01*
Y32941D01*
X8908Y33138D01*
X13435D01*
X13632Y32941D01*
D02*
G37*
G36*
X117772Y25979D02*
Y22829D01*
X117575Y22632D01*
X114425D01*
X114228Y22829D01*
Y25979D01*
X114425Y26176D01*
X115378D01*
Y24719D01*
X116677D01*
Y26176D01*
X117575D01*
X117772Y25979D01*
D02*
G37*
G36*
X109272Y25940D02*
Y22829D01*
X109075Y22633D01*
X105925D01*
X105728Y22829D01*
Y25940D01*
X105925Y26136D01*
X106823D01*
Y24640D01*
X108122D01*
Y26136D01*
X109075D01*
X109272Y25940D01*
D02*
G37*
G36*
X60788Y25641D02*
X61342Y25088D01*
X61642Y24364D01*
Y23972D01*
Y21610D01*
Y21219D01*
X61342Y20495D01*
X60788Y19941D01*
X60065Y19642D01*
X59282D01*
X58558Y19941D01*
X58004Y20495D01*
X57705Y21219D01*
Y21610D01*
Y23972D01*
Y24364D01*
X58004Y25088D01*
X58558Y25641D01*
X59282Y25941D01*
X60065D01*
X60788Y25641D01*
D02*
G37*
G36*
X32442D02*
X32996Y25088D01*
X33295Y24364D01*
Y23972D01*
Y21610D01*
Y21219D01*
X32996Y20495D01*
X32442Y19941D01*
X31718Y19642D01*
X30935D01*
X30212Y19941D01*
X29658Y20495D01*
X29358Y21219D01*
Y21610D01*
Y23972D01*
Y24364D01*
X29658Y25088D01*
X30212Y25641D01*
X30935Y25941D01*
X31718D01*
X32442Y25641D01*
D02*
G37*
G36*
X51405Y18498D02*
X49831D01*
Y24798D01*
X51405D01*
Y18498D01*
D02*
G37*
G36*
X48846D02*
X47272D01*
Y24798D01*
X48846D01*
Y18498D01*
D02*
G37*
G36*
X46287D02*
X44713D01*
Y24798D01*
X46287D01*
Y18498D01*
D02*
G37*
G36*
X43728D02*
X42153D01*
Y24798D01*
X43728D01*
Y18498D01*
D02*
G37*
G36*
X41169D02*
X39594D01*
Y24798D01*
X41169D01*
Y18498D01*
D02*
G37*
G36*
X22402Y20575D02*
Y17425D01*
X22205Y17228D01*
X19055D01*
X18858Y17425D01*
Y18378D01*
X20315D01*
Y19677D01*
X18858D01*
Y20575D01*
X19055Y20772D01*
X22205D01*
X22402Y20575D01*
D02*
G37*
G36*
X16102D02*
Y19677D01*
X14606D01*
Y18378D01*
X16102D01*
Y17425D01*
X15906Y17228D01*
X12795D01*
X12598Y17425D01*
Y20575D01*
X12795Y20772D01*
X15906D01*
X16102Y20575D01*
D02*
G37*
G36*
X125923Y15508D02*
Y9492D01*
X125529Y9098D01*
X120470D01*
X120077Y9492D01*
Y10950D01*
X120470Y11344D01*
X121671D01*
X122064Y11737D01*
Y13263D01*
X121671Y13656D01*
X120470D01*
X120077Y14050D01*
Y15508D01*
X120470Y15902D01*
X125529D01*
X125923Y15508D01*
D02*
G37*
G36*
X113383D02*
Y14050D01*
X112990Y13656D01*
X111789D01*
X111396Y13263D01*
Y11737D01*
X111789Y11344D01*
X112990D01*
X113383Y10950D01*
Y9492D01*
X112990Y9098D01*
X107931D01*
X107537Y9492D01*
Y15508D01*
X107931Y15902D01*
X112990D01*
X113383Y15508D01*
D02*
G37*
G36*
X60788Y12846D02*
X61342Y12292D01*
X61642Y11569D01*
Y11177D01*
Y7240D01*
Y6849D01*
X61342Y6125D01*
X60788Y5571D01*
X60065Y5272D01*
X59282D01*
X58558Y5571D01*
X58004Y6125D01*
X57705Y6849D01*
Y7240D01*
Y11177D01*
Y11569D01*
X58004Y12292D01*
X58558Y12846D01*
X59282Y13146D01*
X60065D01*
X60788Y12846D01*
D02*
G37*
G36*
X32442D02*
X32996Y12292D01*
X33295Y11569D01*
Y11177D01*
Y7240D01*
Y6849D01*
X32996Y6125D01*
X32442Y5571D01*
X31718Y5272D01*
X30935D01*
X30212Y5571D01*
X29658Y6125D01*
X29358Y6849D01*
Y7240D01*
Y11177D01*
Y11569D01*
X29658Y12292D01*
X30212Y12846D01*
X30935Y13146D01*
X31718D01*
X32442Y12846D01*
D02*
G37*
D25*
X120000Y105500D02*
D03*
D26*
X121944Y122760D02*
D03*
X123337Y121368D02*
D03*
X124730Y119975D02*
D03*
X126123Y118581D02*
D03*
X127516Y117189D02*
D03*
X128909Y115796D02*
D03*
X130295Y114409D02*
D03*
X131688Y113017D02*
D03*
X133081Y111624D02*
D03*
X134474Y110231D02*
D03*
X135867Y108837D02*
D03*
X137260Y107445D02*
D03*
X118055Y88240D02*
D03*
X116662Y89632D02*
D03*
X115269Y91026D02*
D03*
X113876Y92418D02*
D03*
X112483Y93812D02*
D03*
X111090Y95205D02*
D03*
X109704Y96590D02*
D03*
X108311Y97983D02*
D03*
X106918Y99376D02*
D03*
X105525Y100769D02*
D03*
X104132Y102163D02*
D03*
X102739Y103556D02*
D03*
D27*
X137260D02*
D03*
X135867Y102163D02*
D03*
X134474Y100769D02*
D03*
X133081Y99376D02*
D03*
X131688Y97983D02*
D03*
X130295Y96590D02*
D03*
X128909Y95205D02*
D03*
X127516Y93812D02*
D03*
X126123Y92418D02*
D03*
X124730Y91026D02*
D03*
X123337Y89632D02*
D03*
X121944Y88240D02*
D03*
X102739Y107445D02*
D03*
X104132Y108837D02*
D03*
X105525Y110231D02*
D03*
X106918Y111624D02*
D03*
X108311Y113017D02*
D03*
X109704Y114409D02*
D03*
X111090Y115796D02*
D03*
X112483Y117189D02*
D03*
X113876Y118581D02*
D03*
X115269Y119975D02*
D03*
X116662Y121368D02*
D03*
X118055Y122760D02*
D03*
D28*
X134500Y28986D02*
D03*
Y52014D02*
D03*
D29*
X129205Y173973D02*
D03*
X135500Y174000D02*
D03*
D30*
X70400Y40000D02*
D03*
X76000D02*
D03*
X123200Y144500D02*
D03*
X128800D02*
D03*
X142800D02*
D03*
X137200D02*
D03*
X89000Y176000D02*
D03*
X83400D02*
D03*
X77000Y75000D02*
D03*
X71400D02*
D03*
X94500Y141000D02*
D03*
X88900D02*
D03*
X100900D02*
D03*
X106500D02*
D03*
D31*
X93050Y57000D02*
D03*
Y52000D02*
D03*
Y47000D02*
D03*
Y42000D02*
D03*
X115950D02*
D03*
Y47000D02*
D03*
Y52000D02*
D03*
Y57000D02*
D03*
D32*
X104500Y49500D02*
D03*
D33*
X34500Y33547D02*
D03*
Y39452D02*
D03*
X42500D02*
D03*
Y33547D02*
D03*
X50500Y39452D02*
D03*
Y33547D02*
D03*
D34*
X59939Y63000D02*
D03*
Y58000D02*
D03*
Y53000D02*
D03*
Y48000D02*
D03*
X81061Y63000D02*
D03*
Y58000D02*
D03*
Y53000D02*
D03*
Y48000D02*
D03*
D35*
X144000Y97500D02*
D03*
X147960Y101460D02*
D03*
X87540Y113540D02*
D03*
X91500Y117500D02*
D03*
D36*
X128078Y153000D02*
D03*
X137922D02*
D03*
D37*
X105000Y155500D02*
D03*
X96338D02*
D03*
Y148610D02*
D03*
X105000D02*
D03*
D38*
X80398Y187000D02*
D03*
X97602D02*
D03*
D39*
X20527Y6205D02*
D03*
X20500Y12500D02*
D03*
X97000Y28610D02*
D03*
X97027Y22315D02*
D03*
X87888Y22705D02*
D03*
X87862Y29000D02*
D03*
X78638Y28610D02*
D03*
X78666Y22315D02*
D03*
X69527Y22705D02*
D03*
X69500Y29000D02*
D03*
D40*
X136166Y17368D02*
D03*
X140102D02*
D03*
D41*
X130252Y9500D02*
D03*
X146000D02*
D03*
D42*
X20803Y157358D02*
D03*
Y133736D02*
D03*
X71197D02*
D03*
Y145547D02*
D03*
Y157358D02*
D03*
Y163264D02*
D03*
X20803Y151453D02*
D03*
Y163264D02*
D03*
Y169169D02*
D03*
Y127831D02*
D03*
X71197Y139642D02*
D03*
Y169169D02*
D03*
X20803Y139642D02*
D03*
X71197Y127831D02*
D03*
X20803Y145547D02*
D03*
X71197Y151453D02*
D03*
D43*
X46693Y64500D02*
D03*
D44*
X23307Y55445D02*
D03*
Y64500D02*
D03*
Y73555D02*
D03*
D45*
X115500Y78500D02*
D03*
X111540Y82460D02*
D03*
X124500Y130500D02*
D03*
X128460Y126540D02*
D03*
D46*
X41139Y86000D02*
D03*
X27861D02*
D03*
X8361Y41000D02*
D03*
X21639D02*
D03*
D47*
X63000Y83000D02*
D03*
Y77400D02*
D03*
X103000Y82000D02*
D03*
Y76400D02*
D03*
M02*
