G04*
G04 #@! TF.GenerationSoftware,Altium Limited,Altium Designer,22.11.1 (43)*
G04*
G04 Layer_Color=16711935*
%FSLAX25Y25*%
%MOIN*%
G70*
G04*
G04 #@! TF.SameCoordinates,CE4FA216-54C7-4044-9C64-AD491F851F59*
G04*
G04*
G04 #@! TF.FilePolarity,Negative*
G04*
G01*
G75*
%ADD73R,0.06247X0.07203*%
%ADD75O,0.06699X0.06699*%
%ADD76O,0.08274X0.10636*%
%ADD77R,0.07493X0.07493*%
%ADD78C,0.07493*%
%ADD79O,0.04337X0.08274*%
%ADD80O,0.04337X0.06699*%
%ADD81C,0.06699*%
%ADD82C,0.06299*%
%ADD109R,0.07203X0.06247*%
D73*
X131460Y30500D02*
D03*
X144000D02*
D03*
D75*
X77126Y9000D02*
D03*
X92874D02*
D03*
X85000D02*
D03*
D76*
X101339D02*
D03*
X68661D02*
D03*
D77*
X111500Y191000D02*
D03*
D78*
X121500D02*
D03*
X131500D02*
D03*
X141500D02*
D03*
D79*
X31332Y9208D02*
D03*
X59672Y9214D02*
D03*
D80*
X59669Y22793D02*
D03*
X31329Y22787D02*
D03*
D81*
X154020Y24095D02*
D03*
Y35906D02*
D03*
X161500Y30000D02*
D03*
D82*
X158268Y143425D02*
D03*
Y133425D02*
D03*
Y123425D02*
D03*
Y113425D02*
D03*
Y103425D02*
D03*
Y93425D02*
D03*
Y83425D02*
D03*
Y73425D02*
D03*
Y63425D02*
D03*
Y53425D02*
D03*
X7087Y143425D02*
D03*
Y133425D02*
D03*
Y123425D02*
D03*
Y113425D02*
D03*
Y103425D02*
D03*
Y93425D02*
D03*
Y83425D02*
D03*
Y73425D02*
D03*
Y63425D02*
D03*
Y53425D02*
D03*
D109*
X112000Y45230D02*
D03*
Y57770D02*
D03*
X100500Y45230D02*
D03*
Y57770D02*
D03*
X132500Y44960D02*
D03*
Y57500D02*
D03*
X146500D02*
D03*
Y44960D02*
D03*
M02*
