M48
;Layer_Color=9474304
;FILE_FORMAT=2:5
INCH,LZ
;TYPE=PLATED
T1F00S00C0.01200
T4F00S00C0.03150
T5F00S00C0.03937
T7F00S00C0.04331
%
T01
X00095Y0019
X0077126Y0015874
X0084Y0019
X00955Y0016
X01075Y00205
X01195Y00305
X0122Y0057
X01075Y0051
X01015
X0093Y0061
X0088Y0069
X00745Y0063
X007695Y00445
X00545Y0041
X005Y00545
X00435
X00375Y0062
Y007
Y00795
X00435
X005
X00465Y0086
X0059Y00915
X00665Y00925
X007Y01065
Y0111
X00705Y01155
X00715Y0121
X00815Y01215
X00865
X00835Y0117
X0085Y01045
X0094Y01015
X00985Y0099
X0098Y00875
X00925
X01065Y00715
X01125Y00685
X0112Y0075
X012237Y008337
X0127Y0086
X01255Y00995
X0131Y0105
X01255Y0111
X012Y01165
X01145Y0111
X012Y01055
X0109
X01145Y00995
X012Y0094
X0149Y0093
X0147Y00885
X01435Y008
X01465Y0068
X015Y0107
X01435Y0108
X01335Y0123
X0133Y0136
X01275Y0134
X01185Y01305
X01065Y01275
Y01355
X01145Y01435
X011439Y014861
X0118Y0146
Y0157
X01145Y0158
X011Y01625
X0102Y0168
X00945Y01695
X0096169Y0162331
X00885Y01625
X0084Y0158
Y0150086
Y0142172
X00889Y013505
X0091Y0127
X00775Y0126
X00635Y01315
Y01445
Y0157
X00515
Y0169
X00635
X00395
X0028169Y0163264
X0108Y01785
X01145
X01205Y0167
X01225Y01615
X013325
X0136Y0167
X01435Y01685
X0144Y01615
X0147Y01575
Y01465
X01625Y0156
Y01645
X0152Y01745
X0031Y0065
X00315Y0056
Y0051
X00275Y00475
X00205
X0024Y0051
X0028Y0033
X00265Y00265
X00345Y00295
X0006Y00255
Y0036
X0017Y0051
Y0056
X00155Y0065
X01145Y01835
T04
X0158268Y0053425
Y0063425
Y0073425
Y0083425
Y0093425
Y0103425
Y0113425
Y0123425
Y0133425
Y0143425
X0007087
Y0133425
Y0123425
Y0113425
Y0103425
Y0093425
Y0083425
Y0073425
Y0063425
Y0053425
T05
X0077126Y0009
X0085Y0009
X0092874
X015402Y0024095
Y0035906
X01615Y003
T07
X01115Y0191
X01215
X01315
X01415
M30
