G04*
G04 #@! TF.GenerationSoftware,Altium Limited,Altium Designer,22.11.1 (43)*
G04*
G04 Layer_Color=16711935*
%FSLAX25Y25*%
%MOIN*%
G70*
G04*
G04 #@! TF.SameCoordinates,CE4FA216-54C7-4044-9C64-AD491F851F59*
G04*
G04*
G04 #@! TF.FilePolarity,Positive*
G04*
G01*
G75*
%ADD111C,0.00039*%
D111*
X70050Y41550D02*
X76350D01*
X70050Y38400D02*
X76350D01*
X142657Y98349D02*
X147111Y102803D01*
X144884Y96122D02*
X149338Y100576D01*
X122850Y146050D02*
X129150D01*
X122850Y142900D02*
X129150D01*
X136850Y142950D02*
X143150D01*
X136850Y146100D02*
X143150D01*
X83050Y174450D02*
X89350D01*
X83050Y177600D02*
X89350D01*
X110162Y81576D02*
X114616Y77121D01*
X112389Y83803D02*
X116843Y79348D01*
X125384Y131879D02*
X129838Y127424D01*
X123157Y129651D02*
X127611Y125197D01*
X86162Y114424D02*
X90616Y118879D01*
X88389Y112197D02*
X92843Y116651D01*
X64600Y77050D02*
Y83350D01*
X61450Y77050D02*
Y83350D01*
X71050Y73400D02*
X77350D01*
X71050Y76550D02*
X77350D01*
X88550Y139400D02*
X94850D01*
X88550Y142550D02*
X94850D01*
X100550Y142600D02*
X106850D01*
X100550Y139450D02*
X106850D01*
X104600Y76050D02*
Y82350D01*
X101450Y76050D02*
Y82350D01*
M02*
